<?xml version="1.0" encoding="UTF-8"?>
<svg version="1.1" xmlns="http://www.w3.org/2000/svg" width="512" height="512">
<path d="M0 0 C1.76376423 -0.00807831 1.76376423 -0.00807831 3.56316006 -0.01631981 C6.80954184 -0.02811318 10.05559245 -0.02654596 13.30197692 -0.019153 C16.80992346 -0.01441083 20.31781567 -0.02694046 23.82574463 -0.03717041 C30.69146481 -0.05434355 37.55709341 -0.05520148 44.42282949 -0.04995751 C50.00513312 -0.04591162 55.58740973 -0.04736434 61.16971207 -0.05270576 C61.96504496 -0.05345419 62.76037784 -0.05420261 63.57981173 -0.05497371 C65.19567815 -0.05650523 66.81154457 -0.05804358 68.42741098 -0.05958868 C83.57198119 -0.07330848 98.71649971 -0.06787981 113.86106874 -0.05640347 C127.70515559 -0.04647276 141.54910876 -0.05940985 155.39317499 -0.08333766 C169.62034658 -0.10774167 183.84745593 -0.11733326 198.07464802 -0.11068493 C206.0572906 -0.10719546 214.0398304 -0.10940673 222.02245712 -0.12693596 C228.81824861 -0.14167429 235.61386494 -0.14227221 242.40965305 -0.12486505 C245.87426308 -0.11636578 249.33856045 -0.11417873 252.80315399 -0.1295166 C256.56551536 -0.14271554 260.32703032 -0.13118685 264.08935547 -0.11352539 C265.17536321 -0.1231304 266.26137094 -0.1327354 267.380288 -0.14263147 C276.6811254 -0.05298152 284.72811644 2.22873242 291.64041138 8.68455505 C298.85994208 16.71444125 300.53267933 24.84521853 300.54666138 35.38768005 C300.57115356 36.35963318 300.59564575 37.3315863 300.62088013 38.33299255 C300.64478441 44.18157445 300.29596177 47.8934258 296.17166138 52.38768005 C290.5586869 57.44143682 285.06445654 56.90917481 277.77322388 56.77830505 C276.58312714 56.77264526 275.3930304 56.76698547 274.16687012 56.76115417 C270.37638651 56.73881457 266.58685793 56.68861968 262.79666138 56.63768005 C260.22245631 56.61761206 257.64823638 56.59936182 255.07400513 56.58299255 C248.77289959 56.5389575 242.47234873 56.4720681 236.17166138 56.38768005 C236.19260864 57.54703064 236.21355591 58.70638123 236.23513794 59.90086365 C236.30808368 64.24318362 236.35365765 68.58545055 236.39138794 72.9282074 C236.41138001 74.80004515 236.43858306 76.67182143 236.47341919 78.54344177 C236.90255866 102.20922159 236.90255866 102.20922159 227.87478638 111.8525238 C223.18616115 116.07873874 218.58032631 118.90703018 212.17166138 119.38768005 C212.17166138 120.04768005 212.17166138 120.70768005 212.17166138 121.38768005 C212.97603638 121.42893005 213.78041138 121.47018005 214.60916138 121.51268005 C222.06714121 123.34446457 227.38507766 127.99176872 231.88259888 134.06736755 C236.23297753 141.89804913 236.67475088 148.58649175 236.6177063 157.47898865 C236.60914755 159.51597194 236.63810665 161.55018787 236.66970825 163.5868988 C236.66906372 164.88498474 236.66841919 166.18307068 236.66775513 167.52049255 C236.66960815 168.69498962 236.67146118 169.86948669 236.67337036 171.07957458 C235.93883616 175.92285365 233.68168371 179.05530741 230.04666138 182.26268005 C228.17166138 183.38768005 228.17166138 183.38768005 226.17166138 183.38768005 C226.17166138 184.04768005 226.17166138 184.70768005 226.17166138 185.38768005 C227.28541138 185.72799255 227.28541138 185.72799255 228.42166138 186.07518005 C232.26312701 187.90860683 234.2865455 190.61744829 236.17166138 194.38768005 C236.27296449 196.0375227 236.31110682 197.69141334 236.3188324 199.34434509 C236.32956535 200.9170668 236.32956535 200.9170668 236.34051514 202.52156067 C236.34320404 203.67685272 236.34589294 204.83214478 236.34866333 206.02244568 C236.35523453 207.23562469 236.36180573 208.44880371 236.36857605 209.69874573 C236.38835268 213.73047631 236.39998522 217.76216701 236.40994263 221.79393005 C236.41399074 223.1836143 236.41810768 224.57329834 236.42229271 225.96298218 C236.44135391 232.49730072 236.45557851 239.03160795 236.46390468 245.56594896 C236.4736571 253.09470957 236.49992004 260.62317459 236.54040557 268.15183115 C236.5706528 273.97788434 236.58538199 279.80385329 236.58868569 285.62998343 C236.59102798 289.10573021 236.59987898 292.5811616 236.62514687 296.05682373 C236.65294656 299.94389578 236.64857021 303.83058585 236.64163208 307.71775818 C236.66084717 309.42640549 236.66084717 309.42640549 236.68045044 311.16957092 C236.61893052 320.65862823 234.48366326 328.79304168 227.87478638 335.8525238 C223.18616115 340.07873874 218.58032631 342.90703018 212.17166138 343.38768005 C212.17166138 344.04768005 212.17166138 344.70768005 212.17166138 345.38768005 C212.97603638 345.42893005 213.78041138 345.47018005 214.60916138 345.51268005 C222.06714121 347.34446457 227.38507766 351.99176872 231.88259888 358.06736755 C235.51212868 364.6005212 236.63216816 370.21221449 236.60525513 377.56736755 C236.61049698 378.42017303 236.61573883 379.27297852 236.62113953 380.15162659 C236.6275254 381.94498106 236.62626758 383.73837761 236.6177063 385.53172302 C236.60920479 388.24880484 236.63799089 390.9637744 236.66970825 393.6806488 C236.71674526 405.21273075 236.13272339 415.01459851 227.87478638 423.85643005 C219.61116678 431.28610639 211.39435317 432.685647 200.58383179 432.65510559 C199.40969782 432.6596367 198.23556385 432.66416782 197.02585006 432.66883624 C193.77501642 432.67929501 190.52432216 432.68080802 187.27347708 432.67844748 C183.76413996 432.67803883 180.25483568 432.68908312 176.74551392 432.69856262 C169.87285521 432.71516356 163.00023081 432.72067177 156.12755373 432.72178738 C150.53948592 432.72273835 144.95142941 432.72685111 139.36336517 432.73318863 C123.51225678 432.75079913 107.66117544 432.76002788 91.81005719 432.75852768 C90.95582212 432.75844777 90.10158705 432.75836786 89.22146606 432.75828552 C87.93854465 432.75816288 87.93854465 432.75816288 86.62970564 432.75803776 C72.77256328 432.75722508 58.91552968 432.77635879 45.05841878 432.80456226 C30.82227657 432.83330797 16.58618737 432.8471016 2.3500154 432.8453747 C-5.63937107 432.84471135 -13.62864355 432.85017957 -21.61800385 432.8717308 C-28.42115445 432.88996491 -35.22413941 432.89427177 -42.0273039 432.88071196 C-45.49595686 432.87419325 -48.96429222 432.87402478 -52.43291473 432.89141846 C-56.1997508 432.90686333 -59.96575617 432.89756617 -63.73257446 432.88215637 C-64.81994644 432.8924435 -65.90731842 432.90273062 -67.02764106 432.91332948 C-76.33388258 432.82936574 -84.38072217 430.55043033 -91.29708862 424.09080505 C-98.51661933 416.06091886 -100.18935658 407.93014158 -100.20333862 397.38768005 C-100.2400769 395.92975037 -100.2400769 395.92975037 -100.27755737 394.44236755 C-100.30146166 388.59378566 -99.95263902 384.88193431 -95.82833862 380.38768005 C-90.45984104 375.79667444 -85.92398795 375.78680158 -79.17990112 375.77830505 C-78.16737274 375.7617688 -77.15484436 375.74523254 -76.1116333 375.72819519 C-72.89213958 375.67978736 -69.67311801 375.65835974 -66.45333862 375.63768005 C-64.26451288 375.60951442 -62.07570906 375.57958617 -59.88693237 375.5478363 C-54.5341533 375.47403057 -49.18150661 375.42234575 -43.82833862 375.38768005 C-45.27079956 374.21012146 -45.27079956 374.21012146 -46.74240112 373.0087738 C-49.21195864 370.99274093 -50.87887351 369.52091494 -51.82833862 366.38768005 C-51.95333862 363.13768005 -51.95333862 363.13768005 -51.82833862 360.38768005 C-52.77708862 360.28455505 -53.72583862 360.18143005 -54.70333862 360.07518005 C-57.82833862 359.38768005 -57.82833862 359.38768005 -59.82833862 356.38768005 C-60.03337648 353.57027549 -60.12203621 350.85090303 -60.11886597 348.03245544 C-60.12558319 347.18012833 -60.13230042 346.32780121 -60.13922119 345.449646 C-60.15824123 342.62815037 -60.16212727 339.80689207 -60.16427612 336.9853363 C-60.17070082 335.02622377 -60.17742893 333.0671122 -60.18444824 331.10800171 C-60.19643072 326.99978917 -60.20012802 322.89166079 -60.19894409 318.78343201 C-60.19874075 313.51609748 -60.22605464 308.24930156 -60.26048851 302.98209476 C-60.28271143 298.93550125 -60.28678306 294.88903836 -60.28572464 290.84239006 C-60.2880871 288.90028971 -60.29694677 286.9581861 -60.31238937 285.01614571 C-60.33195809 282.30114485 -60.32624771 279.58731845 -60.31417847 276.87229919 C-60.32541748 276.06852844 -60.33665649 275.26475769 -60.34823608 274.43663025 C-60.30829362 270.90560588 -60.10489795 268.78073144 -58.04797363 265.85739136 C-55.82833862 264.38768005 -55.82833862 264.38768005 -51.82833862 264.38768005 C-51.82833862 259.10768005 -51.82833862 253.82768005 -51.82833862 248.38768005 C-53.93208862 248.47018005 -56.03583862 248.55268005 -58.20333862 248.63768005 C-82.44248756 248.93423287 -106.77399664 238.04675279 -124.82833862 222.38768005 C-125.63658081 221.72381287 -126.444823 221.05994568 -127.27755737 220.3759613 C-143.94729438 206.21846095 -154.70538877 187.17509481 -160.82833862 166.38768005 C-161.16865112 165.28166443 -161.50896362 164.1756488 -161.85958862 163.03611755 C-168.90340542 135.18695299 -163.81365544 104.27586632 -149.69552612 79.5400238 C-133.88343187 53.28651952 -110.2690479 36.07788247 -81.18380737 27.2118988 C-70.7381898 24.64609518 -60.84124838 24.13599141 -50.14083862 24.26268005 C-48.64930822 24.27273714 -47.1577712 24.28185813 -45.66622925 24.2900238 C-42.05345889 24.31180462 -38.4409427 24.34618155 -34.82833862 24.38768005 C-34.61576416 22.97518982 -34.61576416 22.97518982 -34.39889526 21.53416443 C-33.07533692 14.23505446 -27.94301647 8.96607794 -22.14865112 4.67674255 C-14.68002274 0.52750456 -8.40944502 -0.04634807 0 0 Z " fill="#F9BD19" transform="translate(195.82833862304688,39.61231994628906)"/>
<path d="M0 0 C1.25842712 -0.00428513 2.51685425 -0.00857025 3.81341553 -0.01298523 C6.46250602 -0.01869899 9.11120314 -0.02020003 11.76025391 -0.01489258 C14.44434378 -0.0102647 17.12798028 -0.0171717 19.81201172 -0.03540039 C48.307919 -0.2154003 48.307919 -0.2154003 60.546875 3.30078125 C61.80177734 3.62937134 61.80177734 3.62937134 63.08203125 3.96459961 C65.22354819 4.55457647 67.31892897 5.21141008 69.421875 5.92578125 C70.16308594 6.17666504 70.90429688 6.42754883 71.66796875 6.68603516 C84.18726589 11.12127685 95.63166144 17.4337965 105.546875 26.30078125 C106.36285156 26.9865625 107.17882812 27.67234375 108.01953125 28.37890625 C128.81373178 46.24842015 143.33243971 72.73240668 145.546875 100.30078125 C146.17010632 113.54536501 146.1950379 126.47693592 142.546875 139.30078125 C142.25683594 140.33912109 142.25683594 140.33912109 141.9609375 141.3984375 C137.42952641 157.2583763 130.60991217 171.92990442 119.546875 184.30078125 C118.86109375 185.11675781 118.1753125 185.93273437 117.46875 186.7734375 C99.27442419 207.9456116 73.11207197 220.74185631 45.546875 224.30078125 C41.06330901 224.58262152 36.59318213 224.62819019 32.1015625 224.63671875 C30.22671677 224.64670395 30.22671677 224.64670395 28.31399536 224.65689087 C25.68362892 224.66695681 23.05323725 224.67170978 20.42285156 224.67138672 C16.45346705 224.67114456 12.48482777 224.71209963 8.515625 224.75 C-21.54725144 224.88390196 -48.34032831 218.34720359 -71.453125 198.30078125 C-72.26136719 197.63691406 -73.06960937 196.97304688 -73.90234375 196.2890625 C-90.57208076 182.13156215 -101.33017515 163.08819601 -107.453125 142.30078125 C-107.7934375 141.19476563 -108.13375 140.08875 -108.484375 138.94921875 C-115.5281918 111.10005418 -110.43844182 80.18896752 -96.3203125 55.453125 C-80.50821825 29.19962072 -56.89383427 11.99098366 -27.80859375 3.125 C-18.46894123 0.83085951 -9.61467112 -0.0073841 0 0 Z " fill="#55596D" transform="translate(142.453125,63.69921875)"/>
<path d="M0 0 C1.70397949 0.00858032 1.70397949 0.00858032 3.44238281 0.01733398 C12.91225503 0.21737325 20.55952661 1.70692045 29.25 5.5 C29.85730957 5.75700684 30.46461914 6.01401367 31.09033203 6.27880859 C50.19422039 14.48778621 63.50737268 28.92252917 72.25 47.5 C73.52601155 50.80388177 74.45171963 54.05632336 75.25 57.5 C75.76626953 59.03333984 75.76626953 59.03333984 76.29296875 60.59765625 C81.53560647 78.90158757 76.38001267 100.58132325 67.44921875 116.83984375 C55.77166087 136.89195316 37.90612301 147.52854833 16.25 153.5 C15.26 153.83 14.27 154.16 13.25 154.5 C-0.21008895 155.45103445 -14.18473613 155.90687112 -26.75 150.5 C-27.3908252 150.22623535 -28.03165039 149.9524707 -28.69189453 149.67041016 C-47.26016597 141.55805856 -62.40122199 128.22985509 -70.75 109.5 C-72.74103797 104.26262657 -74.26175216 98.89729368 -75.75 93.5 C-76.08 92.51 -76.41 91.52 -76.75 90.5 C-77.70103445 77.03991105 -78.15687112 63.06526387 -72.75 50.5 C-72.47623535 49.8591748 -72.2024707 49.21834961 -71.92041016 48.55810547 C-62.90947268 27.93307079 -47.70465449 12.82989329 -26.81616211 4.23779297 C-17.94029116 1.06836345 -9.39043943 -0.05551068 0 0 Z " fill="#B8AE9A" transform="translate(143.75,98.5)"/>
<path d="M0 0 C1.01699213 -0.0055344 2.03398425 -0.01106879 3.08179432 -0.0167709 C6.48813314 -0.03037943 9.89373953 -0.01540643 13.30006409 -0.00050354 C15.74276541 -0.00428665 18.1854646 -0.00978661 20.62815857 -0.01687622 C26.5734337 -0.0293985 32.518515 -0.02325876 38.46376806 -0.00820064 C45.39010713 0.00867339 52.31639344 0.00544739 59.24274672 0.00170528 C71.60352954 -0.00417183 83.96421046 0.00999176 96.32496643 0.03465271 C108.31328655 0.05856786 120.3014705 0.06565881 132.28981018 0.05516052 C145.34948488 0.04374452 158.40909662 0.04183008 171.46877056 0.05625862 C172.86209523 0.05778442 174.2554199 0.05930478 175.64874458 0.06081963 C176.33425313 0.06157744 177.01976167 0.06233525 177.72604321 0.06311603 C182.55139508 0.067854 187.3767188 0.06601085 192.20207024 0.06175423 C198.70031362 0.05630559 205.1984104 0.0670958 211.69662094 0.08870888 C214.08187665 0.09427404 216.46715047 0.09474454 218.85240746 0.08975601 C222.10786893 0.08380136 225.36275447 0.09631259 228.61816406 0.11352539 C229.56252758 0.10751535 230.5068911 0.1015053 231.47987169 0.09531313 C237.63985687 0.15455396 242.72853716 0.85767683 247.61476135 4.96604919 C250.88886302 9.22238137 251.96090464 12.23506873 252.0483551 17.51292419 C252.24492753 29.56737357 252.24492753 29.56737357 256.87257385 40.50120544 C257.30698792 41.20503357 257.74140198 41.90886169 258.1889801 42.63401794 C262.85869405 49.53043472 268.86656574 53.29955321 276.87257385 55.50120544 C276.87257385 55.83120544 276.87257385 56.16120544 276.87257385 56.50120544 C242.26422747 56.59280573 207.65590882 56.66326688 173.04746736 56.70546676 C168.95954693 56.71046945 164.87162674 56.71564676 160.78370667 56.72093201 C159.96989194 56.72198125 159.15607721 56.72303049 158.31760143 56.72411153 C145.14877226 56.74150612 131.9800131 56.77303859 118.81122543 56.80981663 C105.29397317 56.84725238 91.77675753 56.86944686 78.25945556 56.87755942 C69.92177849 56.88304174 61.58429931 56.9003431 53.24668317 56.93287131 C47.52551177 56.95405175 41.80444236 56.96039753 36.08323462 56.95521095 C32.78470756 56.95265461 29.48659744 56.95871353 26.18811607 56.97802734 C22.60488856 56.99797759 19.02250242 56.99312521 15.43925476 56.98222351 C14.40615429 56.99387488 13.37305382 57.00552624 12.30864727 57.01753068 C3.16357858 56.94251287 -4.81270503 54.53983649 -11.59617615 48.20433044 C-18.81570685 40.17444425 -20.4884441 32.04366697 -20.50242615 21.50120544 C-20.52691833 20.52925232 -20.55141052 19.55729919 -20.5766449 18.55589294 C-20.60054918 12.70731105 -20.25172654 8.9954597 -16.12742615 4.50120544 C-10.83034922 0.01570709 -6.6259489 -0.06723291 0 0 Z " fill="#F5871D" transform="translate(116.12742614746094,415.49879455566406)"/>
<path d="M0 0 C4.28260115 -0.07552747 8.56482478 -0.12923302 12.84790039 -0.16479492 C14.29751354 -0.17965701 15.74708365 -0.19995267 17.1965332 -0.22631836 C30.60741992 -0.46372038 43.09701044 1.28431447 55.875 5.625 C56.61621094 5.87588379 57.35742188 6.12676758 58.12109375 6.38525391 C70.64039089 10.8204956 82.08478644 17.13301525 92 26 C92.81597656 26.68578125 93.63195312 27.3715625 94.47265625 28.078125 C115.26685678 45.9476389 129.78556471 72.43162543 132 100 C132.62323132 113.24458376 132.6481629 126.17615467 129 139 C128.70996094 140.03833984 128.70996094 140.03833984 128.4140625 141.09765625 C123.88265141 156.95759505 117.06303717 171.62912317 106 184 C105.31421875 184.81597656 104.6284375 185.63195312 103.921875 186.47265625 C85.95732333 207.37744929 59.40606471 220.9397837 32 224 C26.41231211 224.22261294 20.84050055 224.19158349 15.25 224.125 C13.76302693 224.11493973 12.27604719 224.10581932 10.7890625 224.09765625 C7.19256677 224.075908 3.596328 224.04155018 0 224 C0 223.67 0 223.34 0 223 C0.87398437 222.85304688 1.74796875 222.70609375 2.6484375 222.5546875 C28.41598308 217.85494648 53.5289033 207.25517447 71 187 C71.75410156 186.12601563 72.50820312 185.25203125 73.28515625 184.3515625 C85.0462225 170.16638934 92.41349904 153.74590093 97 136 C97.26554687 135.00484375 97.53109375 134.0096875 97.8046875 132.984375 C102.96699661 108.7993104 98.05676732 82.76801067 87 61 C86.505 59.98679688 86.01 58.97359375 85.5 57.9296875 C82.09085964 51.27815822 77.85833765 45.65758358 73 40 C72.33355469 39.18789062 71.66710937 38.37578125 70.98046875 37.5390625 C52.52519844 15.831008 27.3913233 5.93841327 0 1 C0 0.67 0 0.34 0 0 Z " fill="#473C4A" transform="translate(156,64)"/>
<path d="M0 0 C0.84812759 -0.00619858 1.69625519 -0.01239716 2.57008362 -0.01878357 C4.36124526 -0.0258775 6.15247289 -0.0227151 7.94360352 -0.01000977 C10.67913697 0.00384411 13.41124047 -0.03020234 16.14648438 -0.06835938 C17.88932375 -0.06931074 19.6321674 -0.06745079 21.375 -0.0625 C22.18972275 -0.07575821 23.0044455 -0.08901642 23.84385681 -0.10267639 C24.61137772 -0.09014328 25.37889862 -0.07761017 26.16967773 -0.06469727 C26.83934067 -0.0637355 27.5090036 -0.06277374 28.19895935 -0.06178284 C31.62776326 0.98638887 33.09582347 2.74790497 35.25390625 5.56640625 C35.74866609 8.55289603 35.93964793 10.967823 35.90087891 13.94921875 C35.9096405 14.78072449 35.9184021 15.61223022 35.9274292 16.46893311 C35.94938864 19.21029245 35.93488336 21.95003127 35.91796875 24.69140625 C35.92133789 26.60042632 35.92619133 28.5094443 35.9324646 30.41845703 C35.93983123 34.4165492 35.92913719 38.41408227 35.90576172 42.41210938 C35.87727403 47.53378806 35.89367913 52.65415672 35.92362404 57.77578735 C35.94170269 61.71697844 35.93593639 65.65785957 35.92298508 69.59906006 C35.91965263 71.48728592 35.92373247 73.37554005 35.93538284 75.26373291 C35.94810109 77.9044433 35.92870248 80.54304055 35.90087891 83.18359375 C35.91100006 83.96192566 35.92112122 84.74025757 35.93154907 85.54217529 C35.85452556 89.49337134 35.39724626 91.37920119 32.96873474 94.55088806 C30.33825084 96.50378791 29.35016449 97.19294199 26.16967773 97.19750977 C25.01839638 97.21630943 25.01839638 97.21630943 23.84385681 97.23548889 C23.02913406 97.22223068 22.21441132 97.20897247 21.375 97.1953125 C20.52591568 97.19772446 19.67683136 97.20013641 18.80201721 97.20262146 C17.01257644 97.20164465 15.22310484 97.1882906 13.43383789 97.16333008 C10.69638475 97.12896874 7.96215222 97.14269069 5.22460938 97.16210938 C3.4830592 97.15521193 1.74151733 97.14554046 0 97.1328125 C-0.81674698 97.13777237 -1.63349396 97.14273224 -2.47499084 97.14784241 C-5.78852539 97.07919198 -8.18002803 96.95080961 -10.96092224 95.06236267 C-13.48304036 91.53603655 -13.30583162 88.27461694 -13.26367188 84.09765625 C-13.27068115 83.24518311 -13.27769043 82.39270996 -13.28491211 81.5144043 C-13.30250943 78.69807305 -13.29086335 75.88274761 -13.27734375 73.06640625 C-13.28003817 71.108722 -13.28392017 69.15103905 -13.28894043 67.19335938 C-13.29483783 63.09101618 -13.28626468 58.98902143 -13.26757812 54.88671875 C-13.2447885 49.62719997 -13.25791028 44.36849761 -13.28186798 39.10900879 C-13.29631938 35.06666915 -13.29172298 31.0245232 -13.28135681 26.98217773 C-13.27868771 25.04288639 -13.28196572 23.10357748 -13.29127502 21.16430664 C-13.30142977 18.45411575 -13.28595503 15.7452485 -13.26367188 13.03515625 C-13.2717688 12.23295654 -13.27986572 11.43075684 -13.28820801 10.60424805 C-13.23460743 7.0869016 -13.03303867 4.96760132 -10.96092224 2.07044983 C-7.53028185 -0.25922611 -4.00524539 -0.0243227 0 0 Z " fill="#54596E" transform="translate(148.74609375,303.43359375)"/>
<path d="M0 0 C0.86770523 -0.00571014 1.73541046 -0.01142029 2.62940979 -0.01730347 C4.0608432 -0.01898026 4.0608432 -0.01898026 5.52119446 -0.02069092 C7.02632347 -0.02813828 7.02632347 -0.02813828 8.56185913 -0.03573608 C11.89377012 -0.05038471 15.22563346 -0.05716513 18.55757141 -0.06268311 C20.86964927 -0.06843348 23.18172711 -0.07419123 25.49380493 -0.07995605 C30.34864016 -0.09047451 35.2034588 -0.09631127 40.05830383 -0.09979248 C46.27473499 -0.10527103 52.49094643 -0.12928201 58.70730877 -0.15776443 C63.48659908 -0.17640534 68.2658367 -0.18159725 73.04516029 -0.18312836 C75.33645132 -0.18615344 77.62774145 -0.19417706 79.91899681 -0.20731354 C83.12901269 -0.22439974 86.33849509 -0.22248697 89.54853821 -0.21600342 C90.49270599 -0.2252182 91.43687378 -0.23443298 92.40965271 -0.243927 C98.5994265 -0.20483466 103.68956849 0.47610543 108.60054016 4.60528564 C112.69419642 9.92703878 113.32004915 13.44584282 112.85835266 20.14044189 C110.96507771 25.39953899 108.26052051 27.93052784 103.85835266 31.14044189 C101.10579279 32.05796185 99.47091782 32.269599 96.63441467 32.28088379 C95.34341606 32.28944901 95.34341606 32.28944901 94.02633667 32.29818726 C93.08499374 32.29930511 92.14365082 32.30042297 91.17378235 32.30157471 C89.68306465 32.30902206 89.68306465 32.30902206 88.16223145 32.31661987 C84.86822318 32.33124715 81.57426309 32.33804489 78.28022766 32.34356689 C75.99199929 32.34931841 73.70377094 32.35507615 71.4155426 32.36083984 C66.61376216 32.37135181 61.81199847 32.37719302 57.01020813 32.38067627 C50.86218595 32.38615769 44.71438561 32.41017756 38.56643295 32.43864822 C33.83775693 32.45728838 29.10913416 32.46248097 24.3804245 32.46401215 C22.11425312 32.46703669 19.84808264 32.47505849 17.58194733 32.48819733 C14.40796127 32.50528427 11.2345147 32.50337075 8.0605011 32.49688721 C6.6606321 32.51070938 6.6606321 32.51070938 5.23248291 32.52481079 C-1.8125521 32.47981383 -6.60680668 31.39975639 -12.01664734 26.57794189 C-15.04705371 22.5440897 -15.3996552 18.06604659 -15.14164734 13.14044189 C-13.49559921 7.23403391 -10.94567689 4.61569731 -6.14164734 1.14044189 C-3.84637499 -0.00719428 -2.55227255 0.01004257 0 0 Z " fill="#F5871D" transform="translate(215.1416473388672,319.85955810546875)"/>
<path d="M0 0 C1.3463855 -0.00744736 1.3463855 -0.00744736 2.7199707 -0.01504517 C5.70500441 -0.02971176 8.68998492 -0.03647749 11.67504883 -0.04199219 C13.74432884 -0.04774151 15.81360883 -0.05349926 17.88288879 -0.05926514 C22.23003387 -0.06978899 26.57716038 -0.07562207 30.92431641 -0.07910156 C36.49182545 -0.0845784 42.05908895 -0.10858332 47.62652111 -0.13707352 C51.90479748 -0.15571211 56.18301497 -0.16090623 60.46132851 -0.16243744 C62.513414 -0.16546352 64.56549847 -0.17349056 66.61754417 -0.18662262 C69.49261382 -0.20370267 72.36708751 -0.20179759 75.2421875 -0.1953125 C76.51190147 -0.20913467 76.51190147 -0.20913467 77.80726624 -0.22323608 C83.45344505 -0.18339867 87.71886812 0.73324211 92.08911133 4.62597656 C96.2953493 9.929494 96.90957367 13.4187258 96.44458008 20.16113281 C94.55130512 25.42022991 91.84674793 27.95121875 87.44458008 31.16113281 C84.66912599 32.08628418 83.03498471 32.28487265 80.17353821 32.28138733 C78.86736542 32.28344933 78.86736542 32.28344933 77.5348053 32.28555298 C76.58246506 32.2819577 75.63012482 32.27836243 74.64892578 32.2746582 C73.64386993 32.27480423 72.63881409 32.27495026 71.603302 32.27510071 C68.27563328 32.2744031 64.94802029 32.26661775 61.62036133 32.25878906 C59.31536388 32.25692434 57.01036603 32.2555007 54.70536804 32.25450134 C48.634134 32.25068041 42.56292382 32.2408537 36.49169922 32.22979736 C30.29826175 32.21957416 24.10482043 32.21500177 17.91137695 32.20996094 C5.7557675 32.19923108 -6.39982423 32.18215971 -18.55541992 32.16113281 C-18.31831299 31.47075928 -18.08120605 30.78038574 -17.83691406 30.0690918 C-16.75749847 26.91442632 -15.68764173 23.75659788 -14.61791992 20.59863281 C-14.24473633 19.51259766 -13.87155273 18.4265625 -13.48706055 17.30761719 C-11.66001486 11.8923196 -10.18449382 6.83872379 -9.55541992 1.16113281 C-7.46610971 -0.9281774 -2.88296057 0.00376226 0 0 Z " fill="#F4861E" transform="translate(295.555419921875,191.8388671875)"/>
<path d="M0 0 C6.22255717 5.51963868 10.45749805 12.5874595 11.48046875 20.87890625 C11.69737109 31.06055733 9.20057521 40.73903728 2.046875 48.33984375 C-6.18651609 54.84687865 -15.53034878 57.7440582 -25.890625 56.87109375 C-34.52074301 55.39435456 -41.47052947 51.49957421 -46.71484375 44.40234375 C-52.12305727 35.70729828 -53.87394036 28.09757353 -52.890625 17.87109375 C-51.99829952 14.54515333 -50.68031512 11.80373238 -48.890625 8.87109375 C-48.46652344 8.17242187 -48.04242188 7.47375 -47.60546875 6.75390625 C-43.28053852 0.36891176 -37.37237355 -4.3577473 -29.890625 -6.50390625 C-19.03682423 -8.58457557 -9.03627156 -6.42472499 0 0 Z " fill="#565B6F" transform="translate(164.890625,151.12890625)"/>
<path d="M0 0 C7.38017183 4.32862537 11.86698519 10.01546086 15.2578125 17.8203125 C16.50411693 22.65180104 16.51293941 27.28756765 16.51953125 32.2578125 C16.54402344 33.22976562 16.56851563 34.20171875 16.59375 35.203125 C16.61765429 41.05170689 16.26883165 44.76355825 12.14453125 49.2578125 C6.53155677 54.31156927 1.03732642 53.77930725 -6.25390625 53.6484375 C-7.44400299 53.64277771 -8.63409973 53.63711792 -9.86026001 53.63128662 C-13.65074361 53.60894701 -17.4402722 53.55875213 -21.23046875 53.5078125 C-23.80467382 53.48774451 -26.37889375 53.46949427 -28.953125 53.453125 C-35.25423053 53.40908995 -41.5547814 53.34220055 -47.85546875 53.2578125 C-47.95527953 49.00779284 -48.02737387 44.75841655 -48.07519531 40.50756836 C-48.09515626 39.06538998 -48.12233538 37.6232909 -48.15722656 36.18139648 C-48.35412979 27.82748767 -48.37828044 20.60922646 -43.85546875 13.2578125 C-43.16904297 12.06091797 -43.16904297 12.06091797 -42.46875 10.83984375 C-32.62342571 -2.55334515 -15.2901337 -7.25203688 0 0 Z " fill="#F5871D" transform="translate(479.85546875,42.7421875)"/>
<path d="M0 0 C1.25858322 -0.00960754 2.51716644 -0.01921509 3.81388855 -0.02911377 C5.19534118 -0.03396311 6.57679591 -0.0382416 7.95825195 -0.04199219 C9.37351992 -0.04774549 10.78878786 -0.0535032 12.20405579 -0.05926514 C15.17575442 -0.06977871 18.147426 -0.07561824 21.11914062 -0.07910156 C24.91426745 -0.08457048 28.70903263 -0.10856214 32.50404644 -0.13707352 C35.43041499 -0.1557686 38.3566979 -0.16090925 41.28312111 -0.16243744 C42.68127215 -0.1654518 44.07942213 -0.173439 45.47751427 -0.18662262 C60.86723781 -0.32131847 60.86723781 -0.32131847 66.7512207 4.62597656 C70.84487696 9.9477297 71.47072969 13.46653373 71.0090332 20.16113281 C69.11575825 25.42022991 66.41120105 27.95121875 62.0090332 31.16113281 C58.77416923 32.2394208 56.39956824 32.30097463 52.99633789 32.32226562 C51.13860748 32.33667694 51.13860748 32.33667694 49.24334717 32.35137939 C47.88920272 32.35622842 46.53505613 32.36050699 45.1809082 32.36425781 C43.78948974 32.37001305 42.39807128 32.37577073 41.00665283 32.38153076 C38.08800895 32.39203358 35.16939254 32.39788047 32.25073242 32.40136719 C28.52401295 32.40684065 24.79766091 32.43084666 21.07105637 32.45933914 C18.19530199 32.47803396 15.31963476 32.48317481 12.44382477 32.48470306 C11.07079314 32.48771635 9.69776255 32.49569985 8.32479095 32.50888824 C-7.08081476 32.64626833 -7.08081476 32.64626833 -13.8659668 26.59863281 C-16.89637317 22.56478062 -17.24897466 18.08673751 -16.9909668 13.16113281 C-15.34491867 7.25472483 -12.79499635 4.63638823 -7.9909668 1.16113281 C-5.25534944 -0.20667587 -3.06223099 0.01881316 0 0 Z " fill="#F5871D" transform="translate(320.990966796875,255.8388671875)"/>
<path d="M0 0 C6.27 0 12.54 0 19 0 C24.5713458 5.5713458 24.5713458 5.5713458 24.67764282 11.02423096 C24.66246109 12.19172882 24.66246109 12.19172882 24.64697266 13.3828125 C24.66011505 14.63007111 24.66011505 14.63007111 24.67352295 15.90252686 C24.69548239 18.6438862 24.68097711 21.38362502 24.6640625 24.125 C24.66743164 26.03402007 24.67228508 27.94303805 24.67855835 29.85205078 C24.68592498 33.85014295 24.67523094 37.84767602 24.65185547 41.84570312 C24.62336778 46.96738181 24.63977288 52.08775047 24.66971779 57.2093811 C24.68779644 61.15057219 24.68203014 65.09145332 24.66907883 69.03265381 C24.66574638 70.92087967 24.66982622 72.8091338 24.68147659 74.69732666 C24.69419484 77.33803705 24.67479623 79.9766343 24.64697266 82.6171875 C24.65709381 83.39551941 24.66721497 84.17385132 24.67764282 84.97576904 C24.55981152 91.02034634 23.74767044 91.25232956 19 96 C12.73 96 6.46 96 0 96 C0 64.32 0 32.64 0 0 Z " fill="#463C4B" transform="translate(160,304)"/>
<path d="M0 0 C1.47243164 -0.03673828 1.47243164 -0.03673828 2.97460938 -0.07421875 C9.33536878 -0.09981537 13.13452157 0.6204499 18.3125 4.375 C22.25770763 8.52785014 23.14955869 11.17529235 23.5625 16.75 C23.24457488 21.35991429 22.17565639 24.48639066 18.8828125 27.82421875 C14.34850998 31.76071522 11.15779215 32.49948458 5.29980469 32.53613281 C4.06131775 32.54574036 2.82283081 32.5553479 1.54681396 32.56524658 C0.19266952 32.5700956 -1.16147707 32.57437418 -2.515625 32.578125 C-3.90704347 32.58388023 -5.29846192 32.58963792 -6.68988037 32.59539795 C-9.60852425 32.60590077 -12.52714066 32.61174766 -15.44580078 32.61523438 C-19.17252025 32.62070784 -22.89887229 32.64471385 -26.62547684 32.67320633 C-29.50123121 32.69190115 -32.37689844 32.697042 -35.25270844 32.69857025 C-36.62574007 32.70158353 -37.99877065 32.70956704 -39.37174225 32.72275543 C-52.59117575 32.84064024 -52.59117575 32.84064024 -58.6875 29.375 C-57.09342078 26.18684157 -53.76915223 25.84966735 -50.5625 24.75 C-33.50069082 18.57231645 -16.97339554 0.02185885 0 0 Z " fill="#F4861E" transform="translate(264.6875,255.625)"/>
<path d="M0 0 C16.26408307 -1.58074242 33.39723325 5.54793744 45.9375 15.5 C50.244525 19.18552067 54.43004667 22.86009335 57 28 C57.41044616 33.33580012 56.68722252 36.40665651 54 41 C41.77081833 54.34832475 25.10035947 62.96419625 6.9375 63.875 C4.62183901 63.9577213 2.31766784 63.99376132 0 64 C2.39478918 61.60521082 4.65773914 60.75190222 7.75 59.375 C13.59662418 56.47966219 16.9082787 53.72275565 20 48 C20.61488281 46.87271484 20.61488281 46.87271484 21.2421875 45.72265625 C24.70685627 38.35127475 25.46085176 30.35098511 23.3046875 22.453125 C22.36472703 20.16246503 21.27613732 18.12016485 20 16 C19.63390625 15.31292969 19.2678125 14.62585938 18.890625 13.91796875 C14.52901608 6.8774704 7.31101343 4.20482781 0 1 C0 0.67 0 0.34 0 0 Z " fill="#EEDFCB" transform="translate(151,144)"/>
<path d="M0 0 C1.31097656 0.01353516 1.31097656 0.01353516 2.6484375 0.02734375 C3.30070312 0.03894531 3.95296875 0.05054688 4.625 0.0625 C2.32028263 1.59897825 0.29406524 2.72476759 -2.1875 3.875 C-10.28140575 7.92195287 -15.24404214 13.56687182 -18.48828125 21.93359375 C-21.33989373 31.99589152 -19.28600379 41.05447095 -14.375 50.0625 C-10.14847237 56.98379357 -3.03803839 60.95516444 4.625 63.0625 C4.625 63.3925 4.625 63.7225 4.625 64.0625 C-12.99739794 65.58751521 -29.14855682 57.86439162 -42.73046875 47.30859375 C-47.97511789 42.85412809 -52.01566204 38.87148236 -52.6875 31.75 C-52.08215637 24.60694516 -47.24285386 20.58097483 -42.04296875 16.14453125 C-29.98750706 6.73668194 -15.59285598 -0.21071427 0 0 Z " fill="#EEDFCB" transform="translate(132.375,143.9375)"/>
<path d="M0 0 C5.4259718 -0.09928585 10.85140841 -0.17166467 16.27807617 -0.21972656 C18.12191994 -0.23977361 19.96570068 -0.2670188 21.80932617 -0.30175781 C24.4680949 -0.35058208 27.12601915 -0.37303772 29.78515625 -0.390625 C30.60210464 -0.41127014 31.41905304 -0.43191528 32.26075745 -0.45318604 C38.00476876 -0.45541011 41.26592826 0.71530279 46 4 C49.94520763 8.15285014 50.83705869 10.80029235 51.25 16.375 C50.93207488 20.98491429 49.86315639 24.11139066 46.5703125 27.44921875 C41.80790841 31.58374369 38.51390625 32.12451487 32.36328125 32.09765625 C31.06455078 32.09443359 29.76582031 32.09121094 28.42773438 32.08789062 C27.05598892 32.07953531 25.68424413 32.07107037 24.3125 32.0625 C22.92903805 32.05748335 21.54557437 32.05292073 20.16210938 32.04882812 C16.77469605 32.03702529 13.38736967 32.02056019 10 32 C9.83918945 31.38592285 9.67837891 30.7718457 9.51269531 30.13916016 C8.76500882 27.29933808 8.00755889 24.46220374 7.25 21.625 C6.99734375 20.65949219 6.7446875 19.69398438 6.484375 18.69921875 C4.75479013 12.2565151 2.62306355 6.1333893 0 0 Z " fill="#F4871E" transform="translate(277,128)"/>
<path d="M0 0 C1.61551758 -0.0309375 1.61551758 -0.0309375 3.26367188 -0.0625 C10.14417004 -0.09624861 15.58782044 0.1182627 21.0546875 4.71484375 C25.14834376 10.03659689 25.77419649 13.55540092 25.3125 20.25 C23.41922504 25.5090971 20.71466785 28.04008594 16.3125 31.25 C11.64389146 32.80620285 6.95258063 32.47576168 2.0625 32.5 C1.03769531 32.520625 0.01289063 32.54125 -1.04296875 32.5625 C-8.6664191 32.60174556 -13.70453079 31.90873343 -19.5625 26.6875 C-22.59290637 22.65364781 -22.94550786 18.1756047 -22.6875 13.25 C-21.04145187 7.34359202 -18.49152955 4.72525542 -13.6875 1.25 C-9.63292117 -0.77728941 -4.45640409 0.02095898 0 0 Z " fill="#F5871D" transform="translate(366.6875,319.75)"/>
<path d="M0 0 C1.61551758 -0.0309375 1.61551758 -0.0309375 3.26367188 -0.0625 C10.14417004 -0.09624861 15.58782044 0.1182627 21.0546875 4.71484375 C25.14834376 10.03659689 25.77419649 13.55540092 25.3125 20.25 C23.41922504 25.5090971 20.71466785 28.04008594 16.3125 31.25 C11.64389146 32.80620285 6.95258063 32.47576168 2.0625 32.5 C1.03769531 32.520625 0.01289063 32.54125 -1.04296875 32.5625 C-8.6664191 32.60174556 -13.70453079 31.90873343 -19.5625 26.6875 C-22.59290637 22.65364781 -22.94550786 18.1756047 -22.6875 13.25 C-21.04145187 7.34359202 -18.49152955 4.72525542 -13.6875 1.25 C-9.63292117 -0.77728941 -4.45640409 0.02095898 0 0 Z " fill="#F5871D" transform="translate(366.6875,127.75)"/>
<path d="M0 0 C3.90722179 2.54818812 6.84177542 5.41115678 8.6875 9.8125 C9.22552793 15.73080723 9.19769509 19.78020087 5.875 24.875 C2.1729373 28.62763733 -1.02092086 30.71314776 -6.375 31.125 C-11.17417021 30.80505532 -15.0548047 29.82781309 -18.640625 26.4453125 C-22.1232401 22.42229161 -23.26319884 19.41071994 -23.1875 14.1875 C-23.17847656 13.37925781 -23.16945313 12.57101563 -23.16015625 11.73828125 C-23.14855469 11.12339844 -23.13695313 10.50851563 -23.125 9.875 C-20.12080359 8.8736012 -17.24790635 8.36078543 -14.125 7.875 C-13.39165571 3.89745872 -13.39165571 3.89745872 -13.125 -0.125 C-8.46247142 -1.67917619 -4.63746673 -1.66948802 0 0 Z " fill="#463C4B" transform="translate(151.125,161.125)"/>
<path d="M0 0 C10.56 0 21.12 0 32 0 C32 5.28 32 10.56 32 16 C21.44 16 10.88 16 0 16 C0 10.72 0 5.44 0 0 Z " fill="#B9AF9B" transform="translate(144,288)"/>
<path d="M0 0 C10.56 0 21.12 0 32 0 C30.96263483 7.26155618 30.10181256 9.37335625 25 14 C20.57889835 16.82459272 15.08380826 16.65281647 10 16 C5.15539365 13.66741176 2.47512795 10.75986144 0 6 C0 4.02 0 2.04 0 0 Z " fill="#F0E1CD" transform="translate(144,400)"/>
<path d="M0 0 C5.28 0 10.56 0 16 0 C14.97073128 7.20488107 14.1155484 9.42813308 9 14 C5.56501283 15.8810644 4.00577497 16 0 16 C0 10.72 0 5.44 0 0 Z " fill="#BAAF9A" transform="translate(160,400)"/>
<path d="M0 0 C8.80896651 -0.46182931 8.80896651 -0.46182931 13.0625 1.1875 C15 3 15 3 16 8 C10.72 8 5.44 8 0 8 C0 5.36 0 2.72 0 0 Z " fill="#EFE0CC" transform="translate(144,296)"/>
<path d="M0 0 C5.45454545 0.45454545 5.45454545 0.45454545 8 3 C7.8125 6 7.8125 6 7 9 C4 11 4 11 1.4375 10.8125 C-1 10 -1 10 -3 7 C-2.6758631 3.67759676 -2.39223697 2.39223697 0 0 Z " fill="#E3D5C4" transform="translate(131,160)"/>
</svg>
