<?xml version="1.0" encoding="UTF-8"?>
<svg version="1.1" xmlns="http://www.w3.org/2000/svg" width="512" height="512">
<path d="M0 0 C28.06435312 24.10109978 46.37449231 57.53531243 49.37744141 94.65478516 C51.21106318 131.15275944 38.49182972 155.75281316 18.13867188 185.11328125 C10.60611125 195.98297298 3.53465978 206.9383009 -2.62255859 218.65478516 C-2.96528809 219.30608398 -3.30801758 219.95738281 -3.66113281 220.62841797 C-16.46086171 245.37006722 -22.12032873 272.38518148 -26.62255859 299.65478516 C-24.98287109 299.59097656 -24.98287109 299.59097656 -23.31005859 299.52587891 C-19.62255859 299.65478516 -19.62255859 299.65478516 -16.62255859 301.71728516 C-14.62255859 304.65478516 -14.62255859 304.65478516 -14.62255859 308.27978516 C-15.60678869 311.60156171 -15.95252283 312.64773795 -18.62255859 314.65478516 C-20.88427734 314.94775391 -20.88427734 314.94775391 -23.31005859 314.84228516 C-24.73318359 314.78041016 -26.15630859 314.71853516 -27.62255859 314.65478516 C-27.62255859 318.28478516 -27.62255859 321.91478516 -27.62255859 325.65478516 C-26.40568359 325.55166016 -25.18880859 325.44853516 -23.93505859 325.34228516 C-20.42652238 325.35477105 -19.64383691 325.64045486 -16.56005859 327.71728516 C-14.62255859 330.65478516 -14.62255859 330.65478516 -14.62255859 334.27978516 C-15.60678869 337.60156171 -15.95252283 338.64773795 -18.62255859 340.65478516 C-20.88427734 340.94775391 -20.88427734 340.94775391 -23.31005859 340.84228516 C-24.73318359 340.78041016 -26.15630859 340.71853516 -27.62255859 340.65478516 C-27.62255859 344.28478516 -27.62255859 347.91478516 -27.62255859 351.65478516 C-26.22005859 351.55166016 -24.81755859 351.44853516 -23.37255859 351.34228516 C-19.78230855 351.35361087 -18.92686493 351.41568732 -15.99755859 353.71728516 C-14.18572429 357.58802208 -14.34579032 359.59916827 -15.62255859 363.65478516 C-19.53661819 367.32421603 -24.49552482 367.33085492 -29.62255859 367.65478516 C-29.83009766 368.27224609 -30.03763672 368.88970703 -30.25146484 369.52587891 C-32.69923051 376.25467406 -35.92346388 381.2829568 -40.62255859 386.65478516 C-41.12271484 387.27224609 -41.62287109 387.88970703 -42.13818359 388.52587891 C-49.24007607 396.5782772 -61.10709666 401.8368301 -71.70942688 402.85523987 C-73.89485093 402.94882865 -76.07186934 402.98422393 -78.25927734 402.99072266 C-79.06057571 402.99737946 -79.86187408 403.00403625 -80.68745422 403.01089478 C-82.3740512 403.02095826 -84.06068749 403.02571376 -85.74731445 403.02539062 C-88.28649973 403.02974476 -90.8239163 403.06607714 -93.36279297 403.10400391 C-109.67279348 403.21774866 -123.05548421 399.51448451 -135.62255859 388.65478516 C-147.62255859 374.46484102 -147.62255859 374.46484102 -147.62255859 366.65478516 C-148.21423828 366.68958984 -148.80591797 366.72439453 -149.41552734 366.76025391 C-154.34176136 366.92901559 -157.62635495 366.90170061 -161.62255859 363.65478516 C-163.0429768 360.81394874 -162.93708132 358.80001238 -162.62255859 355.65478516 C-161.18505859 353.27978516 -161.18505859 353.27978516 -158.62255859 351.65478516 C-155.54051619 351.32589251 -152.73861788 351.47148755 -149.62255859 351.65478516 C-149.62255859 348.02478516 -149.62255859 344.39478516 -149.62255859 340.65478516 C-151.02505859 340.73728516 -152.42755859 340.81978516 -153.87255859 340.90478516 C-157.11185045 340.88948142 -158.36005479 340.81484845 -161.18505859 339.09228516 C-163.20231557 335.67171898 -163.24954689 333.55604568 -162.62255859 329.65478516 C-160.46124683 327.02068644 -158.94374508 325.80375443 -155.50927734 325.41650391 C-153.54545878 325.40603951 -151.58190724 325.52194796 -149.62255859 325.65478516 C-149.62255859 322.02478516 -149.62255859 318.39478516 -149.62255859 314.65478516 C-151.02505859 314.73728516 -152.42755859 314.81978516 -153.87255859 314.90478516 C-157.15720714 314.89443981 -158.346475 314.82986256 -161.18505859 313.02978516 C-163.0879951 309.8858031 -163.28718789 308.27332245 -162.62255859 304.65478516 C-160.56005859 301.77978516 -160.56005859 301.77978516 -157.62255859 299.65478516 C-153.81005859 299.34228516 -153.81005859 299.34228516 -150.62255859 299.65478516 C-151.04794922 297.79273438 -151.04794922 297.79273438 -151.48193359 295.89306641 C-152.28682678 292.27598938 -153.01664765 288.65206622 -153.70068359 285.01025391 C-161.12093274 245.68261535 -176.41518081 213.56686938 -198.72802734 180.58447266 C-220.51829494 148.3159769 -231.64088566 118.73600151 -224.59521484 79.33447266 C-217.51241491 43.57622108 -195.95813285 11.66298662 -165.93115234 -8.85009766 C-114.91568259 -41.88930417 -47.0514553 -39.00895556 0 0 Z " fill="#FED05C" transform="translate(344.62255859375,109.34521484375)"/>
<path d="M0 0 C1.35222551 -0.00677907 2.70444178 -0.01568384 4.05664062 -0.02655029 C7.72208351 -0.04931678 11.38682163 -0.04051894 15.05227661 -0.02465487 C18.89098996 -0.01198182 22.72964361 -0.02373986 26.56835938 -0.03158569 C33.01443295 -0.04067822 39.46021995 -0.02870498 45.90625 -0.00488281 C53.35516068 0.02232801 60.80338708 0.01351355 68.25228119 -0.01401484 C74.65161744 -0.03671644 81.05074788 -0.03990096 87.45011139 -0.02682149 C91.27048456 -0.01903263 95.09053625 -0.01796946 98.91088867 -0.03450394 C102.50301081 -0.04896511 106.09425216 -0.03889868 109.6862793 -0.01003265 C111.63068435 -0.00028483 113.57516404 -0.01510817 115.51953125 -0.03067017 C125.0260262 0.08479601 125.0260262 0.08479601 128.16601562 2.96084595 C129.84375 5.64697266 129.84375 5.64697266 129.84375 9.27197266 C128.85951991 12.59374921 128.51378577 13.63992545 125.84375 15.64697266 C123.58203125 15.93994141 123.58203125 15.93994141 121.15625 15.83447266 C119.733125 15.77259766 118.31 15.71072266 116.84375 15.64697266 C116.84375 19.27697266 116.84375 22.90697266 116.84375 26.64697266 C118.060625 26.54384766 119.2775 26.44072266 120.53125 26.33447266 C124.03978622 26.34695855 124.82247169 26.63264236 127.90625 28.70947266 C129.84375 31.64697266 129.84375 31.64697266 129.84375 35.27197266 C128.85951991 38.59374921 128.51378577 39.63992545 125.84375 41.64697266 C123.58203125 41.93994141 123.58203125 41.93994141 121.15625 41.83447266 C119.733125 41.77259766 118.31 41.71072266 116.84375 41.64697266 C116.84375 45.27697266 116.84375 48.90697266 116.84375 52.64697266 C118.9475 52.49228516 118.9475 52.49228516 121.09375 52.33447266 C124.68400005 52.34579837 125.53944366 52.40787482 128.46875 54.70947266 C130.28058431 58.58020958 130.12051828 60.59135577 128.84375 64.64697266 C124.9296904 68.31640353 119.97078377 68.32304242 114.84375 68.64697266 C114.63621094 69.26443359 114.42867187 69.88189453 114.21484375 70.51806641 C111.76707808 77.24686156 108.54284471 82.2751443 103.84375 87.64697266 C103.09351563 88.57316406 103.09351563 88.57316406 102.328125 89.51806641 C95.22623252 97.5704647 83.35921193 102.8290176 72.75688171 103.84742737 C70.57145766 103.94101615 68.39443925 103.97641143 66.20703125 103.98291016 C65.40573288 103.98956696 64.60443451 103.99622375 63.77885437 104.00308228 C62.0922574 104.01314576 60.40562111 104.01790126 58.71899414 104.01757812 C56.17980886 104.02193226 53.64239229 104.05826464 51.10351562 104.09619141 C34.79351511 104.20993616 21.41082439 100.50667201 8.84375 89.64697266 C-3.15625 75.45702852 -3.15625 75.45702852 -3.15625 67.64697266 C-4.04376953 67.69917969 -4.04376953 67.69917969 -4.94921875 67.75244141 C-9.87545277 67.92120309 -13.16004636 67.89388811 -17.15625 64.64697266 C-18.57666821 61.80613624 -18.47077272 59.79219988 -18.15625 56.64697266 C-16.71875 54.27197266 -16.71875 54.27197266 -14.15625 52.64697266 C-11.07420759 52.31808001 -8.27230929 52.46367505 -5.15625 52.64697266 C-5.15625 49.01697266 -5.15625 45.38697266 -5.15625 41.64697266 C-6.55875 41.72947266 -7.96125 41.81197266 -9.40625 41.89697266 C-12.64554185 41.88166892 -13.8937462 41.80703595 -16.71875 40.08447266 C-18.73600697 36.66390648 -18.7832383 34.54823318 -18.15625 30.64697266 C-15.99493824 28.01287394 -14.47743648 26.79594193 -11.04296875 26.40869141 C-9.07915019 26.39822701 -7.11559865 26.51413546 -5.15625 26.64697266 C-5.15625 23.01697266 -5.15625 19.38697266 -5.15625 15.64697266 C-7.26 15.77072266 -7.26 15.77072266 -9.40625 15.89697266 C-12.69089854 15.88662731 -13.88016641 15.82205006 -16.71875 14.02197266 C-18.62168651 10.8779906 -18.8208793 9.26550995 -18.15625 5.64697266 C-13.76590356 -1.14778618 -7.46064915 -0.05971229 0 0 Z " fill="#374652" transform="translate(200.15625,408.35302734375)"/>
<path d="M0 0 C38.94 0 77.88 0 118 0 C115.34517576 8.84941413 113.50058753 13.21891132 108 20 C107.13761719 21.06927734 107.13761719 21.06927734 106.2578125 22.16015625 C98.76408776 30.50617157 87.07921846 36.12735311 75.91299438 37.20059204 C73.72762318 37.29404197 71.55063082 37.32943895 69.36328125 37.3359375 C68.56198288 37.3425943 67.76068451 37.3492511 66.93510437 37.35610962 C65.2485074 37.3661731 63.56187111 37.37092861 61.87524414 37.37060547 C59.33605886 37.3749596 56.79864229 37.41129199 54.25976562 37.44921875 C37.94976511 37.56296351 24.56707439 33.85969935 12 23 C6.69032097 16.72132926 0 8.60796084 0 0 Z " fill="#3C5566" transform="translate(197,475)"/>
<path d="M0 0 C0.79341797 -0.02900391 1.58683594 -0.05800781 2.40429688 -0.08789062 C6.21291861 -0.12946248 8.18239423 -0.12973019 11.3671875 2.10546875 C12.8125 4.3125 12.8125 4.3125 12.75 7.9375 C11.8125 11.3125 11.8125 11.3125 8.8125 13.3125 C5.88550365 13.67983221 3.00017133 13.96101613 0.0625 14.1875 C-12.8482294 15.37825971 -24.58293382 18.37124007 -36.1875 24.3125 C-37.08984375 24.75335938 -37.9921875 25.19421875 -38.921875 25.6484375 C-46.12795407 29.33290165 -52.1442885 33.95307695 -58.1875 39.3125 C-58.88617188 39.91578125 -59.58484375 40.5190625 -60.3046875 41.140625 C-70.22162749 50.30085069 -77.27682831 62.88139715 -82.1875 75.3125 C-82.57679688 76.27800781 -82.96609375 77.24351562 -83.3671875 78.23828125 C-86.22422089 86.27759784 -86.90154141 94.23964938 -87.24121094 102.71069336 C-87.51052564 107.32046334 -87.71389647 109.67258086 -90.5234375 113.46875 C-93.1875 115.3125 -93.1875 115.3125 -96.875 115.3125 C-100.1875 114.3125 -100.1875 114.3125 -102.1875 111.3125 C-102.38702001 108.80676342 -102.47181591 106.44080197 -102.4375 103.9375 C-102.43000732 103.22215088 -102.42251465 102.50680176 -102.41479492 101.76977539 C-101.95390626 78.61462627 -92.90127087 57.00947527 -78.1875 39.3125 C-77.47851562 38.45140625 -76.76953125 37.5903125 -76.0390625 36.703125 C-57.04726403 14.62601631 -29.29553112 0.36226955 0 0 Z " fill="#FEFDFA" transform="translate(250.1875,102.6875)"/>
<path d="M0 0 C1.35222551 -0.00677907 2.70444178 -0.01568384 4.05664062 -0.02655029 C7.72208351 -0.04931678 11.38682163 -0.04051894 15.05227661 -0.02465487 C18.89098996 -0.01198182 22.72964361 -0.02373986 26.56835938 -0.03158569 C33.01443295 -0.04067822 39.46021995 -0.02870498 45.90625 -0.00488281 C53.35516068 0.02232801 60.80338708 0.01351355 68.25228119 -0.01401484 C74.65161744 -0.03671644 81.05074788 -0.03990096 87.45011139 -0.02682149 C91.27048456 -0.01903263 95.09053625 -0.01796946 98.91088867 -0.03450394 C102.50301081 -0.04896511 106.09425216 -0.03889868 109.6862793 -0.01003265 C111.63068435 -0.00028483 113.57516404 -0.01510817 115.51953125 -0.03067017 C125.0260262 0.08479601 125.0260262 0.08479601 128.16601562 2.96084595 C129.84375 5.64697266 129.84375 5.64697266 129.84375 9.27197266 C128.54103807 13.66862543 128.54103807 13.66862543 125.84375 15.64697266 C123.29934788 16.02728939 123.29934788 16.02728939 120.19496155 16.03465271 C119.01863663 16.04455734 117.84231171 16.05446198 116.63034058 16.06466675 C115.33830719 16.0601651 114.0462738 16.05566345 112.71508789 16.05102539 C111.34183699 16.0567271 109.96859083 16.06369058 108.59535217 16.07182312 C104.86390717 16.08979248 101.13269683 16.08857908 97.40122151 16.08288074 C94.28731443 16.07979415 91.17345276 16.08587544 88.05955213 16.09191948 C80.71389815 16.10597564 73.36836044 16.10439454 66.02270508 16.09301758 C58.44213174 16.08153628 50.86191219 16.09560951 43.28138548 16.12241405 C36.77513385 16.14455944 30.26899335 16.15121105 23.7627067 16.14533764 C19.87585287 16.14196391 15.98922582 16.1444104 12.10240364 16.16158867 C8.44725482 16.17703736 4.79263061 16.17312606 1.13750267 16.15428352 C-0.84411046 16.14883047 -2.82574703 16.16312768 -4.80731201 16.17797852 C-5.98645676 16.16814438 -7.1656015 16.15831024 -8.38047791 16.1481781 C-9.40530242 16.14796882 -10.43012693 16.14775953 -11.48600674 16.14754391 C-14.87816205 15.51164101 -16.06101448 14.34055089 -18.15625 11.64697266 C-18.88444122 7.84419628 -18.54677562 6.25137312 -16.44335938 2.9960022 C-12.06213681 -1.10998484 -5.60551541 -0.04486448 0 0 Z " fill="#374652" transform="translate(200.15625,408.35302734375)"/>
<path d="M0 0 C40.26 0 80.52 0 122 0 C122 3.63 122 7.26 122 11 C121 12 121 12 118.98725033 12.12304783 C118.09587651 12.12212604 117.2045027 12.12120424 116.28611755 12.12025452 C114.7568866 12.12231651 114.7568866 12.12231651 113.19676208 12.12442017 C112.068918 12.12082489 110.94107391 12.11722961 109.77905273 12.11352539 C108.59872467 12.11367142 107.41839661 12.11381744 106.20230103 12.1139679 C102.95657892 12.11338895 99.71089945 12.10835986 96.46518588 12.10139394 C93.07656968 12.09515962 89.68795272 12.09455654 86.29933167 12.09336853 C79.87844196 12.09025544 73.45756919 12.08204236 67.03668696 12.07201904 C59.72846175 12.0608572 52.42023576 12.05534727 45.11200416 12.05032361 C30.07465974 12.03985973 15.03733219 12.02206024 0 12 C0 8.04 0 4.08 0 0 Z " fill="#3C5566" transform="translate(195,424)"/>
<path d="M0 0 C40.26 0 80.52 0 122 0 C122 3.63 122 7.26 122 11 C81.74 11 41.48 11 0 11 C0 7.37 0 3.74 0 0 Z " fill="#3C5666" transform="translate(195,450)"/>
<path d="M0 0 C3.80866621 0.25821466 5.09061751 0.55323741 7.6875 3.25 C8.641684 6.11255201 8.82419797 7.94374628 8.84863281 10.91748047 C8.85824036 11.86211151 8.8678479 12.80674255 8.87774658 13.77999878 C8.88199646 14.79877106 8.88624634 15.81754333 8.890625 16.8671875 C8.89632507 17.91649445 8.90202515 18.96580139 8.90789795 20.04690552 C8.91734686 22.26775097 8.9238815 24.48861044 8.92773438 26.70947266 C8.93744208 30.10474112 8.96846784 33.49940482 9 36.89453125 C9.00652995 39.05207974 9.01178045 41.20963256 9.015625 43.3671875 C9.0279718 44.38191132 9.0403186 45.39663513 9.05303955 46.44210815 C9.03534913 52.04753665 8.86200456 56.07549544 4.6875 60.25 C-2.61684783 60.72124825 -2.61684783 60.72124825 -5.25 58.9375 C-7.20323962 55.8352959 -7.44433633 53.14791916 -7.47363281 49.58251953 C-7.48804413 48.16557297 -7.48804413 48.16557297 -7.50274658 46.72000122 C-7.50699646 45.70122894 -7.51124634 44.68245667 -7.515625 43.6328125 C-7.52132507 42.58350555 -7.52702515 41.53419861 -7.53289795 40.45309448 C-7.54234686 38.23224903 -7.5488815 36.01138956 -7.55273438 33.79052734 C-7.56244208 30.39525888 -7.59346784 27.00059518 -7.625 23.60546875 C-7.63152995 21.44792026 -7.63678045 19.29036744 -7.640625 17.1328125 C-7.6529718 16.11808868 -7.6653186 15.10336487 -7.67803955 14.05789185 C-7.65833703 7.8149025 -7.5210402 0.56762568 0 0 Z " fill="#FFD15B" transform="translate(255.3125,-0.25)"/>
<path d="M0 0 C0.86584717 0.51763916 1.73169434 1.03527832 2.6237793 1.56860352 C3.60137207 2.14626465 4.57896484 2.72392578 5.58618164 3.3190918 C6.61308105 3.93896973 7.63998047 4.55884766 8.69799805 5.19750977 C10.84242884 6.47502216 12.98696079 7.75236476 15.1315918 9.02954102 C16.18717285 9.6619873 17.24275391 10.29443359 18.33032227 10.94604492 C21.09366717 12.58673956 23.87357089 14.18945841 26.6706543 15.77172852 C27.45335693 16.21782471 28.23605957 16.6639209 29.04248047 17.12353516 C30.48504352 17.94397801 31.9316461 18.75737225 33.3828125 19.5625 C39.31374977 22.97419392 39.31374977 22.97419392 40.38549805 26.76000977 C40.19965946 29.79537342 39.82601198 31.98263224 38.32299805 34.63500977 C35.17302103 36.46402868 31.89419854 36.2288872 28.38549805 35.76000977 C25.66489176 34.71205665 23.32453405 33.22000514 20.88549805 31.63500977 C19.41654139 30.7230866 17.94641412 29.81304734 16.4753418 28.90454102 C15.27627197 28.15551514 15.27627197 28.15551514 14.05297852 27.39135742 C11.0700248 25.56707619 8.04889671 23.82138841 5.0144043 22.08422852 C3.92772461 21.46112793 2.84104492 20.83802734 1.72143555 20.19604492 C-0.43941054 18.95929575 -2.60213794 17.72582709 -4.7668457 16.49584961 C-6.2518457 15.63854248 -6.2518457 15.63854248 -7.7668457 14.76391602 C-8.65364014 14.25675049 -9.54043457 13.74958496 -10.45410156 13.22705078 C-12.61450195 11.76000977 -12.61450195 11.76000977 -14.61450195 8.76000977 C-14.97468153 5.37432171 -14.99636033 3.43280786 -13.30200195 0.44750977 C-9.30967312 -3.54481907 -4.66401388 -2.2120204 0 0 Z " fill="#FFD15B" transform="translate(50.614501953125,124.239990234375)"/>
<path d="M0 0 C2.52224843 2.27002359 2.94705668 3.63696007 3.4375 7 C2.8878088 10.76931111 1.83698948 11.52869874 -1 14 C-2.83731464 15.18844001 -4.71572844 16.31466133 -6.62109375 17.390625 C-7.71566895 18.01445068 -8.81024414 18.63827637 -9.93798828 19.28100586 C-11.10430403 19.93767155 -12.27081123 20.59399728 -13.4375 21.25 C-20.61747346 25.31201969 -27.73448449 29.39546788 -34.625 33.9375 C-39.41185934 36.92928709 -42.40264873 38.14020118 -48 37 C-50.95167993 35.38133681 -51.03225355 33.89114428 -52 30.625 C-52 27 -52 27 -49.89135742 24.50952148 C-46.96143726 21.9665299 -44.12068131 20.11473738 -40.73828125 18.22265625 C-40.14758347 17.88882431 -39.55688568 17.55499237 -38.94828796 17.21104431 C-37.07394416 16.15374156 -35.1935811 15.10776028 -33.3125 14.0625 C-31.45636658 13.0216209 -29.60156671 11.97840011 -27.74703979 10.93466187 C-26.53969394 10.25549821 -25.33163192 9.577606 -24.12283325 8.90103149 C-19.67900321 6.40737534 -15.31103184 3.80645248 -10.97729492 1.12670898 C-6.98227852 -1.14974498 -4.38521267 -1.18766177 0 0 Z " fill="#FFD15B" transform="translate(473,123)"/>
<path d="M0 0 C2.54250947 2.06578894 2.91358874 3.37138186 3.35546875 6.5859375 C2.85140296 11.42718474 0.72821595 14.83259208 -1.6875 19 C-2.17210693 19.85706543 -2.65671387 20.71413086 -3.15600586 21.59716797 C-4.75405841 24.40801694 -6.37425927 27.20508152 -8 30 C-8.58233398 31.00579102 -9.16466797 32.01158203 -9.76464844 33.04785156 C-12.60478516 37.94255528 -15.4611253 42.82781154 -18.34765625 47.6953125 C-18.81179932 48.47922363 -19.27594238 49.26313477 -19.75415039 50.07080078 C-21 52 -21 52 -23 54 C-26.00879646 54.33970283 -28.09786724 54.55524039 -31 54 C-33.5625 51.875 -33.5625 51.875 -35 49 C-34.63871431 44.36417229 -33.20386213 41.05711012 -30.9375 37.03515625 C-30.30932373 35.91157715 -29.68114746 34.78799805 -29.03393555 33.63037109 C-28.35641224 32.44082134 -27.6784258 31.25153527 -27 30.0625 C-26.31437655 28.84744066 -25.62923809 27.63210752 -24.94458008 26.41650391 C-21.24800262 19.87109566 -17.51672506 13.34379593 -13.6875 6.875 C-13.33365234 6.27308838 -12.97980469 5.67117676 -12.61523438 5.05102539 C-9.39875541 -0.27847481 -6.11869362 -0.88839928 0 0 Z " fill="#FFD15B" transform="translate(383,33)"/>
<path d="M0 0 C3.69766213 0.96522466 5.63731042 3.90944478 7.6315918 7.02636719 C8.13988525 7.95094727 8.64817871 8.87552734 9.171875 9.828125 C9.74542725 10.86219482 10.31897949 11.89626465 10.90991211 12.96166992 C11.50811768 14.05713135 12.10632324 15.15259277 12.72265625 16.28125 C13.96677942 18.54333654 15.21157171 20.80505521 16.45703125 23.06640625 C17.06353516 24.17000488 17.67003906 25.27360352 18.29492188 26.41064453 C19.81888165 29.14342424 21.38307274 31.84179207 22.98828125 34.52734375 C23.41407471 35.24760742 23.83986816 35.96787109 24.27856445 36.70996094 C25.05061366 38.0087589 25.83486377 39.30041491 26.63354492 40.58300781 C28.4035768 43.59658322 29.04925668 45.31008216 28.82421875 48.83984375 C27.59064911 53.04741543 27.59064911 53.04741543 25.03515625 54.53125 C20.0642577 55.50913168 20.0642577 55.50913168 17.03515625 54.53125 C15.57958984 52.94628906 15.57958984 52.94628906 14.24609375 50.796875 C13.47930298 49.57145996 13.47930298 49.57145996 12.69702148 48.32128906 C9.5768445 43.08294874 6.4987337 37.82460916 3.47265625 32.53125 C2.82619141 31.4071875 2.17972656 30.283125 1.51367188 29.125 C-0.3200707 25.9313405 -2.14313325 22.73178282 -3.96484375 19.53125 C-4.47966309 18.64026611 -4.99448242 17.74928223 -5.52490234 16.83129883 C-5.97816895 16.03747803 -6.43143555 15.24365723 -6.8984375 14.42578125 C-7.2895874 13.74620361 -7.6807373 13.06662598 -8.08374023 12.36645508 C-9.41402124 9.59568136 -9.52233399 7.52776003 -8.96484375 4.53125 C-7.1087795 0.1230974 -4.56920145 0.07043085 0 0 Z " fill="#FFD15B" transform="translate(134.96484375,32.46875)"/>
<path d="M0 0 C1.11306519 -0.00619858 2.22613037 -0.01239716 3.3729248 -0.01878357 C5.72305426 -0.02587828 8.07323402 -0.02271391 10.42333984 -0.01000977 C14.01884386 0.0038584 17.61174685 -0.03022683 21.20703125 -0.06835938 C23.49218814 -0.06931056 25.77734828 -0.06745181 28.0625 -0.0625 C29.13657104 -0.07575821 30.21064209 -0.08901642 31.31726074 -0.10267639 C38.73023752 -0.01018883 38.73023752 -0.01018883 42.74414062 2.87915039 C44.53125 5.56640625 44.53125 5.56640625 44.59375 9.19140625 C43.41180858 12.94580839 42.83317136 13.64304688 39.53125 15.56640625 C37.10302734 15.9540863 37.10302734 15.9540863 34.3671875 15.97045898 C32.82538818 15.98948524 32.82538818 15.98948524 31.25244141 16.00889587 C30.14819824 16.00596024 29.04395508 16.0030246 27.90625 16 C26.76720215 16.00524185 25.6281543 16.0104837 24.45458984 16.0158844 C22.04720881 16.02230565 19.63979641 16.02096631 17.23242188 16.01245117 C13.54500628 16.00393801 9.85913766 16.03270881 6.171875 16.06445312 C3.8333338 16.0660651 1.49478985 16.06548768 -0.84375 16.0625 C-1.94799316 16.07373398 -3.05223633 16.08496796 -4.18994141 16.09654236 C-5.21780762 16.08716141 -6.24567383 16.07778046 -7.3046875 16.06811523 C-8.20751465 16.06794907 -9.1103418 16.0677829 -10.04052734 16.06761169 C-13.26695655 15.40164975 -14.46054492 14.13165275 -16.46875 11.56640625 C-17.03125 8.06640625 -17.03125 8.06640625 -16.46875 4.56640625 C-12.02743476 -0.76639211 -6.40096442 -0.02955852 0 0 Z " fill="#FFD15B" transform="translate(464.46875,244.43359375)"/>
<path d="M0 0 C1.00461777 -0.01268417 2.00923553 -0.02536835 3.04429626 -0.03843689 C4.12352859 -0.03550125 5.20276093 -0.03256561 6.31469727 -0.02954102 C7.98641747 -0.03740379 7.98641747 -0.03740379 9.69190979 -0.04542542 C12.04801602 -0.05184673 14.40415431 -0.05050724 16.76025391 -0.04199219 C20.36426945 -0.03348699 23.96669788 -0.06223666 27.57055664 -0.09399414 C29.86026971 -0.09560635 32.14998558 -0.09502824 34.43969727 -0.09204102 C36.05550941 -0.10889198 36.05550941 -0.10889198 37.70396423 -0.12608337 C45.13475563 -0.05691293 45.13475563 -0.05691293 49.12353516 2.21630859 C50.94360352 4.40405273 50.94360352 4.40405273 51.56860352 7.90405273 C50.94360352 11.40405273 50.94360352 11.40405273 49.12133789 13.58740234 C44.34312533 16.31901572 39.89046357 15.99546731 34.47485352 15.97045898 C33.36178833 15.97665756 32.24872314 15.98285614 31.10192871 15.98924255 C28.75179925 15.99633726 26.4016195 15.99317289 24.05151367 15.98046875 C20.45600965 15.96660059 16.86310666 16.00068581 13.26782227 16.03881836 C10.98266538 16.03976954 8.69750524 16.03791079 6.41235352 16.03295898 C5.33828247 16.04621719 4.26421143 16.0594754 3.15759277 16.07313538 C-4.25538401 15.98064781 -4.25538401 15.98064781 -8.26928711 13.09130859 C-10.05639648 10.40405273 -10.05639648 10.40405273 -10.11889648 6.77905273 C-8.40048988 1.32058471 -5.53729157 0.03391875 0 0 Z " fill="#FFD15C" transform="translate(13.056396484375,244.595947265625)"/>
</svg>
