<?xml version="1.0" encoding="UTF-8"?>
<svg version="1.1" xmlns="http://www.w3.org/2000/svg" width="512" height="512">
<path d="M0 0 C2.52630017 0.89131689 5.05706303 1.76903935 7.58837891 2.64599609 C9.20715228 3.21419867 10.82565229 3.78318076 12.44384766 4.35302734 C13.1948877 4.61249146 13.94592773 4.87195557 14.71972656 5.13928223 C22.34603155 7.86014821 22.34603155 7.86014821 24.50634766 10.38427734 C24.50634766 12.69427734 24.50634766 15.00427734 24.50634766 17.38427734 C29.78634766 17.38427734 35.06634766 17.38427734 40.50634766 17.38427734 C41.49634766 15.07427734 42.48634766 12.76427734 43.50634766 10.38427734 C47.58314426 6.99272448 52.96410222 5.80498995 57.97119141 4.28271484 C58.88212051 4.00078278 59.79304962 3.71885071 60.73158264 3.42837524 C62.65284434 2.83531466 64.57510623 2.24548579 66.49829102 1.65869141 C69.43254366 0.76272897 72.36316334 -0.14440622 75.29345703 -1.05322266 C77.16499699 -1.62940923 79.03673541 -2.20495166 80.90869141 -2.77978516 C82.21676003 -3.18446518 82.21676003 -3.18446518 83.55125427 -3.59732056 C96.07044273 -7.40209172 106.96368475 -7.95069546 119.11181641 -2.43212891 C131.83043153 4.52860154 138.99150173 17.21521288 146.83789062 28.91064453 C150.87759003 34.89985062 155.01642112 40.81803036 159.25927734 46.66503906 C160.31281161 48.11746434 161.352567 49.5798694 162.38916016 51.04443359 C168.9555403 59.52997316 180.61325891 61.81624662 190.38916016 65.12646484 C191.37563538 65.46077515 192.3621106 65.79508545 193.378479 66.13952637 C197.50193358 67.53381474 201.62579379 68.92618664 205.7578125 70.29492188 C235.4368903 80.15059802 235.4368903 80.15059802 243.78759766 95.78271484 C246.52215897 101.66202166 247.64366349 106.80609852 247.57226562 113.31689453 C247.56250702 114.48871277 247.55274841 115.66053101 247.54269409 116.86785889 C247.52812164 118.12624573 247.51354919 119.38463257 247.49853516 120.68115234 C247.48549949 122.67294711 247.4724823 124.66474219 247.46052742 126.65654373 C247.4301053 131.55289163 247.39014305 136.4490826 247.33496094 141.34521484 C247.30443932 144.0951619 247.28212626 146.8449487 247.26858521 149.59503174 C247.25550885 152.17841707 247.23057945 154.76177771 247.19210815 157.34490967 C247.15998871 168.35822554 249.39219473 175.62237743 255.94384766 184.38427734 C257.02217502 185.86980756 258.100294 187.35548905 259.17822266 188.84130859 C260.00483398 189.96786865 260.00483398 189.96786865 260.84814453 191.1171875 C267.28406275 199.91635367 273.5895172 208.83025914 279.56884766 217.94677734 C280.26107422 218.99994141 280.95330078 220.05310547 281.66650391 221.13818359 C285.44764278 227.80936492 287.05116209 233.5262715 286.94384766 241.19677734 C286.93337402 241.98793945 286.92290039 242.77910156 286.91210938 243.59423828 C286.50762939 256.69296106 280.21188293 265.32727684 272.50634766 275.38427734 C271.20816666 277.08609728 269.90998983 278.78792039 268.61181641 280.48974609 C266.52628642 283.2208207 264.4402406 285.95149312 262.35253906 288.6809082 C258.53936777 293.67699095 254.74877443 298.68154669 251.13134766 303.82177734 C250.12974609 305.24296875 250.12974609 305.24296875 249.10791016 306.69287109 C246.2457321 311.50272641 245.26115494 315.9308841 245.15917969 321.49047852 C245.11871017 323.26844063 245.11871017 323.26844063 245.0774231 325.08232117 C245.05654633 326.35114639 245.03566956 327.61997162 245.01416016 328.92724609 C244.96513599 330.94378625 244.91608931 332.96032613 244.86576653 334.9768343 C244.74493363 339.9248999 244.64332199 344.87331684 244.55273438 349.82202148 C244.4885234 353.27889756 244.40582665 356.73495423 244.3123436 360.19115639 C244.26544421 362.12431834 244.23901608 364.05794288 244.21316528 365.99150085 C243.94318663 375.73380929 242.03164501 384.51374949 236.38134766 392.63427734 C235.88376953 393.38193359 235.38619141 394.12958984 234.87353516 394.89990234 C227.40958768 402.73335217 218.66583521 406.16300586 208.50634766 409.32177734 C207.1892124 409.74638299 205.87256856 410.17251572 204.55639648 410.60009766 C198.09086252 412.68727424 191.59644331 414.66685802 185.08056641 416.59130859 C183.91847656 416.93750244 182.75638672 417.28369629 181.55908203 417.64038086 C179.38394675 418.28279059 177.20443107 418.91062901 175.02001953 419.52075195 C164.06789498 422.72818531 157.36719409 427.56617183 150.94384766 436.94677734 C149.74516472 438.63298121 148.54456644 440.31782475 147.34228516 442.00146484 C146.72192383 442.87770508 146.1015625 443.75394531 145.46240234 444.65673828 C142.0874166 449.36284671 138.57947409 453.96646147 135.06884766 458.57177734 C134.41907959 459.4316626 133.76931152 460.29154785 133.09985352 461.17749023 C124.49923673 472.48049566 117.52371894 480.49961825 103.50634766 484.38427734 C102.70197266 484.61115234 101.89759766 484.83802734 101.06884766 485.07177734 C88.92756344 486.55242176 78.560393 482.89318883 67.26416016 478.81005859 C65.35435666 478.13523131 63.44418881 477.46143447 61.53369141 476.78857422 C58.57931569 475.74485825 55.62760462 474.69542134 52.68164062 473.62817383 C49.79880932 472.58657742 46.90769525 471.5714782 44.01416016 470.56005859 C43.15331818 470.24136307 42.2924762 469.92266754 41.4055481 469.59431458 C30.10988114 465.70665933 19.85034872 466.96464575 8.69384766 470.63037109 C7.63649414 470.96094009 6.57914063 471.29150909 5.48974609 471.63209534 C2.1561984 472.67806807 -1.1686549 473.74897144 -4.49365234 474.82177734 C-7.84879705 475.88533943 -11.2055284 476.94374326 -14.56274414 478.00074768 C-16.64001924 478.65681163 -18.71578354 479.31768392 -20.78979492 479.98399353 C-21.72847412 480.28422928 -22.66715332 480.58446503 -23.63427734 480.89379883 C-24.45444336 481.15805161 -25.27460938 481.42230438 -26.11962891 481.69456482 C-37.2549813 484.9296601 -47.8460938 483.87556025 -58.49365234 479.38427734 C-69.97072354 473.01672857 -76.91139992 461.041265 -84.03662109 450.47021484 C-87.43534861 445.44029151 -90.93979492 440.49301398 -94.49365234 435.57177734 C-95.02112061 434.83773682 -95.54858887 434.10369629 -96.09204102 433.34741211 C-97.54168772 431.34600479 -99.01433415 429.3638004 -100.49365234 427.38427734 C-101.08919922 426.54243896 -101.08919922 426.54243896 -101.69677734 425.68359375 C-107.13260801 418.44261432 -116.39822466 416.22831079 -124.64208984 413.48583984 C-126.80365899 412.75179109 -128.96511383 412.01740563 -131.12646484 411.28271484 C-134.49736016 410.14404465 -137.86939125 409.00903019 -141.24365234 407.88037109 C-144.52585269 406.77991373 -147.80287533 405.6650083 -151.07958984 404.54833984 C-152.57224869 404.05583237 -152.57224869 404.05583237 -154.09506226 403.55337524 C-166.42423895 399.3294292 -176.64214603 393.07132609 -182.86865234 381.25927734 C-183.70458984 379.50146484 -183.70458984 379.50146484 -184.49365234 377.38427734 C-184.83807373 376.46912354 -185.18249512 375.55396973 -185.53735352 374.61108398 C-187.17988239 368.76210628 -186.67676795 362.65539651 -186.58349609 356.63818359 C-186.57212402 355.29972884 -186.56210227 353.96126199 -186.55335999 352.62278748 C-186.51386247 346.97005675 -186.44869564 341.31768998 -186.37719727 335.6652832 C-186.33424955 332.19482686 -186.30630005 328.72449153 -186.28689766 325.25382805 C-186.2713402 323.30626123 -186.23839767 321.35885795 -186.20506287 319.41151428 C-186.11297583 302.90045391 -195.10819592 292.20118726 -204.43237305 279.37353516 C-208.18966766 274.20246053 -211.90990152 269.00935372 -215.55615234 263.75927734 C-215.99668945 263.1331958 -216.43722656 262.50711426 -216.89111328 261.86206055 C-222.80051793 253.3007363 -225.67545841 246.30343076 -225.80615234 235.82177734 C-225.83515625 235.07347656 -225.86416016 234.32517578 -225.89404297 233.55419922 C-226.01094921 222.96968831 -221.61637766 214.67006581 -215.24365234 206.50927734 C-214.64101562 205.71336182 -214.03837891 204.91744629 -213.41748047 204.09741211 C-211.4572737 201.51498515 -209.47750549 198.94857365 -207.49365234 196.38427734 C-205.35565558 193.60832993 -203.21991107 190.83071965 -201.08837891 188.04980469 C-199.73211723 186.28350306 -198.36985679 184.52178476 -197.00048828 182.765625 C-187.62853162 170.85430284 -187.62853162 170.85430284 -184.26000977 156.52685547 C-184.23295456 155.32130005 -184.20589935 154.11574463 -184.17802429 152.87365723 C-184.15198624 151.56747437 -184.12594818 150.2612915 -184.09912109 148.91552734 C-184.06622058 147.55608887 -184.03237709 146.19667292 -183.99763489 144.83728027 C-183.85042971 139.07129594 -183.70720731 133.30535933 -183.5949707 127.53857422 C-183.52564988 124.00732412 -183.43785426 120.4769256 -183.33858681 116.94639587 C-183.28793084 114.9667136 -183.25676621 112.98656284 -183.22612 111.00646973 C-182.81713893 97.22012463 -178.79848642 87.19869011 -168.80615234 77.69677734 C-161.28837316 71.49838795 -151.86842537 68.64913884 -142.63818359 65.97412109 C-141.15846321 65.5328463 -141.15846321 65.5328463 -139.64884949 65.08265686 C-136.53677573 64.15488634 -133.42190197 63.23712105 -130.30615234 62.32177734 C-126.18507351 61.11025722 -122.0671275 59.88878453 -117.95068359 58.66162109 C-117.02028763 58.3917186 -116.08989166 58.1218161 -115.13130188 57.84373474 C-104.37476144 54.67470434 -104.37476144 54.67470434 -95.89599609 47.67724609 C-95.32606934 46.97905762 -94.75614258 46.28086914 -94.16894531 45.56152344 C-91.41051962 41.9766152 -88.70483327 38.36364135 -86.05615234 34.69677734 C-84.835828 33.03065799 -83.61443071 31.3653241 -82.39208984 29.70068359 C-80.40552005 26.99177074 -78.41929687 24.28262526 -76.43603516 21.57128906 C-74.36373007 18.74933414 -72.27431347 15.940785 -70.18115234 13.13427734 C-69.23187866 11.8316394 -69.23187866 11.8316394 -68.26342773 10.50268555 C-62.94396366 3.41489451 -56.75570694 -2.91849103 -48.24365234 -5.99072266 C-47.45474609 -6.28720703 -46.66583984 -6.58369141 -45.85302734 -6.88916016 C-29.99509419 -11.77256341 -14.90835241 -5.27057039 0 0 Z " fill="#020203" transform="translate(225.49365234375,17.61572265625)"/>
<path d="M0 0 C2.52630017 0.89131689 5.05706303 1.76903935 7.58837891 2.64599609 C9.20715228 3.21419867 10.82565229 3.78318076 12.44384766 4.35302734 C13.1948877 4.61249146 13.94592773 4.87195557 14.71972656 5.13928223 C22.34603155 7.86014821 22.34603155 7.86014821 24.50634766 10.38427734 C24.50634766 12.69427734 24.50634766 15.00427734 24.50634766 17.38427734 C29.78634766 17.38427734 35.06634766 17.38427734 40.50634766 17.38427734 C41.49634766 15.07427734 42.48634766 12.76427734 43.50634766 10.38427734 C47.58314426 6.99272448 52.96410222 5.80498995 57.97119141 4.28271484 C58.88212051 4.00078278 59.79304962 3.71885071 60.73158264 3.42837524 C62.65284434 2.83531466 64.57510623 2.24548579 66.49829102 1.65869141 C69.43254366 0.76272897 72.36316334 -0.14440622 75.29345703 -1.05322266 C77.16499699 -1.62940923 79.03673541 -2.20495166 80.90869141 -2.77978516 C82.21676003 -3.18446518 82.21676003 -3.18446518 83.55125427 -3.59732056 C96.07044273 -7.40209172 106.96368475 -7.95069546 119.11181641 -2.43212891 C131.83043153 4.52860154 138.99150173 17.21521288 146.83789062 28.91064453 C150.87759003 34.89985062 155.01642112 40.81803036 159.25927734 46.66503906 C160.31281161 48.11746434 161.352567 49.5798694 162.38916016 51.04443359 C168.9555403 59.52997316 180.61325891 61.81624662 190.38916016 65.12646484 C191.37563538 65.46077515 192.3621106 65.79508545 193.378479 66.13952637 C197.50193358 67.53381474 201.62579379 68.92618664 205.7578125 70.29492188 C235.4368903 80.15059802 235.4368903 80.15059802 243.78759766 95.78271484 C246.52215897 101.66202166 247.64366349 106.80609852 247.57226562 113.31689453 C247.56250702 114.48871277 247.55274841 115.66053101 247.54269409 116.86785889 C247.52812164 118.12624573 247.51354919 119.38463257 247.49853516 120.68115234 C247.48549949 122.67294711 247.4724823 124.66474219 247.46052742 126.65654373 C247.4301053 131.55289163 247.39014305 136.4490826 247.33496094 141.34521484 C247.30443932 144.0951619 247.28212626 146.8449487 247.26858521 149.59503174 C247.25550885 152.17841707 247.23057945 154.76177771 247.19210815 157.34490967 C247.15998871 168.35822554 249.39219473 175.62237743 255.94384766 184.38427734 C257.02217502 185.86980756 258.100294 187.35548905 259.17822266 188.84130859 C260.00483398 189.96786865 260.00483398 189.96786865 260.84814453 191.1171875 C267.28406275 199.91635367 273.5895172 208.83025914 279.56884766 217.94677734 C280.26107422 218.99994141 280.95330078 220.05310547 281.66650391 221.13818359 C285.44764278 227.80936492 287.05116209 233.5262715 286.94384766 241.19677734 C286.93337402 241.98793945 286.92290039 242.77910156 286.91210938 243.59423828 C286.50762939 256.69296106 280.21188293 265.32727684 272.50634766 275.38427734 C271.20816666 277.08609728 269.90998983 278.78792039 268.61181641 280.48974609 C266.52628642 283.2208207 264.4402406 285.95149312 262.35253906 288.6809082 C258.53936777 293.67699095 254.74877443 298.68154669 251.13134766 303.82177734 C250.12974609 305.24296875 250.12974609 305.24296875 249.10791016 306.69287109 C246.2457321 311.50272641 245.26115494 315.9308841 245.15917969 321.49047852 C245.11871017 323.26844063 245.11871017 323.26844063 245.0774231 325.08232117 C245.05654633 326.35114639 245.03566956 327.61997162 245.01416016 328.92724609 C244.96513599 330.94378625 244.91608931 332.96032613 244.86576653 334.9768343 C244.74493363 339.9248999 244.64332199 344.87331684 244.55273438 349.82202148 C244.4885234 353.27889756 244.40582665 356.73495423 244.3123436 360.19115639 C244.26544421 362.12431834 244.23901608 364.05794288 244.21316528 365.99150085 C243.94318663 375.73380929 242.03164501 384.51374949 236.38134766 392.63427734 C235.88376953 393.38193359 235.38619141 394.12958984 234.87353516 394.89990234 C227.40958768 402.73335217 218.66583521 406.16300586 208.50634766 409.32177734 C207.1892124 409.74638299 205.87256856 410.17251572 204.55639648 410.60009766 C198.09086252 412.68727424 191.59644331 414.66685802 185.08056641 416.59130859 C183.91847656 416.93750244 182.75638672 417.28369629 181.55908203 417.64038086 C179.38394675 418.28279059 177.20443107 418.91062901 175.02001953 419.52075195 C164.06789498 422.72818531 157.36719409 427.56617183 150.94384766 436.94677734 C149.74516472 438.63298121 148.54456644 440.31782475 147.34228516 442.00146484 C146.72192383 442.87770508 146.1015625 443.75394531 145.46240234 444.65673828 C142.0874166 449.36284671 138.57947409 453.96646147 135.06884766 458.57177734 C134.41907959 459.4316626 133.76931152 460.29154785 133.09985352 461.17749023 C124.49923673 472.48049566 117.52371894 480.49961825 103.50634766 484.38427734 C102.70197266 484.61115234 101.89759766 484.83802734 101.06884766 485.07177734 C88.92756344 486.55242176 78.560393 482.89318883 67.26416016 478.81005859 C65.35435666 478.13523131 63.44418881 477.46143447 61.53369141 476.78857422 C58.57931569 475.74485825 55.62760462 474.69542134 52.68164062 473.62817383 C49.79880932 472.58657742 46.90769525 471.5714782 44.01416016 470.56005859 C43.15331818 470.24136307 42.2924762 469.92266754 41.4055481 469.59431458 C30.10988114 465.70665933 19.85034872 466.96464575 8.69384766 470.63037109 C7.63649414 470.96094009 6.57914063 471.29150909 5.48974609 471.63209534 C2.1561984 472.67806807 -1.1686549 473.74897144 -4.49365234 474.82177734 C-7.84879705 475.88533943 -11.2055284 476.94374326 -14.56274414 478.00074768 C-16.64001924 478.65681163 -18.71578354 479.31768392 -20.78979492 479.98399353 C-21.72847412 480.28422928 -22.66715332 480.58446503 -23.63427734 480.89379883 C-24.45444336 481.15805161 -25.27460938 481.42230438 -26.11962891 481.69456482 C-37.2549813 484.9296601 -47.8460938 483.87556025 -58.49365234 479.38427734 C-69.97072354 473.01672857 -76.91139992 461.041265 -84.03662109 450.47021484 C-87.43534861 445.44029151 -90.93979492 440.49301398 -94.49365234 435.57177734 C-95.02112061 434.83773682 -95.54858887 434.10369629 -96.09204102 433.34741211 C-97.54168772 431.34600479 -99.01433415 429.3638004 -100.49365234 427.38427734 C-101.08919922 426.54243896 -101.08919922 426.54243896 -101.69677734 425.68359375 C-107.13260801 418.44261432 -116.39822466 416.22831079 -124.64208984 413.48583984 C-126.80365899 412.75179109 -128.96511383 412.01740563 -131.12646484 411.28271484 C-134.49736016 410.14404465 -137.86939125 409.00903019 -141.24365234 407.88037109 C-144.52585269 406.77991373 -147.80287533 405.6650083 -151.07958984 404.54833984 C-152.57224869 404.05583237 -152.57224869 404.05583237 -154.09506226 403.55337524 C-166.42423895 399.3294292 -176.64214603 393.07132609 -182.86865234 381.25927734 C-183.70458984 379.50146484 -183.70458984 379.50146484 -184.49365234 377.38427734 C-184.83807373 376.46912354 -185.18249512 375.55396973 -185.53735352 374.61108398 C-187.17988239 368.76210628 -186.67676795 362.65539651 -186.58349609 356.63818359 C-186.57212402 355.29972884 -186.56210227 353.96126199 -186.55335999 352.62278748 C-186.51386247 346.97005675 -186.44869564 341.31768998 -186.37719727 335.6652832 C-186.33424955 332.19482686 -186.30630005 328.72449153 -186.28689766 325.25382805 C-186.2713402 323.30626123 -186.23839767 321.35885795 -186.20506287 319.41151428 C-186.11297583 302.90045391 -195.10819592 292.20118726 -204.43237305 279.37353516 C-208.18966766 274.20246053 -211.90990152 269.00935372 -215.55615234 263.75927734 C-215.99668945 263.1331958 -216.43722656 262.50711426 -216.89111328 261.86206055 C-222.80051793 253.3007363 -225.67545841 246.30343076 -225.80615234 235.82177734 C-225.83515625 235.07347656 -225.86416016 234.32517578 -225.89404297 233.55419922 C-226.01094921 222.96968831 -221.61637766 214.67006581 -215.24365234 206.50927734 C-214.64101562 205.71336182 -214.03837891 204.91744629 -213.41748047 204.09741211 C-211.4572737 201.51498515 -209.47750549 198.94857365 -207.49365234 196.38427734 C-205.35565558 193.60832993 -203.21991107 190.83071965 -201.08837891 188.04980469 C-199.73211723 186.28350306 -198.36985679 184.52178476 -197.00048828 182.765625 C-187.62853162 170.85430284 -187.62853162 170.85430284 -184.26000977 156.52685547 C-184.23295456 155.32130005 -184.20589935 154.11574463 -184.17802429 152.87365723 C-184.15198624 151.56747437 -184.12594818 150.2612915 -184.09912109 148.91552734 C-184.06622058 147.55608887 -184.03237709 146.19667292 -183.99763489 144.83728027 C-183.85042971 139.07129594 -183.70720731 133.30535933 -183.5949707 127.53857422 C-183.52564988 124.00732412 -183.43785426 120.4769256 -183.33858681 116.94639587 C-183.28793084 114.9667136 -183.25676621 112.98656284 -183.22612 111.00646973 C-182.81713893 97.22012463 -178.79848642 87.19869011 -168.80615234 77.69677734 C-161.28837316 71.49838795 -151.86842537 68.64913884 -142.63818359 65.97412109 C-141.15846321 65.5328463 -141.15846321 65.5328463 -139.64884949 65.08265686 C-136.53677573 64.15488634 -133.42190197 63.23712105 -130.30615234 62.32177734 C-126.18507351 61.11025722 -122.0671275 59.88878453 -117.95068359 58.66162109 C-117.02028763 58.3917186 -116.08989166 58.1218161 -115.13130188 57.84373474 C-104.37476144 54.67470434 -104.37476144 54.67470434 -95.89599609 47.67724609 C-95.32606934 46.97905762 -94.75614258 46.28086914 -94.16894531 45.56152344 C-91.41051962 41.9766152 -88.70483327 38.36364135 -86.05615234 34.69677734 C-84.835828 33.03065799 -83.61443071 31.3653241 -82.39208984 29.70068359 C-80.40552005 26.99177074 -78.41929687 24.28262526 -76.43603516 21.57128906 C-74.36373007 18.74933414 -72.27431347 15.940785 -70.18115234 13.13427734 C-69.23187866 11.8316394 -69.23187866 11.8316394 -68.26342773 10.50268555 C-62.94396366 3.41489451 -56.75570694 -2.91849103 -48.24365234 -5.99072266 C-47.45474609 -6.28720703 -46.66583984 -6.58369141 -45.85302734 -6.88916016 C-29.99509419 -11.77256341 -14.90835241 -5.27057039 0 0 Z M-21.74365234 51.44677734 C-22.78521484 51.74350342 -23.82677734 52.04022949 -24.89990234 52.34594727 C-65.14530567 64.29380138 -100.5302218 89.79164098 -125.49365234 123.38427734 C-126.11755859 124.21314453 -126.74146484 125.04201172 -127.38427734 125.89599609 C-145.31724155 150.5747716 -156.95846136 179.24270034 -161.49365234 209.38427734 C-161.66421143 210.41294922 -161.83477051 211.44162109 -162.01049805 212.50146484 C-162.56838305 216.98484185 -162.69188326 221.37126489 -162.73193359 225.88427734 C-162.74168213 226.78938049 -162.75143066 227.69448364 -162.76147461 228.62701416 C-163.13759068 256.2544329 -163.13759068 256.2544329 -158.49365234 283.38427734 C-158.30109863 284.11308105 -158.10854492 284.84188477 -157.91015625 285.59277344 C-156.63683306 290.27013524 -155.12452482 294.81973631 -153.49365234 299.38427734 C-153.2695166 300.02880859 -153.04538086 300.67333984 -152.81445312 301.33740234 C-143.38706632 328.37544044 -129.19745741 351.59644417 -109.49365234 372.38427734 C-109.03829102 372.8721875 -108.58292969 373.36009766 -108.11376953 373.86279297 C-95.93773652 386.83871136 -82.01029361 397.6518178 -66.49365234 406.38427734 C-65.80078125 406.77711914 -65.10791016 407.16996094 -64.39404297 407.57470703 C-41.89104954 420.22656289 -18.01172367 427.79250015 7.50634766 431.38427734 C8.73095703 431.57119141 9.95556641 431.75810547 11.21728516 431.95068359 C26.65188879 433.8218883 43.22386834 433.06720149 58.50634766 430.38427734 C59.64587891 430.20123047 60.78541016 430.01818359 61.95947266 429.82958984 C93.30225043 424.23759645 122.19128848 411.59730937 147.50634766 392.38427734 C148.38033203 391.73587891 149.25431641 391.08748047 150.15478516 390.41943359 C183.41819024 364.57632657 205.28414049 329.24432852 217.50634766 289.38427734 C217.83376953 288.37236328 218.16119141 287.36044922 218.49853516 286.31787109 C221.60578084 276.08318041 224.46617268 263.10503481 223.50634766 252.38427734 C221.25592795 249.4663721 221.25592795 249.4663721 218.50634766 247.38427734 C217.84634766 247.38427734 217.18634766 247.38427734 216.50634766 247.38427734 C216.50634766 241.44427734 216.50634766 235.50427734 216.50634766 229.38427734 C217.82634766 229.05427734 219.14634766 228.72427734 220.50634766 228.38427734 C223.08768892 225.99840513 223.48563819 224.69491934 223.72119141 221.16162109 C220.46502597 176.07978139 199.82413078 135.1611812 168.84033203 102.78125 C167.70276092 101.58996488 166.57956542 100.3849797 165.45947266 99.17724609 C155.32298121 88.54259375 142.86262376 80.20500229 130.50634766 72.38427734 C129.45705078 71.70751953 128.40775391 71.03076172 127.32666016 70.33349609 C112.99895045 61.59324286 96.74421852 55.68093784 80.69384766 50.94677734 C79.58867798 50.61299072 79.58867798 50.61299072 78.46118164 50.27246094 C63.4673253 46.11381476 48.01921551 44.87870118 32.52416992 44.99316406 C29.94022072 45.00929999 27.35782954 44.99316167 24.77392578 44.97412109 C8.89335038 44.95260372 -6.45956876 47.06852423 -21.74365234 51.44677734 Z " fill="#FDDF7C" transform="translate(225.49365234375,17.61572265625)"/>
<path d="M0 0 C1.18415785 0.00056958 1.18415785 0.00056958 2.39223808 0.00115067 C3.29991198 -0.00084038 4.20758588 -0.00283143 5.14276505 -0.00488281 C6.15149876 -0.00196997 7.16023248 0.00094287 8.19953388 0.00394398 C9.26211192 0.00308955 10.32468996 0.00223513 11.41946733 0.00135481 C15.00945719 -0.00030315 18.59940117 0.00522653 22.18938679 0.01067311 C24.75107806 0.01095494 27.31276941 0.01079733 29.87446064 0.0102306 C35.40476108 0.01000227 40.93504653 0.01285381 46.46534389 0.01846844 C54.46131194 0.02658108 62.45727427 0.02919842 70.45324599 0.03045643 C83.42486646 0.03264732 96.39648066 0.03930841 109.36809772 0.04875904 C121.97193855 0.0579322 134.57577767 0.0650135 147.17962116 0.06926686 C147.95597729 0.06952958 148.73233341 0.0697923 149.53221548 0.07006299 C153.42680336 0.07136799 157.32139126 0.0726317 161.21597916 0.07387489 C193.54688196 0.08424866 225.87777706 0.10186798 258.20867389 0.1241985 C259.48875227 2.78580757 260.76248941 5.4501624 262.03289264 8.116386 C262.56988788 9.23049855 262.56988788 9.23049855 263.11773151 10.36711842 C268.83534087 22.40453526 271.98433669 35.03367344 274.20867389 48.1241985 C274.39558796 49.17865162 274.58250202 50.23310475 274.77508014 51.319511 C276.52540214 66.6781923 275.7491319 82.88503363 273.20867389 98.1241985 C273.09571979 98.80820729 272.98276569 99.49221607 272.86638874 100.1969524 C270.37659734 114.33910088 264.60177916 127.33798796 258.20867389 140.1241985 C172.40867389 140.1241985 86.60867389 140.1241985 -1.79132611 140.1241985 C-9.97608287 123.75468496 -9.97608287 123.75468496 -12.47882611 115.5616985 C-12.9124345 114.1843755 -12.9124345 114.1843755 -13.35480267 112.77922779 C-15.65502835 105.20281105 -17.24334316 97.5575908 -18.4619804 89.73723561 C-18.59644573 88.91231617 -18.73091107 88.08739674 -18.86945111 87.23747975 C-19.03042279 86.15140431 -19.03042279 86.15140431 -19.19464642 85.04338795 C-19.94010023 82.64567419 -20.80932225 81.65301768 -22.79132611 80.1241985 C-24.11132611 79.7941985 -25.43132611 79.4641985 -26.79132611 79.1241985 C-26.79132611 73.5141985 -26.79132611 67.9041985 -26.79132611 62.1241985 C-24.81132611 61.1341985 -22.83132611 60.1441985 -20.79132611 59.1241985 C-18.41167111 55.55471601 -18.40649531 53.5008114 -18.04132611 49.2491985 C-17.0966917 40.50071071 -10.45254922 0.72470942 0 0 Z " fill="#EFF4F5" transform="translate(127.79132610559464,185.8758015036583)"/>
<path d="M0 0 C0.89225281 0.00337372 1.78450562 0.00674744 2.70379639 0.01022339 C55.96231057 0.30080217 104.08649953 22.26217486 141.47387695 59.79199219 C147.09372316 65.60127141 151.99719586 71.95767101 156.8125 78.4375 C157.43640625 79.26636719 158.0603125 80.09523438 158.703125 80.94921875 C177.8826987 107.34353864 196.49618012 145.94819595 193.8125 179.4375 C192.00390625 182.3984375 192.00390625 182.3984375 189.8125 184.4375 C188.8225 184.4375 187.8325 184.4375 186.8125 184.4375 C186.8125 190.3775 186.8125 196.3175 186.8125 202.4375 C188.4625 203.0975 190.1125 203.7575 191.8125 204.4375 C195.23387255 209.56955883 193.49751503 215.51937221 192.8125 221.4375 C192.67199219 222.67628906 192.53148437 223.91507813 192.38671875 225.19140625 C187.53178758 258.44933612 171.70302581 291.07872215 149.8125 316.4375 C149.16539062 317.19417969 148.51828125 317.95085937 147.8515625 318.73046875 C145.553564 321.34882021 143.19934575 323.89972136 140.8125 326.4375 C140.01779297 327.28320557 140.01779297 327.28320557 139.20703125 328.14599609 C115.00699982 353.68518656 85.24018051 370.15487069 51.8125 380.4375 C50.76320313 380.76621094 49.71390625 381.09492188 48.6328125 381.43359375 C43.26316538 383.00858143 37.81280805 384.06266301 32.3125 385.0625 C31.29784668 385.2476416 31.29784668 385.2476416 30.26269531 385.43652344 C9.01128674 389.10195989 -13.07636657 388.61026503 -34.1875 384.4375 C-34.93757324 384.29828125 -35.68764648 384.1590625 -36.46044922 384.015625 C-72.88200648 377.19989499 -106.02638313 359.35281029 -132.70800781 333.84960938 C-133.6891484 332.9131544 -134.67545247 331.98207769 -135.66699219 331.05664062 C-148.30501582 319.24337925 -158.65040709 305.46424599 -167.1875 290.4375 C-167.84105469 289.31601562 -168.49460937 288.19453125 -169.16796875 287.0390625 C-175.06824483 276.65292098 -179.21326268 265.67752088 -183.1875 254.4375 C-183.44160645 253.73512207 -183.69571289 253.03274414 -183.95751953 252.30908203 C-185.59653302 247.73374 -186.96977678 243.13797635 -188.1875 238.4375 C-188.38359863 237.70692383 -188.57969727 236.97634766 -188.78173828 236.22363281 C-192.40851656 222.00713642 -192.58395986 207.76971872 -192.625 193.1875 C-192.6311734 192.2555481 -192.6373468 191.32359619 -192.64370728 190.36340332 C-192.71618851 173.32375729 -191.02532123 156.92434683 -186.0625 140.5625 C-185.7639209 139.56347656 -185.4653418 138.56445312 -185.15771484 137.53515625 C-175.5017968 106.28060413 -158.48576044 80.11910895 -136.1875 56.4375 C-135.53136719 55.72722656 -134.87523437 55.01695313 -134.19921875 54.28515625 C-124.04708466 43.65476317 -111.5935802 35.20728734 -99.1875 27.4375 C-98.28837891 26.86950684 -98.28837891 26.86950684 -97.37109375 26.29003906 C-68.1402578 8.09179185 -34.18049093 -0.25284155 0 0 Z M-103.1875 69.4375 C-104.03828125 70.17871094 -104.8890625 70.91992188 -105.765625 71.68359375 C-108.27233855 73.90195835 -110.73832175 76.15585511 -113.1875 78.4375 C-113.93773437 79.13359375 -114.68796875 79.8296875 -115.4609375 80.546875 C-139.54031335 103.69687143 -159.46106527 140.8083928 -160.625 174.5625 C-160.69534097 178.32339711 -160.70264818 179.81339851 -158.28515625 182.7421875 C-156.29970659 184.4707268 -156.29970659 184.4707268 -154.1875 185.4375 C-154.1875 191.0475 -154.1875 196.6575 -154.1875 202.4375 C-156.6625 203.4275 -156.6625 203.4275 -159.1875 204.4375 C-163.69729283 213.45708566 -158.88799863 226.3697166 -156.1875 235.4375 C-155.84936279 236.62110107 -155.84936279 236.62110107 -155.50439453 237.82861328 C-147.84634675 264.31724428 -134.23211312 286.71174907 -115.1875 306.4375 C-113.91326172 307.80648437 -113.91326172 307.80648437 -112.61328125 309.203125 C-87.71950601 335.25042346 -49.44336173 353.95983668 -13.32373047 355.61450195 C-11.9841466 355.64053002 -10.64443976 355.66073917 -9.3046875 355.67578125 C-8.57660385 355.68571106 -7.8485202 355.69564087 -7.09837341 355.70587158 C37.81559826 356.19173454 79.12448586 343.00528792 111.95703125 311.234375 C112.89933594 310.31140625 113.84164063 309.3884375 114.8125 308.4375 C115.62074219 307.67953125 116.42898438 306.9215625 117.26171875 306.140625 C140.32060353 284.08779976 155.40594627 252.65705112 160.8125 221.4375 C161.06519653 220.07202026 161.06519653 220.07202026 161.32299805 218.67895508 C162.81653505 210.01644046 163.17363247 201.52725018 163.125 192.75 C163.12284485 192.04717896 163.1206897 191.34435791 163.11846924 190.62023926 C163.06465357 179.65988617 162.55527315 169.09080248 159.8125 158.4375 C159.60850586 157.63989258 159.40451172 156.84228516 159.19433594 156.02050781 C151.30304383 126.09792273 136.34539113 100.60092967 114.8125 78.4375 C114.28188965 77.88497559 113.7512793 77.33245117 113.20458984 76.76318359 C97.01277188 60.16965151 76.44515968 48.37793373 54.8125 40.4375 C54.17892578 40.19805664 53.54535156 39.95861328 52.89257812 39.71191406 C0.69449563 20.13084358 -61.62986453 32.84871225 -103.1875 69.4375 Z " fill="#7095D0" transform="translate(255.1875,62.5625)"/>
<path d="M0 0 C2.52630017 0.89131689 5.05706303 1.76903935 7.58837891 2.64599609 C9.20715228 3.21419867 10.82565229 3.78318076 12.44384766 4.35302734 C13.1948877 4.61249146 13.94592773 4.87195557 14.71972656 5.13928223 C21.75312684 7.64861533 21.75312684 7.64861533 24.50634766 10.38427734 C25.22815694 14.71513303 24.96131697 16.67980873 22.56884766 20.38427734 C18.29239626 23.17706193 15.37260906 22.33539384 10.50634766 21.38427734 C7.58796633 20.56597871 4.78284885 19.53130819 1.95556641 18.44287109 C0.35353742 17.85317675 -1.2486822 17.2640001 -2.85107422 16.67529297 C-5.32847593 15.75205136 -7.80330407 14.82285992 -10.2746582 13.88354492 C-26.23191486 7.78815814 -26.23191486 7.78815814 -42.93115234 9.63427734 C-49.81316727 13.01491625 -53.4564234 17.71797495 -57.80615234 23.82177734 C-59.04163475 25.52598844 -60.27867578 27.22907044 -61.51708984 28.93115234 C-62.16258789 29.81996094 -62.80808594 30.70876953 -63.47314453 31.62451172 C-66.90627765 36.31375009 -70.41377665 40.94556061 -73.93115234 45.57177734 C-74.90532104 46.86136353 -74.90532104 46.86136353 -75.89916992 48.17700195 C-84.99447752 60.12633424 -92.7737608 68.1163798 -107.49365234 72.38427734 C-109.28401771 72.9432602 -111.07428891 73.5025563 -112.86328125 74.06591797 C-114.91853837 74.71247073 -116.97541684 75.35362518 -119.03271484 75.99365234 C-125.38153103 77.97110602 -131.72617806 79.96102679 -138.06005859 81.98583984 C-140.72692163 82.8363744 -143.3904213 83.63993944 -146.08349609 84.40771484 C-153.38054165 86.5609414 -159.50555645 89.34910655 -163.52001953 96.11378479 C-166.92685059 102.89339244 -167.03413059 109.00723986 -166.96240234 116.49365234 C-166.9694519 117.73745667 -166.97650146 118.98126099 -166.98376465 120.26275635 C-167.00571694 124.22005987 -167.00366018 128.17696196 -166.99365234 132.13427734 C-166.98153341 137.33776541 -166.99550127 142.54025085 -167.02490234 147.74365234 C-167.01358276 148.91700134 -167.00226318 150.09035034 -166.99060059 151.29925537 C-167.10937197 171.03392916 -177.05235406 183.69840968 -188.70458984 198.52880859 C-192.59539302 203.49499497 -196.41082149 208.51361762 -200.18115234 213.57177734 C-200.76904541 214.34908203 -201.35693848 215.12638672 -201.96264648 215.92724609 C-207.54846719 223.46332041 -210.69791495 229.80821328 -209.49365234 239.38427734 C-207.4977419 248.79588755 -200.69567984 256.53084036 -195.14013672 264.12451172 C-190.96732466 269.85160964 -186.90909422 275.66169305 -182.84375 281.46533203 C-181.59515489 283.24000791 -180.33261964 285.00391563 -179.06787109 286.76708984 C-178.36275391 287.77513672 -177.65763672 288.78318359 -176.93115234 289.82177734 C-176.33173828 290.66611328 -175.73232422 291.51044922 -175.11474609 292.38037109 C-170.30404134 301.29466497 -170.08742368 310.05062576 -170.15771484 320.00927734 C-170.15355079 321.40593183 -170.14735699 322.80258157 -170.13925171 324.19921875 C-170.10858986 330.07802977 -170.11312354 335.95660829 -170.13330078 341.83544922 C-170.14429457 345.45231634 -170.13087609 349.06847297 -170.103405 352.6852417 C-170.09542191 354.70684061 -170.11516778 356.72848909 -170.13565063 358.75 C-170.07317974 366.57951754 -169.46371836 373.07486611 -164.49365234 379.38427734 C-159.06668839 384.33360682 -152.54530963 386.8065506 -145.66552734 389.07568359 C-144.29923187 389.54457253 -144.29923187 389.54457253 -142.90533447 390.02293396 C-140.02211418 391.00982551 -137.13332215 391.97895346 -134.24365234 392.94677734 C-130.445309 394.23544372 -126.64905362 395.53020937 -122.85302734 396.82568359 C-121.94452026 397.13544632 -121.03601318 397.44520905 -120.09997559 397.76435852 C-98.94881695 404.99873345 -89.08387664 414.0323597 -76.49365234 432.38427734 C-75.99655762 433.10695801 -75.49946289 433.82963867 -74.98730469 434.57421875 C-73.11754392 437.29484338 -71.25158189 440.0180636 -69.38549805 442.74121094 C-60.16996615 457.95285553 -60.16996615 457.95285553 -45.49365234 466.38427734 C-31.40706786 468.00077065 -17.92033013 462.24025926 -4.80615234 457.82177734 C1.27326668 455.77486839 7.34541274 453.73604989 13.50634766 451.94677734 C14.55822266 451.63869141 15.61009766 451.33060547 16.69384766 451.01318359 C29.46484538 448.90649237 39.37490182 451.77482598 51.25634766 456.00927734 C52.78697204 456.5384342 54.31822156 457.06578636 55.85009766 457.59130859 C61.97823953 459.70388008 68.0895015 461.85826279 74.17260742 464.09741211 C74.92999207 464.37301971 75.68737671 464.64862732 76.4677124 464.93258667 C77.89350181 465.45228988 79.31672788 465.97910874 80.7366333 466.51467896 C89.05815411 469.5368001 97.51736414 470.04562891 105.81884766 466.57177734 C111.76546876 463.07319799 115.50780234 457.87639694 119.50634766 452.38427734 C120.57849717 450.93579252 121.65147048 449.48791725 122.72509766 448.04052734 C125.1151926 444.80791472 127.49867316 441.5705457 129.87744141 438.32958984 C130.47927246 437.51006836 131.08110352 436.69054687 131.70117188 435.84619141 C132.89001222 434.22484084 134.07659582 432.60183274 135.26074219 430.97705078 C145.21338052 417.36181891 153.70629418 408.63271826 170.15087891 403.61474609 C171.29669434 403.26500732 172.44250977 402.91526855 173.62304688 402.55493164 C177.11721402 401.49818641 180.61603973 400.45739689 184.1156311 399.41877747 C187.2579968 398.48491356 190.39827456 397.54413794 193.53833008 396.60253906 C195.15351879 396.12026106 196.76975135 395.64146644 198.38696289 395.16601562 C200.76171041 394.46692889 203.13227656 393.75497466 205.50244141 393.04052734 C206.57600136 392.72940002 206.57600136 392.72940002 207.67124939 392.4119873 C216.10994065 389.83664955 221.75236348 385.26894499 226.12548828 377.51245117 C228.40160452 371.98115931 227.92712809 366.02818121 227.91259766 360.14599609 C227.92885193 358.23207817 227.92885193 358.23207817 227.94543457 356.27949524 C227.9796297 352.21019688 227.99588119 348.14118586 228.00634766 344.07177734 C228.02014828 338.72126024 228.05476072 333.37136583 228.10009766 328.02099609 C228.09707642 326.80401535 228.09405518 325.58703461 228.09094238 324.33317566 C228.24998552 306.1202809 236.82437161 295.0700548 247.68603516 281.27099609 C251.57344051 276.32020631 255.37483235 271.30995798 259.13134766 266.25927734 C259.71078125 265.49043213 260.29021484 264.72158691 260.88720703 263.92944336 C267.14054491 255.48025583 271.98407981 247.20127674 270.50634766 236.38427734 C267.58907558 227.82375765 262.04072369 220.73465501 256.65478516 213.59912109 C253.03511231 208.79337351 249.58002162 203.87605289 246.13134766 198.94677734 C245.54869141 198.11855469 244.96603516 197.29033203 244.36572266 196.43701172 C242.72914281 194.09715505 241.11420642 191.74393529 239.50634766 189.38427734 C238.80396973 188.38243408 238.80396973 188.38243408 238.08740234 187.36035156 C232.00044914 178.28901838 231.08273479 169.36085316 231.18735313 158.59489441 C231.20600789 156.49073061 231.20297715 154.38754467 231.19429016 152.2833252 C231.17267763 146.30884077 231.18334403 140.33474843 231.22143555 134.36035156 C231.24336809 130.68506487 231.23587424 127.01074796 231.21097755 123.335495 C231.20741553 121.94819968 231.21487495 120.56082517 231.23422813 119.17366028 C231.35843889 110.0999576 230.52589206 103.44719034 224.50634766 96.38427734 C219.63051507 92.05010519 213.48380245 90.46234584 207.36962891 88.48583984 C205.16063565 87.75149155 202.95165157 87.01711567 200.74267578 86.28271484 C197.28570737 85.14565405 193.82760034 84.01214143 190.36889648 82.88037109 C187.01201128 81.77844695 183.6595352 80.66380274 180.30712891 79.54833984 C179.28903641 79.22000153 178.27094391 78.89166321 177.22200012 78.55337524 C158.96997633 72.46858647 149.43284842 62.28253323 139.07324219 46.71728516 C136.18884779 42.42260257 133.22075056 38.18643879 130.25634766 33.94677734 C129.69020752 33.13104248 129.12406738 32.31530762 128.54077148 31.47485352 C119.65012441 17.58576689 119.65012441 17.58576689 105.50634766 10.38427734 C98.47054853 9.7927687 92.39015275 10.87395773 85.69384766 12.94677734 C84.80165527 13.21055176 83.90946289 13.47432617 82.99023438 13.74609375 C78.20032373 15.18248066 73.45325264 16.72499467 68.72119141 18.34130859 C67.7844458 18.66091553 66.8477002 18.98052246 65.88256836 19.30981445 C64.09185469 19.92780056 62.30494762 20.55696698 60.52270508 21.19897461 C55.72102007 22.87556572 51.66724863 23.98529366 46.50634766 23.38427734 C43.50634766 20.75927734 43.50634766 20.75927734 41.50634766 17.38427734 C41.50634766 14.13266404 41.72685515 12.32133329 43.82225037 9.80238342 C45.6848535 8.23396523 47.13750937 7.61250436 49.4519043 6.88208008 C50.24025162 6.62849228 51.02859894 6.37490448 51.84083557 6.1136322 C52.69080612 5.85103104 53.54077667 5.58842987 54.41650391 5.31787109 C55.29858017 5.0383107 56.18065643 4.75875031 57.08946228 4.47071838 C58.95839293 3.88058347 60.82876503 3.29499715 62.70043945 2.71362305 C65.5371211 1.83164177 68.36862007 0.93442488 71.19970703 0.03466797 C73.02168372 -0.5385169 74.84394112 -1.11081038 76.66650391 -1.68212891 C77.92020531 -2.079067 77.92020531 -2.079067 79.19923401 -2.48402405 C93.16127134 -6.79860702 105.38900955 -8.66602767 119.11181641 -2.43212891 C131.83043153 4.52860154 138.99150173 17.21521288 146.83789062 28.91064453 C150.87759003 34.89985062 155.01642112 40.81803036 159.25927734 46.66503906 C160.31281161 48.11746434 161.352567 49.5798694 162.38916016 51.04443359 C168.9555403 59.52997316 180.61325891 61.81624662 190.38916016 65.12646484 C191.37563538 65.46077515 192.3621106 65.79508545 193.378479 66.13952637 C197.50193358 67.53381474 201.62579379 68.92618664 205.7578125 70.29492188 C235.4368903 80.15059802 235.4368903 80.15059802 243.78759766 95.78271484 C246.52215897 101.66202166 247.64366349 106.80609852 247.57226562 113.31689453 C247.56250702 114.48871277 247.55274841 115.66053101 247.54269409 116.86785889 C247.52812164 118.12624573 247.51354919 119.38463257 247.49853516 120.68115234 C247.48549949 122.67294711 247.4724823 124.66474219 247.46052742 126.65654373 C247.4301053 131.55289163 247.39014305 136.4490826 247.33496094 141.34521484 C247.30443932 144.0951619 247.28212626 146.8449487 247.26858521 149.59503174 C247.25550885 152.17841707 247.23057945 154.76177771 247.19210815 157.34490967 C247.15998871 168.35822554 249.39219473 175.62237743 255.94384766 184.38427734 C257.02217502 185.86980756 258.100294 187.35548905 259.17822266 188.84130859 C260.00483398 189.96786865 260.00483398 189.96786865 260.84814453 191.1171875 C267.28406275 199.91635367 273.5895172 208.83025914 279.56884766 217.94677734 C280.26107422 218.99994141 280.95330078 220.05310547 281.66650391 221.13818359 C285.44764278 227.80936492 287.05116209 233.5262715 286.94384766 241.19677734 C286.93337402 241.98793945 286.92290039 242.77910156 286.91210938 243.59423828 C286.50762939 256.69296106 280.21188293 265.32727684 272.50634766 275.38427734 C271.20816666 277.08609728 269.90998983 278.78792039 268.61181641 280.48974609 C266.52628642 283.2208207 264.4402406 285.95149312 262.35253906 288.6809082 C258.53936777 293.67699095 254.74877443 298.68154669 251.13134766 303.82177734 C250.12974609 305.24296875 250.12974609 305.24296875 249.10791016 306.69287109 C246.2457321 311.50272641 245.26115494 315.9308841 245.15917969 321.49047852 C245.11871017 323.26844063 245.11871017 323.26844063 245.0774231 325.08232117 C245.05654633 326.35114639 245.03566956 327.61997162 245.01416016 328.92724609 C244.96513599 330.94378625 244.91608931 332.96032613 244.86576653 334.9768343 C244.74493363 339.9248999 244.64332199 344.87331684 244.55273438 349.82202148 C244.4885234 353.27889756 244.40582665 356.73495423 244.3123436 360.19115639 C244.26544421 362.12431834 244.23901608 364.05794288 244.21316528 365.99150085 C243.94318663 375.73380929 242.03164501 384.51374949 236.38134766 392.63427734 C235.88376953 393.38193359 235.38619141 394.12958984 234.87353516 394.89990234 C227.40958768 402.73335217 218.66583521 406.16300586 208.50634766 409.32177734 C207.1892124 409.74638299 205.87256856 410.17251572 204.55639648 410.60009766 C198.09086252 412.68727424 191.59644331 414.66685802 185.08056641 416.59130859 C183.91847656 416.93750244 182.75638672 417.28369629 181.55908203 417.64038086 C179.38394675 418.28279059 177.20443107 418.91062901 175.02001953 419.52075195 C164.06789498 422.72818531 157.36719409 427.56617183 150.94384766 436.94677734 C149.74516472 438.63298121 148.54456644 440.31782475 147.34228516 442.00146484 C146.72192383 442.87770508 146.1015625 443.75394531 145.46240234 444.65673828 C142.0874166 449.36284671 138.57947409 453.96646147 135.06884766 458.57177734 C134.41907959 459.4316626 133.76931152 460.29154785 133.09985352 461.17749023 C124.49923673 472.48049566 117.52371894 480.49961825 103.50634766 484.38427734 C102.70197266 484.61115234 101.89759766 484.83802734 101.06884766 485.07177734 C88.92756344 486.55242176 78.560393 482.89318883 67.26416016 478.81005859 C65.35435666 478.13523131 63.44418881 477.46143447 61.53369141 476.78857422 C58.57931569 475.74485825 55.62760462 474.69542134 52.68164062 473.62817383 C49.79880932 472.58657742 46.90769525 471.5714782 44.01416016 470.56005859 C43.15331818 470.24136307 42.2924762 469.92266754 41.4055481 469.59431458 C30.10988114 465.70665933 19.85034872 466.96464575 8.69384766 470.63037109 C7.63649414 470.96094009 6.57914063 471.29150909 5.48974609 471.63209534 C2.1561984 472.67806807 -1.1686549 473.74897144 -4.49365234 474.82177734 C-7.84879705 475.88533943 -11.2055284 476.94374326 -14.56274414 478.00074768 C-16.64001924 478.65681163 -18.71578354 479.31768392 -20.78979492 479.98399353 C-21.72847412 480.28422928 -22.66715332 480.58446503 -23.63427734 480.89379883 C-24.45444336 481.15805161 -25.27460938 481.42230438 -26.11962891 481.69456482 C-37.2549813 484.9296601 -47.8460938 483.87556025 -58.49365234 479.38427734 C-69.97072354 473.01672857 -76.91139992 461.041265 -84.03662109 450.47021484 C-87.43534861 445.44029151 -90.93979492 440.49301398 -94.49365234 435.57177734 C-95.02112061 434.83773682 -95.54858887 434.10369629 -96.09204102 433.34741211 C-97.54168772 431.34600479 -99.01433415 429.3638004 -100.49365234 427.38427734 C-101.08919922 426.54243896 -101.08919922 426.54243896 -101.69677734 425.68359375 C-107.13260801 418.44261432 -116.39822466 416.22831079 -124.64208984 413.48583984 C-126.80365899 412.75179109 -128.96511383 412.01740563 -131.12646484 411.28271484 C-134.49736016 410.14404465 -137.86939125 409.00903019 -141.24365234 407.88037109 C-144.52585269 406.77991373 -147.80287533 405.6650083 -151.07958984 404.54833984 C-152.57224869 404.05583237 -152.57224869 404.05583237 -154.09506226 403.55337524 C-166.42423895 399.3294292 -176.64214603 393.07132609 -182.86865234 381.25927734 C-183.70458984 379.50146484 -183.70458984 379.50146484 -184.49365234 377.38427734 C-184.83807373 376.46912354 -185.18249512 375.55396973 -185.53735352 374.61108398 C-187.17988239 368.76210628 -186.67676795 362.65539651 -186.58349609 356.63818359 C-186.57212402 355.29972884 -186.56210227 353.96126199 -186.55335999 352.62278748 C-186.51386247 346.97005675 -186.44869564 341.31768998 -186.37719727 335.6652832 C-186.33424955 332.19482686 -186.30630005 328.72449153 -186.28689766 325.25382805 C-186.2713402 323.30626123 -186.23839767 321.35885795 -186.20506287 319.41151428 C-186.11297583 302.90045391 -195.10819592 292.20118726 -204.43237305 279.37353516 C-208.18966766 274.20246053 -211.90990152 269.00935372 -215.55615234 263.75927734 C-215.99668945 263.1331958 -216.43722656 262.50711426 -216.89111328 261.86206055 C-222.80051793 253.3007363 -225.67545841 246.30343076 -225.80615234 235.82177734 C-225.83515625 235.07347656 -225.86416016 234.32517578 -225.89404297 233.55419922 C-226.01094921 222.96968831 -221.61637766 214.67006581 -215.24365234 206.50927734 C-214.64101562 205.71336182 -214.03837891 204.91744629 -213.41748047 204.09741211 C-211.4572737 201.51498515 -209.47750549 198.94857365 -207.49365234 196.38427734 C-205.35565558 193.60832993 -203.21991107 190.83071965 -201.08837891 188.04980469 C-199.73211723 186.28350306 -198.36985679 184.52178476 -197.00048828 182.765625 C-187.62853162 170.85430284 -187.62853162 170.85430284 -184.26000977 156.52685547 C-184.23295456 155.32130005 -184.20589935 154.11574463 -184.17802429 152.87365723 C-184.15198624 151.56747437 -184.12594818 150.2612915 -184.09912109 148.91552734 C-184.06622058 147.55608887 -184.03237709 146.19667292 -183.99763489 144.83728027 C-183.85042971 139.07129594 -183.70720731 133.30535933 -183.5949707 127.53857422 C-183.52564988 124.00732412 -183.43785426 120.4769256 -183.33858681 116.94639587 C-183.28793084 114.9667136 -183.25676621 112.98656284 -183.22612 111.00646973 C-182.81713893 97.22012463 -178.79848642 87.19869011 -168.80615234 77.69677734 C-161.28837316 71.49838795 -151.86842537 68.64913884 -142.63818359 65.97412109 C-141.15846321 65.5328463 -141.15846321 65.5328463 -139.64884949 65.08265686 C-136.53677573 64.15488634 -133.42190197 63.23712105 -130.30615234 62.32177734 C-126.18507351 61.11025722 -122.0671275 59.88878453 -117.95068359 58.66162109 C-117.02028763 58.3917186 -116.08989166 58.1218161 -115.13130188 57.84373474 C-104.37476144 54.67470434 -104.37476144 54.67470434 -95.89599609 47.67724609 C-95.32606934 46.97905762 -94.75614258 46.28086914 -94.16894531 45.56152344 C-91.41051962 41.9766152 -88.70483327 38.36364135 -86.05615234 34.69677734 C-84.835828 33.03065799 -83.61443071 31.3653241 -82.39208984 29.70068359 C-80.40552005 26.99177074 -78.41929687 24.28262526 -76.43603516 21.57128906 C-74.36373007 18.74933414 -72.27431347 15.940785 -70.18115234 13.13427734 C-69.23187866 11.8316394 -69.23187866 11.8316394 -68.26342773 10.50268555 C-62.94396366 3.41489451 -56.75570694 -2.91849103 -48.24365234 -5.99072266 C-47.45474609 -6.28720703 -46.66583984 -6.58369141 -45.85302734 -6.88916016 C-29.99509419 -11.77256341 -14.90835241 -5.27057039 0 0 Z " fill="#020100" transform="translate(225.49365234375,17.61572265625)"/>
<path d="M0 0 C0.89225281 0.00337372 1.78450562 0.00674744 2.70379639 0.01022339 C55.96231057 0.30080217 104.08649953 22.26217486 141.47387695 59.79199219 C147.09372316 65.60127141 151.99719586 71.95767101 156.8125 78.4375 C157.43640625 79.26636719 158.0603125 80.09523438 158.703125 80.94921875 C177.8826987 107.34353864 196.49618012 145.94819595 193.8125 179.4375 C192.03515625 182.359375 192.03515625 182.359375 189.8125 184.4375 C186.3125 185.0625 186.3125 185.0625 182.8125 184.4375 C177.71541322 180.03202537 177.72575015 174.16965266 176.9375 167.875 C172.92644042 139.88878942 162.3384134 113.41838139 145.8125 90.4375 C145.04808594 89.37402344 144.28367187 88.31054688 143.49609375 87.21484375 C117.12709125 51.67625658 76.5133244 25.996023 32.8125 18.4375 C31.8237085 18.26017334 30.83491699 18.08284668 29.81616211 17.90014648 C20.66621971 16.4110525 11.70947137 16.09692084 2.45483398 16.12182617 C0.01305269 16.12498312 -2.42750804 16.10143437 -4.86914062 16.07617188 C-15.61825965 16.03274328 -25.68465698 17.17892096 -36.1875 19.4375 C-37.58295044 19.73563599 -37.58295044 19.73563599 -39.0065918 20.03979492 C-41.22732361 20.54539261 -43.42571042 21.0960708 -45.625 21.6875 C-46.7996582 22.00328003 -46.7996582 22.00328003 -47.99804688 22.32543945 C-76.63863169 30.30380605 -101.31288501 45.53384009 -123.1875 65.4375 C-123.93257813 66.11039062 -124.67765625 66.78328125 -125.4453125 67.4765625 C-131.75894225 73.4834572 -136.95496512 80.49642426 -142.1875 87.4375 C-143.14849609 88.7059375 -143.14849609 88.7059375 -144.12890625 90 C-162.95447396 115.85785635 -176.1031958 148.94581808 -176.42578125 181.125 C-176.43571106 181.93649002 -176.44564087 182.74798004 -176.45587158 183.58406067 C-176.96911376 236.47038861 -161.5155138 282.18130306 -124.1875 320.4375 C-92.29983653 352.43466781 -47.16263982 371.42138135 -1.9375 371.75 C42.36499127 371.81559553 86.84559788 356.29788748 119.3515625 325.74609375 C121.53766981 323.69531689 123.7735155 321.74629725 126.0625 319.8125 C130.05038055 316.32512267 133.46728614 312.53986102 136.8125 308.4375 C137.56273437 307.52484375 138.31296875 306.6121875 139.0859375 305.671875 C150.13048391 291.80522052 158.78311506 276.68643432 165.8125 260.4375 C166.28300781 259.37660156 166.75351562 258.31570313 167.23828125 257.22265625 C173.07111568 243.19134866 176.0258063 227.89171767 177.64892578 212.83374023 C178.10931238 209.10491625 178.41470953 206.96408329 180.71875 203.9140625 C182.8125 202.4375 182.8125 202.4375 185.75 201.875 C188.8125 202.4375 188.8125 202.4375 191.75 204.0625 C195.16280279 209.64708639 193.699975 215.18973764 192.8125 221.4375 C192.668125 222.67371094 192.52375 223.90992188 192.375 225.18359375 C187.6315911 258.4203964 171.66745187 291.1199323 149.8125 316.4375 C149.16539062 317.19417969 148.51828125 317.95085937 147.8515625 318.73046875 C145.553564 321.34882021 143.19934575 323.89972136 140.8125 326.4375 C140.01779297 327.28320557 140.01779297 327.28320557 139.20703125 328.14599609 C115.00699982 353.68518656 85.24018051 370.15487069 51.8125 380.4375 C50.76320313 380.76621094 49.71390625 381.09492188 48.6328125 381.43359375 C43.26316538 383.00858143 37.81280805 384.06266301 32.3125 385.0625 C31.29784668 385.2476416 31.29784668 385.2476416 30.26269531 385.43652344 C9.01128674 389.10195989 -13.07636657 388.61026503 -34.1875 384.4375 C-34.93757324 384.29828125 -35.68764648 384.1590625 -36.46044922 384.015625 C-72.88200648 377.19989499 -106.02638313 359.35281029 -132.70800781 333.84960938 C-133.6891484 332.9131544 -134.67545247 331.98207769 -135.66699219 331.05664062 C-148.30501582 319.24337925 -158.65040709 305.46424599 -167.1875 290.4375 C-167.84105469 289.31601562 -168.49460937 288.19453125 -169.16796875 287.0390625 C-175.06824483 276.65292098 -179.21326268 265.67752088 -183.1875 254.4375 C-183.44160645 253.73512207 -183.69571289 253.03274414 -183.95751953 252.30908203 C-185.59653302 247.73374 -186.96977678 243.13797635 -188.1875 238.4375 C-188.38359863 237.70692383 -188.57969727 236.97634766 -188.78173828 236.22363281 C-192.40851656 222.00713642 -192.58395986 207.76971872 -192.625 193.1875 C-192.6311734 192.2555481 -192.6373468 191.32359619 -192.64370728 190.36340332 C-192.71618851 173.32375729 -191.02532123 156.92434683 -186.0625 140.5625 C-185.7639209 139.56347656 -185.4653418 138.56445312 -185.15771484 137.53515625 C-175.5017968 106.28060413 -158.48576044 80.11910895 -136.1875 56.4375 C-135.53136719 55.72722656 -134.87523437 55.01695313 -134.19921875 54.28515625 C-124.04708466 43.65476317 -111.5935802 35.20728734 -99.1875 27.4375 C-98.28837891 26.86950684 -98.28837891 26.86950684 -97.37109375 26.29003906 C-68.1402578 8.09179185 -34.18049093 -0.25284155 0 0 Z " fill="#030302" transform="translate(255.1875,62.5625)"/>
<path d="M0 0 C10.57429412 7.74673562 18.97294436 18.03587462 21.1875 31.25 C22.44944916 45.24049809 19.81851306 57.0978226 11.1875 68.25 C10.465625 69.28125 9.74375 70.3125 9 71.375 C1.81103641 79.64345652 -9.76129411 84.90388028 -20.53125 85.6640625 C-34.44844266 86.24279202 -45.13914756 83.57758191 -55.8125 74.25 C-56.40546875 73.77304687 -56.9984375 73.29609375 -57.609375 72.8046875 C-65.72504451 65.65858912 -71.0744848 53.55291785 -72.1484375 42.92578125 C-72.31382173 28.68619872 -67.88120902 16.45217412 -58.0625 6 C-53.75301267 1.93676909 -49.08627597 -1.07983898 -43.8125 -3.75 C-42.80316406 -4.26240234 -42.80316406 -4.26240234 -41.7734375 -4.78515625 C-28.75747973 -10.18753254 -11.61432684 -7.2416416 0 0 Z " fill="#040404" transform="translate(338.8125,216.75)"/>
<path d="M0 0 C0 0.66 0 1.32 0 2 C-2.22501795 3.43775067 -4.44672278 4.76116641 -6.75 6.0625 C-18.68955362 13.03534593 -29.04188178 21.45760905 -39 31 C-39.50563477 31.47840332 -40.01126953 31.95680664 -40.53222656 32.44970703 C-65.98546985 56.61816756 -82.31199271 88.21820517 -91 122 C-91.20238281 122.78117187 -91.40476562 123.56234375 -91.61328125 124.3671875 C-94.54992484 136.60693863 -95.34731951 148.7825687 -95.25 161.3125 C-95.24656586 162.03910828 -95.24313171 162.76571655 -95.23959351 163.51434326 C-95.18080177 174.13391084 -94.9253485 184.53016259 -93 195 C-92.85997559 195.82983398 -92.71995117 196.65966797 -92.57568359 197.51464844 C-86.71051215 231.53629714 -70.71412497 263.8990841 -47 289 C-45.87037767 290.32941948 -44.74520688 291.66263718 -43.625 293 C-30.84022927 307.56529816 -14.43327458 318.04502026 2 328 C1.34 328.33 0.68 328.66 0 329 C-2.47326952 327.95701828 -4.80761715 326.85394676 -7.1875 325.625 C-7.90147949 325.25995361 -8.61545898 324.89490723 -9.35107422 324.51879883 C-27.24627367 315.24776812 -42.41279644 303.86441419 -57 290 C-57.63164062 289.42121094 -58.26328125 288.84242188 -58.9140625 288.24609375 C-65.00335042 282.48868645 -70.01037821 275.70474959 -75 269 C-75.42716309 268.42781738 -75.85432617 267.85563477 -76.29443359 267.26611328 C-98.83606379 236.57881773 -108.27875252 200.040327 -108.4375 162.5 C-108.44394531 161.65195801 -108.45039062 160.80391602 -108.45703125 159.93017578 C-108.50985544 148.57077454 -107.47267911 138.0954984 -105 127 C-104.70167931 125.47449311 -104.40549882 123.94856272 -104.11328125 122.421875 C-94.42947926 78.01810003 -64.87246075 38.35545369 -27.05908203 13.73632812 C-5.3392 0 -5.3392 0 0 0 Z " fill="#4275C1" transform="translate(186,92)"/>
<path d="M0 0 C-0.721875 0.66 -1.44375 1.32 -2.1875 2 C-13.35529808 13.16779808 -12.0325997 27.69395659 -12.140625 42.4453125 C-12.15025269 43.46985535 -12.15988037 44.49439819 -12.1697998 45.54998779 C-12.22971068 51.95286569 -12.22971068 51.95286569 -12.25048828 58.35595703 C-12.26805166 74.85298372 -13.56345313 86.54217892 -24.4375 99.5625 C-25.67801228 101.10237202 -26.91621907 102.64410364 -28.15234375 104.1875 C-28.7851123 104.97253906 -29.41788086 105.75757813 -30.06982422 106.56640625 C-33.31426293 110.65704185 -36.40932918 114.85514062 -39.5 119.0625 C-40.06259521 119.82312744 -40.62519043 120.58375488 -41.20483398 121.36743164 C-52.60990783 136.74465406 -52.60990783 136.74465406 -54.7890625 155.3984375 C-53.14152771 164.25782272 -47.7520146 171.6412148 -42.5625 178.8125 C-41.51008069 180.28752076 -40.45801285 181.76279233 -39.40625 183.23828125 C-38.85582031 184.00736816 -38.30539063 184.77645508 -37.73828125 185.56884766 C-34.66414595 189.86831946 -31.60916423 194.18103134 -28.5625 198.5 C-27.9837915 199.31186768 -27.40508301 200.12373535 -26.80883789 200.96020508 C-15.88810463 216.45491789 -15.88810463 216.45491789 -15.8581543 226.25634766 C-15.85111984 227.54844147 -15.84408539 228.84053528 -15.83683777 230.17178345 C-15.83502188 230.86255604 -15.83320599 231.55332863 -15.83133507 232.26503372 C-15.82414822 234.43536177 -15.80846277 236.60546652 -15.78999329 238.77572632 C-15.73764637 244.94631783 -15.68961831 251.11678916 -15.67407227 257.28759766 C-15.66393336 261.06496179 -15.63445717 264.84176602 -15.59275246 268.61890793 C-15.58051665 270.05162679 -15.57530752 271.48442502 -15.57755089 272.91719437 C-15.59226582 285.38911277 -13.21922438 294.59304165 -4.34765625 303.6953125 C-3.90292969 304.12585938 -3.45820312 304.55640625 -3 305 C-11.91424145 302.87844776 -19.87850902 299.79556903 -25 291.8125 C-27.47966719 287.44725255 -28.12813094 283.95355036 -28.15771484 278.94311523 C-28.16797699 277.69429062 -28.17823914 276.445466 -28.18881226 275.15879822 C-28.19225018 274.49124952 -28.1956881 273.82370083 -28.19923019 273.13592339 C-28.2110607 271.03673392 -28.2305281 268.93774637 -28.25234985 266.83863831 C-28.31379615 260.8702785 -28.36779845 254.90193644 -28.40136719 248.93334961 C-28.42246853 245.27924342 -28.45790043 241.6255015 -28.50212479 237.9716053 C-28.51617195 236.58716217 -28.52498138 235.20265454 -28.52817917 233.81814384 C-28.55477891 223.39605354 -29.25523477 214.14585209 -35.4375 205.4375 C-36.49710938 203.9215625 -36.49710938 203.9215625 -37.578125 202.375 C-38.38511299 201.24978214 -39.19242256 200.12479487 -40 199 C-40.91265935 197.70918166 -41.82405852 196.41747165 -42.734375 195.125 C-44.74032496 192.27992908 -46.74839435 189.43637234 -48.7578125 186.59375 C-49.83856577 185.06251701 -50.91929405 183.53126639 -52 182 C-52.58104492 181.17886719 -53.16208984 180.35773438 -53.76074219 179.51171875 C-55.53731831 176.99337133 -57.30114837 174.46651213 -59.0625 171.9375 C-59.61059326 171.16462646 -60.15868652 170.39175293 -60.72338867 169.59545898 C-66.06796331 161.87644616 -69.35102123 154.54795917 -68 145 C-65.34026841 138.05833442 -61.22301646 132.28031195 -56.5625 126.5625 C-55.32222736 125.00288365 -54.08401213 123.44162936 -52.84765625 121.87890625 C-52.2148877 121.0811377 -51.58211914 120.28336914 -50.93017578 119.46142578 C-47.71468149 115.36091814 -44.59953154 111.18852228 -41.5 107 C-40.65610718 105.8718689 -40.65610718 105.8718689 -39.79516602 104.72094727 C-37.00214285 100.93603267 -34.3181486 97.08656087 -31.78125 93.125 C-31.08612305 92.04605469 -31.08612305 92.04605469 -30.37695312 90.9453125 C-26.19676456 82.00385951 -25.58729688 73.33928538 -25.6640625 63.58984375 C-25.65155624 61.02799223 -25.6385194 58.46614325 -25.625 55.90429688 C-25.62106784 51.91290553 -25.62443516 47.92177519 -25.63964844 43.93041992 C-25.64824562 40.04568698 -25.62650095 36.16198581 -25.6015625 32.27734375 C-25.62157822 30.50350563 -25.62157822 30.50350563 -25.64199829 28.6938324 C-25.56618058 20.13053231 -23.9257925 13.32041582 -18.05410767 6.85850525 C-13.15227742 2.14208144 -6.98632433 -2.22573165 0 0 Z " fill="#FCCE62" transform="translate(83,102)"/>
<path d="M0 0 C6.81509124 5.04867973 11.70833158 12.59123858 13 21 C14.0477032 30.47423041 11.9836865 38.66486332 6.23828125 46.359375 C-0.10728169 53.20691959 -6.8990074 57.10730628 -16.26049805 57.58959961 C-26.27774971 57.74794492 -33.37179182 55.56018648 -40.875 48.6875 C-46.96577216 42.08080361 -50.54332064 33.20716304 -50.24609375 24.16796875 C-49.23473495 15.25837932 -45.75275022 8.26008709 -39.078125 2.27734375 C-27.05663697 -7.20472142 -13.36692786 -7.85704837 0 0 Z " fill="#EEF3F4" transform="translate(332,230)"/>
<path d="M0 0 C3.50163317 2.02619755 7.12049021 4.12049021 10 7 C10.28806788 9.92869015 10.49240086 12.15071413 10 15 C7.68008622 17.65133003 6.09864801 18.73276129 2.6875 19.5625 C-0.74208847 18.84467916 -3.07364098 17.26373949 -5.9375 15.2890625 C-12.02477826 11.48451359 -17.97440517 11.20250005 -25 12 C-28.19663711 13.27384787 -30.42380379 14.84760758 -32 18 C-32.45773291 22.01797138 -32.45773291 22.01797138 -30.85205078 25.53808594 C-28.42855048 27.45107299 -26.00490754 28.35995125 -23.1171875 29.453125 C-21.36535156 30.13568359 -21.36535156 30.13568359 -19.578125 30.83203125 C-17.13502654 31.76752148 -14.68974679 32.6973375 -12.2421875 33.62109375 C-1.96468182 37.6441963 6.55629693 42.31295302 11.9609375 52.26171875 C14.55332138 59.09352738 13.93877121 65.70277226 11 72.3125 C8.16090693 77.28091286 4.68708835 80.75773889 0 84 C-0.91458984 84.65162109 -0.91458984 84.65162109 -1.84765625 85.31640625 C-10.24259205 90.10635968 -22.52273929 89.39001757 -31.6171875 87.08203125 C-37.7665934 84.66451672 -43.00582338 81.29787315 -48 77 C-49.2375 76.0409375 -49.2375 76.0409375 -50.5 75.0625 C-52.76664218 71.945867 -52.53465745 69.74260217 -52 66 C-50.375 63.5625 -50.375 63.5625 -48 62 C-44.25193266 61.54521359 -42.45671722 61.72761664 -39.18359375 63.6796875 C-37.82427734 64.76636719 -37.82427734 64.76636719 -36.4375 65.875 C-30.36956621 70.67770504 -26.3699433 72.29637519 -18.5625 72.375 C-16.64630859 72.41753906 -16.64630859 72.41753906 -14.69140625 72.4609375 C-10.43198885 71.92907374 -8.32074883 70.66057006 -5 68 C-2.65776872 64.80604825 -2.4448587 61.8859891 -3 58 C-6.44563475 53.9115675 -9.67078179 51.97593197 -14.62109375 50.0625 C-15.24347427 49.81508057 -15.8658548 49.56766113 -16.50709534 49.31274414 C-18.47929382 48.52944473 -20.45735006 47.76295363 -22.4375 47 C-24.41381052 46.23647496 -26.38799607 45.468959 -28.35719299 44.68725586 C-30.14588999 43.97727359 -31.94083015 43.28307923 -33.73608398 42.58984375 C-41.188206 38.95993736 -45.28044552 33.78675856 -48 26 C-49.22635886 18.98892954 -47.53256077 12.66484323 -43.5234375 6.86328125 C-32.69747802 -6.50850889 -14.80799984 -6.94983159 0 0 Z " fill="#040404" transform="translate(238,214)"/>
<path d="M0 0 C16.17 0 32.34 0 49 0 C49 20.13 49 40.26 49 61 C35.97987125 58.82997854 26.28887559 48.96486421 18.5625 38.6875 C0 10.88794643 0 10.88794643 0 0 Z " fill="#7196D1" transform="translate(199,341)"/>
<path d="M0 0 C16.17 0 32.34 0 49 0 C41.62190911 22.13427267 29.90221359 47.80444886 8 59 C4.93559774 60.43005439 3.38480801 61 0 61 C0 40.87 0 20.74 0 0 Z " fill="#7196D2" transform="translate(264,341)"/>
<path d="M0 0 C0 20.13 0 40.26 0 61 C-16.17 61 -32.34 61 -49 61 C-43.1331546 44.57283289 -43.1331546 44.57283289 -39.25 37.375 C-38.82025879 36.5708667 -38.39051758 35.7667334 -37.94775391 34.93823242 C-34.21600785 28.11084896 -30.05093716 21.94064353 -25 16 C-24.08541016 14.89978516 -24.08541016 14.89978516 -23.15234375 13.77734375 C-17.93795357 8.03155075 -8.07143063 0 0 0 Z " fill="#7297D2" transform="translate(248,110)"/>
<path d="M0 0 C18.61453059 6.20484353 30.28316041 19.60032874 39.015625 36.77734375 C42.93903108 44.7765212 46.54628147 52.41198515 49 61 C32.83 61 16.66 61 0 61 C0 40.87 0 20.74 0 0 Z " fill="#7297D2" transform="translate(264,110)"/>
<path d="M0 0 C15.51 0 31.02 0 47 0 C49.32870469 5.23958556 51.59409587 10.42856211 53.73828125 15.73461914 C59.10233301 28.8895146 65.18696504 41.3141059 74.46875 52.1796875 C76 54 76 54 77 56 C47.21678128 49.8246458 16.96673366 26.84240946 0 2 C0 1.34 0 0.68 0 0 Z " fill="#7095D0" transform="translate(136,341)"/>
<path d="M0 0 C0.83272934 0.00222061 1.66545868 0.00444122 2.52342224 0.00672913 C3.46432205 0.00680466 4.40522186 0.00688019 5.37463379 0.00695801 C6.39754013 0.01211929 7.42044647 0.01728058 8.47434998 0.02259827 C9.51614914 0.02401321 10.5579483 0.02542816 11.63131714 0.02688599 C14.97355467 0.03250372 18.31572629 0.04505922 21.65794373 0.05775452 C23.91770839 0.06276723 26.17747409 0.06733053 28.4372406 0.07142639 C33.98999763 0.08247891 39.54271597 0.09923428 45.09544373 0.12025452 C42.6864192 4.24739044 39.95204324 7.8745067 36.84544373 11.49525452 C36.10258118 12.36222961 36.10258118 12.36222961 35.3447113 13.24671936 C18.97911128 32.21211185 -5.17739686 50.10425979 -29.90455627 56.12025452 C-30.56455627 55.79025452 -31.22455627 55.46025452 -31.90455627 55.12025452 C-31.05893127 54.19212952 -30.21330627 53.26400452 -29.34205627 52.30775452 C-17.12002053 37.96761421 -9.90151104 20.44845334 -3.62550354 2.92347717 C-2.52028952 0.15913218 -2.52028952 0.15913218 0 0 Z " fill="#7095D0" transform="translate(330.90455627441406,340.87974548339844)"/>
<path d="M0 0 C-0.81791016 1.0209375 -0.81791016 1.0209375 -1.65234375 2.0625 C-11.86596641 15.1918064 -18.9210848 29.29900832 -25.06787109 44.71508789 C-26.33743993 47.82716089 -27.67600897 50.91068759 -29 54 C-44.51 54 -60.02 54 -76 54 C-71.49537308 46.11690289 -71.49537308 46.11690289 -68.8984375 43.3515625 C-68.33157227 42.74352783 -67.76470703 42.13549316 -67.18066406 41.5090332 C-66.58479492 40.88730225 -65.98892578 40.26557129 -65.375 39.625 C-64.43479004 38.63729614 -64.43479004 38.63729614 -63.47558594 37.62963867 C-61.66260936 35.7406955 -59.83575417 33.86678841 -58 32 C-57.17242187 31.15824219 -56.34484375 30.31648438 -55.4921875 29.44921875 C-43.58452579 18.10167353 -28.884214 9.77589218 -14 3 C-12.47632813 2.30197266 -12.47632813 2.30197266 -10.921875 1.58984375 C-4.04551275 -1.3758388 -4.04551275 -1.3758388 0 0 Z " fill="#7196D1" transform="translate(212,117)"/>
<path d="M0 0 C5.33033532 0.59881932 9.67064246 2.36822906 14.5 4.5625 C15.29245117 4.92110107 16.08490234 5.27970215 16.90136719 5.64916992 C29.86098733 11.61137746 41.11952089 18.81450266 52 28 C52.99257813 28.83789062 53.98515625 29.67578125 55.0078125 30.5390625 C63.2965019 37.81186796 69.89153848 45.83730772 76 55 C60.16 55 44.32 55 28 55 C25.525 47.575 25.525 47.575 23 40 C21.66286953 36.76508695 20.32861374 33.64059646 18.8125 30.5 C18.43520752 29.70956299 18.05791504 28.91912598 17.66918945 28.10473633 C13.8090142 20.24293825 9.04544363 13.13681922 4 6 C2.65378024 4.00821805 1.32584677 2.00545701 0 0 Z " fill="#7196D1" transform="translate(300,116)"/>
<path d="M0 0 C2.18640137 1.52490234 2.18640137 1.52490234 4 4 C4.39465979 6.83062405 4.54753156 9.27230454 4.51757812 12.1015625 C4.5245874 12.91502136 4.53159668 13.72848022 4.53881836 14.56658936 C4.55641059 17.25307442 4.54477163 19.9385044 4.53125 22.625 C4.53394457 24.49300336 4.5378267 26.36100535 4.54284668 28.22900391 C4.54874338 32.14303955 4.54017328 36.05670995 4.52148438 39.97070312 C4.49869468 44.98809889 4.51181685 50.00463881 4.53577423 55.02200317 C4.55022759 58.87905324 4.54562835 62.73590037 4.53526306 66.59295654 C4.53259449 68.44293316 4.5358701 70.29292819 4.54518127 72.1428833 C4.55533937 74.72856457 4.5398571 77.31285951 4.51757812 79.8984375 C4.52567505 80.66323425 4.53377197 81.42803101 4.54211426 82.21600342 C4.48691976 85.673249 4.25722719 87.64950479 2.18640137 90.47119141 C-1.04590992 92.73133694 -3.15804501 92.61745705 -7 92 C-10.07383403 89.1496329 -10.93754883 87.45803718 -11.50793457 83.27464294 C-11.53157125 81.808852 -11.53336484 80.34260549 -11.51757812 78.87670898 C-11.5245874 78.07285767 -11.53159668 77.26900635 -11.53881836 76.4407959 C-11.55637782 73.79220716 -11.54478445 71.14469274 -11.53125 68.49609375 C-11.53394525 66.65193985 -11.53782794 64.80778734 -11.54284668 62.96363831 C-11.54873871 59.10265545 -11.54018735 55.24204323 -11.52148438 51.38110352 C-11.49867891 46.43211388 -11.51182973 41.48399117 -11.53577423 36.53503323 C-11.55022657 32.72859663 -11.54562911 28.92236571 -11.53526306 25.11592293 C-11.53259504 23.29106608 -11.53586819 21.46619055 -11.54518127 19.64135551 C-11.55533951 17.09169898 -11.53985781 14.54344827 -11.51757812 11.99389648 C-11.52567505 11.24002151 -11.53377197 10.48614655 -11.54211426 9.70942688 C-11.48649766 6.27435718 -11.24494978 4.33338486 -9.18640137 1.53163147 C-5.980968 -0.71385863 -3.81645181 -0.5452074 0 0 Z " fill="#010101" transform="translate(163,210)"/>
<path d="M0 0 C12.17357938 3.17571636 19.10999243 9.15587111 26.5 19.125 C27.01409424 19.81368164 27.52818848 20.50236328 28.05786133 21.21191406 C32.64927875 27.41694416 36.99938013 33.77773877 41.32495117 40.16967773 C45.68929796 46.60298916 50.24771874 52.84782194 55 59 C51.35691089 60.15086693 49.33615356 59.7212217 45.84375 58.06103516 C38.95553605 54.09702856 34.66720713 48.17181309 30.3125 41.6875 C29.0888849 39.90341038 27.86492029 38.11956042 26.640625 36.3359375 C26.03283203 35.44358398 25.42503906 34.55123047 24.79882812 33.63183594 C22.08888518 29.66696285 19.33141115 25.73633915 16.5625 21.8125 C15.82157104 20.76147095 15.82157104 20.76147095 15.06567383 19.68920898 C11.51770452 14.67864434 7.85560742 9.77923483 4 5 C3.195625 3.989375 2.39125 2.97875 1.5625 1.9375 C1.046875 1.298125 0.53125 0.65875 0 0 Z " fill="#FACD62" transform="translate(129,425)"/>
<path d="M0 0 C-0.62261719 0.64388672 -0.62261719 0.64388672 -1.2578125 1.30078125 C-6.15810602 6.58038619 -10.44218736 12.18807597 -14.6875 18 C-15.5842041 19.22601929 -15.5842041 19.22601929 -16.49902344 20.47680664 C-17.72431557 22.15301541 -18.9494122 23.82936711 -20.17431641 25.50585938 C-23.05230842 29.43760133 -25.94843844 33.35427216 -28.875 37.25 C-29.37346436 37.92804687 -29.87192871 38.60609375 -30.38549805 39.3046875 C-35.18504159 45.65662913 -40.74513065 51.70799733 -48.375 54.5 C-49.20773438 54.8196875 -50.04046875 55.139375 -50.8984375 55.46875 C-53 56 -53 56 -55 55 C-54.51273438 54.49855469 -54.02546875 53.99710938 -53.5234375 53.48046875 C-48.38769073 47.99922629 -43.85951249 42.25063966 -39.4375 36.1875 C-38.85129883 35.38578369 -38.26509766 34.58406738 -37.66113281 33.75805664 C-35.08306899 30.22853173 -32.50754361 26.69716738 -29.93505859 23.16357422 C-27.84571933 20.3067423 -25.73733602 17.46485502 -23.625 14.625 C-22.66291626 13.29698364 -22.66291626 13.29698364 -21.68139648 11.94213867 C-16.59743907 5.15019195 -9.321868 -2.99631471 0 0 Z " fill="#FACD62" transform="translate(191,26)"/>
</svg>
