<?xml version="1.0" encoding="UTF-8"?>
<svg version="1.1" xmlns="http://www.w3.org/2000/svg" width="512" height="512">
<path d="M0 0 C0.80264084 -0.00297112 1.60528167 -0.00594224 2.43224496 -0.0090034 C5.13682178 -0.01771374 7.84135446 -0.01920062 10.54594421 -0.02069092 C12.47898962 -0.02531745 14.4120341 -0.03034188 16.34507751 -0.03573608 C21.60752332 -0.04887817 26.86995635 -0.05530859 32.13241601 -0.05974674 C35.41800309 -0.06267461 38.70358666 -0.06677887 41.98917198 -0.07125092 C52.2626374 -0.08493073 62.53609481 -0.09459496 72.8095687 -0.09845281 C84.68054527 -0.10293463 96.55140675 -0.12048629 108.42234832 -0.1494534 C117.59012156 -0.17104999 126.75786237 -0.18115601 135.92566079 -0.18249393 C141.40486487 -0.18354342 146.88396084 -0.18948194 152.3631382 -0.20731354 C157.51688936 -0.2237592 162.67045075 -0.22596678 167.82421875 -0.21717453 C169.71688024 -0.21640227 171.60955178 -0.22077168 173.50218773 -0.23063278 C176.08420561 -0.24329774 178.66554584 -0.23750535 181.24755859 -0.22705078 C182.37344115 -0.23913539 182.37344115 -0.23913539 183.5220688 -0.25146413 C187.95704379 -0.20940965 190.81230648 0.36530033 194.31425476 3.14044189 C197.49013735 8.6417342 197.77950564 13.53375779 197.82597351 19.79278564 C197.85290031 21.14298546 197.85290031 21.14298546 197.88037109 22.52046204 C197.93420721 25.37290881 197.96828364 28.22519083 198.00175476 31.07794189 C198.03495144 33.02132406 198.06944326 34.96468457 198.10527039 36.90802002 C198.18991817 41.65204126 198.25685612 46.3960159 198.31425476 51.14044189 C198.87672409 51.34437057 199.43919342 51.54829926 200.01870728 51.75840759 C230.34141281 62.75386585 260.64045992 73.80946395 290.897995 84.98297119 C292.58249504 85.60458382 292.58249504 85.60458382 294.30102539 86.23875427 C296.49390327 87.04870143 298.68621028 87.8601961 300.87789917 88.6733551 C306.11576403 90.61275424 311.36185173 92.51644088 316.63798523 94.34942627 C317.64240158 94.70220642 318.64681793 95.05498657 319.68167114 95.41845703 C321.55443426 96.07417208 323.43074047 96.71989812 325.31121826 97.35314941 C330.88267669 99.31386692 336.51781691 101.54756619 339.31425476 107.14044189 C340.00760131 115.18070337 337.86011464 121.29765908 335.02128601 128.76153564 C334.32551413 130.64580548 333.62974392 132.53007594 332.93403912 134.41437054 C332.18990113 136.42117479 331.43862054 138.42516628 330.68510437 140.4284668 C329.10367304 144.63329316 327.54217805 148.84534415 325.98417664 153.05889893 C324.37041813 157.42083277 322.75562692 161.78236191 321.1341095 166.14141846 C316.21714828 179.36209921 311.40698483 192.61974306 306.62229919 205.88882446 C304.47815837 211.8335602 302.3281437 217.77616812 300.17753601 223.71856689 C299.56380127 225.41459297 299.56380127 225.41459297 298.93766785 227.1448822 C292.77666409 244.16046418 286.55026763 261.15222999 280.31425476 278.14044189 C280.92833191 278.43144775 281.54240906 278.72245361 282.1750946 279.02227783 C298.71794747 287.66942073 309.28185081 311.25646568 314.68925476 328.01544189 C323.00009645 355.89948084 318.74629827 384.01560942 305.62284851 409.41387939 C301.61356514 416.65105448 296.81115923 422.97118878 291.31425476 429.14044189 C290.19083679 430.4069458 290.19083679 430.4069458 289.04472351 431.69903564 C275.54798718 446.04631257 257.27114556 455.34092374 238.31425476 460.14044189 C237.44542664 460.36602783 236.57659851 460.59161377 235.68144226 460.82403564 C219.05579769 464.3382025 199.46014453 463.52240515 183.31425476 458.14044189 C181.08076315 458.04904072 178.84456686 458.02016161 176.60920715 458.02259827 C175.92413491 458.02189368 175.23906267 458.0211891 174.53323066 458.02046317 C172.23251182 458.0191524 169.93186116 458.0248329 167.63114929 458.03033447 C165.98366801 458.03057657 164.33618657 458.03029952 162.68870544 458.02954102 C159.13812421 458.02843407 155.58755589 458.02986943 152.03697586 458.03290749 C146.42330983 458.03653554 140.80971138 458.02741057 135.19606018 458.01512146 C134.24904492 458.01309953 133.30202965 458.0110776 132.32631695 458.0089944 C130.38972084 458.00482573 128.45312481 458.00062298 126.51652884 457.99638689 C113.4456464 457.96822483 100.3749104 457.94812566 87.30400085 457.96539307 C78.489289 457.97694264 69.67488015 457.96738705 60.8602227 457.93333548 C56.19467513 457.91616239 51.52967443 457.90991829 46.8641243 457.9294529 C42.47586061 457.94766011 38.08853975 457.93810166 33.70035553 457.90719604 C32.0899032 457.90082194 30.47937272 457.90470344 28.86897659 457.9195919 C26.66927371 457.93841928 24.47281591 457.92038527 22.27326965 457.89320374 C21.0428853 457.89265897 19.81250095 457.8921142 18.54483223 457.89155293 C13.98034334 456.83030676 12.9213659 454.96897585 10.31425476 451.14044189 C9.65483093 448.89874268 9.65483093 448.89874268 9.60722351 446.83575439 C9.5782196 446.08809814 9.5492157 445.34044189 9.51933289 444.57012939 C9.5135321 443.80958252 9.50773132 443.04903564 9.50175476 442.26544189 C9.47661804 441.48169189 9.45148132 440.69794189 9.42558289 439.89044189 C9.36716412 437.97430634 9.3377355 436.05732396 9.31425476 434.14044189 C8.25682068 434.54939697 8.25682068 434.54939697 7.17802429 434.96661377 C3.9380789 436.20846016 0.68901386 437.42452079 -2.56074524 438.64044189 C-3.66933899 439.06969971 -4.77793274 439.49895752 -5.92012024 439.94122314 C-13.73145231 442.83601091 -21.01368182 445.07978898 -28.99824524 441.76544189 C-35.76093723 435.16002181 -38.3983165 424.89174395 -41.46699524 416.16778564 C-41.91689133 414.90438449 -42.36743016 413.64121207 -42.81855774 412.37825012 C-43.77903487 409.68623093 -44.73592213 406.99297569 -45.68989563 404.29864502 C-47.99409566 397.79239571 -50.31834899 391.29330061 -52.64208984 384.79401016 C-53.17274832 383.30967791 -53.70319346 381.82526938 -54.23342896 380.34078598 C-59.45058243 365.73657369 -64.79753712 351.18245229 -70.18574524 336.64044189 C-77.69838913 316.34811129 -85.07563476 296.01078019 -92.37324524 275.64044189 C-99.46419019 255.8479652 -106.61048109 236.07842487 -113.88499451 216.35244751 C-121.1450415 196.66336864 -128.29829597 176.93646119 -135.43232727 157.20147705 C-135.85118195 156.04333496 -136.27003662 154.88519287 -136.70158386 153.69195557 C-137.52146118 151.42223892 -138.33963204 149.15190504 -139.1559906 146.88092041 C-141.08809381 141.51343342 -143.04809263 136.16025767 -145.07929993 130.82940674 C-145.45472931 129.8328154 -145.83015869 128.83622406 -146.21696472 127.80943298 C-146.91514793 125.96040016 -147.62342556 124.11513061 -148.34422302 122.27479553 C-150.33381962 116.97421758 -151.38073285 112.80808425 -150.68574524 107.14044189 C-148.50886809 102.45847509 -146.22600597 100.45500753 -141.38970947 98.64964294 C-140.67400284 98.40555191 -139.9582962 98.16146088 -139.22090149 97.90997314 C-138.05495201 97.48455986 -138.05495201 97.48455986 -136.865448 97.05055237 C-135.11288005 96.41411646 -133.35687335 95.78709759 -131.59815979 95.16784668 C-128.48669591 94.07022379 -125.386427 92.94443698 -122.28681946 91.81378174 C-115.56407784 89.36675624 -108.83086154 86.94936107 -102.09616852 84.53548813 C-96.02131294 82.35687265 -89.94923043 80.17053161 -83.87715149 77.98419189 C-83.19946213 77.7402387 -82.52177277 77.49628551 -81.82354736 77.2449398 C-65.61416535 71.40833058 -49.44232267 65.47055644 -33.27729797 59.51226807 C-32.30623611 59.15439209 -31.33517426 58.79651611 -30.33468628 58.42779541 C-28.53583704 57.76455825 -26.73718829 57.10077692 -24.93878174 56.43634033 C-24.1525795 56.1462207 -23.36637726 55.85610107 -22.55635071 55.55718994 C-21.8765213 55.30599899 -21.19669189 55.05480804 -20.4962616 54.79600525 C-18.90175785 54.21865712 -17.29453229 53.67670424 -15.68574524 53.14044189 C-15.68432022 52.57747406 -15.6828952 52.01450623 -15.681427 51.43447876 C-15.66170129 45.56139752 -15.60736672 39.68935161 -15.53315735 33.81671143 C-15.50999701 31.62668289 -15.49558627 29.43654328 -15.4901886 27.24639893 C-15.48088499 24.0931899 -15.43986171 20.94172315 -15.39277649 17.78887939 C-15.39670914 16.81365326 -15.40064178 15.83842712 -15.4046936 14.83364868 C-15.30845536 10.32379801 -15.16852854 7.12719967 -12.26655579 3.53741455 C-8.21144465 -0.2288404 -5.30341006 -0.00606817 0 0 Z " fill="#52CC7A" transform="translate(161.6857452392578,24.85955810546875)"/>
<path d="M0 0 C6.12428178 4.96563387 8.11254147 12.1972278 10.640625 19.3984375 C11.03449402 20.49975006 11.42836304 21.60106262 11.83416748 22.73574829 C13.08464862 26.23781005 14.32371187 29.74378718 15.5625 33.25 C16.41070697 35.63177813 17.25965709 38.01329174 18.109375 40.39453125 C20.18570169 46.21831759 22.2526804 52.04535621 24.3125 57.875 C24.88562927 57.86976318 25.45875854 57.86452637 26.04925537 57.85913086 C28.67345054 57.83820352 31.29762806 57.82529006 33.921875 57.8125 C34.82341309 57.80412109 35.72495117 57.79574219 36.65380859 57.78710938 C50.94950455 57.73488765 67.30071524 62.94942895 77.8125 73.21484375 C78.3075 73.76269531 78.8025 74.31054688 79.3125 74.875 C79.951875 75.55691406 80.59125 76.23882812 81.25 76.94140625 C92.78354649 90.20061595 97.23037892 105.55964948 96.45605469 122.82861328 C95.28422002 139.53323607 85.85378637 153.50848452 73.5625 164.25 C72.48738057 165.13507306 71.40331906 166.00935001 70.3125 166.875 C68.97445312 167.94621094 68.97445312 167.94621094 67.609375 169.0390625 C66.47242188 169.94785156 66.47242188 169.94785156 65.3125 170.875 C65.55484375 171.53097168 65.7971875 172.18694336 66.046875 172.86279297 C67.13874991 175.82397872 68.2256828 178.78695445 69.3125 181.75 C69.88484375 183.29880859 69.88484375 183.29880859 70.46875 184.87890625 C70.8296875 185.86503906 71.190625 186.85117187 71.5625 187.8671875 C71.89765625 188.77839355 72.2328125 189.68959961 72.578125 190.62841797 C73.3125 192.875 73.3125 192.875 73.3125 194.875 C80.80182777 194.80762549 88.2906488 194.71767461 95.77954102 194.61254883 C98.32342491 194.57944006 100.86737979 194.55136512 103.41137695 194.52856445 C107.08315072 194.49475968 110.75428217 194.44243016 114.42578125 194.38671875 C115.55019119 194.38032883 116.67460114 194.3739389 117.83308411 194.36735535 C124.25152117 194.24975027 129.84330509 193.46752859 135.96867371 191.51325989 C138.3125 190.875 138.3125 190.875 142.3125 190.875 C142.3125 166.455 142.3125 142.035 142.3125 116.875 C158.31367477 121.67535243 170.85575552 130.09727048 179.3125 144.875 C183.83417962 154.17089986 186.67553221 163.03255237 186.5625 173.375 C186.57023437 174.08269531 186.57796875 174.79039062 186.5859375 175.51953125 C186.56520582 181.18964708 185.88277603 186.73444793 183.3125 191.875 C184.488125 192.08125 185.66375 192.2875 186.875 192.5 C199.16547469 195.27838046 209.89277941 200.92398535 220.3125 207.875 C221.19679688 208.44089844 222.08109375 209.00679687 222.9921875 209.58984375 C244.13754098 223.587936 257.41908461 246.84337635 262.84326172 271.26464844 C268.46842399 299.13454253 262.7739912 326.0601793 248.18359375 350.07421875 C244.90263085 354.98538869 241.23886861 359.46838135 237.3125 363.875 C236.18908203 365.14150391 236.18908203 365.14150391 235.04296875 366.43359375 C221.54623242 380.78087068 203.2693908 390.07548185 184.3125 394.875 C183.44367188 395.10058594 182.57484375 395.32617188 181.6796875 395.55859375 C165.05404293 399.07276061 145.45838977 398.25696326 129.3125 392.875 C127.07900839 392.78359882 124.8428121 392.75471971 122.60745239 392.75715637 C121.92238015 392.75645179 121.23730791 392.75574721 120.5314759 392.75502127 C118.23075706 392.75371051 115.9301064 392.75939101 113.62939453 392.76489258 C111.98191325 392.76513467 110.33443181 392.76485762 108.68695068 392.76409912 C105.13636945 392.76299217 101.58580113 392.76442754 98.0352211 392.76746559 C92.42155507 392.77109364 86.80795662 392.76196867 81.19430542 392.74967957 C80.24729015 392.74765764 79.30027489 392.74563571 78.32456219 392.74355251 C76.38796608 392.73938384 74.45137005 392.73518108 72.51477408 392.73094499 C59.44389164 392.70278293 46.37315564 392.68268377 33.30224609 392.69995117 C24.48753424 392.71150074 15.67312539 392.70194516 6.85846794 392.66789359 C2.19292037 392.65072049 -2.47208033 392.6444764 -7.13763046 392.664011 C-11.52589415 392.68221822 -15.91321501 392.67265977 -20.30139923 392.64175415 C-21.91185156 392.63538004 -23.52238204 392.63926155 -25.13277817 392.65415001 C-27.33248105 392.67297739 -29.52893885 392.65494337 -31.72848511 392.62776184 C-32.95886946 392.62721707 -34.18925381 392.62667231 -35.45692253 392.62611103 C-40.0223422 391.56464846 -41.08464359 389.70784472 -43.6875 385.875 C-44.27099609 383.60839844 -44.27099609 383.60839844 -44.2109375 381.484375 C-44.19498535 380.30319092 -44.19498535 380.30319092 -44.17871094 379.09814453 C-44.14036133 378.28200684 -44.10201172 377.46586914 -44.0625 376.625 C-44.03961914 375.78179199 -44.01673828 374.93858398 -43.99316406 374.06982422 C-43.91814075 371.6695412 -43.80673535 369.27342438 -43.6875 366.875 C-43.65398437 365.78960937 -43.62046875 364.70421875 -43.5859375 363.5859375 C-43.29347004 358.49084656 -42.51054626 355.57472219 -38.6875 351.875 C-39.33654297 351.35478271 -39.98558594 350.83456543 -40.65429688 350.29858398 C-43.33577849 347.10225017 -43.20325413 345.2331155 -43.21875 341.09765625 C-43.22648437 339.12055664 -43.22648437 339.12055664 -43.234375 337.10351562 C-43.22180664 336.07738159 -43.22180664 336.07738159 -43.20898438 335.03051758 C-43.18759639 332.94688996 -43.20877712 330.86672284 -43.234375 328.78320312 C-43.22921875 327.46384766 -43.2240625 326.14449219 -43.21875 324.78515625 C-43.21423828 323.57996338 -43.20972656 322.37477051 -43.20507812 321.13305664 C-42.59935684 317.32015541 -41.31595869 315.63886216 -38.6875 312.875 C-39.33726807 312.35550781 -39.98703613 311.83601563 -40.65649414 311.30078125 C-43.34435111 308.0904739 -43.18994604 306.21192734 -43.18359375 302.0625 C-43.18504898 301.41176514 -43.18650421 300.76103027 -43.18800354 300.09057617 C-43.18634833 298.71886707 -43.17482896 297.34713868 -43.15405273 295.97558594 C-43.1250879 293.88135539 -43.13345005 291.78965742 -43.14648438 289.6953125 C-43.14024639 288.35936275 -43.13185497 287.02342097 -43.12109375 285.6875 C-43.10647095 283.87185547 -43.10647095 283.87185547 -43.09155273 282.01953125 C-42.66139695 278.6718536 -42.07350943 277.22564764 -39.6875 274.875 C-39.0275 274.875 -38.3675 274.875 -37.6875 274.875 C-37.6875 274.215 -37.6875 273.555 -37.6875 272.875 C-38.326875 272.58625 -38.96625 272.2975 -39.625 272 C-41.6875 270.875 -41.6875 270.875 -42.6875 268.875 C-42.96792286 264.78970043 -43.00109145 260.70276466 -43.03759766 256.60864258 C-43.05413597 255.24974414 -43.08139921 253.89093195 -43.11962891 252.5324707 C-43.17459607 250.56775314 -43.19316889 248.60212475 -43.2109375 246.63671875 C-43.2406665 244.872677 -43.2406665 244.872677 -43.27099609 243.07299805 C-42.52467794 238.98261248 -40.81218908 237.50591029 -37.6875 234.875 C-39.53371657 233.02878343 -42.15131275 233.67044522 -44.61694336 233.58520508 C-63.61468608 232.92330908 -78.59127471 226.62534813 -91.875 212.6875 C-101.91284433 200.87357585 -106.75617434 185.22105622 -106.0703125 169.83203125 C-104.54904521 154.10709483 -97.66609327 141.91037909 -86.6875 130.875 C-85.78257812 129.91787109 -85.78257812 129.91787109 -84.859375 128.94140625 C-75.31293838 119.62325398 -61.04155022 114.57249133 -47.875 114.625 C-32.52346269 114.83742902 -17.68658843 119.00130562 -6.41015625 130.0546875 C-5.84167969 130.65539062 -5.27320313 131.25609375 -4.6875 131.875 C-4.02621094 132.51695312 -3.36492187 133.15890625 -2.68359375 133.8203125 C8.98958181 145.82574164 13.60821188 161.09032944 13.7109375 177.4921875 C13.17641735 183.37190917 11.64006334 189.12222552 10.3125 194.875 C22.5225 194.875 34.7325 194.875 47.3125 194.875 C38.26989865 169.20526747 29.04827363 143.60927758 19.60437012 118.08432007 C12.34296744 98.45554027 5.20101347 78.78682988 -1.82763672 59.07348633 C-5.57569524 48.58357933 -9.43911988 38.17392007 -13.6875 27.875 C-14.8336377 27.90601807 -15.97977539 27.93703613 -17.16064453 27.96899414 C-27.71680417 28.22951187 -34.89362624 27.51926018 -43.6875 20.875 C-45.39078319 19.2457726 -47.06911281 17.58858643 -48.6875 15.875 C-48.1925 14.39 -48.1925 14.39 -47.6875 12.875 C-44.96974333 11.60926062 -42.33442689 10.53595936 -39.5234375 9.51953125 C-38.28528793 9.05978157 -38.28528793 9.05978157 -37.02212524 8.59074402 C-35.27058699 7.94387813 -33.51687676 7.30286818 -31.76123047 6.66723633 C-29.08813198 5.69680533 -26.42486034 4.70246044 -23.76171875 3.70507812 C-22.05783068 3.07925965 -20.35341887 2.45486497 -18.6484375 1.83203125 C-17.85649994 1.5352095 -17.06456238 1.23838776 -16.24862671 0.93257141 C-10.72275716 -1.04269668 -5.653638 -2.36663916 0 0 Z " fill="#FDDE40" transform="translate(215.6875,90.125)"/>
<path d="M0 0 C16.00117477 4.80035243 28.54325552 13.22227048 37 28 C41.52167962 37.29589986 44.36303221 46.15755237 44.25 56.5 C44.25773438 57.20769531 44.26546875 57.91539062 44.2734375 58.64453125 C44.25270582 64.31464708 43.57027603 69.85944793 41 75 C42.175625 75.20625 43.35125 75.4125 44.5625 75.625 C56.85297469 78.40338046 67.58027941 84.04898535 78 91 C78.88429688 91.56589844 79.76859375 92.13179688 80.6796875 92.71484375 C101.82504098 106.712936 115.10658461 129.96837635 120.53076172 154.38964844 C126.15592399 182.25954253 120.4614912 209.1851793 105.87109375 233.19921875 C102.59013085 238.11038869 98.92636861 242.59338135 95 247 C94.25105469 247.84433594 93.50210938 248.68867188 92.73046875 249.55859375 C79.23373242 263.90587068 60.9568908 273.20048185 42 278 C41.13117188 278.22558594 40.26234375 278.45117188 39.3671875 278.68359375 C11.95975006 284.47671099 -15.8617712 278.13827499 -39.07421875 263.06640625 C-43.94496049 259.62632296 -48.53588209 255.95172702 -53 252 C-54.04414063 251.08154297 -54.04414063 251.08154297 -55.109375 250.14453125 C-73.45600005 232.93539696 -84.7261795 207.25814468 -85.5395813 182.30213928 C-85.86516555 167.9830445 -85.01719611 154.53467879 -80 141 C-79.44119141 139.35837891 -79.44119141 139.35837891 -78.87109375 137.68359375 C-69.40543238 112.38686111 -48.65020419 92.99534166 -25 81 C-17.06127867 77.5051886 -8.77459084 74 0 74 C0 49.58 0 25.16 0 0 Z " fill="#FCBF00" transform="translate(358,207)"/>
<path d="M0 0 C1.23828125 1.5390625 1.23828125 1.5390625 2.3125 3.625 C6.27980684 10.50085387 12.23400676 15.30501942 19.93261719 17.56811523 C23.33948968 18.2798249 26.78585788 18.10228255 30.25 18.0625 C30.99507812 18.05798828 31.74015625 18.05347656 32.5078125 18.04882812 C34.3385764 18.03709246 36.16929873 18.0191585 38 18 C41.33814265 24.31874462 43.85414145 30.73694976 46.24609375 37.46484375 C46.64940414 38.5857692 47.05271454 39.70669464 47.46824646 40.86158752 C48.56627426 43.91474903 49.66018492 46.96934964 50.7526474 50.02450562 C52.62715144 55.26054575 54.51451127 60.49197999 56.40019226 65.72400284 C56.88790376 67.07734175 57.37544108 68.43074344 57.86280823 69.78420639 C62.69078301 83.19043906 67.60960159 96.56192467 72.55316162 109.92599487 C79.03886116 127.46212014 85.50177796 145.00612941 91.81768799 162.60424805 C92.47443751 164.43342783 93.13273191 166.26205376 93.79266357 168.09008789 C94.68572582 170.56613519 95.5724599 173.04434632 96.45703125 175.5234375 C96.71838364 176.24546356 96.97973602 176.96748962 97.24900818 177.71139526 C98.27759457 180.61570447 99 182.89310156 99 186 C86.79 186 74.58 186 62 186 C63 178 63 178 63.54296875 175.46484375 C66.36004891 160.27187296 62.6310837 144.69838642 54 132 C51.18644212 128.46251573 48.18620564 125.20318364 45 122 C44.47019531 121.43539062 43.94039062 120.87078125 43.39453125 120.2890625 C32.50979149 109.71211744 16.62979173 106.60288589 2.05419922 106.62866211 C-13.69920545 107.07902635 -27.22142808 114.92662953 -38 126 C-48.75949445 137.76623077 -54.01096711 152.84623379 -53.4140625 168.734375 C-52.22849705 184.85508257 -44.7409019 199.05041281 -33 210 C-29.47778274 212.62410203 -25.83429128 214.86350783 -22 217 C-21.28714844 217.41121094 -20.57429688 217.82242188 -19.83984375 218.24609375 C-11.32367825 222.86818755 -2.63235513 223.29439058 6.88037109 223.57104492 C12.78965198 223.78965198 12.78965198 223.78965198 15 226 C14.18797119 226.68698975 13.37594238 227.37397949 12.53930664 228.08178711 C9.48040304 231.59712935 9.36823439 233.10403301 9.37109375 237.69140625 C9.36916016 238.96564453 9.36722656 240.23988281 9.36523438 241.55273438 C9.37772217 242.21104248 9.39020996 242.86935059 9.40307617 243.54760742 C9.43747693 245.56114993 9.42370393 247.57031857 9.40429688 249.58398438 C9.05056655 256.48127463 9.05056655 256.48127463 12.03540039 262.28491211 C12.68371826 262.85089111 13.33203613 263.41687012 14 264 C14 264.66 14 265.32 14 266 C13.35168213 266.56146729 12.70336426 267.12293457 12.03540039 267.70141602 C8.31570634 271.90207806 9.37359833 277.47197322 9.42358398 282.84448242 C9.43744049 284.92854878 9.40338811 287.00811047 9.36523438 289.09179688 C9.36716797 290.41115234 9.36910156 291.73050781 9.37109375 293.08984375 C9.37036865 294.29503662 9.36964355 295.50022949 9.36889648 296.74194336 C10.1649821 300.8517161 11.84847981 302.3512722 15 305 C14.195625 305.61875 13.39125 306.2375 12.5625 306.875 C9.5780988 309.34986929 9.10944563 310.02444757 8.68359375 313.8203125 C8.60238281 314.91085937 8.52117187 316.00140625 8.4375 317.125 C8.31181641 318.76855469 8.31181641 318.76855469 8.18359375 320.4453125 C8.12300781 321.28835938 8.06242187 322.13140625 8 323 C7.52691406 322.61328125 7.05382812 322.2265625 6.56640625 321.828125 C-0.24001344 316.46790364 -7.93692288 311.84773248 -16.8125 311.875 C-17.64394531 311.87242187 -18.47539062 311.86984375 -19.33203125 311.8671875 C-22.2798145 312.01392927 -25.09419294 312.49570914 -28 313 C-28.22681458 312.33839371 -28.45362915 311.67678741 -28.68731689 310.99513245 C-34.20829007 294.9127677 -39.89022574 278.89926479 -45.75 262.9375 C-46.57275054 260.69048805 -47.395337 258.443416 -48.21777344 256.19628906 C-52.49157279 244.52647495 -56.78530274 232.86409469 -61.09375 221.20703125 C-62.812806 216.55480049 -64.53156808 211.90246132 -66.25 207.25 C-66.68003326 206.08591614 -67.11006653 204.92183228 -67.5531311 203.72247314 C-75.54063647 182.08700503 -83.36163231 160.39383666 -91.13257313 138.67983437 C-92.31685696 135.37094369 -93.50186919 132.06231451 -94.6875 128.75390625 C-95.03098008 127.79544233 -95.03098008 127.79544233 -95.38139915 126.81761551 C-98.39563962 118.41181202 -101.45021317 110.02233516 -104.5625 101.65234375 C-104.90197159 100.73850418 -105.24144318 99.82466461 -105.59120178 98.88313293 C-107.11505017 94.78644338 -108.64720622 90.69315113 -110.19311523 86.60473633 C-110.7108926 85.22090998 -111.22856034 83.8370426 -111.74609375 82.453125 C-112.18622803 81.28942383 -112.6263623 80.12572266 -113.07983398 78.92675781 C-114 76 -114 76 -114 72 C-113.40832031 71.75765625 -112.81664062 71.5153125 -112.20703125 71.265625 C-102.94393622 67.33674293 -97.78493866 62.62260326 -93.86328125 53.296875 C-92.77844492 49.15388016 -92.78118108 45.38293553 -92.875 41.125 C-92.88402344 40.34125 -92.89304687 39.5575 -92.90234375 38.75 C-92.92571937 36.83319945 -92.96158347 34.91655809 -93 33 C-84.61136606 29.41464867 -76.14471503 26.149065 -67.5625 23.05859375 C-66.30794794 22.6047077 -65.05347372 22.15060645 -63.79907227 21.69630432 C-61.19124001 20.75251958 -58.58272306 19.81066263 -55.97363281 18.87036133 C-52.66485618 17.67782605 -49.3575008 16.48140746 -46.0506134 15.28364468 C-43.46679204 14.34808254 -40.88239806 13.41411081 -38.29782104 12.4806385 C-36.49658639 11.82993883 -34.69567532 11.17834364 -32.89477539 10.52671814 C-26.47357232 8.21375776 -20.03410466 5.98691815 -13.54321289 3.87684631 C-11.29610738 3.1020916 -9.16224239 2.23219682 -7 1.25 C-4 0 -4 0 0 0 Z " fill="#3D9979" transform="translate(164,99)"/>
<path d="M0 0 C6.50879392 1.95263818 12.88377599 3.95359167 19.25390625 6.2734375 C20.56542664 6.74755318 20.56542664 6.74755318 21.90344238 7.23124695 C24.79087171 8.27621972 27.67673003 9.3254543 30.5625 10.375 C32.6144786 11.11912365 34.66648112 11.86318134 36.71850586 12.60717773 C55.89658622 19.56886731 75.0412774 26.62169877 94.17993164 33.69091797 C95.3219957 34.11250183 96.46405975 34.53408569 97.64073181 34.96844482 C99.88046236 35.79600652 102.11962168 36.62511609 104.35816956 37.45587158 C109.67618065 39.42551821 115.00196722 41.36068174 120.35888672 43.22216797 C121.36366562 43.57508408 122.36844452 43.92800018 123.40367126 44.29161072 C125.27276938 44.94596245 127.14541159 45.59032178 129.02223206 46.22218323 C134.58524798 48.17953881 140.20828469 50.41656938 143 56 C143.69334669 64.04026308 141.54585579 70.15721577 138.70703125 77.62109375 C138.01119392 79.50556113 137.31535824 81.39002911 136.61958694 83.27452087 C135.87542534 85.28140322 135.12412074 87.2854725 134.37057495 89.28884888 C132.79004397 93.49123098 131.22932924 97.70079487 129.67211914 101.91186523 C128.05911456 106.27145551 126.44509837 110.63064898 124.8243866 114.98738098 C121.26751281 124.55101291 117.75483306 134.12954344 114.2890625 143.7265625 C114.0632015 144.35198755 113.83734051 144.97741261 113.60463524 145.62178993 C112.48594466 148.72061794 111.36834873 151.81983934 110.25119019 154.91921997 C103.80411346 172.79901092 97.31814481 190.66431364 90.75 208.5 C90.45455292 209.30325714 90.15910583 210.10651428 89.85470581 210.93411255 C89.04521093 213.13369622 88.23397515 215.33262708 87.421875 217.53125 C86.97424805 218.74361328 86.52662109 219.95597656 86.06542969 221.20507812 C85 224 85 224 84 226 C80.39529677 224.7058421 77.70399639 223.15390129 74.6875 220.8125 C64.69684156 213.66568025 52.66350242 209.55648464 41 206 C41.2165625 205.21302734 41.2165625 205.21302734 41.4375 204.41015625 C45.33806489 188.1307153 43.42284338 172.2584989 35.25 157.625 C25.95412724 143.55109595 15.45981141 137.44158809 0 131 C0 87.77 0 44.54 0 0 Z " fill="#3D9979" transform="translate(358,76)"/>
<path d="M0 0 C0.82830511 0.73016437 0.82830511 0.73016437 1.67334366 1.47507954 C4.44737045 3.29321234 5.93558866 3.38220677 9.22650146 3.39872742 C10.28376938 3.41126556 11.34103729 3.42380371 12.43034363 3.4367218 C14.16203545 3.43456917 14.16203545 3.43456917 15.92871094 3.43237305 C17.14849136 3.4425647 18.36827179 3.45275635 19.62501526 3.46325684 C22.96570895 3.48826951 26.30596297 3.50011194 29.6467123 3.50611091 C33.13948244 3.51549313 36.63212535 3.54169635 40.12481689 3.56611633 C46.73681955 3.60978933 53.34879753 3.63833131 59.96090055 3.66143972 C67.48933917 3.68848716 75.01764986 3.7323989 82.54599714 3.77772844 C98.03059901 3.87058613 113.51522496 3.94226164 129 4 C128.39048744 4.81173172 128.39048744 4.81173172 127.7686615 5.63986206 C127.23261795 6.35409332 126.6965744 7.06832458 126.14428711 7.80419922 C125.6141954 8.5103537 125.0841037 9.21650818 124.53794861 9.94406128 C104.96221279 36.11301974 97.61864609 63.52044175 101.35009766 96.05224609 C104.18079942 112.48135701 112.35011583 129.28618479 123 142 C123.68578125 142.8353125 124.3715625 143.670625 125.078125 144.53125 C137.21814945 158.68005547 152.44725398 168.82476922 170 175 C170 175.33 170 175.66 170 176 C148.44273721 176.14011813 126.88554944 176.24594557 105.32792377 176.31087303 C95.31847734 176.34182039 85.30931374 176.38401772 75.30004883 176.45263672 C66.57666833 176.5124118 57.85349264 176.55114274 49.12991303 176.56453097 C44.51007531 176.57235799 39.89082352 176.59077113 35.27117348 176.63438034 C30.92328999 176.67509175 26.57623401 176.68767223 22.22817802 176.67864609 C20.6321882 176.68029741 19.03617084 176.6922419 17.44034576 176.71523285 C15.26030566 176.7451012 13.08338717 176.73791146 10.90327454 176.7215271 C9.68374242 176.72705786 8.4642103 176.73258862 7.20772266 176.73828697 C2.65702187 175.69090119 1.59508935 173.81748959 -1 170 C-1.58349609 167.73339844 -1.58349609 167.73339844 -1.5234375 165.609375 C-1.51280273 164.82191895 -1.50216797 164.03446289 -1.49121094 163.22314453 C-1.45286133 162.40700684 -1.41451172 161.59086914 -1.375 160.75 C-1.35211914 159.90679199 -1.32923828 159.06358398 -1.30566406 158.19482422 C-1.23064075 155.7945412 -1.11923535 153.39842438 -1 151 C-0.96648437 149.91460937 -0.93296875 148.82921875 -0.8984375 147.7109375 C-0.60597004 142.61584656 0.17695374 139.69972219 4 136 C3.35095703 135.47978271 2.70191406 134.95956543 2.03320312 134.42358398 C-0.64827849 131.22725017 -0.51575413 129.3581155 -0.53125 125.22265625 C-0.53898438 123.24555664 -0.53898438 123.24555664 -0.546875 121.22851562 C-0.53849609 120.54442627 -0.53011719 119.86033691 -0.52148438 119.15551758 C-0.50009639 117.07188996 -0.52127712 114.99172284 -0.546875 112.90820312 C-0.54171875 111.58884766 -0.5365625 110.26949219 -0.53125 108.91015625 C-0.52673828 107.70496338 -0.52222656 106.49977051 -0.51757812 105.25805664 C0.08814316 101.44515541 1.37154131 99.76386216 4 97 C3.35023193 96.48050781 2.70046387 95.96101563 2.03100586 95.42578125 C-0.65685111 92.2154739 -0.50244604 90.33692734 -0.49609375 86.1875 C-0.49754898 85.53676514 -0.49900421 84.88603027 -0.50050354 84.21557617 C-0.49884833 82.84386707 -0.48732896 81.47213868 -0.46655273 80.10058594 C-0.4375879 78.00635539 -0.44595005 75.91465742 -0.45898438 73.8203125 C-0.45274639 72.48436275 -0.44435497 71.14842097 -0.43359375 69.8125 C-0.42384521 68.60207031 -0.41409668 67.39164062 -0.40405273 66.14453125 C0.02610305 62.7968536 0.61399057 61.35064764 3 59 C3.66 59 4.32 59 5 59 C5 58.34 5 57.68 5 57 C4.360625 56.71125 3.72125 56.4225 3.0625 56.125 C1 55 1 55 0 53 C-0.28042286 48.91470043 -0.31359145 44.82776466 -0.35009766 40.73364258 C-0.36663597 39.37474414 -0.39389921 38.01593195 -0.43212891 36.6574707 C-0.48709607 34.69275314 -0.50566889 32.72712475 -0.5234375 30.76171875 C-0.54325684 29.58569092 -0.56307617 28.40966309 -0.58349609 27.19799805 C0.16282206 23.10761248 1.87531092 21.63091029 5 19 C4.175 18.278125 3.35 17.55625 2.5 16.8125 C-1.56948789 12.07813804 -0.39116521 5.85878565 0 0 Z " fill="#FEDE3F" transform="translate(173,306)"/>
<path d="M0 0 C14.44276244 11.58052934 23.14744237 29.49635957 25.96484375 47.5 C27.85878563 67.30223605 23.65332081 86.37697789 11.40234375 102.375 C10.26089053 103.7536383 9.11554382 105.12907025 7.96484375 106.5 C7.24296875 107.49 6.52109375 108.48 5.77734375 109.5 C-5.47408747 122.7369779 -24.08944998 130.59113192 -41.03515625 132.5 C-62.07946407 133.91146355 -81.54605809 128.89835624 -97.97265625 115.25 C-112.51820049 102.52375273 -122.46122891 84.43780016 -124.25830078 65.09863281 C-125.60642659 43.48635891 -119.77129664 23.40734369 -105.37792969 6.95385742 C-76.29631385 -24.54131447 -32.87859338 -24.23297478 0 0 Z " fill="#FEBD3F" transform="translate(425.03515625,325.5)"/>
<path d="M0 0 C33 0 66 0 100 0 C100.99 4.95 100.99 4.95 102 10 C105.64862381 18.68120837 110.6986367 23.61213654 119 28 C122.63 28.66 126.26 29.32 130 30 C130 97.98 130 165.96 130 236 C115.15 236 100.3 236 85 236 C80.545 223.625 80.545 223.625 76 211 C77.65 209.845 79.3 208.69 81 207.5 C94.33655235 197.74154706 103.10332391 185.54837743 106.6171875 169.11328125 C108.71394159 152.06110771 105.49840056 137.53393515 96 123 C94.34168142 121.32502686 92.67670223 119.6565703 91 118 C91 117.34 91 116.68 91 116 C90.41089844 115.72671875 89.82179688 115.4534375 89.21484375 115.171875 C87.06887252 114.03644049 85.4264215 112.79427349 83.5625 111.25 C68.77049641 100.01138275 53.69925491 99.6650796 36 100 C31.49620265 89.61085629 27.62278397 79.01100729 23.75 68.375 C23.0816907 66.54774591 22.41331452 64.72051629 21.74487305 62.89331055 C18.81541656 54.86721741 15.90964032 46.83585472 13.16015625 38.74609375 C12.55252441 36.95969482 12.55252441 36.95969482 11.93261719 35.13720703 C11.20967073 32.99137336 10.49486914 30.84277026 9.79003906 28.69091797 C7.35854903 21.43486592 5.28379761 16.71284821 -1 12 C-0.67 8.04 -0.34 4.08 0 0 Z " fill="#3D9979" transform="translate(204,49)"/>
<path d="M0 0 C0.69526702 9.07709716 -1.0320311 16.53443138 -6.6875 23.8125 C-10.13144436 27.52001153 -14.33774313 30.07293383 -19 32 C-19.99 32 -20.98 32 -22 32 C-16.41647516 48.07320948 -10.69121671 64.094959 -4.93532562 80.10707855 C-4.17569526 82.22034032 -3.41636243 84.33370885 -2.65704346 86.44708252 C4.57630488 106.5751792 11.88730632 126.67300834 19.28808594 146.74023438 C25.56083572 163.75642796 31.73474243 180.80770521 37.89004517 197.86669922 C42.5760833 210.85199891 47.28718762 223.82626916 52.109375 236.76171875 C52.71246742 238.38163979 52.71246742 238.38163979 53.32774353 240.0342865 C55.21744257 245.1072489 57.11441423 250.17729012 59.02368164 255.24291992 C59.68917617 257.02384683 60.35447172 258.80484811 61.01953125 260.5859375 C61.32465637 261.38718552 61.62978149 262.18843353 61.94415283 263.01396179 C63.26961495 266.58087067 64 269.14869882 64 273 C64.78375 272.67 65.5675 272.34 66.375 272 C75.09849129 269.59351964 82.98195307 270.8658807 91 275 C93.93323204 277.16401163 96.3871417 279.43644091 99 282 C99.33 278.37 99.66 274.74 100 271 C100.33 271 100.66 271 101 271 C101.00410889 271.82201904 101.00821777 272.64403809 101.01245117 273.4909668 C101.04539243 277.22387042 101.11604104 280.95514334 101.1875 284.6875 C101.19330078 285.98107422 101.19910156 287.27464844 101.20507812 288.60742188 C101.23408203 289.85458984 101.26308594 291.10175781 101.29296875 292.38671875 C101.31653442 294.10701294 101.31653442 294.10701294 101.34057617 295.86206055 C102.18169671 299.8646234 103.93424688 301.3950699 107 304 C106.195625 304.45375 105.39125 304.9075 104.5625 305.375 C101.22365931 308.79527583 101.47557279 311.03198853 101.53125 315.66015625 C101 318 101 318 99.13671875 319.546875 C94.60340998 321.64698815 89.99643884 323.45259164 85.3125 325.1875 C83.89807617 325.73954102 83.89807617 325.73954102 82.45507812 326.30273438 C75.142324 329.01172027 68.117559 330.70917544 60.6875 327.625 C53.92480801 321.01957992 51.28742874 310.75130205 48.21875 302.02734375 C47.76885391 300.7639426 47.31831508 299.50077017 46.8671875 298.23780823 C45.90671037 295.54578904 44.94982311 292.8525338 43.99584961 290.15820312 C41.69164958 283.65195381 39.36739625 277.15285872 37.0436554 270.65356827 C36.51299692 269.16923602 35.98255178 267.68482749 35.45231628 266.20034409 C30.23516281 251.5961318 24.88820812 237.04201039 19.5 222.5 C11.98735369 202.20766285 4.61051012 181.87019891 -2.6875 161.5 C-9.13886272 143.49520071 -15.61006401 125.49903877 -22.21383667 107.54937744 C-23.29926769 104.59847399 -24.38231297 101.64670315 -25.46508789 98.69482422 C-28.87318434 89.41602748 -32.31277903 80.15052938 -35.8143158 70.90653992 C-37.5182807 66.40201885 -39.20890986 61.89254776 -40.89828491 57.38253784 C-41.70525013 55.23964439 -42.51873576 53.09919312 -43.33926392 50.9614563 C-44.47432163 48.00363478 -45.58689244 45.03819987 -46.6953125 42.0703125 C-47.03182327 41.21103653 -47.36833405 40.35176056 -47.71504211 39.46644592 C-49.97908453 33.30937468 -50.73975554 27.55297374 -50 21 C-47.44859247 15.98900937 -43.39151585 14.54242831 -38.3125 12.75 C-37.54736084 12.46697021 -36.78222168 12.18394043 -35.99389648 11.89233398 C-34.28958516 11.26524278 -32.58245073 10.64578818 -30.87304688 10.03271484 C-27.69492407 8.89034065 -24.52726264 7.72122566 -21.359375 6.55078125 C-19.09420025 5.72012531 -16.8285782 4.8906881 -14.5625 4.0625 C-13.46655518 3.66063477 -12.37061035 3.25876953 -11.24145508 2.84472656 C-10.21431396 2.47444336 -9.18717285 2.10416016 -8.12890625 1.72265625 C-7.21181885 1.39015869 -6.29473145 1.05766113 -5.34985352 0.71508789 C-3 0 -3 0 0 0 Z " fill="#93E570" transform="translate(72,139)"/>
<path d="M0 0 C6.12428178 4.96563387 8.11254147 12.1972278 10.640625 19.3984375 C11.03449402 20.49975006 11.42836304 21.60106262 11.83416748 22.73574829 C13.08464862 26.23781005 14.32371187 29.74378718 15.5625 33.25 C16.41070697 35.63177813 17.25965709 38.01329174 18.109375 40.39453125 C20.18570169 46.21831759 22.2526804 52.04535621 24.3125 57.875 C24.88562927 57.86976318 25.45875854 57.86452637 26.04925537 57.85913086 C28.67345054 57.83820352 31.29762806 57.82529006 33.921875 57.8125 C34.82341309 57.80412109 35.72495117 57.79574219 36.65380859 57.78710938 C50.94950455 57.73488765 67.30071524 62.94942895 77.8125 73.21484375 C78.3075 73.76269531 78.8025 74.31054688 79.3125 74.875 C79.951875 75.55691406 80.59125 76.23882812 81.25 76.94140625 C92.78354649 90.20061595 97.23037892 105.55964948 96.45605469 122.82861328 C95.28422002 139.53323607 85.85378637 153.50848452 73.5625 164.25 C72.48738057 165.13507306 71.40331906 166.00935001 70.3125 166.875 C68.97445312 167.94621094 68.97445312 167.94621094 67.609375 169.0390625 C66.47242188 169.94785156 66.47242188 169.94785156 65.3125 170.875 C65.55484375 171.53097168 65.7971875 172.18694336 66.046875 172.86279297 C67.13874991 175.82397872 68.2256828 178.78695445 69.3125 181.75 C69.88484375 183.29880859 69.88484375 183.29880859 70.46875 184.87890625 C70.8296875 185.86503906 71.190625 186.85117187 71.5625 187.8671875 C71.89765625 188.77839355 72.2328125 189.68959961 72.578125 190.62841797 C73.3125 192.875 73.3125 192.875 73.3125 194.875 C51.97879063 196.04345954 30.66971722 195.98146669 9.3125 195.875 C9.6425 194.885 9.9725 193.895 10.3125 192.875 C10.3125 193.535 10.3125 194.195 10.3125 194.875 C22.5225 194.875 34.7325 194.875 47.3125 194.875 C38.26989865 169.20526747 29.04827363 143.60927758 19.60437012 118.08432007 C12.34296744 98.45554027 5.20101347 78.78682988 -1.82763672 59.07348633 C-5.57569524 48.58357933 -9.43911988 38.17392007 -13.6875 27.875 C-14.8336377 27.90601807 -15.97977539 27.93703613 -17.16064453 27.96899414 C-27.71680417 28.22951187 -34.89362624 27.51926018 -43.6875 20.875 C-45.39078319 19.2457726 -47.06911281 17.58858643 -48.6875 15.875 C-48.1925 14.39 -48.1925 14.39 -47.6875 12.875 C-44.96974333 11.60926062 -42.33442689 10.53595936 -39.5234375 9.51953125 C-38.69800446 9.21303146 -37.87257141 8.90653168 -37.02212524 8.59074402 C-35.27058699 7.94387813 -33.51687676 7.30286818 -31.76123047 6.66723633 C-29.08813198 5.69680533 -26.42486034 4.70246044 -23.76171875 3.70507812 C-22.05783068 3.07925965 -20.35341887 2.45486497 -18.6484375 1.83203125 C-17.85649994 1.5352095 -17.06456238 1.23838776 -16.24862671 0.93257141 C-10.72275716 -1.04269668 -5.653638 -2.36663916 0 0 Z " fill="#94E570" transform="translate(215.6875,90.125)"/>
<path d="M0 0 C0 9.24 0 18.48 0 28 C-2.330625 28.226875 -4.66125 28.45375 -7.0625 28.6875 C-26.51308669 30.96143913 -44.24365149 39.79108477 -57.28515625 54.59375 C-70.96548109 72.51787503 -76.58258964 92.89525704 -73.71875 115.18945312 C-70.56528917 134.23563984 -60.17888033 151.02149974 -45.125 162.9375 C-31.2881202 172.66071284 -16.65333259 176.48606067 0 178 C0 187.57 0 197.14 0 207 C-27.59915543 207 -50.32511218 197.3018268 -71 179 C-72.04414063 178.08154297 -72.04414063 178.08154297 -73.109375 177.14453125 C-91.45600005 159.93539696 -102.7261795 134.25814468 -103.5395813 109.30213928 C-103.86516555 94.9830445 -103.01719611 81.53467879 -98 68 C-97.62746094 66.90558594 -97.25492187 65.81117188 -96.87109375 64.68359375 C-87.39705782 39.3644803 -66.64539432 20.03334655 -43 8 C-28.58881492 1.47258088 -15.63012316 -0.38122252 0 0 Z " fill="#FE9100" transform="translate(376,280)"/>
<path d="M0 0 C5.77026684 -0.18153649 10.78342869 0.35642215 16.375 1.75 C17.12031982 1.93336914 17.86563965 2.11673828 18.63354492 2.30566406 C39.26210528 7.5362613 54.76311337 19.83730857 65.75 37.9375 C74.9924488 54.38021643 78.33078878 74.49556622 73.51245117 92.92749023 C70.02817892 104.59733353 64.84028747 114.65917904 57 124 C56.278125 124.99 55.55625 125.98 54.8125 127 C44.05144756 139.6600617 27.09945014 146.6197803 11.1875 149.75 C7.4688225 150.04166098 3.73009765 150 0 150 C0 142.41 0 134.82 0 127 C2.475 126.01 2.475 126.01 5 125 C6.17045898 123.04358419 6.17045898 123.04358419 5.96484375 120.79296875 C5.93479416 117.92967185 6.08398766 115.72211215 7 113 C9.36403748 111.266965 11.70659802 110.30474058 14.41796875 109.203125 C19.38647013 106.88799879 22.06090515 102.96356196 24.375 98.125 C25.87208117 90.63959413 25.4127967 85.088181 21.6796875 78.296875 C16.22758456 70.84144121 6.98588319 67.73259532 -1.75 66.0625 C-4.65049868 65.44633189 -6.05627511 64.96156822 -8.5625 63.25 C-10.53654675 60.16018769 -10.73451265 58.59911198 -10 55 C-7.46741623 52.08752867 -5.81551235 50.38183395 -2.03125 49.5859375 C2.64645732 49.3880345 5.99663628 50.48625999 10 53 C10.474375 53.556875 10.94875 54.11375 11.4375 54.6875 C13.11758346 56.3536425 13.11758346 56.3536425 16.5625 56.3125 C20.06268472 56.36410488 20.06268472 56.36410488 22 54 C22.83647486 50.71486878 22.83647486 50.71486878 22 47 C17.97842868 42.02139652 12.95015825 39.10734771 7 37 C6.99613281 35.98679687 6.99613281 35.98679687 6.9921875 34.953125 C6.95351563 34.06109375 6.91484375 33.1690625 6.875 32.25 C6.85179687 31.36828125 6.82859375 30.4865625 6.8046875 29.578125 C6.22835637 26.66461896 6.22835637 26.66461896 2.96875 25.40625 C0 23 0 23 -0.49169922 20.53417969 C-0.59095217 17.42082544 -0.52208397 14.36139174 -0.375 11.25 C-0.34792969 10.17105469 -0.32085937 9.09210938 -0.29296875 7.98046875 C-0.22229142 5.31828935 -0.12368401 2.66015764 0 0 Z " fill="#FEDE3F" transform="translate(376,308)"/>
<path d="M0 0 C6.31706001 -0.0761466 12.63400139 -0.12864032 18.95141602 -0.16479492 C21.09989851 -0.17986915 23.2483503 -0.20033189 25.39672852 -0.22631836 C28.48721908 -0.26276114 31.57730231 -0.27974019 34.66796875 -0.29296875 C35.62648239 -0.30845261 36.58499603 -0.32393646 37.57255554 -0.33988953 C42.51750812 -0.34113375 46.03119646 -0.3105437 50 3 C53.80991302 8.44273288 54.13572957 13.01369251 54.08229065 19.48503113 C54.07906152 20.36147461 54.07583239 21.23791809 54.07250541 22.14092046 C54.06040455 25.08902645 54.04103701 28.03704047 54.02172852 30.98510742 C54.01158846 33.09389545 54.00189449 35.20268567 53.99261475 37.31147766 C53.9661064 43.04668431 53.93333245 48.78184031 53.89946485 54.51700759 C53.86514889 60.50678855 53.83655184 66.4965967 53.80735779 72.48640442 C53.75117813 83.83360415 53.6898276 95.18076985 53.62663645 106.52793247 C53.55495703 119.44430223 53.48901603 132.36069927 53.42356598 145.27710187 C53.28877938 171.85143664 53.14675735 198.42572883 53 225 C50.69099865 225.6814444 48.37903988 226.34508519 46.0625 227 C45.42248047 227.19078125 44.78246094 227.3815625 44.12304688 227.578125 C38.66046019 229.1000397 35.03981646 229 29 229 C29 161.02 29 93.04 29 23 C26.69 23 24.38 23 22 23 C12.87841601 20.51469885 7.50167869 16.09780964 2.234375 8.4140625 C0.80220469 5.61317247 0.45941187 3.09545989 0 0 Z " fill="#93E570" transform="translate(305,56)"/>
<path d="M0 0 C8.22925154 3.49512032 16.91741112 7.26796804 23 14 C23.639375 14.68191406 24.27875 15.36382812 24.9375 16.06640625 C36.47104649 29.32561595 40.91787892 44.68464948 40.14355469 61.95361328 C38.96539399 78.74841425 29.45841737 92.47131853 17.3125 103.4375 C14.48468488 105.8853503 11.34468898 107.35324901 8 109 C-1.92963449 82.06887584 -11.79448073 55.11511912 -21.5625 28.125 C-22.03331369 26.82440137 -22.50412871 25.52380323 -22.97494507 24.22320557 C-24.29785284 20.56834711 -25.61978408 16.91313605 -26.94140625 13.2578125 C-27.338508 12.16001465 -27.73560974 11.0622168 -28.14474487 9.93115234 C-28.68906662 8.42439941 -28.68906662 8.42439941 -29.24438477 6.88720703 C-29.56093521 6.01129913 -29.87748566 5.13539124 -30.20362854 4.23294067 C-30.82314576 2.49588044 -31.41680365 0.74958905 -32 -1 C-23.73449342 -6.29245447 -8.54109152 -3.19362552 0 0 Z " fill="#FDDE40" transform="translate(272,151)"/>
<path d="M0 0 C7.8626774 2.22489127 15.56285692 4.86949204 23.2421875 7.65136719 C24.58593623 8.13566573 25.93167639 8.61447246 27.27929688 9.08789062 C29.25850414 9.78339134 31.23112928 10.49528126 33.203125 11.2109375 C34.36489258 11.62649902 35.52666016 12.04206055 36.72363281 12.47021484 C41.59381769 14.74417747 46.42627052 18.15533273 49 23 C48.44151021 27.99764473 46.40826503 32.72369074 44.703125 37.421875 C44.36202194 38.3698848 44.02091888 39.31789459 43.66947937 40.29463196 C42.53344334 43.44780325 41.3918933 46.59894556 40.25 49.75 C39.44855832 51.96928688 38.64720916 54.18860718 37.84594727 56.40795898 C30.76512677 75.99253586 23.57247911 95.53590727 16.34667969 115.06738281 C15.51093561 117.32742512 14.67532144 119.58751546 13.83984375 121.84765625 C13.2375444 123.47681473 13.2375444 123.47681473 12.62307739 125.1388855 C9.28917602 134.17565281 6.02015447 143.23517149 2.78196716 152.30665588 C2.43054153 153.28883591 2.07911591 154.27101593 1.71704102 155.28295898 C1.40847672 156.14839828 1.09991241 157.01383759 0.78199768 157.90550232 C0 160 0 160 -1 162 C-4.73821143 160.6563724 -7.67405989 158.96690187 -10.875 156.625 C-14.78562905 153.77061803 -18.77708333 151.35528768 -23 149 C-11.86773092 116.81686118 -0.14459624 84.83893852 11.51049805 52.8425293 C11.93366302 51.68051498 12.356828 50.51850067 12.79281616 49.3212738 C13.59314621 47.12383552 14.39384903 44.92653296 15.19497681 42.72938538 C15.55062714 41.75295578 15.90627747 40.77652618 16.27270508 39.77050781 C16.58355545 38.91773254 16.89440582 38.06495728 17.2146759 37.18634033 C17.83274561 35.4656358 18.42182751 33.73451746 19 32 C18.34 31.814375 17.68 31.62875 17 31.4375 C8.9259655 27.5686918 4.5896274 21.55845024 0.90625 13.65234375 C-0.62433129 9.17275454 -0.11268367 4.67637217 0 0 Z " fill="#93E570" transform="translate(443,140)"/>
<path d="M0 0 C6.50879392 1.95263818 12.88377599 3.95359167 19.25390625 6.2734375 C20.56542664 6.74755318 20.56542664 6.74755318 21.90344238 7.23124695 C24.79087171 8.27621972 27.67673003 9.3254543 30.5625 10.375 C32.6144786 11.11912365 34.66648112 11.86318134 36.71850586 12.60717773 C55.89658622 19.56886731 75.0412774 26.62169877 94.17993164 33.69091797 C95.3219957 34.11250183 96.46405975 34.53408569 97.64073181 34.96844482 C99.88046236 35.79600652 102.11962168 36.62511609 104.35816956 37.45587158 C109.67618065 39.42551821 115.00196722 41.36068174 120.35888672 43.22216797 C121.36366562 43.57508408 122.36844452 43.92800018 123.40367126 44.29161072 C125.27276938 44.94596245 127.14541159 45.59032178 129.02223206 46.22218323 C134.58524798 48.17953881 140.20828469 50.41656938 143 56 C143.58689925 63.62206824 141.87895947 69.41076174 139.1875 76.5 C138.83107422 77.5003125 138.47464844 78.500625 138.10742188 79.53125 C136.08792415 84.98574662 136.08792415 84.98574662 135 87 C134.01 87.33 133.02 87.66 132 88 C131.38125 86.6078125 131.38125 86.6078125 130.75 85.1875 C127.48125311 79.23371102 122.4670264 77.86098922 116.3671875 75.6796875 C115.53414093 75.37555939 114.70109436 75.07143127 113.84280396 74.75808716 C111.18913815 73.79067835 108.53223176 72.83256533 105.875 71.875 C103.21136174 70.9083687 100.54841477 69.93986119 97.88577271 68.9704895 C96.23047958 68.36859573 94.57447216 67.7686621 92.91769409 67.17086792 C87.21572185 65.10786093 87.21572185 65.10786093 85 64 C85.33 61.69 85.66 59.38 86 57 C85.44987747 56.89065628 84.89975494 56.78131256 84.33296204 56.6686554 C78.83245949 55.51917393 73.67327851 53.95464266 68.41796875 51.98046875 C67.61723938 51.68522308 66.81651001 51.38997742 65.99151611 51.08578491 C63.38824625 50.12482264 60.78793132 49.15611393 58.1875 48.1875 C55.45597756 47.17741236 52.72368153 46.16943679 49.99134827 45.1615448 C48.12582062 44.47324678 46.26053689 43.78428732 44.39549255 43.09468079 C34.76078282 39.53409198 25.1012734 36.04327347 15.4375 32.5625 C13.86546227 31.9957319 12.29344032 31.42892005 10.72143555 30.86206055 C7.14802323 29.57359305 3.57400867 28.28681672 0 27 C0 18.09 0 9.18 0 0 Z " fill="#53CC7A" transform="translate(358,76)"/>
<path d="M0 0 C1.703125 1.234375 1.703125 1.234375 3 3 C3.29296875 5.48046875 3.29296875 5.48046875 3.1875 8.1875 C3.14689453 9.53908203 3.14689453 9.53908203 3.10546875 10.91796875 C3.07066406 11.60503906 3.03585937 12.29210937 3 13 C3.70125 13.0825 4.4025 13.165 5.125 13.25 C10.75383625 14.71839206 15.42810355 18.48260155 19 23 C19.48582979 26.52226599 19.66638145 28.78483383 17.9375 31.9375 C14.77275683 33.67300432 12.54378206 33.48051282 9 33 C6.73815136 31.53583348 4.98712077 29.85163527 3 28 C-0.72120339 26.75959887 -4.13414516 26.4660006 -8 27 C-11.08874323 28.43651282 -11.08874323 28.43651282 -13 31 C-13.50192554 34.07429392 -13.72510384 35.95522672 -11.91015625 38.5703125 C-9.12661828 40.65369675 -6.31657382 41.05968498 -2.9375 41.8125 C7.1441061 44.30287869 14.38189299 47.83035707 19.94140625 56.94921875 C22.66892352 62.23315443 22.88134783 67.63179172 21.38671875 73.34375 C19.04483907 79.36867395 15.4027373 83.47168176 10 87 C7.61415917 88.00645639 5.56290166 88.51945594 3 89 C3.04640625 89.67546875 3.0928125 90.3509375 3.140625 91.046875 C3.43405676 98.29883139 3.43405676 98.29883139 1.375 101.625 C-1.72904866 103.42208081 -3.46656253 103.58890625 -7 103 C-9.375 101.5625 -9.375 101.5625 -11 99 C-11.32338916 95.96953066 -11.23343996 93.03471946 -11 90 C-12.010625 89.773125 -13.02125 89.54625 -14.0625 89.3125 C-19.71829558 87.67529602 -23.65249893 84.6311855 -27.375 80.125 C-29.23915948 76.54007791 -30 74.04813564 -30 70 C-28.4375 67.0625 -28.4375 67.0625 -26 65 C-22.63186851 64.43864475 -20.81757639 64.55617282 -17.8125 66.1875 C-15.73858127 68.26141873 -14.48541498 70.48125287 -13 73 C-8.73324317 75.84450455 -5.00255935 75.38358283 0 75 C3.08261347 74.22934663 4.38850335 73.75047316 6.375 71.3125 C7.29838543 67.89597391 6.86703481 65.40620817 6 62 C2.26006455 58.12649543 -2.53023543 57.06515449 -7.6875 56.25 C-14.97421245 54.83616027 -21.60071982 51.46562542 -26.125 45.4375 C-29.08179635 39.99573651 -28.71246949 33.99727066 -28 28 C-25.62171462 20.99031678 -20.25695422 16.67256009 -14 13 C-13.01 13 -12.02 13 -11 13 C-11.04640625 12.32453125 -11.0928125 11.6490625 -11.140625 10.953125 C-11.43233895 3.743623 -11.43233895 3.743623 -9.4375 0.3125 C-5.92324837 -1.57978934 -3.78503808 -1.03228311 0 0 Z " fill="#FDA900" transform="translate(380,332)"/>
<path d="M0 0 C16.00117477 4.80035243 28.54325552 13.22227048 37 28 C41.52167962 37.29589986 44.36303221 46.15755237 44.25 56.5 C44.26160156 57.56154297 44.26160156 57.56154297 44.2734375 58.64453125 C44.25270582 64.31464708 43.57027603 69.85944793 41 75 C40.29359375 74.855625 39.5871875 74.71125 38.859375 74.5625 C31.74398396 73.27529358 24.90870451 72.80714898 17.6875 72.8125 C16.43501465 72.8115332 16.43501465 72.8115332 15.15722656 72.81054688 C9.95602602 72.8560083 5.24500413 73.34437448 0 74 C0 49.58 0 25.16 0 0 Z " fill="#FDDE40" transform="translate(358,207)"/>
<path d="M0 0 C2.0576334 1.13780152 3.39175762 2.05922381 4.9140625 3.86328125 C6.45111743 5.44908871 6.45111743 5.44908871 8.8046875 5.0859375 C9.65289062 4.91320312 10.50109375 4.74046875 11.375 4.5625 C15.40578727 4.02545514 16.10716496 3.93331262 19.6875 6.25 C21.5 9.1875 21.5 9.1875 21.5 12.3125 C20.4906125 15.21448905 20.0149865 16.48090202 17.5 18.1875 C14.8125 18.875 14.8125 18.875 12.5 19.1875 C12.47421875 19.744375 12.4484375 20.30125 12.421875 20.875 C11.99439805 26.62650801 10.76246322 31.36151668 7.5 36.1875 C4.65916359 37.60791821 2.64522722 37.50202272 -0.5 37.1875 C-2.875 35.5625 -2.875 35.5625 -4.5 33.1875 C-4.8125 30 -4.8125 30 -4.5 27.1875 C-4.005 26.6925 -4.005 26.6925 -3.5 26.1875 C-3.26153097 23.9252642 -3.26153097 23.9252642 -3.25 21.3125 C-3.21132812 19.98605469 -3.21132812 19.98605469 -3.171875 18.6328125 C-3.30759607 16.15045016 -3.30759607 16.15045016 -4.81640625 14.37890625 C-7.32506396 12.60363803 -9.51685119 12.98862341 -12.5 13.1875 C-13.71025742 15.60801484 -13.55809901 17.00070285 -13.45703125 19.6953125 C-13.42512695 21.05269531 -13.42512695 21.05269531 -13.39257812 22.4375 C-13.3398348 24.33111384 -13.27503187 26.22443616 -13.19726562 28.1171875 C-13.05755818 35.44406686 -14.44223447 40.57123848 -19.2109375 46.2109375 C-24.59566639 50.58444969 -29.26549368 52.68999248 -36.41015625 52.51171875 C-40.71029093 51.84459505 -45.08281474 49.891307 -47.890625 46.515625 C-49.48135628 44.90696378 -49.48135628 44.90696378 -52.05859375 45.25390625 C-53.48365234 45.49947266 -53.48365234 45.49947266 -54.9375 45.75 C-60.17841985 46.3669866 -60.17841985 46.3669866 -63.1875 44.6875 C-65.02682687 41.18402024 -65.19574686 39.08368243 -64.5 35.1875 C-59.78205128 31.1875 -59.78205128 31.1875 -56.5 31.1875 C-56.53480469 30.630625 -56.56960937 30.07375 -56.60546875 29.5 C-56.86297012 22.24091383 -55.61220285 17.08423534 -51.3125 11.1875 C-47.34384796 8.36534744 -45.30179517 8.56791353 -40.5 9.1875 C-38.5 10.3125 -38.5 10.3125 -37.5 12.1875 C-37.0625 15.0625 -37.0625 15.0625 -37.5 18.1875 C-38.180625 18.950625 -38.86125 19.71375 -39.5625 20.5 C-41.71428779 23.4847379 -41.77331714 24.16926867 -41.5 27.6875 C-40.79924542 31.80271561 -39.82843414 34.47219847 -36.5 37.1875 C-32.83200185 37.60521804 -32.83200185 37.60521804 -29.5 37.1875 C-28.50284852 34.19604555 -28.44277746 32.49789623 -28.578125 29.3984375 C-28.60390625 28.45613281 -28.6296875 27.51382812 -28.65625 26.54296875 C-28.71803109 24.5788449 -28.79577805 22.61514874 -28.890625 20.65234375 C-29.04172115 13.69247739 -27.79332537 8.76066465 -23.5 3.1875 C-16.78360501 -3.01109174 -8.26055258 -3.91768854 0 0 Z " fill="#FF9201" transform="translate(194.5,239.8125)"/>
<path d="M0 0 C0.598125 0.78375 1.19625 1.5675 1.8125 2.375 C4.18028351 5.21634021 5.70778895 6.87789591 9.47406101 7.23377991 C10.96133402 7.22259377 10.96133402 7.22259377 12.47865295 7.21118164 C13.61791733 7.20789352 14.7571817 7.20460541 15.93096924 7.20121765 C17.80797516 7.18089226 17.80797516 7.18089226 19.72290039 7.16015625 C21.74563468 7.15091811 23.7683691 7.14169609 25.7911061 7.13307285 C27.96878777 7.12230992 30.14640388 7.10702001 32.32405281 7.09100342 C36.87852453 7.05947158 41.43284214 7.05166239 45.9874115 7.04931641 C47.14252207 7.04854599 47.14252207 7.04854599 48.32096821 7.04776001 C49.89623067 7.04671841 51.47149316 7.04571416 53.04675567 7.0447464 C63.64709073 7.03687091 74.2468968 7.01213774 84.84692383 6.92822266 C91.99878903 6.87178881 99.1497981 6.8516349 106.30187029 6.87142277 C110.07919523 6.88043159 113.8545153 6.87189286 117.63151741 6.81863403 C134.06759028 6.59749411 147.41460403 6.90637499 161.16538811 16.83306885 C164.25136425 18.79594814 167.54160931 19.84396965 171 21 C171 21.33 171 21.66 171 22 C149.44273721 22.14011813 127.88554944 22.24594557 106.32792377 22.31087303 C96.31847734 22.34182039 86.30931374 22.38401772 76.30004883 22.45263672 C67.57666833 22.5124118 58.85349264 22.55114274 50.12991303 22.56453097 C45.51007531 22.57235799 40.89082352 22.59077113 36.27117348 22.63438034 C31.92328999 22.67509175 27.57623401 22.68767223 23.22817802 22.67864609 C21.6321882 22.68029741 20.03617084 22.6922419 18.44034576 22.71523285 C16.26030566 22.7451012 14.08338717 22.73791146 11.90327454 22.7215271 C10.68374242 22.72705786 9.4642103 22.73258862 8.20772266 22.73828697 C3.65975068 21.69152925 2.59627691 19.81203678 0 16 C-0.56762695 13.85009766 -0.56762695 13.85009766 -0.48828125 11.9140625 C-0.47216797 11.21152344 -0.45605469 10.50898438 -0.43945312 9.78515625 C-0.39755859 9.07230469 -0.35566406 8.35945313 -0.3125 7.625 C-0.28994141 6.88894531 -0.26738281 6.15289062 -0.24414062 5.39453125 C-0.18572927 3.59546158 -0.09606337 1.79745247 0 0 Z " fill="#FEBE3F" transform="translate(172,460)"/>
<path d="M0 0 C0.82830511 0.73016437 0.82830511 0.73016437 1.67334366 1.47507954 C4.44737045 3.29321234 5.93558866 3.38220677 9.22650146 3.39872742 C10.28376938 3.41126556 11.34103729 3.42380371 12.43034363 3.4367218 C14.16203545 3.43456917 14.16203545 3.43456917 15.92871094 3.43237305 C17.14849136 3.4425647 18.36827179 3.45275635 19.62501526 3.46325684 C22.96570895 3.48826951 26.30596297 3.50011194 29.6467123 3.50611091 C33.13948244 3.51549313 36.63212535 3.54169635 40.12481689 3.56611633 C46.73681955 3.60978933 53.34879753 3.63833131 59.96090055 3.66143972 C67.48933917 3.68848716 75.01764986 3.7323989 82.54599714 3.77772844 C98.03059901 3.87058613 113.51522496 3.94226164 129 4 C128.62488281 4.49628906 128.24976563 4.99257813 127.86328125 5.50390625 C127.35152344 6.18324219 126.83976562 6.86257813 126.3125 7.5625 C125.75592209 8.28677028 125.19934418 9.01104055 124.62590027 9.75725842 C122.99257203 11.91269831 122.99257203 11.91269831 121.86689758 14.05967426 C120.2122199 16.98057636 119.10309608 18.68800423 115.78720093 19.62586021 C112.911166 19.8937808 110.11861166 19.91154509 107.23046875 19.8581543 C105.60282089 19.86932533 105.60282089 19.86932533 103.94229126 19.88072205 C100.35647375 19.89623424 96.77313053 19.86124483 93.1875 19.82421875 C90.6955583 19.82131566 88.20361249 19.82092821 85.71166992 19.82295227 C79.82065091 19.81932209 73.93054081 19.7816933 68.03976345 19.73030072 C62.01319559 19.68085965 55.98728897 19.68376861 49.96055603 19.69121075 C44.8149644 19.69400778 39.66960721 19.67640681 34.52407837 19.65207863 C32.05532396 19.64186201 29.58654288 19.63677128 27.11776733 19.63687706 C23.66787419 19.63291257 20.21920039 19.60278879 16.76953125 19.56518555 C15.23735458 19.57026123 15.23735458 19.57026123 13.67422485 19.57543945 C9.26411939 19.50233922 6.71011669 19.43610715 2.8894043 17.0896759 C-0.36151003 13.49417369 -0.10930453 11.14906195 -0.0625 6.375 C-0.05347656 5.18648438 -0.04445312 3.99796875 -0.03515625 2.7734375 C-0.02355469 1.85820312 -0.01195312 0.94296875 0 0 Z " fill="#FEBF3F" transform="translate(173,306)"/>
<path d="M0 0 C0.44994324 0.65063416 0.89988647 1.30126831 1.36346436 1.97161865 C5.4033441 5.0796429 9.22192825 4.52716511 14.18457031 4.45410156 C15.73626419 4.45497772 15.73626419 4.45497772 17.31930542 4.45587158 C20.73925304 4.45308442 24.1583296 4.42196137 27.578125 4.390625 C29.94894942 4.38316489 32.31978 4.37747087 34.69061279 4.37347412 C40.93132545 4.35819983 47.17166588 4.31890199 53.41223145 4.2746582 C59.77997807 4.23374453 66.14778483 4.21547142 72.515625 4.1953125 C85.01058023 4.15240994 97.50525917 4.08413646 110 4 C111.14878332 6.10260341 112.29411192 8.20696539 113.4375 10.3125 C113.76298828 10.90740234 114.08847656 11.50230469 114.42382812 12.11523438 C115.83737384 14.72373626 117.05948633 17.17845899 118 20 C103.50073819 20.11689361 89.00154964 20.20468485 74.50191307 20.25906086 C67.76918138 20.28482323 61.03674277 20.31993531 54.30419922 20.37719727 C47.80736007 20.43242808 41.31071109 20.46141954 34.81364822 20.47438622 C32.33449129 20.48362727 29.85535108 20.50167283 27.3763237 20.52865028 C23.90464979 20.56492867 20.4342352 20.56994558 16.96240234 20.56762695 C15.93669128 20.58560333 14.91098022 20.60357971 13.85418701 20.62210083 C9.3449136 20.58949763 6.00797826 20.521397 2.35147095 17.70011902 C-0.21332648 14.75504402 -0.6409221 13.1091091 -0.52734375 9.22851562 C-0.47707031 8.55498047 -0.42679688 7.88144531 -0.375 7.1875 C-0.33439453 6.14819336 -0.33439453 6.14819336 -0.29296875 5.08789062 C-0.22273481 3.3905703 -0.11512307 1.69486747 0 0 Z " fill="#FEBF3F" transform="translate(173,423)"/>
<path d="M0 0 C0.62396164 0.64874084 1.24792328 1.29748169 1.89079285 1.96588135 C6.21609157 4.79559657 9.68266882 4.57367849 14.74731445 4.54589844 C16.21144524 4.56140495 16.21144524 4.56140495 17.70515442 4.57722473 C20.92469802 4.60667293 24.1436135 4.60815237 27.36328125 4.609375 C29.598172 4.62435523 31.83305168 4.64108204 34.06791687 4.65948486 C39.94512437 4.70318787 45.82218252 4.72316417 51.69952393 4.73822021 C57.6988611 4.75778052 63.69803674 4.7997518 69.69726562 4.83984375 C81.46479396 4.91517798 93.2322862 4.96545013 105 5 C103.68 9.62 102.36 14.24 101 19 C69.32 19.33 37.64 19.66 5 20 C5 19.34 5 18.68 5 18 C4.360625 17.71125 3.72125 17.4225 3.0625 17.125 C1 16 1 16 0 14 C-0.07116382 11.62597499 -0.08409085 9.24999323 -0.0625 6.875 C-0.05347656 5.59367187 -0.04445312 4.31234375 -0.03515625 2.9921875 C-0.02355469 2.00476563 -0.01195312 1.01734375 0 0 Z " fill="#FEBE40" transform="translate(173,345)"/>
<path d="M0 0 C0.33 0 0.66 0 1 0 C1.33 8.91 1.66 17.82 2 27 C-10.28253431 27.24370384 -22.56494112 27.46587252 -34.84851265 27.65021229 C-40.55234632 27.73666939 -46.25569736 27.83253446 -51.95898438 27.94995117 C-57.46360921 28.06293092 -62.96812607 28.15113068 -68.47344589 28.22220421 C-70.57311967 28.25365714 -72.67267963 28.29401849 -74.77200699 28.34345436 C-77.71424682 28.41121351 -80.65529967 28.44719874 -83.59814453 28.47583008 C-84.89826729 28.51682076 -84.89826729 28.51682076 -86.22465515 28.55863953 C-90.40283454 28.56661121 -93.18188948 28.30876268 -96.55099487 25.70585632 C-99.22350561 22.75305316 -99.64300115 21.18014346 -99.52734375 17.22851562 C-99.47707031 16.55498047 -99.42679688 15.88144531 -99.375 15.1875 C-99.33439453 14.14819336 -99.33439453 14.14819336 -99.29296875 13.08789062 C-99.22273481 11.3905703 -99.11512307 9.69486747 -99 8 C-98.3646785 8.64874084 -97.72935699 9.29748169 -97.07478333 9.96588135 C-92.89498642 12.7310202 -89.70938878 12.57456136 -84.8034668 12.54589844 C-83.42711815 12.56140495 -83.42711815 12.56140495 -82.02296448 12.57722473 C-78.99820357 12.6066593 -75.97411164 12.60815206 -72.94921875 12.609375 C-70.84884871 12.62435618 -68.74849045 12.64108319 -66.64814758 12.65948486 C-61.12604227 12.70317739 -55.60409588 12.72316181 -50.08184814 12.73822021 C-44.44444372 12.75778433 -38.8072111 12.79975518 -33.16992188 12.83984375 C-22.11333421 12.91516658 -11.05678497 12.96544561 0 13 C0 8.71 0 4.42 0 0 Z " fill="#FEBE3F" transform="translate(272,376)"/>
<path d="M0 0 C1.000811 0.00015106 2.00162201 0.00030212 3.03276062 0.00045776 C4.65006828 0.01594162 4.65006828 0.01594162 6.30004883 0.03173828 C7.95838493 0.03598312 7.95838493 0.03598312 9.65022278 0.04031372 C13.18595136 0.05152076 16.72142788 0.07662651 20.25708008 0.10205078 C22.65225872 0.11207989 25.04744132 0.12120586 27.44262695 0.12939453 C33.31836419 0.15146181 39.19395413 0.1849446 45.06958008 0.22705078 C44.73958008 1.54705078 44.40958008 2.86705078 44.06958008 4.22705078 C43.44768799 4.35442627 42.8257959 4.48180176 42.18505859 4.61303711 C31.44766454 7.04335003 21.29456068 11.05439508 11.00708008 14.91455078 C8.19525947 15.96763017 5.38278359 17.01876094 2.56800842 18.06391907 C0.82782081 18.71019342 -0.91067332 19.36105073 -2.64723206 20.01701355 C-3.42912399 20.30764175 -4.21101593 20.59826996 -5.01660156 20.89770508 C-5.70210587 21.15512985 -6.38761017 21.41255463 -7.09388733 21.67778015 C-8.93041992 22.22705078 -8.93041992 22.22705078 -11.93041992 22.22705078 C-12.61910196 8.26210953 -12.61910196 8.26210953 -10.11791992 4.47705078 C-6.74230252 1.00498717 -4.74267914 -0.02389259 0 0 Z " fill="#93E571" transform="translate(158.930419921875,55.77294921875)"/>
<path d="M0 0 C3.33271693 0.55545282 4.62898984 1.12898984 7 3.5 C8.01187895 5.15948148 9.0126546 6.82580562 10 8.5 C13.25077841 10.9635601 13.25077841 10.9635601 19 11.5 C19 20.41 19 29.32 19 38.5 C17.35 38.17 15.7 37.84 14 37.5 C11.86413322 34.29619983 11.76867825 33.48060033 11.875 29.8125 C11.89304687 29.00425781 11.91109375 28.19601562 11.9296875 27.36328125 C11.95289063 26.74839844 11.97609375 26.13351562 12 25.5 C10.989375 25.273125 9.97875 25.04625 8.9375 24.8125 C3.28170442 23.17529602 -0.65249893 20.1311855 -4.375 15.625 C-6.23915948 12.04007791 -7 9.54813564 -7 5.5 C-5.06950052 1.87066098 -4.09373146 0.68228858 0 0 Z " fill="#FE9200" transform="translate(357,396.5)"/>
<path d="M0 0 C5 2 5 2 7 4 C7.1953125 6.3828125 7.1953125 6.3828125 7.125 9.125 C7.10695313 10.03507812 7.08890625 10.94515625 7.0703125 11.8828125 C7.04710937 12.58148438 7.02390625 13.28015625 7 14 C7.70125 14.0825 8.4025 14.165 9.125 14.25 C14.75383625 15.71839206 19.42810355 19.48260155 23 24 C23.48582979 27.52226599 23.66638145 29.78483383 21.9375 32.9375 C18.77275683 34.67300432 16.54378206 34.48051282 13 34 C10.95880212 32.38405168 8.95927063 30.7143618 7 29 C4.69 28.34 2.38 27.68 0 27 C0 18.09 0 9.18 0 0 Z " fill="#FDBF00" transform="translate(376,331)"/>
<path d="M0 0 C7.55440415 1.25906736 7.55440415 1.25906736 11 5 C12.13146455 8.88940939 12.38624541 11.03438646 10.875 14.8125 C8.69416264 17.35681025 7.21703922 18.13689192 4 19 C2.68 19 1.36 19 0 19 C0 12.73 0 6.46 0 0 Z " fill="#FEDD3E" transform="translate(376,389)"/>
<path d="M0 0 C0 5.28 0 10.56 0 16 C-8.42592593 13.59259259 -8.42592593 13.59259259 -10 11 C-10.5625 8.125 -10.5625 8.125 -10 5 C-6.50452612 1.34564094 -5.13689466 0 0 0 Z " fill="#FEBD3E" transform="translate(376,358)"/>
</svg>
