<?xml version="1.0" encoding="UTF-8"?>
<svg version="1.1" xmlns="http://www.w3.org/2000/svg" width="512" height="512">
<path d="M0 0 C1.55254905 0.34438251 3.09398605 0.74197529 4.62158203 1.18408203 C5.43443161 1.38012024 6.24728119 1.57615845 7.08476257 1.77813721 C9.76230822 2.44364521 12.40994395 3.18484365 15.06298828 3.94189453 C17.04789063 4.49051934 19.03292059 5.03868262 21.01806641 5.58642578 C24.10921647 6.44755119 27.1989037 7.3132788 30.28637695 8.1875 C33.29177021 9.0354136 36.30182298 9.86475117 39.31298828 10.69189453 C40.68518272 11.08865891 40.68518272 11.08865891 42.08509827 11.49343872 C51.48007588 14.0500437 58.91558942 12.00185836 68.07080078 9.46142578 C70.07275048 8.91779338 72.07470371 8.37417397 74.07666016 7.83056641 C77.20416543 6.97411718 80.33107702 6.11553626 83.45776367 5.25610352 C86.4940562 4.42352953 89.53232113 3.59847555 92.57080078 2.77392578 C93.50421799 2.51457748 94.43763519 2.25522919 95.39933777 1.98802185 C96.27407242 1.75100052 97.14880707 1.51397919 98.05004883 1.26977539 C98.8142363 1.05961288 99.57842377 0.84945038 100.36576843 0.63291931 C102.92682968 0.12334717 105.01915037 -0.11364079 107.62158203 0.18408203 C109.33334351 1.56373596 109.33334351 1.56373596 110.89648438 3.52612305 C111.50148773 4.25920181 112.10649109 4.99228058 112.72982788 5.74757385 C113.38246613 6.55291061 114.03510437 7.35824738 114.70751953 8.18798828 C132.15323349 28.45322032 144.99670212 40.73120895 171.94586182 45.08712769 C197.99190782 49.31712873 197.99190782 49.31712873 203.45507812 56.64257812 C208.31329445 66.23250328 209.62009731 77.05182959 211.31103516 87.54785156 C215.19985106 110.22253278 225.48185184 121.56587785 242.61181641 136.31689453 C243.4706543 137.06218414 244.32949219 137.80747375 245.21435547 138.5753479 C246.83765051 139.95926477 248.48919939 141.31094953 250.17138672 142.62265015 C255.40984977 146.94330281 255.40984977 146.94330281 255.97952271 150.28166199 C255.77080831 152.69887945 255.27765352 154.84868965 254.62158203 157.18408203 C254.42590637 157.99824585 254.23023071 158.81240967 254.02862549 159.65124512 C253.36138717 162.32696462 252.62045025 164.97374118 251.86376953 167.62548828 C251.31514473 169.61039063 250.76698145 171.59542059 250.21923828 173.58056641 C249.35811287 176.67171647 248.49238526 179.7614037 247.61816406 182.84887695 C246.77025046 185.85427021 245.94091289 188.86432298 245.11376953 191.87548828 C244.84925995 192.79028458 244.58475037 193.70508087 244.31222534 194.64759827 C241.75562036 204.04257588 243.8038057 211.47808942 246.34423828 220.63330078 C246.88787068 222.63525048 247.43149009 224.63720371 247.97509766 226.63916016 C248.83154688 229.76666543 249.6901278 232.89357702 250.54956055 236.02026367 C251.38213454 239.0565562 252.20718851 242.09482113 253.03173828 245.13330078 C253.29108658 246.06671799 253.55043488 247.00013519 253.81764221 247.96183777 C254.17317421 249.27393974 254.17317421 249.27393974 254.53588867 250.61254883 C254.74605118 251.3767363 254.95621368 252.14092377 255.17274475 252.92826843 C255.68231689 255.48932968 255.91930485 257.58165037 255.62158203 260.18408203 C254.2419281 261.89584351 254.2419281 261.89584351 252.27954102 263.45898438 C251.18014191 264.36642899 251.18014191 264.36642899 250.05853271 265.29220581 C249.25304993 265.94488434 248.44756714 266.59756287 247.61767578 267.27001953 C223.84890882 287.70967397 211.67912004 304.42210927 207.26196289 335.98632812 C205.07631876 349.50233776 205.07631876 349.50233776 201.62158203 354.18408203 C193.33232327 359.4404103 182.34225322 361.18408203 172.62158203 361.18408203 C179.70218806 373.80030515 186.86362591 386.36325513 194.17675781 398.84619141 C198.71074246 406.59595356 203.17703373 414.38287081 207.62158203 422.18408203 C214.33509002 433.96556278 221.13581491 445.69433514 227.98925781 457.39501953 C230.87244063 462.32135523 233.74667926 467.2529111 236.62158203 472.18408203 C233.13167285 473.34738509 231.99390632 472.96634025 228.50756836 472.01245117 C227.46671585 471.73208511 226.42586334 471.45171906 225.35346985 471.16285706 C224.23151718 470.85146286 223.10956451 470.54006866 221.95361328 470.21923828 C220.80366379 469.9070787 219.65371429 469.59491913 218.46891785 469.27330017 C214.78844017 468.2722656 211.11128589 467.25956934 207.43408203 466.24658203 C204.94275533 465.5667764 202.45122128 464.88773014 199.95947266 464.20947266 C193.84440725 462.54315376 187.73203161 460.8672436 181.62158203 459.18408203 C181.51273682 460.28494141 181.4038916 461.38580078 181.29174805 462.52001953 C180.63469993 467.74716091 179.2836558 472.73438507 177.89892578 477.80908203 C177.63398819 478.79658447 177.3690506 479.78408691 177.09608459 480.80151367 C176.25541009 483.93040612 175.40736823 487.05724564 174.55908203 490.18408203 C173.98502509 492.31546074 173.41145233 494.44696992 172.83837891 496.57861328 C171.43837829 501.78195881 170.03233651 506.98364247 168.62158203 512.18408203 C164.67948665 510.87005024 164.32100671 509.3955155 162.32080078 505.80517578 C161.68070068 504.66870605 161.04060059 503.53223633 160.38110352 502.36132812 C159.69042969 501.11474609 158.99975586 499.86816406 158.30908203 498.62158203 C157.22577895 496.69108394 156.13914636 494.76248316 155.05250549 492.8338623 C154.31398397 491.52237937 153.57655626 490.21027992 152.8401947 488.89758301 C149.48077841 482.91156987 146.03281047 476.97944974 142.55908203 471.05908203 C137.0872933 461.71056718 131.66068208 452.33689982 126.25976562 442.94726562 C123.05208736 437.37612356 119.82564451 431.81695858 116.56298828 426.27783203 C115.91201172 425.17052734 115.26103516 424.06322266 114.59033203 422.92236328 C113.34273855 420.8029883 112.09157319 418.6857109 110.83642578 416.57080078 C110.28212891 415.62849609 109.72783203 414.68619141 109.15673828 413.71533203 C108.66568604 412.88582031 108.17463379 412.05630859 107.66870117 411.20166016 C106.62158203 409.18408203 106.62158203 409.18408203 106.62158203 407.18408203 C105.50895996 407.0714502 104.39633789 406.95881836 103.25 406.84277344 C98.23193141 406.21264219 93.44476518 404.95297323 88.56689453 403.64501953 C86.63348255 403.1417166 84.69988278 402.63913457 82.76611328 402.13720703 C79.75376357 401.35013928 76.74303814 400.55813385 73.73535156 399.75341797 C70.8079649 398.97284538 67.87565434 398.21373294 64.94189453 397.45751953 C64.05615753 397.21488373 63.17042053 396.97224792 62.25784302 396.72225952 C52.24575701 394.17831419 43.68057451 396.1827547 33.90673828 398.90673828 C32.92918076 399.17167587 31.95162323 399.43661346 30.94444275 399.70957947 C27.8555611 400.54777506 24.76969804 401.39645102 21.68408203 402.24658203 C18.57309795 403.09879118 15.46152457 403.94868805 12.34873962 404.79429626 C10.41999551 405.31872956 8.49234459 405.84720376 6.56593323 406.38014221 C5.26328773 406.73567421 5.26328773 406.73567421 3.93432617 407.09838867 C3.17172989 407.30855118 2.40913361 407.51871368 1.62342834 407.73524475 C-0.37841797 408.18408203 -0.37841797 408.18408203 -3.37841797 408.18408203 C-3.79462402 409.27692505 -3.79462402 409.27692505 -4.21923828 410.3918457 C-5.30657462 413.01102551 -6.52738812 415.39530946 -7.92529297 417.85986328 C-8.43294189 418.75729248 -8.94059082 419.65472168 -9.46362305 420.5793457 C-10.01300537 421.54203369 -10.5623877 422.50472168 -11.12841797 423.49658203 C-11.70551514 424.51276611 -12.2826123 425.5289502 -12.87719727 426.57592773 C-17.50367322 434.70112542 -22.20823941 442.77972363 -26.93408203 450.84741211 C-31.12366575 458.00759263 -35.25774568 465.19809057 -39.36477661 472.40579224 C-41.69926856 476.50132679 -44.03965105 480.59349933 -46.37939453 484.68603516 C-47.72691246 487.04307755 -49.07232497 489.40130593 -50.41650391 491.76025391 C-52.35305785 495.15677203 -54.30265627 498.54570262 -56.25341797 501.93408203 C-56.84251953 502.97048828 -57.43162109 504.00689453 -58.03857422 505.07470703 C-58.58126953 506.01314453 -59.12396484 506.95158203 -59.68310547 507.91845703 C-60.39442627 509.15934082 -60.39442627 509.15934082 -61.12011719 510.42529297 C-61.53535645 511.00569336 -61.9505957 511.58609375 -62.37841797 512.18408203 C-63.03841797 512.18408203 -63.69841797 512.18408203 -64.37841797 512.18408203 C-67.78285281 500.50068063 -71.06201934 488.7865813 -74.20874023 477.03131104 C-74.5720054 475.67427709 -74.93610126 474.31746524 -75.30102539 472.96087646 C-75.8165292 471.04251949 -76.32802728 469.12308746 -76.83935547 467.20361328 C-77.13632324 466.09091064 -77.43329102 464.97820801 -77.73925781 463.83178711 C-78.37841797 461.18408203 -78.37841797 461.18408203 -78.37841797 459.18408203 C-79.54630859 459.52439453 -80.71419922 459.86470703 -81.91748047 460.21533203 C-92.40891346 463.25271789 -102.92773089 466.18225433 -113.47625732 469.0144043 C-114.82657687 469.37722162 -116.17655424 469.74131487 -117.52618408 470.10668945 C-119.43682238 470.62334195 -121.34899914 471.13429472 -123.26123047 471.64501953 C-124.36869629 471.9419873 -125.47616211 472.23895508 -126.6171875 472.54492188 C-129.37841797 473.18408203 -129.37841797 473.18408203 -132.37841797 473.18408203 C-131.08733606 469.79405482 -129.62060255 466.66247372 -127.83154297 463.50830078 C-127.32381348 462.61071045 -126.81608398 461.71312012 -126.29296875 460.78833008 C-125.74366699 459.82580322 -125.19436523 458.86327637 -124.62841797 457.87158203 C-124.0520459 456.85684814 -123.47567383 455.84211426 -122.88183594 454.79663086 C-117.64801396 445.60599423 -112.31817755 436.47219989 -106.97607422 427.34423828 C-101.37786582 417.77241758 -95.85264403 408.15838801 -90.31787109 398.54980469 C-88.29259758 395.03514953 -86.26554318 391.52152734 -84.23779297 388.00830078 C-83.89719345 387.41815186 -83.55659393 386.82800293 -83.20567322 386.2199707 C-81.5707189 383.38715447 -79.93567142 380.55439203 -78.30053711 377.72167969 C-75.31553964 372.548668 -72.33605473 367.3727897 -69.37841797 362.18408203 C-70.18883545 362.19310547 -70.99925293 362.20212891 -71.83422852 362.21142578 C-80.98872873 361.97170073 -91.66066265 361.13229849 -98.37841797 354.18408203 C-105.85531682 341.78050862 -107.78643613 325.41984178 -110.3046875 311.37158203 C-112.2913249 301.32942072 -115.46179647 296.43629733 -123.01904297 289.40673828 C-124.74626627 287.74271036 -126.47280864 286.07797541 -128.19873047 284.41259766 C-130.91768548 281.81797008 -133.64393301 279.23200884 -136.38330078 276.65893555 C-139.03390896 274.15930837 -141.6525584 271.62949438 -144.26904297 269.09423828 C-145.0959967 268.33458267 -145.92295044 267.57492706 -146.77496338 266.79225159 C-152.14867751 261.53939019 -152.14867751 261.53939019 -152.74966431 257.99398804 C-152.54211678 255.59869895 -152.0485537 253.49236588 -151.37841797 251.18408203 C-151.08451172 249.96900719 -151.08451172 249.96900719 -150.78466797 248.72938538 C-150.1191125 246.06064503 -149.37772047 243.4219822 -148.62060547 240.77783203 C-148.07190088 238.79750937 -147.5237402 236.81703593 -146.97607422 234.83642578 C-146.11564789 231.75392758 -145.25027892 228.67304213 -144.375 225.59472656 C-143.52582988 222.59706523 -142.69699337 219.59434127 -141.87060547 216.59033203 C-141.47384109 215.22587952 -141.47384109 215.22587952 -141.06906128 213.8338623 C-138.40617369 204.04916708 -140.43243945 196.21019331 -143.13623047 186.63720703 C-143.68461794 184.63856683 -144.2327887 182.63986716 -144.78076172 180.64111328 C-145.64397429 177.52398416 -146.51073873 174.40790389 -147.38183594 171.29296875 C-148.22603792 168.2643882 -149.05682647 165.23236783 -149.88623047 162.19970703 C-150.15074005 161.26942688 -150.41524963 160.33914673 -150.68777466 159.38067627 C-150.92487152 158.50916931 -151.16196838 157.63766235 -151.40625 156.73974609 C-151.61863312 155.97857483 -151.83101624 155.21740356 -152.04983521 154.4331665 C-152.45083336 151.68841291 -152.22248237 149.82709544 -151.37841797 147.18408203 C-149.91647339 145.51028442 -149.91647339 145.51028442 -148.01464844 144.00097656 C-147.30179184 143.41602417 -146.58893524 142.83107178 -145.85447693 142.22839355 C-144.68683556 141.28220154 -144.68683556 141.28220154 -143.49560547 140.31689453 C-122.19725922 122.05019609 -110.86619025 107.67161852 -105.31591797 79.80908203 C-100.33024368 55.33079355 -100.33024368 55.33079355 -95.40771484 51.07373047 C-88.48459462 47.1693437 -81.70309111 46.82639296 -73.9206543 46.54736328 C-50.89783598 45.09812366 -37.71219671 36.04909124 -22.81591797 19.18408203 C-20.32124401 16.41940709 -17.81303651 13.67109099 -15.27223206 10.94873047 C-13.71168519 9.27140353 -12.17814532 7.56840041 -10.67735291 5.83740234 C-4.92664211 -0.426103 -4.92664211 -0.426103 0 0 Z " fill="#FDE87C" transform="translate(204.37841796875,-0.18408203125)"/>
<path d="M0 0 C21.6323269 19.67158726 37.22915471 44.37646947 44 73 C44.18191895 73.73750488 44.36383789 74.47500977 44.55126953 75.23486328 C53.56689344 112.60054718 46.32887778 150.10292515 27.22265625 183.06640625 C7.60815378 215.04560643 -23.66294119 238.04199 -59.72265625 248.03125 C-63.13855066 248.80146294 -66.54472003 249.43408333 -70 250 C-71.66095703 250.30550781 -71.66095703 250.30550781 -73.35546875 250.6171875 C-111.18272625 256.74679859 -149.29825428 247.06588956 -180.5 225.0625 C-196.4766206 213.3407008 -209.64639626 198.84476836 -220 182 C-220.68964844 180.8965625 -221.37929687 179.793125 -222.08984375 178.65625 C-241.40619018 145.30208348 -244.3132715 106.0967343 -235.1875 69.25 C-228.36589383 45.36160388 -216.00314411 25.01736674 -199 7 C-198.32710937 6.26265625 -197.65421875 5.5253125 -196.9609375 4.765625 C-145.33232709 -49.76346914 -54.79795572 -48.19836919 0 0 Z " fill="#FDE87C" transform="translate(352,96)"/>
<path d="M0 0 C21.6323269 19.67158726 37.22915471 44.37646947 44 73 C44.18191895 73.73750488 44.36383789 74.47500977 44.55126953 75.23486328 C53.56689344 112.60054718 46.32887778 150.10292515 27.22265625 183.06640625 C7.60815378 215.04560643 -23.66294119 238.04199 -59.72265625 248.03125 C-63.13855066 248.80146294 -66.54472003 249.43408333 -70 250 C-71.66095703 250.30550781 -71.66095703 250.30550781 -73.35546875 250.6171875 C-111.18272625 256.74679859 -149.29825428 247.06588956 -180.5 225.0625 C-196.4766206 213.3407008 -209.64639626 198.84476836 -220 182 C-220.68964844 180.8965625 -221.37929687 179.793125 -222.08984375 178.65625 C-241.40619018 145.30208348 -244.3132715 106.0967343 -235.1875 69.25 C-228.36589383 45.36160388 -216.00314411 25.01736674 -199 7 C-198.32710937 6.26265625 -197.65421875 5.5253125 -196.9609375 4.765625 C-145.33232709 -49.76346914 -54.79795572 -48.19836919 0 0 Z M-125 -1 C-125.66467285 -0.80132324 -126.3293457 -0.60264648 -127.01416016 -0.39794922 C-156.25148003 8.54814797 -180.70221203 27.61432075 -195.23706055 54.77001953 C-208.99065589 81.6540056 -212.77078818 112.75569722 -203.5234375 141.765625 C-193.22164787 172.25020379 -172.44625739 195.50148221 -143.7109375 209.8046875 C-137.31308211 212.85979949 -130.85503165 215.15297066 -124 217 C-122.89527344 217.31710937 -121.79054688 217.63421875 -120.65234375 217.9609375 C-92.95713672 224.76765129 -63.46844105 218.80658116 -38.98046875 204.87109375 C-14.0341505 189.21016788 6.13107204 164.95768008 13.06640625 135.83203125 C13.83542112 132.23967662 14.45210325 128.6329769 15 125 C15.18046875 123.92105469 15.3609375 122.84210938 15.546875 121.73046875 C19.20929341 91.57866204 10.90714349 62.95152288 -7.328125 38.93359375 C-24.16417283 17.88853396 -45.91789524 4.56091193 -72 -2 C-72.75885498 -2.19360107 -73.51770996 -2.38720215 -74.29956055 -2.58666992 C-81.4181113 -4.21572983 -88.40684764 -4.34692389 -95.6875 -4.3125 C-97.55305542 -4.30404053 -97.55305542 -4.30404053 -99.45629883 -4.29541016 C-108.35179543 -4.17783571 -116.44142777 -3.58611362 -125 -1 Z " fill="#FEB850" transform="translate(352,96)"/>
<path d="M0 0 C1.41869127 0.31163195 2.82859575 0.66693527 4.22460938 1.06811523 C4.90720825 1.21768173 5.58980713 1.36724823 6.29309082 1.52134705 C8.26298596 1.95902387 10.21346737 2.48136129 12.16210938 3.00561523 C12.82017578 3.17512695 13.47824219 3.34463867 14.15625 3.51928711 C17.16433271 4.32903711 18.9849034 4.82840926 21.22460938 7.06811523 C-2.94510426 38.35220173 -28.49175121 47.94059049 -66.77539062 55.06811523 C-66.94045609 55.7355777 -67.10552155 56.40304016 -67.27558899 57.09072876 C-68.04066084 60.17999125 -68.80840453 63.26858409 -69.57617188 66.35717773 C-69.96536804 67.9312439 -69.96536804 67.9312439 -70.36242676 69.53710938 C-72.71607281 78.99174017 -75.26664066 88.39207601 -78.10270691 97.71427917 C-78.80347463 100.05107746 -78.80347463 100.05107746 -79.25141907 102.40888977 C-81.00322392 110.09310343 -84.93505954 113.80286999 -90.77539062 118.83764648 C-92.56847454 120.48377784 -94.35875743 122.13296455 -96.14648438 123.78491211 C-98.95605828 126.3471315 -101.77853935 128.88333813 -104.65478516 131.37060547 C-115.41183348 139.96394969 -115.41183348 139.96394969 -121.14804077 151.8213501 C-120.75950381 157.52682993 -118.94394439 162.61566926 -116.71087646 167.84237671 C-115.53826803 170.63228506 -114.77885969 173.46375426 -114.04492188 176.39624023 C-113.56438816 178.03837907 -113.07905 179.67912314 -112.58789062 181.31811523 C-108.58343994 194.80569065 -106.14871683 205.1555956 -110.46289062 218.88061523 C-111.01648365 220.72482562 -111.56719225 222.56990394 -112.11523438 224.41577148 C-112.53264893 225.81593506 -112.53264893 225.81593506 -112.95849609 227.24438477 C-114.25942563 231.74126195 -115.40238266 236.27404048 -116.52539062 240.81811523 C-116.72350342 241.61451416 -116.92161621 242.41091309 -117.12573242 243.23144531 C-117.68637253 245.50825247 -118.2410368 247.78496709 -118.77539062 250.06811523 C-119.03912979 250.72001831 -119.30286896 251.37192139 -119.57460022 252.0435791 C-120.43832953 254.54756253 -120.87743805 256.41325533 -120.77539062 259.06811523 C-118.65082473 262.62368157 -115.69268596 265.1459314 -112.61523438 267.88061523 C-110.85416041 269.55118156 -109.09309292 271.2217547 -107.33203125 272.89233398 C-104.53779023 275.4763293 -101.73368739 278.04909782 -98.92504883 280.61743164 C-87.33137656 291.29790017 -79.22071565 299.21048981 -76.77539062 315.06811523 C-76.31540075 316.90929041 -75.8379874 318.74631092 -75.33398438 320.57592773 C-74.95670498 322.11411621 -74.5829079 323.6531637 -74.21289062 325.19311523 C-72.41162762 332.56126526 -70.50016288 339.88741536 -68.47460938 347.19702148 C-67.77539062 350.06811523 -67.77539062 350.06811523 -67.77539062 353.06811523 C-66.26634155 353.41749146 -66.26634155 353.41749146 -64.72680664 353.77392578 C-54.49689331 356.15395901 -44.28717277 358.60495344 -34.12426758 361.2578125 C-32.50285316 361.67658623 -30.87906848 362.08627757 -29.25317383 362.48730469 C-19.80262223 364.82336438 -12.46308811 366.65155284 -5.77539062 374.06811523 C-4.74092178 375.10366181 -3.699811 376.13259368 -2.65405273 377.15673828 C1.00415555 380.74161739 4.61549982 384.37140954 8.22460938 388.00561523 C9.48869788 389.27472897 10.75301893 390.54361112 12.01757812 391.81225586 C15.08927661 394.89487843 18.15780946 397.98061951 21.22460938 401.06811523 C18.52179593 402.86999086 16.93227485 403.55944316 13.88085938 404.35717773 C13.04683594 404.57631836 12.2128125 404.79545898 11.35351562 405.02124023 C10.48597656 405.24295898 9.6184375 405.46467773 8.72460938 405.69311523 C7.85707031 405.92256836 6.98953125 406.15202148 6.09570312 406.38842773 C-0.37309338 408.06811523 -0.37309338 408.06811523 -3.77539062 408.06811523 C-4.19159668 409.16095825 -4.19159668 409.16095825 -4.61621094 410.27587891 C-5.70354728 412.89505871 -6.92436078 415.27934266 -8.32226562 417.74389648 C-8.82991455 418.64132568 -9.33756348 419.53875488 -9.8605957 420.46337891 C-10.40997803 421.42606689 -10.95936035 422.38875488 -11.52539062 423.38061523 C-12.10248779 424.39679932 -12.67958496 425.4129834 -13.27416992 426.45996094 C-17.90064587 434.58515862 -22.60521206 442.66375683 -27.33105469 450.73144531 C-31.5206384 457.89162584 -35.65471833 465.08212378 -39.76174927 472.28982544 C-42.09624122 476.38536 -44.43662371 480.47753253 -46.77636719 484.57006836 C-48.12388512 486.92711075 -49.46929763 489.28533913 -50.81347656 491.64428711 C-52.7500305 495.04080523 -54.69962892 498.42973583 -56.65039062 501.81811523 C-57.23949219 502.85452148 -57.82859375 503.89092773 -58.43554688 504.95874023 C-58.97824219 505.89717773 -59.5209375 506.83561523 -60.08007812 507.80249023 C-60.79139893 509.04337402 -60.79139893 509.04337402 -61.51708984 510.30932617 C-61.9323291 510.88972656 -62.34756836 511.47012695 -62.77539062 512.06811523 C-63.43539062 512.06811523 -64.09539062 512.06811523 -64.77539062 512.06811523 C-68.17982547 500.38471384 -71.45899199 488.6706145 -74.60571289 476.91534424 C-74.96897806 475.55831029 -75.33307392 474.20149844 -75.69799805 472.84490967 C-76.21350186 470.9265527 -76.72499994 469.00712066 -77.23632812 467.08764648 C-77.5332959 465.97494385 -77.83026367 464.86224121 -78.13623047 463.71582031 C-78.77539062 461.06811523 -78.77539062 461.06811523 -78.77539062 459.06811523 C-79.94328125 459.40842773 -81.11117187 459.74874023 -82.31445312 460.09936523 C-92.80588612 463.13675109 -103.32470355 466.06628753 -113.87322998 468.8984375 C-115.22354953 469.26125482 -116.5735269 469.62534808 -117.92315674 469.99072266 C-119.83379503 470.50737515 -121.74597179 471.01832793 -123.65820312 471.52905273 C-124.76566895 471.82602051 -125.87313477 472.12298828 -127.01416016 472.42895508 C-129.77539063 473.06811523 -129.77539063 473.06811523 -132.77539062 473.06811523 C-131.48430871 469.67808802 -130.01757521 466.54650692 -128.22851562 463.39233398 C-127.72078613 462.49474365 -127.21305664 461.59715332 -126.68994141 460.67236328 C-126.14063965 459.70983643 -125.59133789 458.74730957 -125.02539062 457.75561523 C-124.44901855 456.74088135 -123.87264648 455.72614746 -123.27880859 454.68066406 C-118.04498661 445.49002744 -112.7151502 436.35623309 -107.37304688 427.22827148 C-101.77483847 417.65645079 -96.24961669 408.04242121 -90.71484375 398.43383789 C-88.68957024 394.91918273 -86.66251583 391.40556054 -84.63476562 387.89233398 C-84.29416611 387.30218506 -83.95356659 386.71203613 -83.60264587 386.10400391 C-81.96769156 383.27118767 -80.33264408 380.43842524 -78.69750977 377.60571289 C-75.71251229 372.4327012 -72.73302739 367.25682291 -69.77539062 362.06811523 C-70.58580811 362.07713867 -71.39622559 362.08616211 -72.23120117 362.09545898 C-81.38570139 361.85573394 -92.0576353 361.01633169 -98.77539062 354.06811523 C-106.25228947 341.66454183 -108.18340878 325.30387499 -110.70166016 311.25561523 C-112.68829756 301.21345392 -115.85876913 296.32033053 -123.41601562 289.29077148 C-125.14323893 287.62674357 -126.86978129 285.96200862 -128.59570312 284.29663086 C-131.31465814 281.70200329 -134.04090567 279.11604204 -136.78027344 276.54296875 C-139.43088162 274.04334157 -142.04953106 271.51352758 -144.66601562 268.97827148 C-145.49296936 268.21861588 -146.3199231 267.45896027 -147.17193604 266.67628479 C-152.54565017 261.42342339 -152.54565017 261.42342339 -153.14663696 257.87802124 C-152.93908944 255.48273216 -152.44552636 253.37639909 -151.77539062 251.06811523 C-151.48148438 249.85304039 -151.48148438 249.85304039 -151.18164062 248.61341858 C-150.51608516 245.94467823 -149.77469313 243.3060154 -149.01757812 240.66186523 C-148.46887354 238.68154257 -147.92071286 236.70106913 -147.37304688 234.72045898 C-146.51262055 231.63796079 -145.64725157 228.55707533 -144.77197266 225.47875977 C-143.92280253 222.48109843 -143.09396603 219.47837448 -142.26757812 216.47436523 C-141.87081375 215.10991272 -141.87081375 215.10991272 -141.46603394 213.71789551 C-138.80314635 203.93320029 -140.8294121 196.09422651 -143.53320312 186.52124023 C-144.08159059 184.52260003 -144.62976136 182.52390036 -145.17773438 180.52514648 C-146.04094695 177.40801737 -146.90771139 174.2919371 -147.77880859 171.17700195 C-148.62301058 168.14842141 -149.45379913 165.11640104 -150.28320312 162.08374023 C-150.54771271 161.15346008 -150.81222229 160.22317993 -151.08474731 159.26470947 C-151.32184418 158.39320251 -151.55894104 157.52169556 -151.80322266 156.6237793 C-152.01560577 155.86260803 -152.22798889 155.10143677 -152.44680786 154.31719971 C-152.84780601 151.57244612 -152.61945503 149.71112864 -151.77539062 147.06811523 C-150.31344604 145.39431763 -150.31344604 145.39431763 -148.41162109 143.88500977 C-147.6987645 143.30005737 -146.9859079 142.71510498 -146.25144958 142.11242676 C-145.08380821 141.16623474 -145.08380821 141.16623474 -143.89257812 140.20092773 C-122.59423187 121.93422929 -111.26316291 107.55565173 -105.71289062 79.69311523 C-100.72721634 55.21482675 -100.72721634 55.21482675 -95.8046875 50.95776367 C-88.88156727 47.05337691 -82.10006376 46.71042617 -74.31762695 46.43139648 C-51.29480864 44.98215686 -38.10916937 35.93312445 -23.21289062 19.06811523 C-20.71821667 16.3034403 -18.21000916 13.5551242 -15.66920471 10.83276367 C-14.10865785 9.15543673 -12.57511798 7.45243361 -11.07432556 5.72143555 C-5.32535982 -0.54016914 -5.32535982 -0.54016914 0 0 Z " fill="#FBD94F" transform="translate(204.775390625,-0.068115234375)"/>
<path d="M0 0 C0.48073975 0.85658203 0.48073975 0.85658203 0.97119141 1.73046875 C7.73332626 13.76692528 14.57642234 25.74993062 21.55517578 37.66210938 C26.08916043 45.41187153 30.5554517 53.19878878 35 61 C41.71350799 72.78148075 48.51423287 84.5102531 55.36767578 96.2109375 C58.2508586 101.1372732 61.12509723 106.06882907 64 111 C60.51009082 112.16330306 59.37232429 111.78225822 55.88598633 110.82836914 C54.84513382 110.54800308 53.80428131 110.26763702 52.73188782 109.97877502 C51.60993515 109.66738083 50.48798248 109.35598663 49.33203125 109.03515625 C48.18208176 108.72299667 47.03213226 108.4108371 45.84733582 108.08921814 C42.16685814 107.08818357 38.48970386 106.07548731 34.8125 105.0625 C32.3211733 104.38269437 29.82963925 103.70364811 27.33789062 103.02539062 C21.22282522 101.35907173 15.11044958 99.68316157 9 98 C8.89115479 99.10085938 8.78230957 100.20171875 8.67016602 101.3359375 C8.0131179 106.56307888 6.66207377 111.55030304 5.27734375 116.625 C4.87993736 118.10625366 4.87993736 118.10625366 4.47450256 119.61743164 C3.63382806 122.74632409 2.7857862 125.87316361 1.9375 129 C1.36344305 131.13137871 0.7898703 133.26288789 0.21679688 135.39453125 C-1.18320374 140.59787678 -2.58924552 145.79956044 -4 151 C-7.94209538 149.68596821 -8.30057532 148.21143347 -10.30078125 144.62109375 C-10.94088135 143.48462402 -11.58098145 142.3481543 -12.24047852 141.17724609 C-12.93115234 139.93066406 -13.62182617 138.68408203 -14.3125 137.4375 C-15.39580309 135.50700191 -16.48243567 133.57840113 -17.56907654 131.64978027 C-18.30759806 130.33829734 -19.04502577 129.02619789 -19.78138733 127.71350098 C-23.14080362 121.72748783 -26.58877156 115.7953677 -30.0625 109.875 C-35.5345277 100.52607688 -40.97133583 91.15753752 -46.35742188 81.75878906 C-49.55492148 76.18922219 -52.79828943 70.65522779 -56.12890625 65.1640625 C-56.78890625 64.06578125 -57.44890625 62.9675 -58.12890625 61.8359375 C-59.39300894 59.73676091 -60.66987399 57.64520328 -61.9609375 55.5625 C-62.52167969 54.62664062 -63.08242188 53.69078125 -63.66015625 52.7265625 C-64.16168213 51.90752441 -64.66320801 51.08848633 -65.17993164 50.24462891 C-66 48 -66 48 -65.26065063 46.10015869 C-63.90983356 43.84978882 -62.43458148 42.07679113 -60.6496582 40.15283203 C-59.9632576 39.41171173 -59.27685699 38.67059143 -58.56965637 37.90701294 C-55.36088789 34.5139312 -52.1289888 31.14435096 -48.87719727 27.79248047 C-47.18716245 26.03471556 -45.51436525 24.26018846 -43.8605957 22.46826172 C-31.46930038 9.05940802 -19.00796898 0 0 0 Z " fill="#EB5569" transform="translate(377,361)"/>
<path d="M0 0 C3.84301361 0.81388376 7.67145436 1.68327004 11.5 2.5625 C12.57765625 2.79001953 13.6553125 3.01753906 14.765625 3.25195312 C15.82265625 3.50009766 16.8796875 3.74824219 17.96875 4.00390625 C19.41411133 4.32597046 19.41411133 4.32597046 20.88867188 4.65454102 C25.38153773 6.59743051 28.47942168 9.65103617 32 13 C32.97980331 13.92296623 32.97980331 13.92296623 33.97940063 14.86457825 C38.29217039 18.97215423 42.52382744 23.16377511 46.75756836 27.35253906 C48.30416316 28.87734623 49.85700111 30.39584494 51.41577148 31.90820312 C53.67839503 34.10427196 55.92101688 36.31908506 58.16015625 38.5390625 C58.86205582 39.21313141 59.56395538 39.88720032 60.28712463 40.58169556 C64.99060552 45.30572934 64.99060552 45.30572934 65.03735352 48.76049805 C63.52001716 52.0362162 61.76151038 55.11604955 59.875 58.1875 C58.95830195 59.71274102 58.0430296 61.23883949 57.12890625 62.765625 C56.37697998 64.01762695 56.37697998 64.01762695 55.60986328 65.29492188 C52.62429981 70.31161026 49.72321379 75.37714446 46.8125 80.4375 C45.51697859 82.68622759 44.22140498 84.93492511 42.92578125 87.18359375 C42.27561035 88.31265137 41.62543945 89.44170898 40.95556641 90.60498047 C37.80667949 96.07169976 34.65320401 101.53577005 31.5 107 C27.95878425 113.13710894 24.41784889 119.27437761 20.87988281 125.4133606 C19.50193062 127.80426597 18.12365828 130.19498672 16.74536133 132.58569336 C15.77459018 134.26983963 14.80428126 135.95425231 13.83398438 137.63867188 C13.24423828 138.66154297 12.65449219 139.68441406 12.046875 140.73828125 C11.52963867 141.63587158 11.01240234 142.53346191 10.47949219 143.45825195 C9.99125977 144.29702881 9.50302734 145.13580566 9 146 C8.4834082 146.93352295 7.96681641 147.8670459 7.43457031 148.82885742 C6.96116211 149.54533447 6.48775391 150.26181152 6 151 C5.34 151 4.68 151 4 151 C0.59556516 139.3165986 -2.68360137 127.60249927 -5.83032227 115.847229 C-6.19358743 114.49019506 -6.55768329 113.13338321 -6.92260742 111.77679443 C-7.43811123 109.85843746 -7.94960931 107.93900543 -8.4609375 106.01953125 C-8.75790527 104.90682861 -9.05487305 103.79412598 -9.36083984 102.64770508 C-10 100 -10 100 -10 98 C-11.16789062 98.3403125 -12.33578125 98.680625 -13.5390625 99.03125 C-24.0304955 102.06863586 -34.54931292 104.9981723 -45.09783936 107.83032227 C-46.4481589 108.19313959 -47.79813627 108.55723284 -49.14776611 108.92260742 C-51.05840441 109.43925991 -52.97058117 109.95021269 -54.8828125 110.4609375 C-55.99027832 110.75790527 -57.09774414 111.05487305 -58.23876953 111.36083984 C-61 112 -61 112 -64 112 C-62.70891809 108.60997279 -61.24218459 105.47839169 -59.453125 102.32421875 C-58.94539551 101.42662842 -58.43766602 100.52903809 -57.91455078 99.60424805 C-57.36524902 98.64172119 -56.81594727 97.67919434 -56.25 96.6875 C-55.67362793 95.67276611 -55.09725586 94.65803223 -54.50341797 93.61254883 C-49.26959599 84.4219122 -43.93975958 75.28811786 -38.59765625 66.16015625 C-34.89486997 59.82912964 -31.2251356 53.47932004 -27.5625 47.125 C-26.63969238 45.52458862 -26.63969238 45.52458862 -25.69824219 43.8918457 C-22.77163254 38.81450585 -19.8475599 33.73571656 -16.92692566 28.65493774 C-15.90350745 26.8749866 -14.87946987 25.09539331 -13.85522461 23.31591797 C-12.57221373 21.08650663 -11.29039912 18.85640624 -10.01000977 16.62548828 C-6.77819012 11.01164661 -3.47438493 5.46723968 0 0 Z " fill="#EB5569" transform="translate(136,361)"/>
<path d="M0 0 C-2.16737722 2.16737722 -2.97115508 2.41120147 -5.859375 3.078125 C-6.63837158 3.26600586 -7.41736816 3.45388672 -8.2199707 3.64746094 C-9.05488037 3.84629883 -9.88979004 4.04513672 -10.75 4.25 C-29.82385892 9.07446944 -45.27944184 18.0410824 -60 31 C-60.62132812 31.53753906 -61.24265625 32.07507813 -61.8828125 32.62890625 C-76.25077639 45.96104018 -86.77901618 66.05606305 -91 85 C-91.24645264 85.93787354 -91.49290527 86.87574707 -91.74682617 87.84204102 C-93.74483726 95.72213041 -94.51185675 103.06904137 -94.4375 111.1875 C-94.42992676 112.36223877 -94.42235352 113.53697754 -94.41455078 114.74731445 C-94.22986792 124.59010192 -92.97280743 133.62457079 -90 143 C-89.67854004 144.0209375 -89.67854004 144.0209375 -89.35058594 145.0625 C-84.68326163 159.41095551 -78.01145902 172.6320265 -68 184 C-67.32453125 184.81855469 -66.6490625 185.63710938 -65.953125 186.48046875 C-48.96467812 206.47599473 -22.89399649 219.55425906 3.12890625 221.8515625 C4.05509766 221.92503906 4.05509766 221.92503906 5 222 C5 222.33 5 222.66 5 223 C-23.46463566 228.21139142 -51.71986382 221.03226078 -76 206 C-79.52574232 203.52708351 -82.77268456 200.84763127 -86 198 C-87.22783203 196.96939453 -87.22783203 196.96939453 -88.48046875 195.91796875 C-109.268362 178.03071177 -123.77967704 151.57705473 -126 124 C-126.76139701 108.92169087 -126.54299845 94.47259629 -122 80 C-121.78569336 79.31260742 -121.57138672 78.62521484 -121.35058594 77.91699219 C-112.38373498 50.10278638 -92.95505366 26.36392951 -67.02783203 12.71240234 C-59.26788909 8.79038929 -51.33774335 5.49848382 -43 3 C-41.93652344 2.6803125 -40.87304688 2.360625 -39.77734375 2.03125 C-26.79273161 -1.18881455 -13.27660856 -0.27100792 0 0 Z " fill="#FBD84F" transform="translate(270,92)"/>
<path d="M0 0 C3.19993018 0.86337739 4.15606066 2.89593091 6.0703125 5.55859375 C7.48209883 8.03895269 8.72696846 10.58750702 9.9609375 13.16015625 C10.31041443 13.87843597 10.65989136 14.5967157 11.0199585 15.33676147 C11.75242841 16.84637011 12.48172889 18.35752029 13.20800781 19.87011719 C14.3221973 22.18751393 15.44942333 24.49823655 16.578125 26.80859375 C17.28984857 28.27956784 18.00081294 29.75090956 18.7109375 31.22265625 C19.21708588 32.25865463 19.21708588 32.25865463 19.73345947 33.31558228 C21.13320856 36.24929606 22.0703125 38.26533727 22.0703125 41.55859375 C13.20330841 43.77781057 4.18990091 44.72656616 -4.87768555 45.7331543 C-6.94465238 45.96472122 -9.00931977 46.21169003 -11.07421875 46.4609375 C-12.29471924 46.60007568 -13.51521973 46.73921387 -14.77270508 46.88256836 C-18.08883769 47.59267363 -19.74307614 47.95823489 -21.9296875 50.55859375 C-22.8147526 53.89369384 -22.8147526 53.89369384 -21.9296875 57.55859375 C-20.07075394 60.21477979 -17.75353109 62.24377136 -15.33203125 64.3828125 C-13.95949294 65.67168153 -12.58777328 66.96142281 -11.21679688 68.25195312 C-9.04661586 70.25480079 -6.86750772 72.24580579 -4.67163086 74.22045898 C7.54237719 85.2806694 7.54237719 85.2806694 8.83349609 90.8515625 C8.59457804 93.95403463 7.98225927 96.58940937 7.0703125 99.55859375 C6.80712311 101.23474458 6.56611225 102.91458802 6.3515625 104.59765625 C6.09621581 106.12715715 5.83589501 107.65583694 5.5703125 109.18359375 C5.44011719 109.97121094 5.30992187 110.75882812 5.17578125 111.5703125 C4.20446429 117.29029018 4.20446429 117.29029018 3.0703125 119.55859375 C2.21816162 119.33083252 1.36601074 119.10307129 0.48803711 118.8684082 C-3.84215023 118.47587961 -5.79845516 119.564488 -9.61328125 121.6015625 C-10.23187515 121.92643143 -10.85046906 122.25130035 -11.48780823 122.58601379 C-13.45599245 123.62439118 -15.41128911 124.68478907 -17.3671875 125.74609375 C-18.67696073 126.44091346 -19.98750196 127.13428747 -21.29882812 127.82617188 C-26.13376193 130.38823547 -30.94460887 132.9762044 -35.65649414 135.7590332 C-39.20697314 137.71104191 -40.95712703 138.26482672 -44.9296875 137.55859375 C-47.3046875 136.05859375 -47.3046875 136.05859375 -48.9296875 133.55859375 C-49.21705817 127.93201952 -48.62362443 122.77852889 -47.58203125 117.26171875 C-47.30400343 115.71094342 -47.02600962 114.16016199 -46.74804688 112.609375 C-46.30691404 110.19732278 -45.8629797 107.78580625 -45.41772461 105.37451172 C-44.98648032 103.02559656 -44.56515088 100.67505584 -44.14453125 98.32421875 C-44.00812729 97.60437805 -43.87172333 96.88453735 -43.73118591 96.1428833 C-42.83883188 91.27608868 -42.83883188 91.27608868 -43.9296875 86.55859375 C-45.5843177 84.76280871 -45.5843177 84.76280871 -47.8046875 82.99609375 C-53.36100534 78.13735742 -58.70509198 73.08394553 -63.9921875 67.93359375 C-64.84989746 67.12204834 -65.70760742 66.31050293 -66.59130859 65.47436523 C-73.3652734 58.82192175 -73.3652734 58.82192175 -74.30078125 54.78515625 C-73.79958849 50.4274171 -72.28507948 49.30473425 -68.9296875 46.55859375 C-65.69091797 45.65551758 -65.69091797 45.65551758 -62.046875 45.265625 C-61.39196075 45.18865891 -60.73704651 45.11169281 -60.06228638 45.03239441 C-57.97811258 44.79148892 -55.89225943 44.58028626 -53.8046875 44.37109375 C-52.42685376 44.22018043 -51.04924453 44.06720236 -49.671875 43.91210938 C-48.99821899 43.83678986 -48.32456299 43.76147034 -47.63049316 43.68386841 C-45.6322367 43.45573503 -43.6354321 43.21499933 -41.63867188 42.97412109 C-39.33389972 42.71591136 -37.02136156 42.51306742 -34.70507812 42.39697266 C-30.45600348 42.02990222 -27.90964647 41.70969142 -25.07177734 38.3762207 C-23.37015208 35.42064293 -22.00528039 32.45044251 -20.6796875 29.30859375 C-20.18227051 28.22497559 -19.68485352 27.14135742 -19.17236328 26.02490234 C-18.18346014 23.86913855 -17.20989455 21.70626304 -16.25292969 19.53613281 C-14.5456442 15.69442547 -12.69831155 11.93588896 -10.8046875 8.18359375 C-10.28648437 7.12398437 -9.76828125 6.064375 -9.234375 4.97265625 C-6.80718756 0.48163279 -4.97429477 0.29316186 0 0 Z " fill="#F5A310" transform="translate(257.9296875,132.44140625)"/>
<path d="M0 0 C1.15876648 0.15792023 1.15876648 0.15792023 2.34094238 0.31903076 C3.98228829 0.54466108 5.62319086 0.77353611 7.26367188 1.00537109 C9.7421801 1.35388127 12.22237432 1.6874116 14.703125 2.01953125 C33.04996923 4.53501868 33.04996923 4.53501868 38.28125 7.109375 C40.28125 10.109375 40.28125 10.109375 40.19555664 13.46875 C39.12599382 17.72758065 37.77880349 19.3234234 34.65234375 22.359375 C33.95045677 23.05208496 33.95045677 23.05208496 33.23439026 23.75878906 C31.74273913 25.22368224 30.23136026 26.66616828 28.71875 28.109375 C27.72979427 29.07677179 26.7421513 30.04551251 25.75585938 31.015625 C21.49213303 35.18104169 17.23482081 39.16293932 12.50390625 42.796875 C10.59931532 44.36134508 10.59931532 44.36134508 9.28125 46.109375 C9.16921349 49.34092801 9.4763964 51.07680162 10.28125 54.109375 C10.61255621 56.22761274 10.92332269 58.3491173 11.21875 60.47265625 C11.57170422 62.78924755 11.92589812 65.10565027 12.28125 67.421875 C12.45914063 68.60072266 12.63703125 69.77957031 12.8203125 70.99414062 C12.99304688 72.12142578 13.16578125 73.24871094 13.34375 74.41015625 C13.49972656 75.43278564 13.65570313 76.45541504 13.81640625 77.5090332 C14.23477328 80.21052887 14.23477328 80.21052887 15.28125 83.109375 C15.67600205 86.17152306 15.77192854 89.05503889 15.28125 92.109375 C12.92212685 94.87291926 11.54314089 95.9799603 7.91259766 96.35229492 C4.83016732 96.06773209 3.04953195 95.19034397 0.3671875 93.66015625 C-1.02306641 92.88188477 -1.02306641 92.88188477 -2.44140625 92.08789062 C-3.39917969 91.53810547 -4.35695313 90.98832031 -5.34375 90.421875 C-12.66187713 86.26820698 -19.99748841 82.4645253 -27.71875 79.109375 C-27.60281494 78.53606445 -27.48687988 77.96275391 -27.36743164 77.37207031 C-26.83175363 74.70251454 -26.30648854 72.03100357 -25.78125 69.359375 C-25.50764648 68.00779297 -25.50764648 68.00779297 -25.22851562 66.62890625 C-24.86431864 64.76156897 -24.53401984 62.88736029 -24.23461914 61.00854492 C-23.71875 58.109375 -23.71875 58.109375 -22.84155273 55.2668457 C-22.01078708 51.74696829 -21.86243643 49.64837719 -22.71875 46.109375 C-26.65660186 40.17749823 -32.40104557 35.52264374 -37.65625 30.796875 C-39.81626944 28.82321773 -41.96557728 26.8406528 -44.09608459 24.8351593 C-45.41873771 23.5931345 -46.75929717 22.36983432 -48.11912537 21.16862488 C-51.2903296 18.22055605 -52.58396669 16.79300647 -53.44360352 12.43286133 C-52.71875 9.109375 -52.71875 9.109375 -50.7644043 6.76245117 C-46.8346816 4.62953315 -43.39271926 4.13187497 -38.98828125 3.66015625 C-38.15664963 3.55720749 -37.32501801 3.45425873 -36.46818542 3.34819031 C-33.82414878 3.02377654 -31.1781414 2.72201809 -28.53125 2.421875 C-25.87437166 2.10654631 -23.21811599 1.7865868 -20.56217957 1.46342468 C-18.91237846 1.26419998 -17.26191699 1.07035595 -15.61079407 0.88240051 C-3.66048385 -0.51596352 -3.66048385 -0.51596352 0 0 Z " fill="#FEB850" transform="translate(287.71875,173.890625)"/>
<path d="M0 0 C2.81784037 2.5083512 4.45723723 5.29922938 6.30078125 8.57421875 C6.94088135 9.70424316 7.58098145 10.83426758 8.24047852 11.99853516 C8.57782013 12.59917786 8.91516174 13.19982056 9.26272583 13.81866455 C11.05593474 17.01098198 12.86525434 20.19416646 14.671875 23.37890625 C15.03801407 24.02543152 15.40415314 24.67195679 15.78138733 25.33807373 C19.15857199 31.29631705 22.60048513 37.21566441 26.0625 43.125 C31.66754059 52.70249041 37.22711956 62.30531567 42.76391602 71.92236328 C46.81836558 78.96249985 50.89948295 85.98659424 55 93 C51.51009082 94.16330306 50.37232429 93.78225822 46.88598633 92.82836914 C45.84513382 92.54800308 44.80428131 92.26763702 43.73188782 91.97877502 C42.60993515 91.66738083 41.48798248 91.35598663 40.33203125 91.03515625 C39.18208176 90.72299667 38.03213226 90.4108371 36.84733582 90.08921814 C33.16685814 89.08818357 29.48970386 88.07548731 25.8125 87.0625 C23.3211733 86.38269437 20.82963925 85.70364811 18.33789062 85.02539062 C12.22282522 83.35907173 6.11044958 81.68316157 0 80 C-0.14945068 81.26779297 -0.29890137 82.53558594 -0.45288086 83.84179688 C-0.97605294 88.2798755 -2.30389527 91.87035369 -4 96 C-6.47490306 93.73786526 -8.02495856 91.44745997 -9.64453125 88.51953125 C-10.14944092 87.61477051 -10.65435059 86.71000977 -11.17456055 85.77783203 C-11.71508057 84.79927246 -12.25560059 83.82071289 -12.8125 82.8125 C-13.98034977 80.7218618 -15.14966874 78.63204375 -16.3203125 76.54296875 C-16.92520508 75.46321777 -17.53009766 74.3834668 -18.15332031 73.27099609 C-21.11434117 68.02618417 -24.14739706 62.82425271 -27.1875 57.625 C-27.76741699 56.62927979 -28.34733398 55.63355957 -28.94482422 54.60766602 C-31.63603855 49.99638401 -34.35125476 45.40422586 -37.140625 40.8515625 C-37.61604736 40.0682959 -38.09146973 39.2850293 -38.58129883 38.47802734 C-39.45850287 37.0369177 -40.34574022 35.60184718 -41.24487305 34.17431641 C-44.05384371 29.54226986 -44.05384371 29.54226986 -43.78735352 26.85839844 C-43.52752686 26.24512695 -43.2677002 25.63185547 -43 25 C-42.01 24.67 -41.02 24.34 -40 24 C-39.56131592 24.77714355 -39.12263184 25.55428711 -38.6706543 26.35498047 C-37.03804811 29.23940251 -35.39924004 32.12010867 -33.75610352 34.99853516 C-33.04655482 36.24450072 -32.33950033 37.49189016 -31.63500977 38.74072266 C-30.62129378 40.53669305 -29.59868545 42.32733304 -28.57421875 44.1171875 C-27.96151123 45.19597168 -27.34880371 46.27475586 -26.7175293 47.38623047 C-25.10371334 50.21306048 -25.10371334 50.21306048 -22 52 C-18.42823885 51.91832511 -18.42823885 51.91832511 -15 51 C-12.64798733 47.471981 -12.5928432 46.15535696 -13 42 C-14.21714424 38.99761236 -14.21714424 38.99761236 -15.9921875 36.05078125 C-16.61480469 34.95572266 -17.23742187 33.86066406 -17.87890625 32.73242188 C-18.53761719 31.60384766 -19.19632812 30.47527344 -19.875 29.3125 C-20.52597656 28.17232422 -21.17695313 27.03214844 -21.84765625 25.85742188 C-25.29035532 19.84661411 -25.29035532 19.84661411 -29 14 C-28.68794472 10.67141039 -27.53346424 9.09956369 -25 7 C-22.57983398 6.12451172 -22.57983398 6.12451172 -19.74609375 5.4296875 C-18.72708984 5.17316406 -17.70808594 4.91664063 -16.65820312 4.65234375 C-15.59537109 4.39582031 -14.53253906 4.13929688 -13.4375 3.875 C-11.33160083 3.35329688 -9.22611002 2.82994172 -7.12109375 2.3046875 C-6.1870874 2.07765137 -5.25308105 1.85061523 -4.29077148 1.61669922 C-1.99378055 1.07994356 -1.99378055 1.07994356 0 0 Z " fill="#F07181" transform="translate(386,379)"/>
<path d="M0 0 C1.32 1.32 2.64 2.64 4 4 C3.52054932 4.81678223 3.04109863 5.63356445 2.54711914 6.47509766 C0.76360081 9.52359168 -1.01142235 12.57671306 -2.78100586 15.63330078 C-3.5468882 16.95229343 -4.31605427 18.26938527 -5.08862305 19.58447266 C-6.20200681 21.48102966 -7.30319076 23.38423116 -8.40234375 25.2890625 C-8.74716293 25.87056061 -9.09198212 26.45205872 -9.44725037 27.05117798 C-11.52173741 30.67945096 -12.77815109 33.80672219 -13 38 C-11.08333333 41.08333333 -11.08333333 41.08333333 -8 43 C-4.60124814 42.86619087 -2.69215308 42.66212475 -0.19921875 40.27734375 C0.29964844 39.50519531 0.79851562 38.73304688 1.3125 37.9375 C1.88742188 37.05191406 2.46234375 36.16632813 3.0546875 35.25390625 C6.8448938 28.91406318 10.45478663 22.47946027 14 16 C17 16 17 16 19.36010742 18.01953125 C20.26607666 18.94121094 21.1720459 19.86289062 22.10546875 20.8125 C22.5895369 21.30081299 23.07360504 21.78912598 23.57234192 22.29223633 C25.1179014 23.85459826 26.65271107 25.42706327 28.1875 27 C29.23303282 28.06057762 30.27924873 29.12048229 31.32617188 30.1796875 C33.89208902 32.77869434 36.44846467 35.3868639 39 38 C35.54247604 45.15904009 31.73645467 52.03573714 27.6875 58.875 C22.73702148 67.29662515 17.8393298 75.74579501 13.00558472 84.23480225 C11.00590482 87.74502909 9.00048541 91.25197959 6.9954071 94.75912476 C5.31574962 97.69710419 3.63739578 100.63580873 1.96191406 103.57617188 C0.02536012 106.97269 -1.9242383 110.36162059 -3.875 113.75 C-4.46410156 114.78640625 -5.05320313 115.8228125 -5.66015625 116.890625 C-6.20285156 117.8290625 -6.74554688 118.7675 -7.3046875 119.734375 C-8.0160083 120.97525879 -8.0160083 120.97525879 -8.74169922 122.24121094 C-9.36455811 123.11181152 -9.36455811 123.11181152 -10 124 C-10.66 124 -11.32 124 -12 124 C-15.40443484 112.3165986 -18.68360137 100.60249927 -21.83032227 88.847229 C-22.19358743 87.49019506 -22.55768329 86.13338321 -22.92260742 84.77679443 C-23.43811123 82.85843746 -23.94960931 80.93900543 -24.4609375 79.01953125 C-24.75790527 77.90682861 -25.05487305 76.79412598 -25.36083984 75.64770508 C-26 73 -26 73 -26 71 C-26.97582031 71.30035156 -27.95164062 71.60070312 -28.95703125 71.91015625 C-30.24205183 72.29472445 -31.52721569 72.67881414 -32.8125 73.0625 C-33.45509766 73.26166016 -34.09769531 73.46082031 -34.75976562 73.66601562 C-39.66015625 75.11328125 -39.66015625 75.11328125 -43 74 C-28.88269243 49.20485423 -14.54748464 24.54568047 0 0 Z " fill="#F07181" transform="translate(152,388)"/>
</svg>
