<?xml version="1.0" encoding="UTF-8"?>
<svg version="1.1" xmlns="http://www.w3.org/2000/svg" width="512" height="512">
<path d="M0 0 C26.42520411 -0.7964575 49.16576306 8.44702723 68.77734375 26.15625 C85.77277845 42.3361648 94.98223089 66.10484779 95.62207031 89.31738281 C95.73963737 113.29037557 87.45882091 135.3321019 70.98828125 152.90234375 C68.87869977 155.02517221 66.74713751 157.11105744 64.5625 159.15625 C65.09875 159.424375 65.635 159.6925 66.1875 159.96875 C67.89218758 160.82109379 69.59658017 161.67402766 71.30078125 162.52734375 C73.71289287 163.73195518 76.1269747 164.93213436 78.54296875 166.12890625 C79.9453125 166.82552083 81.34765625 167.52213542 82.75 168.21875 C83.41451172 168.54681641 84.07902344 168.87488281 84.76367188 169.21289062 C89.12315922 171.38181134 93.35456315 173.70571349 97.5625 176.15625 C98.21734375 175.51558594 98.8721875 174.87492188 99.546875 174.21484375 C115.4358234 159.15625 115.4358234 159.15625 122.5625 159.15625 C122.03140625 158.34542969 121.5003125 157.53460938 120.953125 156.69921875 C110.82968413 140.83054046 107.54176906 125.65470018 109.98828125 106.890625 C113.61877125 92.01229789 122.19215212 78.82100038 134.9375 70.28125 C150.99381475 60.8509919 167.38285358 57.72669148 185.5625 62.15625 C200.5916179 67.03880607 213.52196116 76.72515418 221.28515625 90.6171875 C229.30618738 106.56113317 230.92133958 122.5427853 225.83984375 139.66796875 C223.94574333 144.84054268 221.45476682 149.48234682 218.5625 154.15625 C217.5621587 155.82271184 216.56206378 157.48932168 215.5625 159.15625 C216.27921875 159.42179688 216.9959375 159.68734375 217.734375 159.9609375 C236.53509419 167.90709782 248.56979701 183.9767687 256.5625 202.15625 C264.16882692 232.58155766 260.5625 264.7945607 260.5625 296.15625 C91.6025 296.15625 -77.3575 296.15625 -251.4375 296.15625 C-251.4375 208.27251911 -251.4375 208.27251911 -243.875 193.96875 C-243.53839355 193.31712891 -243.20178711 192.66550781 -242.85498047 191.99414062 C-235.1394372 177.73617763 -222.85867812 166.4777712 -208.4375 159.15625 C-207.7775 159.15625 -207.1175 159.15625 -206.4375 159.15625 C-207.04078125 158.17527344 -207.6440625 157.19429687 -208.265625 156.18359375 C-218.11706491 139.7405478 -222.37504488 123.26489201 -217.8125 104.34375 C-214.36248781 92.89980711 -208.83752928 84.58606662 -200.4375 76.15625 C-199.89609375 75.59164062 -199.3546875 75.02703125 -198.796875 74.4453125 C-187.93086034 64.0732076 -171.95454581 59.68413941 -157.25 59.953125 C-140.97289431 61.12869374 -125.42337419 67.94972313 -114.4375 80.15625 C-104.71254602 91.94871388 -100.02243334 104.83966298 -100.125 120.03125 C-100.13063965 120.91039062 -100.1362793 121.78953125 -100.14208984 122.6953125 C-100.3974007 136.3658186 -105.45544121 148.1041686 -113.4375 159.15625 C-112.65375 159.341875 -111.87 159.5275 -111.0625 159.71875 C-102.3024795 163.19255123 -95.2613523 169.81039701 -88.4375 176.15625 C-87.6125 175.65996094 -86.7875 175.16367187 -85.9375 174.65234375 C-78.71058353 170.37780315 -71.43043612 166.65815581 -63.68164062 163.41577148 C-60.71587474 162.173205 -58.12475697 160.94775464 -55.4375 159.15625 C-56.59765625 158.08310547 -56.59765625 158.08310547 -57.78125 156.98828125 C-65.16800663 149.98779911 -70.53349181 143.13929305 -75.4375 134.15625 C-75.90671875 133.3725 -76.3759375 132.58875 -76.859375 131.78125 C-87.97868026 112.01359621 -88.81314383 86.57695329 -82.91357422 65.10864258 C-78.8305509 51.42172485 -72.059231 39.71627037 -62.4375 29.15625 C-61.50164062 28.09857422 -61.50164062 28.09857422 -60.546875 27.01953125 C-45.14686043 10.55186862 -22.32257293 1.01466241 0 0 Z " fill="#2C3B73" transform="translate(251.4375,215.84375)"/>
<path d="M0 0 C11.59380232 11.36037006 18.57760218 25.67923439 18.76708984 41.96875 C18.7614502 42.8040625 18.75581055 43.639375 18.75 44.5 C18.74436035 45.37914062 18.7387207 46.25828125 18.73291016 47.1640625 C18.4775993 60.8345686 13.41955879 72.5729186 5.4375 83.625 C6.613125 83.9034375 6.613125 83.9034375 7.8125 84.1875 C16.5725205 87.66130123 23.6136477 94.27914701 30.4375 100.625 C29.00431216 104.0872801 27.31992245 105.7421864 24.3125 107.9375 C23.50296875 108.55109375 22.6934375 109.1646875 21.859375 109.796875 C21.06015625 110.40015625 20.2609375 111.0034375 19.4375 111.625 C-1.94140752 127.95377188 -14.23789326 154.88206656 -19.5625 180.625 C-20.89087361 193.90873614 -21.11774736 207.28242089 -21.5625 220.625 C-58.1925 220.625 -94.8225 220.625 -132.5625 220.625 C-132.645 208.085 -132.7275 195.545 -132.8125 182.625 C-132.84891602 178.69851563 -132.88533203 174.77203125 -132.92285156 170.7265625 C-132.94091797 165.84765625 -132.94091797 165.84765625 -132.9442749 163.54736328 C-132.95032688 161.97635331 -132.96420163 160.40535921 -132.98480225 158.83447266 C-133.1596432 144.77120886 -131.70005643 131.11003689 -125 118.4375 C-124.66339355 117.78587891 -124.32678711 117.13425781 -123.97998047 116.46289062 C-116.2644372 102.20492763 -103.98367812 90.9465212 -89.5625 83.625 C-88.9025 83.625 -88.2425 83.625 -87.5625 83.625 C-88.16578125 82.64402344 -88.7690625 81.66304688 -89.390625 80.65234375 C-99.24206491 64.2092978 -103.50004488 47.73364201 -98.9375 28.8125 C-95.48748781 17.36855711 -89.96252928 9.05481662 -81.5625 0.625 C-80.75039062 -0.22191406 -80.75039062 -0.22191406 -79.921875 -1.0859375 C-57.94889784 -22.06014297 -21.95539011 -18.79034905 0 0 Z " fill="#50C4FE" transform="translate(132.5625,291.375)"/>
<path d="M0 0 C12.37947369 10.10278887 21.43120798 23.78976206 23.37890625 39.94140625 C24.48778506 55.39850482 21.64153216 68.58900278 13.37890625 81.94140625 C12.37856495 83.60786809 11.37847003 85.27447793 10.37890625 86.94140625 C11.095625 87.20695312 11.81234375 87.4725 12.55078125 87.74609375 C30.30991424 95.25202565 43.06890318 110.61598948 50.59630585 127.99771118 C55.42708166 139.9956032 55.93646669 151.83685534 55.76953125 164.56640625 C55.76362745 166.09895236 55.75956075 167.63150665 55.75732422 169.1640625 C55.73661513 174.7566359 55.68077246 180.34903502 55.62890625 185.94140625 C55.54640625 198.48140625 55.46390625 211.02140625 55.37890625 223.94140625 C18.74890625 223.94140625 -17.88109375 223.94140625 -55.62109375 223.94140625 C-55.95109375 212.72140625 -56.28109375 201.50140625 -56.62109375 189.94140625 C-57.67343214 183.31557196 -58.65327705 177.2611548 -60.62109375 170.94140625 C-60.8339502 170.25530273 -61.04680664 169.56919922 -61.26611328 168.86230469 C-66.12649258 153.76861769 -73.53876364 140.18544198 -83.62109375 127.94140625 C-84.75998047 126.55501953 -84.75998047 126.55501953 -85.921875 125.140625 C-92.37578387 117.67268134 -99.74363256 111.80977431 -107.62109375 105.94140625 C-103.68226659 96.78464827 -93.14062593 91.19452684 -84.62109375 86.94140625 C-83.96109375 86.94140625 -83.30109375 86.94140625 -82.62109375 86.94140625 C-83.1521875 86.13058594 -83.68328125 85.31976563 -84.23046875 84.484375 C-94.35390962 68.61569671 -97.64182469 53.43985643 -95.1953125 34.67578125 C-91.5648225 19.79745414 -82.99144163 6.60615663 -70.24609375 -1.93359375 C-47.64063133 -15.21032308 -21.59593134 -16.04962474 0 0 Z " fill="#488AFE" transform="translate(456.62109375,288.05859375)"/>
<path d="M0 0 C26.42520411 -0.7964575 49.16576306 8.44702723 68.77734375 26.15625 C85.77277845 42.3361648 94.98223089 66.10484779 95.62207031 89.31738281 C95.74708715 114.80945254 86.29376273 137.10763763 68.625 155.46875 C50.43918115 172.95725985 27.23619932 181.6138968 2.23046875 181.3046875 C-20.17648823 180.74872884 -40.85440732 172.16000052 -57.4375 157.15625 C-58.69820312 156.03476562 -58.69820312 156.03476562 -59.984375 154.890625 C-66.54803295 148.7247645 -71.07570553 141.9996562 -75.4375 134.15625 C-75.90929687 133.36992187 -76.38109375 132.58359375 -76.8671875 131.7734375 C-87.96574849 111.98904618 -88.8158909 86.58694976 -82.91357422 65.10864258 C-78.8305509 51.42172485 -72.059231 39.71627037 -62.4375 29.15625 C-61.50164062 28.09857422 -61.50164062 28.09857422 -60.546875 27.01953125 C-45.14686043 10.55186862 -22.32257293 1.01466241 0 0 Z " fill="#FEB19E" transform="translate(251.4375,215.84375)"/>
<path d="M0 0 C2.16515425 1.35679191 4.26918011 2.74499728 6.375 4.1875 C22.02369417 14.55122867 37.28259381 17.79795221 56 20 C56 57.95 56 95.9 56 135 C8.15 135 -39.7 135 -89 135 C-89 95.72304231 -85.22350833 66.81439792 -60 37 C-59.48695313 36.36449219 -58.97390625 35.72898437 -58.4453125 35.07421875 C-54.71472323 30.52693291 -50.51910751 26.75110176 -46 23 C-45.24847656 22.360625 -44.49695313 21.72125 -43.72265625 21.0625 C-35.33221418 14.09992895 -11.99964157 -4.47336461 0 0 Z " fill="#48568C" transform="translate(200,377)"/>
<path d="M0 0 C0.66 0 1.32 0 2 0 C2.32778442 0.71996658 2.65556885 1.43993317 2.99328613 2.18171692 C6.10776265 8.99411369 9.27851236 15.77587975 12.51439667 22.53134632 C14.17581206 26.00495376 15.8142263 29.48583162 17.40283203 32.9934082 C18.93980586 36.38477904 20.53353071 39.74373622 22.16868591 43.08881187 C22.77928152 44.36319792 23.36951258 45.647568 23.93763733 46.9414463 C25.80819394 51.17820739 27.71673707 54.71076423 31 58 C35.67133557 59.80679098 40.06463532 60.44988497 45.03349304 60.83651161 C47.81911153 61.06809802 50.55711741 61.53110618 53.31445312 61.9831543 C55.30287522 62.26710511 57.29181853 62.54742837 59.28125 62.82421875 C60.34621704 62.97534622 61.41118408 63.12647369 62.50842285 63.28218079 C65.83848509 63.75397434 69.16921474 64.22084134 72.5 64.6875 C74.78780698 65.01073829 77.07556778 65.33430367 79.36328125 65.65820312 C84.90832807 66.44256847 90.45392854 67.22291454 96 68 C96 71 96 71 94.75 72.578125 C94.1725 73.12984375 93.595 73.6815625 93 74.25 C92.443125 74.79140625 91.88625 75.3328125 91.3125 75.890625 C86.71008239 80.0887762 82.05716453 84.21179266 77.15087891 88.05322266 C58.89914475 101.48456938 58.89914475 101.48456938 49.09130859 120.69824219 C48.86112636 130.31956285 51.81877325 139.72489035 54.72216797 148.80078125 C56.55262576 154.59456084 57.46225111 160.50459834 58.375 166.5 C58.69288077 168.26085739 59.01295372 170.02132147 59.3359375 171.78125 C59.87024925 174.89243233 60.16876791 177.83235607 60 181 C55.14148321 179.53318035 50.83410692 177.51842803 46.35546875 175.18359375 C45.62741531 174.8082399 44.89936188 174.43288605 44.14924622 174.04615784 C41.82656185 172.84728954 39.50705477 171.64241009 37.1875 170.4375 C35.67272009 169.6552231 34.15774755 168.87331907 32.64257812 168.09179688 C31.89388458 167.70464508 31.14519104 167.31749329 30.37380981 166.91860962 C28.86221872 166.13726127 27.34974601 165.3576161 25.83639526 164.5796814 C21.94190346 162.56781757 18.09276748 160.50224391 14.28369141 158.33251953 C13.52043045 157.90552261 12.75716949 157.4785257 11.97077942 157.03858948 C10.51987138 156.22397902 9.07782018 155.39331452 7.64677429 154.54429626 C4.44649516 152.76342801 2.59466008 151.89242687 -1.06494141 152.55444336 C-2.03351074 153.03147705 -3.00208008 153.50851074 -4 154 C-5.06436279 154.50724609 -6.12872559 155.01449219 -7.2253418 155.53710938 C-8.94491089 156.43139648 -8.94491089 156.43139648 -10.69921875 157.34375 C-11.64251038 157.83221657 -11.64251038 157.83221657 -12.6048584 158.33055115 C-14.63455776 159.38294796 -16.66099725 160.44146306 -18.6875 161.5 C-20.08419291 162.22507298 -21.48108525 162.94976196 -22.87817383 163.67407227 C-28.97445347 166.83844259 -35.05940355 170.02323195 -41.125 173.24609375 C-41.99680908 173.70886719 -42.86861816 174.17164063 -43.7668457 174.6484375 C-45.33549264 175.48378352 -46.90189254 176.32336844 -48.46557617 177.16796875 C-51.62442564 178.85486639 -54.50461011 180.23127254 -58 181 C-57.4266224 173.12164675 -56.30219285 165.45454607 -54.86328125 157.69140625 C-54.44677491 155.37573925 -54.03077371 153.05998135 -53.61523438 150.74414062 C-52.96225406 147.13312247 -52.30520918 143.52298357 -51.6394043 139.91430664 C-50.99403998 136.4045012 -50.36496478 132.89208814 -49.73828125 129.37890625 C-49.53423172 128.29662247 -49.33018219 127.21433868 -49.11994934 126.09925842 C-48.9428392 125.09398605 -48.76572906 124.08871368 -48.58325195 123.05297852 C-48.4219429 122.1712648 -48.26063385 121.28955109 -48.09443665 120.38111877 C-47.95143225 116.77541625 -49.21092621 114.91781055 -51.51541138 112.23735046 C-52.10861176 111.6455751 -52.70181213 111.05379974 -53.31298828 110.4440918 C-53.987742 109.76626144 -54.66249573 109.08843109 -55.35769653 108.39006042 C-56.0878598 107.66708267 -56.81802307 106.94410492 -57.5703125 106.19921875 C-58.32537079 105.44461868 -59.08042908 104.69001862 -59.85836792 103.91255188 C-61.45822751 102.31571261 -63.06051605 100.72130373 -64.66503906 99.12915039 C-67.10011349 96.71220127 -69.52722151 94.28747835 -71.953125 91.86132812 C-73.5125524 90.30682161 -75.07243411 88.75277068 -76.6328125 87.19921875 C-77.35083038 86.48231369 -78.06884827 85.76540863 -78.80862427 85.02677917 C-82.85349213 81.01911313 -86.98847149 77.19941794 -91.34884644 73.53596497 C-93 72 -93 72 -95 69 C-87.84565259 67.30337074 -80.68987677 66.13422695 -73.4140625 65.08984375 C-72.23532562 64.91747696 -71.05658875 64.74511017 -69.84213257 64.56752014 C-66.10354057 64.02102092 -62.36434572 63.47881619 -58.625 62.9375 C-54.86426506 62.39239283 -51.10369085 61.84628381 -47.34359741 61.29676819 C-45.01017955 60.95578567 -42.67638727 60.61735365 -40.3421936 60.28172302 C-39.29034882 60.12808792 -38.23850403 59.97445282 -37.15478516 59.81616211 C-36.22928864 59.68229599 -35.30379211 59.54842987 -34.35025024 59.4105072 C-31.85804698 59.03506056 -31.85804698 59.03506056 -29 58 C-27.43242642 55.59749562 -27.43242642 55.59749562 -25.99731445 52.56225586 C-25.41693924 51.40112778 -24.83656403 50.23999969 -24.23860168 49.04368591 C-23.61328108 47.76750993 -22.98817943 46.49122663 -22.36328125 45.21484375 C-21.71825424 43.91546518 -21.07234312 42.61652515 -20.42558289 41.31800842 C-18.72508808 37.89792138 -17.03668979 34.47199839 -15.35070801 31.04473877 C-13.62841539 27.54902139 -11.89479589 24.05893318 -10.16210938 20.56835938 C-6.76360329 13.71771089 -3.37785162 6.8608602 0 0 Z " fill="#FF9000" transform="translate(255,0)"/>
<path d="M0 0 C0 59.4 0 118.8 0 180 C-27.02598581 180 -47.19689003 171.230237 -66.75 152.75 C-72.25453571 147.07890052 -76.19922077 140.8970662 -80 134 C-80.47050781 133.21496094 -80.94101563 132.42992187 -81.42578125 131.62109375 C-92.53473549 111.84509163 -93.37701231 86.42568314 -87.47607422 64.95239258 C-83.3930509 51.26547485 -76.621731 39.56002037 -67 29 C-66.06414062 27.94232422 -66.06414062 27.94232422 -65.109375 26.86328125 C-48.40440376 9.00019225 -24.07933764 0 0 0 Z " fill="#F8C3B8" transform="translate(256,216)"/>
<path d="M0 0 C12.37947369 10.10278887 21.43120798 23.78976206 23.37890625 39.94140625 C24.63720429 57.48131839 20.83565775 73.33191407 9.31640625 87.06640625 C-1.25253456 98.20185645 -15.44250844 106.52276857 -31.02734375 107.1796875 C-50.281436 107.60162761 -65.20552991 102.56997955 -79.45532227 89.27124023 C-89.98153446 78.94128837 -95.6367378 65.61219452 -95.86303711 50.94970703 C-95.91837794 32.86164177 -91.1300603 17.55731444 -78.28515625 4.34375 C-56.26647422 -15.51180638 -23.89463855 -17.75797376 0 0 Z " fill="#E59788" transform="translate(456.62109375,288.05859375)"/>
<path d="M0 0 C11.59380232 11.36037006 18.57760218 25.67923439 18.76708984 41.96875 C18.7614502 42.8040625 18.75581055 43.639375 18.75 44.5 C18.74436035 45.37914062 18.7387207 46.25828125 18.73291016 47.1640625 C18.61061487 53.71230932 17.95115945 59.52175867 15.4375 65.625 C15.0353125 66.60597656 14.633125 67.58695312 14.21875 68.59765625 C6.92952733 84.61369828 -6.37303812 95.36342696 -22.5625 101.625 C-36.6989088 106.85698048 -54.22465542 104.08739564 -67.5625 98.125 C-74.62312739 94.42304162 -79.95321685 89.21800076 -85.5625 83.625 C-86.42746094 82.82320313 -87.29242188 82.02140625 -88.18359375 81.1953125 C-98.03538774 70.55084543 -101.42128989 54.79419723 -100.91015625 40.71875 C-99.8438614 24.63642483 -92.75468707 11.85687568 -81.5625 0.625 C-81.02109375 0.06039063 -80.4796875 -0.50421875 -79.921875 -1.0859375 C-57.94889784 -22.06014297 -21.95539011 -18.79034905 0 0 Z " fill="#FEB09D" transform="translate(132.5625,291.375)"/>
<path d="M0 0 C2 1 2 1 2.76527405 2.92906189 C3.12715065 4.19575462 3.12715065 4.19575462 3.49633789 5.48803711 C3.77324966 6.44250229 4.05016144 7.39696747 4.33546448 8.38035583 C4.62823776 9.41886185 4.92101105 10.45736786 5.22265625 11.52734375 C5.52819931 12.58659561 5.83374237 13.64584747 6.14854431 14.73719788 C7.12727411 18.13522075 8.09525248 21.53619267 9.0625 24.9375 C10.03533372 28.3346248 11.01035349 31.73110805 11.98716736 35.12709045 C12.59537959 37.24416454 13.20088456 39.36201855 13.80348206 41.48069763 C14.07724167 42.43831497 14.35100128 43.39593231 14.63305664 44.38256836 C14.87351212 45.22782578 15.11396759 46.07308319 15.36170959 46.94395447 C15.95003067 49.03499417 15.95003067 49.03499417 17 51 C18.72048895 51.81513872 18.72048895 51.81513872 20.84204102 52.46459961 C21.65701553 52.735056 22.47199005 53.00551239 23.31166077 53.28416443 C24.20010178 53.5706636 25.08854279 53.85716278 26.00390625 54.15234375 C26.9157518 54.45314346 27.82759735 54.75394318 28.76707458 55.06385803 C31.69661653 56.02880546 34.62938129 56.98348603 37.5625 57.9375 C40.46993572 58.88993168 43.37666376 59.84447801 46.28294373 60.8004303 C48.09304875 61.39507972 49.90393349 61.98736269 51.7157135 62.57688904 C56.86391292 64.25971422 61.94206879 66.06211912 67 68 C67 68.66 67 69.32 67 70 C65.234375 71.42944336 65.234375 71.42944336 62.75 73.08984375 C61.38270752 74.01168457 61.38270752 74.01168457 59.98779297 74.95214844 C59.00182129 75.60731445 58.01584961 76.26248047 57 76.9375 C54.98159259 78.295308 52.96336485 79.65338311 50.9453125 81.01171875 C49.94016602 81.68509277 48.93501953 82.3584668 47.89941406 83.05224609 C43.87236232 85.75751881 39.87090279 88.49901121 35.875 91.25 C35.23175781 91.69077881 34.58851563 92.13155762 33.92578125 92.58569336 C31.47052849 94.2723539 29.04501153 95.96490627 26.6953125 97.796875 C25 99 25 99 23 99 C23 116.82 23 134.64 23 153 C17.38078877 150.75231551 17.38078877 150.75231551 14.79296875 148.6015625 C14.21409912 148.1279126 13.63522949 147.6542627 13.03881836 147.16625977 C12.4278833 146.65764404 11.81694824 146.14902832 11.1875 145.625 C5.06018381 140.6164719 -1.17964797 135.80117765 -7.54418945 131.09814453 C-8.170271 130.6339209 -8.79635254 130.16969727 -9.44140625 129.69140625 C-10.05000488 129.24941895 -10.65860352 128.80743164 -11.28564453 128.35205078 C-13 127 -13 127 -14.44482422 125.47216797 C-15.99275827 123.75791771 -15.99275827 123.75791771 -19 122 C-25.67486299 122.4103999 -32.32145529 124.91807263 -38.62109375 127.0390625 C-39.48767105 127.32478119 -40.35424835 127.61049988 -41.24708557 127.90487671 C-43.97908274 128.80608197 -46.70849793 129.71476898 -49.4375 130.625 C-52.191657 131.54184975 -54.94634355 132.45692312 -57.70289612 133.36654663 C-59.40936294 133.92976952 -61.11445454 134.49718041 -62.81797791 135.06924438 C-63.58630447 135.32305878 -64.35463104 135.57687317 -65.14624023 135.83837891 C-65.82001205 136.0632901 -66.49378387 136.28820129 -67.18797302 136.51992798 C-69 137 -69 137 -72 137 C-70.09917974 130.3916409 -67.93722279 123.94889544 -65.50390625 117.51953125 C-64.8558244 115.76165583 -64.20938675 114.00317351 -63.56445312 112.24414062 C-62.56249574 109.51298678 -61.55254218 106.78641844 -60.51489258 104.06860352 C-59.50509577 101.41553785 -58.5328212 98.75115408 -57.56640625 96.08203125 C-57.24893936 95.27457962 -56.93147247 94.46712799 -56.60438538 93.63520813 C-55.0587176 89.38050087 -55.0587176 89.38050087 -55.63816833 85.02043152 C-56.7792321 82.89067515 -56.7792321 82.89067515 -59 80 C-59.4755835 79.28674561 -59.95116699 78.57349121 -60.44116211 77.83862305 C-61.10257202 76.93430542 -61.10257202 76.93430542 -61.77734375 76.01171875 C-62.28499268 75.31369141 -62.7926416 74.61566406 -63.31567383 73.89648438 C-63.85087646 73.16751953 -64.3860791 72.43855469 -64.9375 71.6875 C-65.49655029 70.91857422 -66.05560059 70.14964844 -66.6315918 69.35742188 C-69.03848222 66.04757006 -71.45430142 62.74432831 -73.87402344 59.44384766 C-75.10280811 57.76703512 -76.3298289 56.08892832 -77.55493164 54.40942383 C-78.7113353 52.82412758 -79.87187473 51.24183855 -81.03686523 49.6628418 C-81.55708252 48.949104 -82.0772998 48.23536621 -82.61328125 47.5 C-83.07516846 46.8709375 -83.53705566 46.241875 -84.01293945 45.59375 C-85 44 -85 44 -85 42 C-84.34569 42.03108856 -83.69138 42.06217712 -83.01724243 42.09420776 C-76.17193359 42.40530758 -69.32864447 42.61559897 -62.47802734 42.76904297 C-59.926416 42.83921147 -57.37536298 42.934583 -54.82568359 43.05615234 C-41.45058665 44.27542339 -41.45058665 44.27542339 -28.94186401 40.73880005 C-25.64956909 37.59570297 -23.69221127 33.90324321 -21.84680176 29.78430176 C-20.62061741 27.20060036 -18.95479382 25.04659076 -17.20703125 22.79296875 C-16.63919922 22.02146484 -16.07136719 21.24996094 -15.48632812 20.45507812 C-14.93396484 19.70677734 -14.38160156 18.95847656 -13.8125 18.1875 C-13.24853516 17.41986328 -12.68457031 16.65222656 -12.10351562 15.86132812 C-8.15540821 10.5054384 -4.10816193 5.23400483 0 0 Z " fill="#FF9000" transform="translate(445,90)"/>
<path d="M0 0 C4.14819241 3.9419287 7.61432511 8.18976385 11.0625 12.75 C11.90035034 13.85142334 11.90035034 13.85142334 12.75512695 14.97509766 C19.42162727 23.79567869 25.86654654 32.79981981 32 42 C34.38049477 42.43849182 34.38049477 42.43849182 37.18408203 42.34057617 C38.26505157 42.34034958 39.34602112 42.34012299 40.45974731 42.33988953 C41.63060883 42.32440567 42.80147034 42.30892181 44.0078125 42.29296875 C45.20356903 42.28872391 46.39932556 42.28447906 47.63131714 42.28010559 C51.46277071 42.26326902 55.29370453 42.22560684 59.125 42.1875 C61.71744034 42.17245964 64.30988889 42.15877011 66.90234375 42.14648438 C73.26840748 42.11334918 79.63416662 42.0631003 86 42 C84.67315082 45.43436571 83.3112574 48.20647582 81.09375 51.15234375 C80.23209229 52.30718262 80.23209229 52.30718262 79.35302734 53.48535156 C78.74152832 54.29456055 78.1300293 55.10376953 77.5 55.9375 C76.23105766 57.63879122 74.96283381 59.34061856 73.6953125 61.04296875 C72.75606934 62.30052979 72.75606934 62.30052979 71.79785156 63.58349609 C69.29282376 66.95052016 66.82303738 70.34138226 64.375 73.75 C63.61960938 74.79671875 62.86421875 75.8434375 62.0859375 76.921875 C61.39757812 77.93765625 60.70921875 78.9534375 60 80 C59.22833496 80.9892749 58.45666992 81.9785498 57.66162109 82.99780273 C56.28641337 85.45002048 55.95543118 86.64644987 56.31051636 89.46322632 C57.17852125 92.41422994 58.21153494 95.24701629 59.328125 98.11328125 C59.90261383 99.68942451 59.90261383 99.68942451 60.4887085 101.29740906 C61.7157013 104.64638955 62.98158817 107.97901374 64.25 111.3125 C65.49512496 114.66666033 66.73231962 118.02366354 67.96844482 121.38114929 C68.74030317 123.46829163 69.51914472 125.55286683 70.30548096 127.63459778 C70.65874451 128.57284897 71.01200806 129.51110016 71.37597656 130.4777832 C71.84707855 131.71852348 71.84707855 131.71852348 72.32769775 132.98432922 C73 135 73 135 73 137 C66.67497568 135.69288624 60.65576679 134.00894287 54.546875 131.92578125 C52.77618633 131.33485279 51.00534859 130.74437088 49.234375 130.15429688 C46.47870938 129.23089246 43.72443816 128.30381536 40.97265625 127.36889648 C38.29249898 126.46054176 35.60772257 125.56714538 32.921875 124.67578125 C32.10096375 124.39253494 31.28005249 124.10928864 30.43426514 123.81745911 C24.77511732 121.93476423 24.77511732 121.93476423 19 123 C16.72234453 124.58458101 14.62678531 126.17282208 12.5 127.9375 C11.25313694 128.94467034 10.00572884 129.95116626 8.7578125 130.95703125 C8.13036133 131.4670166 7.50291016 131.97700195 6.85644531 132.50244141 C4.06381148 134.75520521 1.22370377 136.94383282 -1.625 139.125 C-2.4145105 139.72985229 -2.4145105 139.72985229 -3.2199707 140.34692383 C-4.27618981 141.1551173 -5.33290949 141.962657 -6.39013672 142.76953125 C-7.49484914 143.61389743 -8.59795819 144.46036425 -9.69970703 145.30859375 C-11.35875772 146.58544235 -13.02250001 147.85592357 -14.6875 149.125 C-15.66074219 149.87007812 -16.63398437 150.61515625 -17.63671875 151.3828125 C-20 153 -20 153 -22 153 C-22 135.18 -22 117.36 -22 99 C-23.32 98.34 -24.64 97.68 -26 97 C-27.26851363 96.20977017 -28.52335448 95.39728167 -29.765625 94.56640625 C-30.48331055 94.08751953 -31.20099609 93.60863281 -31.94042969 93.11523438 C-33.08366699 92.34663086 -33.08366699 92.34663086 -34.25 91.5625 C-35.04051758 91.03333984 -35.83103516 90.50417969 -36.64550781 89.95898438 C-43.90482561 85.08855257 -51.11648495 80.1489694 -58.29492188 75.16015625 C-59.44475742 74.37779392 -60.60812706 73.61500828 -61.78320312 72.87109375 C-63.21941757 71.96065138 -64.61454528 70.98596778 -66 70 C-66 69.34 -66 68.68 -66 68 C-60.32591172 66.06068684 -54.65167149 64.12181911 -48.97729492 62.18334961 C-47.05017057 61.52494101 -45.12308654 60.86641438 -43.19604492 60.20776367 C-40.41335682 59.25668192 -37.63052013 58.30603604 -34.84765625 57.35546875 C-33.99728287 57.0647197 -33.14690948 56.77397064 -32.27076721 56.47441101 C-31.45059616 56.19434708 -30.63042511 55.91428314 -29.78540039 55.62573242 C-28.59756203 55.21133911 -28.59756203 55.21133911 -27.38572693 54.78857422 C-25.76566072 54.25308022 -24.12794753 53.76880231 -22.47865295 53.33154297 C-17.5448448 52.03808172 -17.5448448 52.03808172 -14.24731445 48.33056641 C-13.80971802 46.73220947 -13.80971802 46.73220947 -13.36328125 45.1015625 C-12.84314453 43.31250488 -12.84314453 43.31250488 -12.3125 41.48730469 C-11.9825 40.21274414 -11.6525 38.93818359 -11.3125 37.625 C-10.94489313 36.31574772 -10.57377037 35.00747777 -10.19921875 33.70019531 C-9.45147221 31.06802999 -8.72487632 28.43153616 -8.01806641 25.78808594 C-6.82420519 21.34589154 -5.56307209 16.92532025 -4.28979492 12.50537109 C-3.77252656 10.70076808 -3.26326029 8.89384759 -2.76293945 7.08447266 C-1.10416302 1.10416302 -1.10416302 1.10416302 0 0 Z " fill="#FFB624" transform="translate(66,90)"/>
<path d="M0 0 C0.33 0 0.66 0 1 0 C1 49.83 1 99.66 1 151 C-24.88348048 165.11826208 -24.88348048 165.11826208 -37.50341797 171.59570312 C-39.82389999 172.78796991 -42.14046928 173.98763723 -44.45703125 175.1875 C-45.94508758 175.95356207 -47.43335964 176.71920525 -48.921875 177.484375 C-49.60811951 177.84045837 -50.29436401 178.19654175 -51.00140381 178.56341553 C-55.7706643 181 -55.7706643 181 -58 181 C-57.4266224 173.12164675 -56.30219285 165.45454607 -54.86328125 157.69140625 C-54.44677491 155.37573925 -54.03077371 153.05998135 -53.61523438 150.74414062 C-52.96225406 147.13312247 -52.30520918 143.52298357 -51.6394043 139.91430664 C-50.99403998 136.4045012 -50.36496478 132.89208814 -49.73828125 129.37890625 C-49.53423172 128.29662247 -49.33018219 127.21433868 -49.11994934 126.09925842 C-48.9428392 125.09398605 -48.76572906 124.08871368 -48.58325195 123.05297852 C-48.4219429 122.1712648 -48.26063385 121.28955109 -48.09443665 120.38111877 C-47.95143225 116.77541625 -49.21092621 114.91781055 -51.51541138 112.23735046 C-52.10861176 111.6455751 -52.70181213 111.05379974 -53.31298828 110.4440918 C-53.987742 109.76626144 -54.66249573 109.08843109 -55.35769653 108.39006042 C-56.0878598 107.66708267 -56.81802307 106.94410492 -57.5703125 106.19921875 C-58.32537079 105.44461868 -59.08042908 104.69001862 -59.85836792 103.91255188 C-61.45822751 102.31571261 -63.06051605 100.72130373 -64.66503906 99.12915039 C-67.10011349 96.71220127 -69.52722151 94.28747835 -71.953125 91.86132812 C-73.5125524 90.30682161 -75.07243411 88.75277068 -76.6328125 87.19921875 C-77.35083038 86.48231369 -78.06884827 85.76540863 -78.80862427 85.02677917 C-82.85349213 81.01911313 -86.98847149 77.19941794 -91.34884644 73.53596497 C-93 72 -93 72 -95 69 C-87.84565259 67.30337074 -80.68987677 66.13422695 -73.4140625 65.08984375 C-72.23532562 64.91747696 -71.05658875 64.74511017 -69.84213257 64.56752014 C-66.10354057 64.02102092 -62.36434572 63.47881619 -58.625 62.9375 C-54.86426506 62.39239283 -51.10369085 61.84628381 -47.34359741 61.29676819 C-45.01017955 60.95578567 -42.67638727 60.61735365 -40.3421936 60.28172302 C-39.29034882 60.12808792 -38.23850403 59.97445282 -37.15478516 59.81616211 C-36.22928864 59.68229599 -35.30379211 59.54842987 -34.35025024 59.4105072 C-31.85804698 59.03506056 -31.85804698 59.03506056 -29 58 C-27.43242642 55.59749562 -27.43242642 55.59749562 -25.99731445 52.56225586 C-25.41693924 51.40112778 -24.83656403 50.23999969 -24.23860168 49.04368591 C-23.61328108 47.76750993 -22.98817943 46.49122663 -22.36328125 45.21484375 C-21.71825424 43.91546518 -21.07234312 42.61652515 -20.42558289 41.31800842 C-18.72508808 37.89792138 -17.03668979 34.47199839 -15.35070801 31.04473877 C-13.62841539 27.54902139 -11.89479589 24.05893318 -10.16210938 20.56835938 C-6.76360329 13.71771089 -3.37785162 6.8608602 0 0 Z " fill="#FFB724" transform="translate(255,0)"/>
<path d="M0 0 C0 39.27 0 78.54 0 119 C-17.88081891 119 -31.65436447 112.30125043 -44.30078125 99.890625 C-57.19297693 86.08422152 -59.6795825 70.45744466 -59.12744141 52.34179688 C-58.32950091 37.6792581 -49.67274675 23.62425111 -39 14 C-27.66153434 5.23845836 -14.36572757 0 0 0 Z " fill="#FEB19E" transform="translate(420,276)"/>
<path d="M0 0 C12.88138892 8.65555198 21.97781376 22.27352887 25.03076172 37.53173828 C25.62937058 41.60652398 25.71527002 45.63686307 25.6875 49.75 C25.67904053 51.06871094 25.67904053 51.06871094 25.67041016 52.4140625 C25.54811487 58.96230932 24.88865945 64.77175867 22.375 70.875 C21.9728125 71.85597656 21.570625 72.83695312 21.15625 73.84765625 C13.8868329 89.82018105 0.56486961 100.68415678 -15.625 106.875 C-21.78658759 108.86817297 -26.99817313 108.875 -33.625 108.875 C-33.625 69.935 -33.625 30.995 -33.625 -9.125 C-22.09670775 -12.00707306 -9.76681321 -5.72821534 0 0 Z " fill="#E59788" transform="translate(125.625,286.125)"/>
<path d="M0 0 C0.66 0 1.32 0 2 0 C1.57065228 3.50104764 1.12987987 7.00057714 0.6875 10.5 C0.56955078 11.46292969 0.45160156 12.42585938 0.33007812 13.41796875 C-0.49525892 19.89369015 -1.57997268 26.29429866 -2.81246948 32.70281982 C-3.76989316 37.70232989 -4.64257432 42.7109228 -5.46484375 47.734375 C-5.58476181 48.46654236 -5.70467987 49.19870972 -5.82823181 49.95306396 C-6.07310044 51.45152385 -6.31762964 52.95003924 -6.56182861 54.4486084 C-8.39309881 65.66710944 -10.26603237 76.85801905 -12.5925293 87.98632812 C-14.72032304 98.26448238 -16.33133917 108.63927956 -18 119 C-22.40604968 120.47708087 -26.81282534 121.95197057 -31.22021484 123.42504883 C-32.71161493 123.92383256 -34.20283346 124.4231596 -35.69384766 124.9230957 C-43.74743549 127.62303247 -51.81052714 130.29205901 -59.90625 132.86328125 C-60.91165833 133.18730171 -60.91165833 133.18730171 -61.93737793 133.51786804 C-64.75189101 134.4029286 -67.0282539 135 -70 135 C-68.09917974 128.3916409 -65.93722279 121.94889544 -63.50390625 115.51953125 C-62.8558244 113.76165583 -62.20938675 112.00317351 -61.56445312 110.24414062 C-60.56249574 107.51298678 -59.55254218 104.78641844 -58.51489258 102.06860352 C-57.50509577 99.41553785 -56.5328212 96.75115408 -55.56640625 94.08203125 C-55.24893936 93.27457962 -54.93147247 92.46712799 -54.60438538 91.63520813 C-53.0587176 87.38050087 -53.0587176 87.38050087 -53.63816833 83.02043152 C-54.7792321 80.89067515 -54.7792321 80.89067515 -57 78 C-57.4755835 77.28674561 -57.95116699 76.57349121 -58.44116211 75.83862305 C-59.10257202 74.93430542 -59.10257202 74.93430542 -59.77734375 74.01171875 C-60.28499268 73.31369141 -60.7926416 72.61566406 -61.31567383 71.89648438 C-61.85087646 71.16751953 -62.3860791 70.43855469 -62.9375 69.6875 C-63.49655029 68.91857422 -64.05560059 68.14964844 -64.6315918 67.35742188 C-67.03848222 64.04757006 -69.45430142 60.74432831 -71.87402344 57.44384766 C-73.10280811 55.76703512 -74.3298289 54.08892832 -75.55493164 52.40942383 C-76.7113353 50.82412758 -77.87187473 49.24183855 -79.03686523 47.6628418 C-79.55708252 46.949104 -80.0772998 46.23536621 -80.61328125 45.5 C-81.07516846 44.8709375 -81.53705566 44.241875 -82.01293945 43.59375 C-83 42 -83 42 -83 40 C-82.34569 40.03108856 -81.69138 40.06217712 -81.01724243 40.09420776 C-74.17193359 40.40530758 -67.32864447 40.61559897 -60.47802734 40.76904297 C-57.926416 40.83921147 -55.37536298 40.934583 -52.82568359 41.05615234 C-39.45217105 42.27501915 -39.45217105 42.27501915 -26.94387817 38.74081421 C-23.65302882 35.59931301 -21.69996318 31.9064502 -19.85327148 27.79077148 C-18.6076873 25.17664846 -16.91118459 23.00049098 -15.13671875 20.72265625 C-14.27143555 19.55186523 -14.27143555 19.55186523 -13.38867188 18.35742188 C-12.5465918 17.22143555 -12.5465918 17.22143555 -11.6875 16.0625 C-10.52423778 14.4912568 -9.36146861 12.91964844 -8.19921875 11.34765625 C-7.65700684 10.61691895 -7.11479492 9.88618164 -6.55615234 9.13330078 C-5.06686574 7.09166503 -3.63670521 5.01716176 -2.20703125 2.93359375 C-1.11455078 1.48146484 -1.11455078 1.48146484 0 0 Z " fill="#FFB624" transform="translate(443,92)"/>
<path d="M0 0 C4.14819241 3.9419287 7.61432511 8.18976385 11.0625 12.75 C11.62106689 13.48428223 12.17963379 14.21856445 12.75512695 14.97509766 C19.42162727 23.79567869 25.86654654 32.79981981 32 42 C34.38049477 42.43849182 34.38049477 42.43849182 37.18408203 42.34057617 C38.26505157 42.34034958 39.34602112 42.34012299 40.45974731 42.33988953 C41.63060883 42.32440567 42.80147034 42.30892181 44.0078125 42.29296875 C45.20356903 42.28872391 46.39932556 42.28447906 47.63131714 42.28010559 C51.46277071 42.26326902 55.29370453 42.22560684 59.125 42.1875 C61.71744034 42.17245964 64.30988889 42.15877011 66.90234375 42.14648438 C73.26840748 42.11334918 79.63416662 42.0631003 86 42 C84.67315082 45.43436571 83.3112574 48.20647582 81.09375 51.15234375 C80.51931152 51.92223633 79.94487305 52.69212891 79.35302734 53.48535156 C78.74152832 54.29456055 78.1300293 55.10376953 77.5 55.9375 C76.23105766 57.63879122 74.96283381 59.34061856 73.6953125 61.04296875 C72.75606934 62.30052979 72.75606934 62.30052979 71.79785156 63.58349609 C69.29282376 66.95052016 66.82303738 70.34138226 64.375 73.75 C63.61960937 74.79671875 62.86421875 75.8434375 62.0859375 76.921875 C61.39757812 77.93765625 60.70921875 78.9534375 60 80 C59.22833496 80.9892749 58.45666992 81.9785498 57.66162109 82.99780273 C56.28641337 85.45002048 55.95543118 86.64644987 56.31051636 89.46322632 C57.17852125 92.41422994 58.21153494 95.24701629 59.328125 98.11328125 C59.71111755 99.16404343 60.09411011 100.2148056 60.4887085 101.29740906 C61.7157013 104.64638955 62.98158817 107.97901374 64.25 111.3125 C65.49512496 114.66666033 66.73231962 118.02366354 67.96844482 121.38114929 C68.74030317 123.46829163 69.51914472 125.55286683 70.30548096 127.63459778 C70.65874451 128.57284897 71.01200806 129.51110016 71.37597656 130.4777832 C71.84707855 131.71852348 71.84707855 131.71852348 72.32769775 132.98432922 C73 135 73 135 73 137 C66.40813282 135.63898533 60.10171559 133.85592998 53.71484375 131.7421875 C52.77314835 131.43427277 51.83145294 131.12635803 50.86122131 130.80911255 C47.88532571 129.83505379 44.91140042 128.85513124 41.9375 127.875 C39.90702894 127.20924523 37.87643113 126.54387686 35.84570312 125.87890625 C30.89566175 124.25706747 25.94721986 122.63042386 21 121 C20.79431396 119.78046631 20.58862793 118.56093262 20.37670898 117.30444336 C16.7558174 95.85383875 13.11530791 74.40810663 9.25 53 C9.10519196 52.19719604 8.96038391 51.39439209 8.81118774 50.56726074 C8.12253735 46.74995642 7.43304071 42.93280553 6.74316406 39.11572266 C5.69403365 33.30802436 4.65162184 27.49922363 3.625 21.6875 C3.4693457 20.82318359 3.31369141 19.95886719 3.15332031 19.06835938 C2.26914693 14.03039205 1.69529299 9.05023484 1.35693359 3.94458008 C1.23914551 3.30286865 1.12135742 2.66115723 1 2 C0.34 1.67 -0.32 1.34 -1 1 C-0.67 0.67 -0.34 0.34 0 0 Z " fill="#FF9000" transform="translate(66,90)"/>
<path d="M0 0 C9.99877226 4.4497154 18.36979094 10.11962015 26 18 C24.56681216 21.4622801 22.88242245 23.1171864 19.875 25.3125 C19.06546875 25.92609375 18.2559375 26.5396875 17.421875 27.171875 C16.62265625 27.77515625 15.8234375 28.3784375 15 29 C-6.43477015 45.37143862 -20.42671873 73.8967366 -24.33276367 100.24462891 C-25.20797676 108.00619604 -25.33522534 115.8234493 -25.5625 123.625 C-25.60580627 125.02474932 -25.64942387 126.42448904 -25.69335938 127.82421875 C-25.79862318 131.21605254 -25.89973377 134.6080148 -26 138 C-32.27 138 -38.54 138 -45 138 C-45 99.39 -45 60.78 -45 21 C-38.07 20.01 -38.07 20.01 -31 19 C-18.45466505 15.18185458 -9.43374464 9.0323087 0 0 Z " fill="#4889FE" transform="translate(137,374)"/>
<path d="M0 0 C0.86625 0.804375 1.7325 1.60875 2.625 2.4375 C16.10249168 13.92337854 28.22221057 18.4603158 46 21 C46 59.61 46 98.22 46 138 C39.73 138 33.46 138 27 138 C26.97421875 135.76605469 26.9484375 133.53210938 26.921875 131.23046875 C26.69148877 107.82895909 26.69148877 107.82895909 22 85 C21.78714355 84.31389648 21.57428711 83.62779297 21.35498047 82.92089844 C16.49460117 67.82721144 9.08233011 54.24403573 -1 42 C-1.75925781 41.07574219 -2.51851563 40.15148437 -3.30078125 39.19921875 C-9.75469012 31.73127509 -17.12253881 25.86836806 -25 20 C-20.65997264 9.99136547 -9.13965423 4.88834992 0 0 Z " fill="#50C4FE" transform="translate(374,374)"/>
</svg>
