
<!-- Generator: visioncortex VTracer 0.6.4 -->
<svg version="1.1" xmlns="http://www.w3.org/2000/svg" viewBox="0 0 512 512" preserveAspectRatio="xMidYMid meet">
<path d="M0 0 C0.764 0.07 1.529 0.14 2.316 0.212 C7.784 0.838 11.309 2.309 15.188 6.188 C16.047 10.794 15.766 14.243 13.312 18.25 C7.636 21.769 1.575 20.337 -4.832 19.676 C-55.811 15.018 -109.769 29.357 -149.875 61.734 C-150.844 62.544 -151.814 63.353 -152.812 64.188 C-153.895 65.068 -154.979 65.948 -156.062 66.828 C-168.548 77.065 -179.166 88.252 -188.812 101.188 C-189.238 101.747 -189.663 102.306 -190.101 102.882 C-221.9 144.767 -235.234 200.057 -228.688 252 C-225.082 277.383 -217.139 301.713 -204.812 324.188 C-204.428 324.889 -204.044 325.59 -203.648 326.312 C-198.129 336.267 -192.083 345.423 -184.812 354.188 C-184.097 355.056 -184.097 355.056 -183.366 355.941 C-173.794 367.49 -163.696 377.971 -151.812 387.188 C-151.281 387.606 -150.749 388.025 -150.202 388.456 C-133.977 401.162 -116.085 410.948 -96.812 418.188 C-96.091 418.463 -95.369 418.738 -94.625 419.022 C-53.234 434.572 -8.152 434.879 34.188 423.188 C34.922 422.989 35.656 422.79 36.413 422.584 C56.421 417.005 78.085 407.485 94.188 394.188 C94.188 391.391 92.835 389.501 91.545 387.084 C83.494 371.935 80.928 357.221 81.188 340.188 C80.339 340.877 79.491 341.567 78.617 342.277 C56.444 360.123 32.265 372.722 4.188 378.188 C3.035 378.414 1.883 378.641 0.695 378.875 C-39.241 385.395 -81.428 375.347 -114.211 351.781 C-147.692 327.002 -170.777 291.166 -177.625 249.875 C-183.669 208.691 -173.987 166.65 -149.179 133.131 C-123.382 99.243 -87.225 77.365 -44.988 71.063 C-4.366 65.813 37.142 76.178 69.812 101 C102.967 126.974 123.77 162.721 130.5 204.375 C133.09 227.314 130.483 249.842 125.188 272.188 C125.987 271.789 126.786 271.391 127.609 270.98 C141.108 264.469 153.712 261.999 168.625 262.125 C169.643 262.13 170.66 262.134 171.709 262.139 C174.202 262.15 176.695 262.167 179.188 262.188 C187.715 203.408 175.576 147.452 139.871 99.417 C137.437 96.222 134.857 93.186 132.188 90.188 C130.933 88.753 130.933 88.753 129.652 87.289 C114.505 70.198 96.878 56.703 77.188 45.188 C77.548 45.877 77.909 46.567 78.281 47.277 C83.985 58.827 83.985 58.827 82.188 65.188 C80.397 67.796 79.061 68.538 76.188 70.188 C72.716 70.754 70.897 70.515 67.715 69.047 C64.521 66.697 63.489 64.519 61.812 60.938 C61.375 60.017 61.375 60.017 60.928 59.079 C60.001 57.121 59.094 55.155 58.188 53.188 C57.579 51.897 56.97 50.606 56.359 49.316 C55.17 46.798 53.995 44.273 52.832 41.742 C51.789 39.487 50.726 37.241 49.637 35.008 C49.179 34.056 48.721 33.105 48.25 32.125 C47.849 31.309 47.448 30.493 47.035 29.652 C45.7 25.771 45.771 22.437 47.062 18.562 C52.932 12.003 64.848 10.192 73.119 7.558 C74.544 7.101 75.966 6.637 77.386 6.165 C92.254 1.223 92.254 1.223 100.188 3.188 C102.714 5.32 103.104 6.913 104.062 10.062 C104.225 14.114 103.445 15.815 101.188 19.188 C98.612 20.718 95.911 21.601 93.062 22.5 C88.26 23.755 88.26 23.755 84.188 26.188 C85.036 26.649 85.884 27.11 86.758 27.586 C104.255 37.256 119.7 49.446 134.188 63.188 C134.691 63.662 135.194 64.137 135.712 64.625 C152.765 80.811 166.334 100.392 177.188 121.188 C177.556 121.886 177.924 122.585 178.304 123.305 C201.185 167.281 208.403 220.621 198.188 269.188 C199.384 269.476 200.58 269.765 201.812 270.062 C219.655 276.048 233.433 292.912 241.875 308.938 C251.754 329.295 253.266 352.701 246.188 374.188 C242.043 385.539 236.066 395.083 228.188 404.188 C227.615 404.86 227.043 405.533 226.453 406.227 C212.814 421.014 191.151 430.354 171.188 431.188 C170.364 431.227 169.54 431.267 168.691 431.309 C149.113 431.792 127.785 426.24 113.125 412.625 C110.526 409.911 110.526 409.911 107.871 410.297 C104.566 411.394 102.179 413.016 99.312 415 C83.131 425.764 65.574 433.983 47.188 440.188 C46.454 440.436 45.72 440.684 44.964 440.94 C-12.161 459.855 -74.535 452.512 -128 426.312 C-140.747 419.89 -152.655 412.078 -163.812 403.188 C-164.801 402.404 -165.79 401.62 -166.809 400.812 C-182.45 388.136 -196.234 373.647 -207.812 357.188 C-208.266 356.547 -208.719 355.907 -209.186 355.247 C-212.186 350.97 -215.048 346.62 -217.812 342.188 C-218.188 341.587 -218.564 340.987 -218.951 340.368 C-249.401 290.947 -257.251 228.353 -244.062 172.312 C-230.946 119.563 -200.3 72.753 -155.812 41.188 C-155.231 40.761 -154.649 40.334 -154.049 39.895 C-110.045 7.666 -53.823 -5.12 0 0 Z " fill="#EEF3F6" transform="translate(255.8125,30.8125)"/>
<path d="M0 0 C0.764 0.07 1.529 0.14 2.316 0.212 C7.784 0.838 11.309 2.309 15.188 6.188 C16.047 10.794 15.766 14.243 13.312 18.25 C7.636 21.769 1.575 20.337 -4.832 19.676 C-55.811 15.018 -109.769 29.357 -149.875 61.734 C-150.844 62.544 -151.814 63.353 -152.812 64.188 C-153.895 65.068 -154.979 65.948 -156.062 66.828 C-168.548 77.065 -179.166 88.252 -188.812 101.188 C-189.238 101.747 -189.663 102.306 -190.101 102.882 C-221.9 144.767 -235.234 200.057 -228.688 252 C-225.082 277.383 -217.139 301.713 -204.812 324.188 C-204.428 324.889 -204.044 325.59 -203.648 326.312 C-198.129 336.267 -192.083 345.423 -184.812 354.188 C-184.097 355.056 -184.097 355.056 -183.366 355.941 C-173.794 367.49 -163.696 377.971 -151.812 387.188 C-151.281 387.606 -150.749 388.025 -150.202 388.456 C-133.977 401.162 -116.085 410.948 -96.812 418.188 C-96.091 418.463 -95.369 418.738 -94.625 419.022 C-53.234 434.572 -8.152 434.879 34.188 423.188 C34.922 422.989 35.656 422.79 36.413 422.584 C56.421 417.005 78.085 407.485 94.188 394.188 C94.188 391.391 92.835 389.501 91.545 387.084 C85.712 376.109 81.763 364.725 81.188 352.188 C81.093 351.056 81.093 351.056 80.996 349.902 C79.927 327.584 89.209 306.493 103.625 290 C118.108 274.369 135.856 264.543 157.188 262.188 C161.001 262.074 164.81 262.093 168.625 262.125 C169.643 262.13 170.66 262.134 171.709 262.139 C174.202 262.15 176.695 262.167 179.188 262.188 C187.715 203.408 175.576 147.452 139.871 99.417 C137.437 96.222 134.857 93.186 132.188 90.188 C130.933 88.753 130.933 88.753 129.652 87.289 C114.505 70.198 96.878 56.703 77.188 45.188 C77.548 45.877 77.909 46.567 78.281 47.277 C83.985 58.827 83.985 58.827 82.188 65.188 C80.397 67.796 79.061 68.538 76.188 70.188 C72.716 70.754 70.897 70.515 67.715 69.047 C64.521 66.697 63.489 64.519 61.812 60.938 C61.375 60.017 61.375 60.017 60.928 59.079 C60.001 57.121 59.094 55.155 58.188 53.188 C57.579 51.897 56.97 50.606 56.359 49.316 C55.17 46.798 53.995 44.273 52.832 41.742 C51.789 39.487 50.726 37.241 49.637 35.008 C49.179 34.056 48.721 33.105 48.25 32.125 C47.849 31.309 47.448 30.493 47.035 29.652 C45.7 25.771 45.771 22.437 47.062 18.562 C52.932 12.003 64.848 10.192 73.119 7.558 C74.544 7.101 75.966 6.637 77.386 6.165 C92.254 1.223 92.254 1.223 100.188 3.188 C102.714 5.32 103.104 6.913 104.062 10.062 C104.225 14.114 103.445 15.815 101.188 19.188 C98.612 20.718 95.911 21.601 93.062 22.5 C88.26 23.755 88.26 23.755 84.188 26.188 C85.036 26.649 85.884 27.11 86.758 27.586 C104.255 37.256 119.7 49.446 134.188 63.188 C134.691 63.662 135.194 64.137 135.712 64.625 C152.765 80.811 166.334 100.392 177.188 121.188 C177.556 121.886 177.924 122.585 178.304 123.305 C201.185 167.281 208.403 220.621 198.188 269.188 C199.384 269.476 200.58 269.765 201.812 270.062 C219.655 276.048 233.433 292.912 241.875 308.938 C251.754 329.295 253.266 352.701 246.188 374.188 C242.043 385.539 236.066 395.083 228.188 404.188 C227.615 404.86 227.043 405.533 226.453 406.227 C212.814 421.014 191.151 430.354 171.188 431.188 C170.364 431.227 169.54 431.267 168.691 431.309 C149.113 431.792 127.785 426.24 113.125 412.625 C110.526 409.911 110.526 409.911 107.871 410.297 C104.566 411.394 102.179 413.016 99.312 415 C83.131 425.764 65.574 433.983 47.188 440.188 C46.454 440.436 45.72 440.684 44.964 440.94 C-12.161 459.855 -74.535 452.512 -128 426.312 C-140.747 419.89 -152.655 412.078 -163.812 403.188 C-164.801 402.404 -165.79 401.62 -166.809 400.812 C-182.45 388.136 -196.234 373.647 -207.812 357.188 C-208.266 356.547 -208.719 355.907 -209.186 355.247 C-212.186 350.97 -215.048 346.62 -217.812 342.188 C-218.188 341.587 -218.564 340.987 -218.951 340.368 C-249.401 290.947 -257.251 228.353 -244.062 172.312 C-230.946 119.563 -200.3 72.753 -155.812 41.188 C-155.231 40.761 -154.649 40.334 -154.049 39.895 C-110.045 7.666 -53.823 -5.12 0 0 Z " fill="#1980F1" transform="translate(255.8125,30.8125)"/>
<path d="M0 0 C30.234 25.721 50.242 62.14 54.719 101.785 C56.026 118.713 55.142 135.337 52 152 C51.877 152.735 51.753 153.47 51.626 154.228 C50.413 161.307 49.074 166.817 43.25 171.5 C41.512 172.685 39.763 173.852 38 175 C22.23 187.587 12.745 203.515 8 223 C7.801 224.79 7.611 226.582 7.438 228.375 C6.141 235.422 -0.501 239.133 -6 243 C-6.591 243.423 -7.181 243.846 -7.79 244.282 C-27.338 258.182 -48.395 267.486 -72 272 C-73.149 272.226 -74.297 272.451 -75.48 272.684 C-114.713 279.112 -156.185 269.491 -188.714 246.805 C-223.094 222.091 -246.854 185.647 -253.812 143.688 C-259.857 102.504 -250.174 60.463 -225.367 26.944 C-199.569 -6.944 -163.413 -28.823 -121.176 -35.125 C-77.554 -40.762 -33.645 -28.311 0 0 Z M-185.5 36.125 C-209.123 60.383 -218.993 90.828 -219 124.147 C-218.573 154.421 -203.714 182.638 -183.25 204.188 C-159.237 227.362 -129.19 238.144 -96.128 237.986 C-76.508 237.29 -57.986 231.733 -41 222 C-40.019 221.446 -39.038 220.891 -38.027 220.32 C-10.173 203.567 8.207 176.211 16 145 C16.185 144.362 16.369 143.724 16.56 143.067 C18.587 135.43 18.441 127.595 18.438 119.75 C18.438 118.996 18.439 118.242 18.44 117.465 C18.391 98.426 14.489 82.057 6 65 C5.59 64.154 5.18 63.309 4.758 62.438 C-9.717 34.486 -36.675 14.314 -66.22 4.909 C-110.025 -8.118 -152.913 5.275 -185.5 36.125 Z " fill="#F9D808" transform="translate(332,137)"/>
<path d="M0 0 C0.764 0.07 1.529 0.14 2.316 0.212 C7.784 0.838 11.309 2.309 15.188 6.188 C16.047 10.794 15.766 14.243 13.312 18.25 C7.636 21.769 1.575 20.337 -4.832 19.676 C-55.811 15.018 -109.769 29.357 -149.875 61.734 C-150.844 62.544 -151.814 63.353 -152.812 64.188 C-153.895 65.068 -154.979 65.948 -156.062 66.828 C-168.548 77.065 -179.166 88.252 -188.812 101.188 C-189.238 101.747 -189.663 102.306 -190.101 102.882 C-221.9 144.767 -235.234 200.057 -228.688 252 C-225.082 277.383 -217.139 301.713 -204.812 324.188 C-204.428 324.889 -204.044 325.59 -203.648 326.312 C-198.129 336.267 -192.083 345.423 -184.812 354.188 C-184.097 355.056 -184.097 355.056 -183.366 355.941 C-173.794 367.49 -163.696 377.971 -151.812 387.188 C-151.281 387.606 -150.749 388.025 -150.202 388.456 C-133.977 401.162 -116.085 410.948 -96.812 418.188 C-96.091 418.463 -95.369 418.738 -94.625 419.022 C-53.234 434.572 -8.152 434.879 34.188 423.188 C34.922 422.989 35.656 422.79 36.413 422.584 C55.114 417.37 74.344 408.682 89.876 396.995 C93.654 394.202 93.654 394.202 96.309 394.129 C98.982 395.635 100.446 397.576 102.312 400 C102.996 400.873 103.679 401.745 104.383 402.645 C105.902 404.785 107.109 406.803 108.188 409.188 C61.158 443.376 0.669 457.824 -56.812 449.188 C-95.822 442.653 -132.743 427.942 -163.812 403.188 C-164.801 402.404 -165.79 401.62 -166.809 400.812 C-182.45 388.136 -196.234 373.647 -207.812 357.188 C-208.266 356.547 -208.719 355.907 -209.186 355.247 C-212.186 350.97 -215.048 346.62 -217.812 342.188 C-218.188 341.587 -218.564 340.987 -218.951 340.368 C-249.401 290.947 -257.251 228.353 -244.062 172.312 C-230.946 119.563 -200.3 72.753 -155.812 41.188 C-155.231 40.761 -154.649 40.334 -154.049 39.895 C-110.045 7.666 -53.823 -5.12 0 0 Z " fill="#4C5B7C" transform="translate(255.8125,30.8125)"/>
<path d="M0 0 C2.527 2.132 2.916 3.725 3.875 6.875 C4.037 10.927 3.257 12.627 1 16 C-1.576 17.531 -4.276 18.414 -7.125 19.312 C-11.928 20.567 -11.928 20.567 -16 23 C-15.152 23.461 -14.304 23.923 -13.43 24.398 C4.068 34.069 19.513 46.259 34 60 C34.503 60.475 35.006 60.949 35.525 61.438 C52.577 77.624 66.146 97.205 77 118 C77.368 118.699 77.737 119.397 78.116 120.117 C99.812 161.815 110.629 218.732 98 265 C93.849 264.347 89.773 263.545 85.688 262.562 C84.639 262.316 83.591 262.07 82.512 261.816 C81.268 261.412 81.268 261.412 80 261 C78.699 258.399 79.131 257.081 79.559 254.215 C87.528 197.324 74.064 142.482 39.684 96.229 C37.249 93.035 34.67 89.998 32 87 C31.163 86.044 30.327 85.087 29.465 84.102 C14.317 67.01 -3.309 53.515 -23 42 C-22.639 42.69 -22.278 43.379 -21.906 44.09 C-16.203 55.639 -16.203 55.639 -18 62 C-19.79 64.609 -21.127 65.351 -24 67 C-27.472 67.567 -29.29 67.327 -32.473 65.859 C-35.666 63.51 -36.699 61.332 -38.375 57.75 C-38.667 57.137 -38.959 56.523 -39.259 55.891 C-40.187 53.934 -41.093 51.967 -42 50 C-42.608 48.709 -43.217 47.419 -43.828 46.129 C-45.018 43.61 -46.193 41.086 -47.355 38.555 C-48.399 36.3 -49.462 34.054 -50.551 31.82 C-51.008 30.869 -51.466 29.918 -51.938 28.938 C-52.539 27.714 -52.539 27.714 -53.152 26.465 C-54.487 22.584 -54.416 19.249 -53.125 15.375 C-47.256 8.815 -35.34 7.004 -27.068 4.371 C-25.643 3.914 -24.221 3.449 -22.802 2.977 C-7.933 -1.964 -7.933 -1.964 0 0 Z " fill="#4D5B7C" transform="translate(356,34)"/>
<path d="M0 0 C3.803 2.005 5.618 3.427 8 7 C8.459 12.69 8.221 15.204 5 20 C3.042 22.142 1.072 24.201 -0.984 26.243 C-1.585 26.847 -2.185 27.451 -2.804 28.073 C-4.781 30.059 -6.765 32.037 -8.75 34.016 C-10.129 35.396 -11.507 36.776 -12.886 38.157 C-15.771 41.045 -18.66 43.93 -21.551 46.812 C-25.26 50.509 -28.96 54.216 -32.658 57.926 C-35.5 60.776 -38.348 63.621 -41.197 66.465 C-42.564 67.83 -43.929 69.197 -45.292 70.565 C-47.195 72.473 -49.105 74.375 -51.016 76.274 C-51.862 77.127 -51.862 77.127 -52.725 77.997 C-57.014 82.239 -59.783 83.069 -65.77 83.523 C-71.473 82.185 -75.263 76.658 -78.562 72.188 C-83.058 66.174 -87.748 60.343 -92.533 54.557 C-101.777 43.302 -101.777 43.302 -101.461 36.961 C-100.365 32.299 -96.864 29.576 -93 27 C-90.949 26.629 -90.949 26.629 -88.688 26.562 C-87.949 26.523 -87.21 26.483 -86.449 26.441 C-80.351 27.832 -76.458 33.637 -72.938 38.438 C-72.115 39.541 -71.29 40.644 -70.465 41.746 C-69.865 42.548 -69.865 42.548 -69.253 43.367 C-67.248 45.979 -65.127 48.486 -63 51 C-59.356 49.465 -57.049 47.285 -54.279 44.49 C-53.348 43.556 -52.417 42.621 -51.458 41.659 C-50.45 40.637 -49.442 39.615 -48.434 38.594 C-47.393 37.547 -46.352 36.501 -45.311 35.455 C-42.574 32.705 -39.843 29.949 -37.113 27.192 C-32.741 22.777 -28.363 18.369 -23.981 13.964 C-22.453 12.426 -20.928 10.884 -19.403 9.341 C-18.475 8.407 -17.548 7.472 -16.592 6.51 C-15.775 5.685 -14.959 4.861 -14.118 4.011 C-9.551 -0.326 -6.067 -0.859 0 0 Z " fill="#EDF2F6" transform="translate(466,336)"/>
<path d="M0 0 C2.7 1.8 4.542 3.084 6 6 C6.093 8.38 6.126 10.731 6.114 13.112 C6.114 13.844 6.114 14.575 6.114 15.329 C6.113 17.753 6.105 20.177 6.098 22.602 C6.096 24.28 6.094 25.959 6.093 27.638 C6.09 32.06 6.08 36.482 6.069 40.904 C6.058 45.415 6.054 49.926 6.049 54.438 C6.038 63.292 6.021 72.146 6 81 C7.103 81.111 8.207 81.222 9.344 81.336 C13 82 13 82 15.5 84.625 C17.384 88.865 17.565 90.618 16 95 C9.947 101 9.947 101 6 101 C6.046 101.736 6.093 102.472 6.141 103.23 C6.433 111.134 6.433 111.134 4.438 115.125 C1.203 117.613 -0.935 118 -5 118 C-7.875 116.75 -7.875 116.75 -10 115 C-10.33 114.01 -10.66 113.02 -11 112 C-13.406 113.354 -15.811 114.709 -18.215 116.066 C-20.293 117.237 -22.372 118.408 -24.451 119.577 C-29.518 122.433 -34.562 125.315 -39.547 128.312 C-40.396 128.819 -41.245 129.326 -42.12 129.848 C-43.714 130.804 -45.302 131.77 -46.882 132.747 C-51.082 135.254 -53.955 136.664 -59 136 C-62.343 134.793 -62.947 134.079 -65 131 C-65.466 127.844 -65.733 126.007 -65 123 C-60.565 117.494 -53.522 114.249 -47.438 110.938 C-44.54 109.346 -41.677 107.746 -38.853 106.027 C-35.796 104.268 -32.731 103.244 -29.374 102.18 C-22.662 99.703 -17.098 97.063 -13 91 C-8.8 78.685 -10.719 63.761 -11.259 50.996 C-11.49 45.033 -11.583 39.067 -11.681 33.101 C-11.757 28.462 -11.859 23.829 -12.041 19.193 C-12.093 17.516 -12.145 15.84 -12.197 14.164 C-12.236 13.408 -12.276 12.651 -12.317 11.872 C-12.411 8.165 -12.134 6.21 -10.113 3.052 C-6.773 -0.192 -4.613 -0.452 0 0 Z " fill="#4E5D7E" transform="translate(235,162)"/>
</svg>