<?xml version="1.0" encoding="UTF-8"?>
<svg version="1.1" xmlns="http://www.w3.org/2000/svg" width="512" height="512">
<path d="M0 0 C14.04546733 9.56882436 23.06831996 25.54175456 29.8125 40.75 C30.53566406 42.36648437 30.53566406 42.36648437 31.2734375 44.015625 C46.96014565 81.85386647 41.86764881 129.57417981 26.8125 166.75 C27.46203801 166.74631283 28.11157602 166.74262566 28.780797 166.73882675 C44.62381439 166.65028732 60.46674509 166.58419916 76.30994892 166.54275131 C83.97177864 166.52217197 91.63344268 166.49414062 99.29516602 166.44824219 C105.97721464 166.40823187 112.6591432 166.38253359 119.3413083 166.37364602 C122.87582059 166.3684551 126.40998957 166.35635293 129.94439125 166.32707977 C133.90089727 166.29457983 137.85707488 166.29404965 141.8137207 166.29589844 C142.9710672 166.28151733 144.1284137 166.26713623 145.3208313 166.25231934 C158.47891344 166.31856748 168.98650839 171.14692161 178.5625 180.0625 C187.01513938 188.94559787 191.23973313 201.23332638 191.02734375 213.38671875 C189.80622047 226.81907479 184.71699811 237.60209549 174.8125 246.75 C170.0847832 250.12282235 165.23220803 252.68030688 159.8125 254.75 C160.16183594 255.56984375 160.51117188 256.3896875 160.87109375 257.234375 C161.32613281 258.31203125 161.78117187 259.3896875 162.25 260.5 C162.70246094 261.56734375 163.15492188 262.6346875 163.62109375 263.734375 C167.26258939 272.95153773 167.41263902 285.32966069 164.25 294.75 C159.64980877 305.19626759 152.87159017 311.96796866 143.8125 318.75 C144.30621094 319.71421875 144.79992187 320.6784375 145.30859375 321.671875 C145.95594237 322.94780852 146.60306599 324.22385621 147.25 325.5 C147.73823242 326.45132813 147.73823242 326.45132813 148.23632812 327.421875 C152.95769838 336.76726767 153.23625657 347.85088244 151.12890625 358.0625 C147.09481786 369.84672502 139.71272827 378.83096112 128.6875 384.625 C125.08318798 386.32147402 121.82431277 387.43327794 117.8125 387.75 C117.83570313 388.40484375 117.85890625 389.0596875 117.8828125 389.734375 C118.21419311 406.49276587 114.00209892 420.98385965 102.8125 433.75 C78.05506569 458.58807742 37.90400675 460.83320346 5.01821899 460.99682617 C-9.49941735 461.0183249 -24.01077073 460.58996588 -38.5173645 460.05627441 C-40.64051927 459.97826486 -42.76379151 459.90337789 -44.88717651 459.83190918 C-60.8517628 459.2792895 -77.12150771 458.4833835 -92.3125 453.0625 C-93.043479 452.80903809 -93.77445801 452.55557617 -94.52758789 452.29443359 C-111.37562368 446.24083393 -124.23314157 436.91348674 -138.1875 425.75 C-148.4175 425.42 -158.6475 425.09 -169.1875 424.75 C-169.1875 344.89 -169.1875 265.03 -169.1875 182.75 C-140.9725 182.255 -140.9725 182.255 -112.1875 181.75 C-102.07182968 165.85763575 -102.07182968 165.85763575 -92 149.9375 C-84.94507101 138.76174494 -77.81267031 127.64228928 -70.45117188 116.66552734 C-68.44256056 113.66692204 -66.44745131 110.65947946 -64.45458984 107.65039062 C-63.39710827 106.06437201 -62.32005628 104.49142434 -61.23828125 102.921875 C-53.10344019 90.54544175 -51.9856742 75.57986526 -52.23046875 61.1640625 C-52.25285511 58.91146712 -52.27431072 56.65886233 -52.29492188 54.40625 C-52.3319716 50.88873474 -52.37505548 47.37170758 -52.43432617 43.85449219 C-52.48911869 40.4367788 -52.51798694 37.01960727 -52.54296875 33.6015625 C-52.57864204 32.04328232 -52.57864204 32.04328232 -52.61503601 30.45352173 C-52.65155658 20.16430726 -49.40579752 11.22551971 -42.1875 3.75 C-29.74004252 -6.78613964 -14.07815466 -8.23490514 0 0 Z " fill="#FFC100" transform="translate(309.1875,28.25)"/>
<path d="M0 0 C0.94854858 -0.0087616 1.89709717 -0.01752319 2.87438965 -0.02655029 C6.00526876 -0.04853058 9.1347319 -0.03399591 12.265625 -0.01708984 C14.44368765 -0.02045836 16.62174847 -0.02531127 18.79980469 -0.03158569 C23.36281241 -0.03895519 27.92533048 -0.02824856 32.48828125 -0.00488281 C38.33631362 0.02360447 44.18319869 0.00720099 50.03118896 -0.02274513 C54.52824544 -0.04081569 59.02503005 -0.03506107 63.52209473 -0.02210617 C65.67826473 -0.01877152 67.83445944 -0.02286129 69.99060059 -0.03450394 C73.00481511 -0.04720818 76.01717368 -0.02784056 79.03125 0 C80.36706116 -0.01518173 80.36706116 -0.01518173 81.7298584 -0.03067017 C82.55409302 -0.01657104 83.37832764 -0.00247192 84.22753906 0.01205444 C85.29491302 0.01488214 85.29491302 0.01488214 86.3838501 0.01776695 C89.97472766 1.07763525 91.32158421 2.62175127 93.515625 5.64697266 C94.25034881 9.22637974 94.18589377 12.74543641 94.14381409 16.38891602 C94.15090847 17.48405234 94.15800286 18.57918867 94.16531223 19.70751095 C94.18294165 23.38430101 94.1647609 27.06004093 94.14672852 30.73681641 C94.1518654 33.36980675 94.15914492 36.00279366 94.16841125 38.63577271 C94.18679465 45.04911568 94.17827108 51.46215407 94.16032303 57.87548757 C94.14629983 63.08749496 94.14240361 68.29941964 94.1457653 73.51144409 C94.14624275 74.25311984 94.14672019 74.99479559 94.1472121 75.75894636 C94.14823842 77.26562605 94.14929378 78.77230573 94.15037786 80.27898538 C94.15894633 93.60320616 94.14226523 106.92727985 94.11254883 120.25146484 C94.08371103 133.18186624 94.07662766 146.11205573 94.09204102 159.04248047 C94.10880037 173.1213696 94.11284012 187.20015812 94.09533066 201.27904987 C94.09348626 202.78020031 94.09165153 204.28135076 94.08982658 205.78250122 C94.08891449 206.52110427 94.0880024 207.25970733 94.08706268 208.02069229 C94.08145561 213.22669256 94.08476603 218.43264374 94.09137154 223.63864136 C94.0999084 230.64498602 94.08695365 237.65101958 94.05952263 244.6573143 C94.05262302 247.23207567 94.05255758 249.80686553 94.05973816 252.38162613 C94.06839599 255.88977128 94.0525374 259.39696398 94.0302887 262.9050293 C94.03852946 263.92982863 94.04677023 264.95462797 94.05526072 266.01048183 C94.00400214 270.37380978 93.9321701 272.94495676 91.67095852 276.75584412 C87.96479082 280.00770257 84.67045174 279.78116829 79.92041016 279.80810547 C79.25500717 279.81307037 78.58960419 279.81803528 77.90403748 279.82315063 C75.7042436 279.83774743 73.50452183 279.84456992 71.3046875 279.85009766 C69.77395628 279.85585097 68.24322508 279.86160868 66.7124939 279.86737061 C63.50298731 279.87787339 60.29350572 279.88372084 57.08398438 279.88720703 C52.97594243 279.8926916 48.86823196 279.91672159 44.76029396 279.94517899 C41.59810426 279.96382282 38.43599414 279.96901188 35.27375412 279.97054291 C33.75951703 279.97356582 32.24528122 279.98158218 30.73109818 279.99472809 C28.61035334 280.01182646 26.49041513 280.0098997 24.36962891 280.00341797 C23.16400299 280.0070636 21.95837708 280.01070923 20.71621704 280.01446533 C17.17649967 279.60803421 15.33801772 278.78657839 12.515625 276.64697266 C10.23862405 273.23147123 10.06186109 271.37141736 9.62947083 267.32429504 C9.55793317 266.67416722 9.48639551 266.0240394 9.41269004 265.35421073 C9.17273783 263.15028609 8.94526078 260.94525918 8.71801758 258.73999023 C8.54703245 257.13700915 8.37554558 255.53408153 8.20360279 253.93120289 C7.62593237 248.50464824 7.06912571 243.07603908 6.515625 237.64697266 C6.41779583 236.68932872 6.31996665 235.73168479 6.21917295 234.74502134 C4.65697107 219.43113666 3.14070616 204.11276331 1.63467765 188.79326606 C1.27319367 185.11647944 0.91123833 181.43973947 0.54917336 177.76301003 C-0.58769147 166.21590731 -1.72254489 154.6686094 -2.85462123 143.12103623 C-4.08962151 130.52406795 -5.33040343 117.92769339 -6.57778881 105.33194711 C-7.66558548 94.34653369 -8.74697254 83.36050428 -9.82241982 72.37387496 C-10.42357222 66.23411218 -11.02743908 60.09464565 -11.6380558 53.95581627 C-12.2092794 48.21140552 -12.77260397 42.46627496 -13.32982445 36.7204895 C-13.53534271 34.61549923 -13.74371454 32.51078531 -13.95515442 30.40638161 C-14.24327577 27.53440529 -14.52108239 24.66160933 -14.79634094 21.78837585 C-14.88212617 20.95785869 -14.96791139 20.12734152 -15.05629617 19.27165717 C-15.60932771 13.32964103 -15.99762228 7.87264936 -12.51464844 2.74990845 C-8.29458772 -0.17871067 -5.02746385 -0.05713802 0 0 Z " fill="#FFC100" transform="translate(27.484375,194.35302734375)"/>
</svg>
