<svg xmlns="http://www.w3.org/2000/svg" width="403" height="329" viewBox="0 0 403 329">
<g>
<path d="M 0.00 0.00 L 403.00 0.00 L 403.00 329.00 L 0.00 329.00 ZM 70.30 260.25 C71.24,261.07 71.79,261.57 72.44,261.77 C73.43,262.07 74.64,261.66 77.83,260.58 L 78.16 260.46 C82.04,259.14 89.26,258.99 130.08,259.36 C210.30,260.09 222.01,260.12 236.97,259.61 C248.74,259.21 252.06,259.41 254.72,260.67 C256.77,261.64 259.21,262.00 261.25,261.61 C263.04,261.28 270.80,260.97 278.50,260.93 C288.10,260.89 292.96,260.47 294.00,259.62 C294.82,258.94 297.52,257.57 300.00,256.59 C308.52,253.22 312.98,250.55 318.98,245.20 C322.29,242.25 325.00,239.06 325.00,238.11 C325.00,237.16 327.02,234.01 329.50,231.11 C332.44,227.66 334.00,224.89 334.00,223.11 C334.00,221.61 334.66,219.51 335.47,218.44 C336.28,217.37 336.95,214.40 336.97,211.83 C336.99,209.25 337.51,207.00 338.14,206.79 C338.97,206.51 338.99,205.85 338.23,204.42 C337.64,203.33 337.13,198.22 337.09,193.06 C337.04,186.48 336.57,182.99 335.51,181.38 C334.68,180.11 334.00,177.79 334.00,176.23 C334.00,174.29 332.88,172.31 330.43,169.95 C328.47,168.05 325.92,164.93 324.76,163.00 C321.85,158.16 318.32,155.35 312.75,153.46 C308.02,151.85 306.87,150.14 309.25,148.26 C311.15,146.76 315.59,145.88 325.69,145.00 C330.74,144.56 335.46,143.83 336.19,143.38 C338.05,142.21 345.38,141.12 362.50,139.46 C372.03,138.53 372.47,138.34 374.29,134.20 C376.49,129.22 376.44,127.18 374.01,123.50 C371.43,119.58 368.56,118.99 362.74,121.20 C360.12,122.19 355.34,123.00 352.12,123.00 C347.77,123.00 345.61,123.52 343.71,125.01 C341.74,126.57 339.23,127.12 332.82,127.43 C328.25,127.65 321.35,128.29 317.50,128.86 C313.65,129.42 310.12,129.50 309.66,129.05 C308.32,127.73 309.31,124.82 311.50,123.61 C312.60,123.00 313.84,122.05 314.25,121.50 C315.48,119.84 317.18,113.83 318.07,108.00 C318.52,104.97 319.20,101.03 319.56,99.24 C320.40,95.15 317.23,81.23 314.95,78.95 C314.04,78.04 313.00,76.13 312.64,74.71 C312.29,73.30 309.92,70.42 307.39,68.32 C304.85,66.22 301.17,63.03 299.21,61.22 C297.25,59.42 294.48,57.69 293.07,57.37 C291.66,57.06 288.70,56.35 286.50,55.79 C284.30,55.24 275.92,54.63 267.88,54.44 C259.85,54.25 252.87,54.00 252.38,53.88 C250.89,53.53 246.00,55.17 246.00,56.02 C246.00,56.46 243.30,56.97 240.00,57.16 C236.70,57.35 234.00,57.25 234.00,56.94 C234.00,56.03 214.35,54.04 203.50,53.85 C193.22,53.66 189.00,54.35 189.00,56.19 C189.00,56.84 188.40,56.75 187.47,55.97 C186.28,54.99 175.47,54.68 139.38,54.60 L 92.82 54.50 L 90.95 52.00 C85.81,45.12 84.72,44.00 83.12,44.00 C80.93,44.00 79.00,45.91 79.00,48.07 C79.00,48.99 78.09,51.80 76.98,54.32 C75.87,56.83 74.69,60.82 74.37,63.19 C74.05,65.56 73.27,68.13 72.64,68.90 C72.01,69.68 71.56,73.23 71.64,76.89 C71.75,82.22 71.44,83.71 69.96,84.74 C68.78,85.57 67.91,87.89 67.47,91.40 C66.58,98.49 67.37,100.68 70.98,101.21 C75.68,101.90 77.18,100.45 76.87,95.50 C76.72,93.01 77.17,90.50 77.93,89.58 C78.66,88.71 79.55,86.53 79.92,84.75 C80.34,82.68 81.27,81.38 82.48,81.15 C83.53,80.94 85.19,79.76 86.17,78.51 C89.48,74.30 97.17,70.26 103.20,69.54 C106.68,69.13 109.96,68.04 111.62,66.72 C114.48,64.48 114.71,64.47 138.50,65.23 C146.05,65.47 177.25,64.09 177.85,63.48 C178.10,63.23 178.86,63.79 179.54,64.73 C180.59,66.16 181.19,66.24 183.44,65.21 C187.04,63.57 190.94,63.69 191.62,65.45 C191.94,66.30 187.74,73.60 181.60,82.86 C175.78,91.63 170.70,99.63 170.32,100.65 C169.71,102.30 164.64,108.90 159.75,114.40 C158.79,115.49 158.00,116.85 158.00,117.44 C157.99,119.24 144.06,139.76 140.75,142.82 C139.79,143.71 139.00,144.97 139.00,145.61 C139.00,146.25 137.43,149.07 135.50,151.86 C133.57,154.66 132.00,157.40 132.00,157.95 C132.00,159.56 127.01,161.56 119.50,162.94 C115.65,163.65 109.36,165.07 105.52,166.11 C101.68,167.15 97.38,168.00 95.97,168.00 C94.56,168.00 92.89,168.51 92.27,169.13 C91.64,169.76 87.28,170.41 82.56,170.59 C77.02,170.79 72.68,171.53 70.27,172.68 C68.22,173.65 64.69,174.46 62.42,174.47 C57.42,174.51 55.25,176.14 54.43,180.51 C53.65,184.66 54.40,187.06 57.52,190.43 C59.49,192.55 60.36,192.88 61.87,192.07 C62.90,191.52 65.72,190.86 68.13,190.61 C70.53,190.36 77.00,189.19 82.50,188.01 C88.00,186.84 95.43,185.51 99.00,185.06 C102.57,184.61 106.92,183.42 108.65,182.41 C111.30,180.87 112.05,180.79 113.40,181.91 C115.35,183.54 115.47,185.60 113.66,186.30 C112.92,186.58 110.64,189.34 108.59,192.43 C106.54,195.52 103.77,199.22 102.43,200.67 C101.09,202.11 100.00,204.12 100.00,205.12 C100.00,206.13 98.88,207.69 97.50,208.59 C96.12,209.49 95.00,211.02 95.00,211.99 C95.00,212.96 94.25,214.37 93.34,215.13 C91.71,216.48 83.00,229.49 83.00,230.58 C83.00,230.88 80.97,233.62 78.50,236.66 C76.03,239.70 74.00,242.75 74.00,243.44 C74.00,244.13 73.05,245.55 71.90,246.59 C66.73,251.27 66.10,256.60 70.30,260.25 ZM 109.55 249.92 C108.54,251.56 104.02,251.21 103.34,249.44 C102.99,248.52 103.77,246.78 105.24,245.19 C106.62,243.71 108.01,241.38 108.34,240.00 C108.66,238.62 111.02,235.25 113.58,232.50 C116.13,229.75 118.70,226.15 119.29,224.50 C119.87,222.85 121.57,219.93 123.07,218.00 C124.57,216.07 126.10,213.49 126.47,212.25 C126.83,211.01 127.55,210.00 128.07,210.00 C128.58,210.00 129.00,209.51 129.00,208.91 C129.00,208.31 131.03,205.44 133.52,202.53 C136.01,199.62 138.72,195.27 139.56,192.87 C140.49,190.17 143.64,185.75 147.79,181.32 L 154.50 174.13 L 161.50 173.59 C171.06,172.86 181.62,171.35 182.93,170.54 C183.52,170.18 187.72,169.29 192.25,168.57 C196.79,167.84 201.85,166.70 203.50,166.03 C205.75,165.11 207.21,165.08 209.34,165.91 C211.97,166.94 212.13,167.30 211.51,170.95 C210.95,174.27 211.17,175.09 212.92,176.18 C214.93,177.44 215.00,178.27 215.00,200.74 C215.00,215.58 214.64,224.00 214.00,224.00 C213.43,224.00 213.00,226.89 213.00,230.66 C213.00,236.41 212.57,237.99 209.90,242.16 C207.05,246.60 206.47,247.00 202.86,247.00 C200.70,247.00 197.26,247.71 195.22,248.57 C192.04,249.91 185.88,250.12 153.02,250.03 C131.86,249.97 113.57,249.68 112.38,249.38 C111.19,249.08 109.92,249.32 109.55,249.92 ZM 277.00 250.86 C267.75,253.28 260.20,253.98 256.96,252.70 C248.75,249.46 242.16,245.45 240.07,242.40 C237.76,239.03 237.74,238.72 237.23,201.24 C237.18,197.89 237.14,194.81 237.09,192.00 C236.75,169.76 236.65,163.61 239.61,161.20 C241.11,159.98 243.41,159.72 246.87,158.81 C262.00,154.81 288.15,157.65 290.86,163.59 C291.43,164.83 292.91,165.99 294.16,166.17 C295.70,166.39 296.71,167.48 297.29,169.52 C297.79,171.24 299.60,173.48 301.53,174.74 C304.01,176.37 305.08,177.95 305.58,180.73 C305.95,182.80 306.58,184.95 306.98,185.50 C308.15,187.15 309.86,195.00 310.89,203.50 C311.65,209.73 311.55,212.71 310.43,216.97 C309.64,219.98 309.00,223.58 309.00,224.97 C308.99,226.36 308.15,228.89 307.11,230.59 C304.34,235.13 293.46,245.73 290.80,246.48 C289.54,246.83 287.60,247.52 286.50,248.01 C285.40,248.50 281.12,249.78 277.00,250.86 ZM 247.73 141.87 C246.11,143.49 239.47,143.27 238.04,141.54 C237.13,140.45 236.93,132.18 237.24,108.29 C237.62,79.27 237.83,76.03 239.70,71.15 C241.44,66.58 242.36,65.52 245.98,63.90 C250.74,61.77 258.98,61.38 260.80,63.20 C261.46,63.86 264.61,64.46 267.81,64.55 C274.11,64.71 273.84,64.55 284.10,74.29 C288.97,78.92 289.76,80.21 290.22,84.23 C290.50,86.77 291.70,90.08 292.88,91.57 C294.59,93.75 294.99,95.54 294.88,100.54 C294.81,103.97 295.06,107.29 295.44,107.90 C295.82,108.52 295.20,110.20 294.06,111.64 C292.93,113.09 292.00,114.82 292.00,115.50 C292.00,116.18 291.06,117.92 289.92,119.38 C288.77,120.84 287.40,123.49 286.87,125.27 C285.71,129.17 278.00,135.34 271.54,137.54 C269.07,138.38 262.96,139.44 257.96,139.90 C252.95,140.36 248.35,141.25 247.73,141.87 ZM 177.35 155.00 C175.59,155.00 173.44,155.71 172.57,156.57 C171.71,157.44 171.00,157.67 171.00,157.10 C171.00,156.53 170.44,156.27 169.75,156.52 C169.06,156.77 167.88,156.59 167.13,156.11 C165.16,154.85 167.38,148.63 170.55,146.56 C171.91,145.67 173.01,143.96 173.03,142.73 C173.05,141.46 174.98,138.57 177.53,136.01 C179.99,133.55 182.00,131.07 182.01,130.51 C182.01,129.96 182.62,128.35 183.35,126.93 C184.09,125.52 184.99,123.19 185.35,121.75 C185.77,120.06 186.80,119.03 188.25,118.82 C189.92,118.58 190.59,117.72 190.83,115.50 C191.19,112.29 193.55,109.00 195.49,109.00 C196.14,109.00 198.44,105.57 200.59,101.38 C202.74,97.20 205.22,93.26 206.09,92.63 C206.97,92.01 208.27,90.38 208.99,89.00 C210.59,85.95 211.90,85.02 213.66,85.70 C214.74,86.11 215.00,91.83 215.00,114.87 L 215.00 143.53 L 212.36 145.50 C209.60,147.58 199.29,150.36 190.03,151.51 C187.02,151.89 183.65,152.83 182.55,153.60 C181.45,154.37 179.11,155.00 177.35,155.00 Z" fill="rgb(78,71,67)"/>
<path d="M 281.14 252.56 C269.80,254.96 251.84,253.86 244.42,250.30 C242.36,249.31 239.74,247.23 238.59,245.68 C236.55,242.92 236.50,241.88 236.50,200.70 L 236.50 158.55 L 251.50 155.73 C270.41,152.18 275.47,152.45 285.89,157.59 C293.90,161.53 303.46,170.12 306.60,176.19 C313.55,189.63 315.74,207.71 312.13,221.96 C307.64,239.71 298.31,248.92 281.14,252.56 ZM 277.00 250.86 C281.12,249.78 285.40,248.50 286.50,248.01 C287.60,247.52 289.54,246.83 290.80,246.48 C293.46,245.73 304.34,235.13 307.11,230.59 C308.15,228.89 308.99,226.36 309.00,224.97 C309.00,223.58 309.64,219.98 310.43,216.97 C311.55,212.71 311.65,209.73 310.89,203.50 C309.86,195.00 308.15,187.15 306.98,185.50 C306.58,184.95 305.95,182.80 305.58,180.73 C305.08,177.95 304.01,176.37 301.53,174.74 C299.60,173.48 297.79,171.24 297.29,169.52 C296.71,167.48 295.70,166.39 294.16,166.17 C292.91,165.99 291.43,164.83 290.86,163.59 C288.15,157.65 262.00,154.81 246.87,158.81 C243.41,159.72 241.11,159.98 239.61,161.20 C236.65,163.61 236.75,169.76 237.09,192.00 C237.14,194.81 237.18,197.89 237.23,201.24 C237.74,238.72 237.76,239.03 240.07,242.40 C242.16,245.45 248.75,249.46 256.96,252.70 C260.20,253.98 267.75,253.28 277.00,250.86 ZM 70.30 260.25 C66.10,256.60 66.73,251.27 71.90,246.59 C73.05,245.55 74.00,244.13 74.00,243.44 C74.00,242.75 76.03,239.70 78.50,236.66 C80.97,233.62 83.00,230.88 83.00,230.58 C83.00,229.49 91.71,216.48 93.34,215.13 C94.25,214.37 95.00,212.96 95.00,211.99 C95.00,211.02 96.12,209.49 97.50,208.59 C98.88,207.69 100.00,206.13 100.00,205.12 C100.00,204.12 101.09,202.11 102.43,200.67 C103.77,199.22 106.54,195.52 108.59,192.43 C110.64,189.34 112.92,186.58 113.66,186.30 C115.47,185.60 115.35,183.54 113.40,181.91 C112.05,180.79 111.30,180.87 108.65,182.41 C106.92,183.42 102.57,184.61 99.00,185.06 C95.43,185.51 88.00,186.84 82.50,188.01 C77.00,189.19 70.53,190.36 68.13,190.61 C65.72,190.86 62.90,191.52 61.87,192.07 C60.36,192.88 59.49,192.55 57.52,190.43 C54.40,187.06 53.65,184.66 54.43,180.51 C55.25,176.14 57.42,174.51 62.42,174.47 C64.69,174.46 68.22,173.65 70.27,172.68 C72.68,171.53 77.02,170.79 82.56,170.59 C87.28,170.41 91.64,169.76 92.27,169.13 C92.89,168.51 94.56,168.00 95.97,168.00 C97.38,168.00 101.68,167.15 105.52,166.11 C109.36,165.07 115.65,163.65 119.50,162.94 C127.01,161.56 132.00,159.56 132.00,157.95 C132.00,157.40 133.57,154.66 135.50,151.86 C137.43,149.07 139.00,146.25 139.00,145.61 C139.00,144.97 139.79,143.71 140.75,142.82 C144.06,139.76 157.99,119.24 158.00,117.44 C158.00,116.85 158.79,115.49 159.75,114.40 C164.64,108.90 169.71,102.30 170.32,100.65 C170.70,99.63 175.78,91.63 181.60,82.86 C187.74,73.60 191.94,66.30 191.62,65.45 C190.94,63.69 187.04,63.57 183.44,65.21 C181.19,66.24 180.59,66.16 179.54,64.73 C178.86,63.79 178.10,63.23 177.85,63.48 C177.25,64.09 146.05,65.47 138.50,65.23 C114.71,64.47 114.48,64.48 111.62,66.72 C109.96,68.04 106.68,69.13 103.20,69.54 C97.17,70.26 89.48,74.30 86.17,78.51 C85.19,79.76 83.53,80.94 82.48,81.15 C81.27,81.38 80.34,82.68 79.92,84.75 C79.55,86.53 78.66,88.71 77.93,89.58 C77.17,90.50 76.72,93.01 76.87,95.50 C77.18,100.45 75.68,101.90 70.98,101.21 C67.37,100.68 66.58,98.49 67.47,91.40 C67.91,87.89 68.78,85.57 69.96,84.74 C71.44,83.71 71.75,82.22 71.64,76.89 C71.56,73.23 72.01,69.68 72.64,68.90 C73.27,68.13 74.05,65.56 74.37,63.19 C74.69,60.82 75.87,56.83 76.98,54.32 C78.09,51.80 79.00,48.99 79.00,48.07 C79.00,45.91 80.93,44.00 83.12,44.00 C84.72,44.00 85.81,45.12 90.95,52.00 L 92.82 54.50 L 139.38 54.60 C175.47,54.68 186.28,54.99 187.47,55.97 C188.40,56.75 189.00,56.84 189.00,56.19 C189.00,54.35 193.22,53.66 203.50,53.85 C213.44,54.02 230.78,55.71 233.60,56.69 C164.50,56.92 97.12,56.78 93.81,56.36 C88.07,55.62 84.80,52.90 85.43,49.39 C85.82,47.28 85.54,46.93 83.76,47.19 C81.86,47.47 80.96,50.14 75.34,72.38 C71.87,86.06 69.28,97.65 69.58,98.13 C70.86,100.19 72.26,98.45 76.52,89.51 C85.72,70.21 92.85,66.23 122.00,64.13 C130.10,63.55 194.80,62.59 196.28,63.03 C197.80,63.49 197.24,64.78 192.34,72.03 C189.20,76.69 174.67,98.30 160.06,120.05 C145.45,141.80 132.60,160.80 131.50,162.27 C129.58,164.82 128.03,165.19 94.50,171.01 C75.25,174.35 58.69,177.32 57.71,177.62 C56.63,177.95 56.10,178.82 56.37,179.83 C56.62,180.75 57.11,183.19 57.46,185.25 C57.91,187.93 58.59,189.00 59.86,189.00 C60.83,189.00 73.30,186.98 87.56,184.50 C101.83,182.03 115.01,179.75 116.85,179.44 C119.44,179.00 120.02,179.17 119.42,180.19 C119.00,180.91 109.57,195.00 98.46,211.50 C87.36,228.00 76.22,244.58 73.70,248.34 C71.19,252.10 69.35,255.76 69.63,256.47 C70.02,257.49 82.49,257.92 129.81,258.52 C162.64,258.94 201.65,259.06 216.50,258.79 C231.35,258.51 248.45,258.60 254.50,258.97 C271.17,260.01 273.90,260.02 281.66,259.01 C305.62,255.89 325.40,240.72 332.67,219.87 C342.47,191.79 332.12,164.34 307.23,152.39 C302.77,150.25 299.09,148.27 299.06,147.99 C299.03,147.71 315.54,144.63 335.75,141.14 C355.96,137.64 372.81,134.50 373.18,134.14 C373.86,133.50 372.43,124.09 371.50,123.17 C371.23,122.90 355.14,125.46 335.75,128.86 C316.36,132.26 300.10,135.04 299.60,135.02 C299.11,135.01 300.94,132.64 303.67,129.75 C310.12,122.92 313.54,116.97 315.59,108.98 C317.53,101.41 317.07,90.14 314.53,82.90 C311.91,75.44 304.52,67.19 296.65,62.93 C287.15,57.80 280.20,56.49 263.00,56.57 C256.85,56.60 250.64,56.63 244.41,56.65 C245.40,56.45 246.00,56.23 246.00,56.02 C246.00,55.17 250.89,53.53 252.38,53.88 C252.87,54.00 259.85,54.25 267.88,54.44 C275.92,54.63 284.30,55.24 286.50,55.79 C288.70,56.35 291.66,57.06 293.07,57.37 C294.48,57.69 297.25,59.42 299.21,61.22 C301.17,63.03 304.85,66.22 307.39,68.32 C309.92,70.42 312.29,73.30 312.64,74.71 C313.00,76.13 314.04,78.04 314.95,78.95 C317.23,81.23 320.40,95.15 319.56,99.24 C319.20,101.03 318.52,104.97 318.07,108.00 C317.18,113.83 315.48,119.84 314.25,121.50 C313.84,122.05 312.60,123.00 311.50,123.61 C309.31,124.82 308.32,127.73 309.66,129.05 C310.12,129.50 313.65,129.42 317.50,128.86 C321.35,128.29 328.25,127.65 332.82,127.43 C339.23,127.12 341.74,126.57 343.71,125.01 C345.61,123.52 347.77,123.00 352.12,123.00 C355.34,123.00 360.12,122.19 362.74,121.20 C368.56,118.99 371.43,119.58 374.01,123.50 C376.44,127.18 376.49,129.22 374.29,134.20 C372.47,138.34 372.03,138.53 362.50,139.46 C345.38,141.12 338.05,142.21 336.19,143.38 C335.46,143.83 330.74,144.56 325.69,145.00 C315.59,145.88 311.15,146.76 309.25,148.26 C306.87,150.14 308.02,151.85 312.75,153.46 C318.32,155.35 321.85,158.16 324.76,163.00 C325.92,164.93 328.47,168.05 330.43,169.95 C332.88,172.31 334.00,174.29 334.00,176.23 C334.00,177.79 334.68,180.11 335.51,181.38 C336.57,182.99 337.04,186.48 337.09,193.06 C337.13,198.22 337.64,203.33 338.23,204.42 C338.99,205.85 338.97,206.51 338.14,206.79 C337.51,207.00 336.99,209.25 336.97,211.83 C336.95,214.40 336.28,217.37 335.47,218.44 C334.66,219.51 334.00,221.61 334.00,223.11 C334.00,224.89 332.44,227.66 329.50,231.11 C327.02,234.01 325.00,237.16 325.00,238.11 C325.00,239.06 322.29,242.25 318.98,245.20 C312.98,250.55 308.52,253.22 300.00,256.59 C297.52,257.57 294.82,258.94 294.00,259.62 C292.96,260.47 288.10,260.89 278.50,260.93 C270.80,260.97 263.04,261.28 261.25,261.61 C259.21,262.00 256.77,261.64 254.72,260.67 C252.06,259.41 248.74,259.21 236.97,259.61 C222.01,260.12 210.30,260.09 130.08,259.36 C89.26,258.99 82.04,259.14 78.16,260.46 L 77.83 260.58 C74.64,261.66 73.43,262.07 72.44,261.77 C71.79,261.57 71.24,261.07 70.30,260.25 ZM 109.55 249.92 C109.92,249.32 111.19,249.08 112.38,249.38 C113.57,249.68 131.86,249.97 153.02,250.03 C185.88,250.12 192.04,249.91 195.22,248.57 C197.26,247.71 200.70,247.00 202.86,247.00 C206.47,247.00 207.05,246.60 209.90,242.16 C212.57,237.99 213.00,236.41 213.00,230.66 C213.00,226.89 213.43,224.00 214.00,224.00 C214.20,224.00 214.37,223.17 214.52,221.56 C214.28,233.82 213.96,242.47 213.68,243.05 C212.72,245.06 208.30,247.65 202.28,249.73 C198.14,251.17 190.81,251.44 147.62,251.75 C103.53,252.06 97.81,251.93 98.32,250.60 C99.96,246.34 148.66,174.66 150.43,173.92 C152.87,172.88 209.33,163.00 212.78,163.00 L 215.14 163.00 L 214.93 185.99 C214.79,177.75 214.34,177.07 212.92,176.18 C211.17,175.09 210.95,174.27 211.51,170.95 C212.13,167.30 211.97,166.94 209.34,165.91 C207.21,165.08 205.75,165.11 203.50,166.03 C201.85,166.70 196.79,167.84 192.25,168.57 C187.72,169.29 183.52,170.18 182.93,170.54 C181.62,171.35 171.06,172.86 161.50,173.59 L 154.50 174.13 L 147.79 181.32 C143.64,185.75 140.49,190.17 139.56,192.87 C138.72,195.27 136.01,199.62 133.52,202.53 C131.03,205.44 129.00,208.31 129.00,208.91 C129.00,209.51 128.58,210.00 128.07,210.00 C127.55,210.00 126.83,211.01 126.47,212.25 C126.10,213.49 124.57,216.07 123.07,218.00 C121.57,219.93 119.87,222.85 119.29,224.50 C118.70,226.15 116.13,229.75 113.58,232.50 C111.02,235.25 108.66,238.62 108.34,240.00 C108.01,241.38 106.62,243.71 105.24,245.19 C103.77,246.78 102.99,248.52 103.34,249.44 C104.02,251.21 108.54,251.56 109.55,249.92 ZM 247.73 141.87 C248.35,141.25 252.95,140.36 257.96,139.90 C262.96,139.44 269.07,138.38 271.54,137.54 C278.00,135.34 285.71,129.17 286.87,125.27 C287.40,123.49 288.77,120.84 289.92,119.38 C291.06,117.92 292.00,116.18 292.00,115.50 C292.00,114.82 292.93,113.09 294.06,111.64 C294.70,110.84 295.17,109.96 295.40,109.23 C294.63,114.69 293.12,119.84 290.93,124.13 C288.66,128.59 281.73,136.54 278.72,138.15 C277.68,138.71 269.34,140.48 260.19,142.08 C251.05,143.69 241.86,145.00 239.78,145.00 L 236.00 145.00 L 236.00 108.25 C236.00,67.04 236.13,66.18 243.00,62.75 C248.10,60.20 263.65,60.34 272.30,63.01 C283.82,66.57 292.54,76.89 294.98,89.89 C296.11,95.86 296.27,102.19 295.54,108.18 C295.52,108.07 295.49,107.98 295.44,107.90 C295.06,107.29 294.81,103.97 294.88,100.54 C294.99,95.54 294.59,93.75 292.88,91.57 C291.70,90.08 290.50,86.77 290.22,84.23 C289.76,80.21 288.97,78.92 284.10,74.29 C273.84,64.55 274.11,64.71 267.81,64.55 C264.61,64.46 261.46,63.86 260.80,63.20 C258.98,61.38 250.74,61.77 245.98,63.90 C242.36,65.52 241.44,66.58 239.70,71.15 C237.83,76.03 237.62,79.27 237.24,108.29 C236.93,132.18 237.13,140.45 238.04,141.54 C239.47,143.27 246.11,143.49 247.73,141.87 ZM 177.35 155.00 C179.11,155.00 181.45,154.37 182.55,153.60 C183.65,152.83 187.02,151.89 190.03,151.51 C199.29,150.36 209.60,147.58 212.36,145.50 L 215.00 143.53 L 215.00 149.84 L 212.25 150.39 C210.74,150.69 198.93,152.77 186.00,155.02 C173.07,157.27 161.71,159.34 160.75,159.62 C159.79,159.90 159.00,159.82 159.00,159.43 C159.00,157.79 213.37,77.11 214.15,77.59 C214.49,77.80 214.79,86.66 214.92,99.15 C214.78,89.01 214.43,86.00 213.66,85.70 C211.90,85.02 210.59,85.95 208.99,89.00 C208.27,90.38 206.97,92.01 206.09,92.63 C205.22,93.26 202.74,97.20 200.59,101.38 C198.44,105.57 196.14,109.00 195.49,109.00 C193.55,109.00 191.19,112.29 190.83,115.50 C190.59,117.72 189.92,118.58 188.25,118.82 C186.80,119.03 185.77,120.06 185.35,121.75 C184.99,123.19 184.09,125.52 183.35,126.93 C182.62,128.35 182.01,129.96 182.01,130.51 C182.00,131.07 179.99,133.55 177.53,136.01 C174.98,138.57 173.05,141.46 173.03,142.73 C173.01,143.96 171.91,145.67 170.55,146.56 C167.38,148.63 165.16,154.85 167.13,156.11 C167.88,156.59 169.06,156.77 169.75,156.52 C170.44,156.27 171.00,156.53 171.00,157.10 C171.00,157.67 171.71,157.44 172.57,156.57 C173.44,155.71 175.59,155.00 177.35,155.00 ZM 215.00 111.31 C215.00,112.20 215.00,113.08 215.00,113.98 C215.00,113.06 215.00,112.18 215.00,111.31 Z" fill="rgb(83,72,61)"/>
<path d="M 254.50 258.97 C248.45,258.60 231.35,258.51 216.50,258.79 C201.65,259.06 162.64,258.94 129.81,258.52 C82.49,257.92 70.02,257.49 69.63,256.47 C69.35,255.76 71.19,252.10 73.70,248.34 C76.22,244.58 87.36,228.00 98.46,211.50 C109.57,195.00 119.00,180.91 119.42,180.19 C120.02,179.17 119.44,179.00 116.85,179.44 C115.01,179.75 101.83,182.03 87.56,184.50 C73.30,186.98 60.83,189.00 59.86,189.00 C58.59,189.00 57.91,187.93 57.46,185.25 C57.11,183.19 56.62,180.75 56.37,179.83 C56.10,178.82 56.63,177.95 57.71,177.62 C58.69,177.32 75.25,174.35 94.50,171.01 C128.03,165.19 129.58,164.82 131.50,162.27 C132.60,160.80 145.45,141.80 160.06,120.05 C174.67,98.30 189.20,76.69 192.34,72.03 C197.24,64.78 197.80,63.49 196.28,63.03 C194.80,62.59 130.10,63.55 122.00,64.13 C92.85,66.23 85.72,70.21 76.52,89.51 C72.26,98.45 70.86,100.19 69.58,98.13 C69.28,97.65 71.87,86.06 75.34,72.38 C80.96,50.14 81.86,47.47 83.76,47.19 C85.54,46.93 85.82,47.28 85.43,49.39 C84.80,52.90 88.07,55.62 93.81,56.36 C97.59,56.84 184.95,56.95 263.00,56.57 C280.20,56.49 287.15,57.80 296.65,62.93 C304.52,67.19 311.91,75.44 314.53,82.90 C317.07,90.14 317.53,101.41 315.59,108.98 C313.54,116.97 310.12,122.92 303.67,129.75 C300.94,132.64 299.11,135.01 299.60,135.02 C300.10,135.04 316.36,132.26 335.75,128.86 C355.14,125.46 371.23,122.90 371.50,123.17 C372.43,124.09 373.86,133.50 373.18,134.14 C372.81,134.50 355.96,137.64 335.75,141.14 C315.54,144.63 299.03,147.71 299.06,147.99 C299.09,148.27 302.77,150.25 307.23,152.39 C332.12,164.34 342.47,191.79 332.67,219.87 C325.40,240.72 305.62,255.89 281.66,259.01 C273.90,260.02 271.17,260.01 254.50,258.97 ZM 281.14 252.56 C298.31,248.92 307.64,239.71 312.13,221.96 C315.74,207.71 313.55,189.63 306.60,176.19 C303.46,170.12 293.90,161.53 285.89,157.59 C275.47,152.45 270.41,152.18 251.50,155.73 L 236.50 158.55 L 236.50 200.70 C236.50,241.88 236.55,242.92 238.59,245.68 C239.74,247.23 242.36,249.31 244.42,250.30 C251.84,253.86 269.80,254.96 281.14,252.56 ZM 202.28 249.73 C208.30,247.65 212.72,245.06 213.68,243.05 C214.09,242.20 214.59,223.84 214.79,202.25 L 215.14 163.00 L 212.78 163.00 C209.33,163.00 152.87,172.88 150.43,173.92 C148.66,174.66 99.96,246.34 98.32,250.60 C97.81,251.93 103.53,252.06 147.62,251.75 C190.81,251.44 198.14,251.17 202.28,249.73 ZM 186.00 155.02 C198.93,152.77 210.74,150.69 212.25,150.39 L 215.00 149.84 L 215.00 113.98 C215.00,94.26 214.62,77.88 214.15,77.59 C213.37,77.11 159.00,157.79 159.00,159.43 C159.00,159.82 159.79,159.90 160.75,159.62 C161.71,159.34 173.07,157.27 186.00,155.02 ZM 260.19 142.08 C269.34,140.48 277.68,138.71 278.72,138.15 C281.73,136.54 288.66,128.59 290.93,124.13 C295.65,114.89 297.21,101.69 294.98,89.89 C292.54,76.89 283.82,66.57 272.30,63.01 C263.65,60.34 248.10,60.20 243.00,62.75 C236.13,66.18 236.00,67.04 236.00,108.25 L 236.00 145.00 L 239.78 145.00 C241.86,145.00 251.05,143.69 260.19,142.08 Z" fill="rgb(211,183,134)"/>
</g>
</svg>